<svg width="269" height="64" viewBox="0 0 269 64" fill="none" xmlns="http://www.w3.org/2000/svg">
<rect width="269" height="64" fill="white"/>
<path d="M1.66759 26V6.81332H14.3994V10.1579H5.72415V13.9053H8.84386C10.3616 13.9053 11.67 14.152 12.7693 14.6454C13.8747 15.1325 14.7273 15.8227 15.3269 16.7158C15.9264 17.609 16.2262 18.6613 16.2262 19.873C16.2262 21.0784 15.9264 22.1433 15.3269 23.0677C14.7273 23.9858 13.8747 24.704 12.7693 25.2224C11.67 25.7408 10.3616 26 8.84386 26H1.66759ZM5.72415 22.7398H8.84386C9.56836 22.7398 10.1804 22.6086 10.6801 22.3463C11.1797 22.0777 11.5576 21.7248 11.8137 21.2876C12.076 20.8442 12.2071 20.3602 12.2071 19.8355C12.2071 19.0736 11.9167 18.4303 11.3359 17.9056C10.7613 17.3747 9.9306 17.1093 8.84386 17.1093H5.72415V22.7398ZM18.7393 26V23.077L25.569 16.7533C26.1498 16.1912 26.637 15.6853 27.0304 15.2356C27.4302 14.7859 27.7331 14.3456 27.9392 13.9146C28.1453 13.4774 28.2484 13.0059 28.2484 12.5C28.2484 11.9379 28.1203 11.4539 27.8642 11.0479C27.6082 10.6357 27.2584 10.3203 26.815 10.1017C26.3715 9.87682 25.8688 9.7644 25.3066 9.7644C24.7196 9.7644 24.2074 9.88307 23.7702 10.1204C23.333 10.3577 22.9957 10.6981 22.7584 11.1416C22.5211 11.585 22.4024 12.1128 22.4024 12.7248H18.552C18.552 11.4695 18.8361 10.3796 19.4045 9.45524C19.9728 8.53088 20.7692 7.81575 21.7935 7.30985C22.8177 6.80395 23.9982 6.55101 25.3348 6.55101C26.7088 6.55101 27.9048 6.79459 28.9229 7.28175C29.9472 7.76266 30.7435 8.43095 31.3118 9.28661C31.8802 10.1423 32.1644 11.1228 32.1644 12.2283C32.1644 12.9528 32.0207 13.6679 31.7334 14.3737C31.4524 15.0795 30.9496 15.8633 30.2251 16.7252C29.5006 17.5808 28.4794 18.6083 27.1616 19.8074L24.3604 22.5524V22.6836H32.4173V26H18.7393ZM35.3567 26V23.077L42.1863 16.7533C42.7672 16.1912 43.2543 15.6853 43.6478 15.2356C44.0475 14.7859 44.3505 14.3456 44.5566 13.9146C44.7627 13.4774 44.8657 13.0059 44.8657 12.5C44.8657 11.9379 44.7377 11.4539 44.4816 11.0479C44.2255 10.6357 43.8758 10.3203 43.4323 10.1017C42.9889 9.87682 42.4861 9.7644 41.924 9.7644C41.3369 9.7644 40.8248 9.88307 40.3876 10.1204C39.9504 10.3577 39.6131 10.6981 39.3758 11.1416C39.1384 11.585 39.0198 12.1128 39.0198 12.7248H35.1693C35.1693 11.4695 35.4535 10.3796 36.0219 9.45524C36.5902 8.53088 37.3865 7.81575 38.4108 7.30985C39.4351 6.80395 40.6155 6.55101 41.9521 6.55101C43.3262 6.55101 44.5222 6.79459 45.5403 7.28175C46.5645 7.76266 47.3609 8.43095 47.9292 9.28661C48.4976 10.1423 48.7818 11.1228 48.7818 12.2283C48.7818 12.9528 48.6381 13.6679 48.3508 14.3737C48.0697 15.0795 47.567 15.8633 46.8425 16.7252C46.118 17.5808 45.0968 18.6083 43.779 19.8074L40.9778 22.5524V22.6836H49.0347V26H35.3567ZM51.0466 30.628V22.7679H52.3488C52.7922 22.4493 53.1982 21.9997 53.5667 21.4188C53.9352 20.8317 54.2506 20.0229 54.5129 18.9924C54.7752 17.9556 54.9626 16.6003 55.075 14.9264L55.6184 6.81332H68.3127V22.7679H70.4113V30.6093H66.514V26H54.9439V30.628H51.0466ZM57.033 22.7679H64.4154V10.1579H59.2721L58.9723 14.9264C58.8911 16.1943 58.7569 17.3185 58.5695 18.2991C58.3884 19.2797 58.1666 20.1384 57.9043 20.8754C57.6482 21.6062 57.3578 22.237 57.033 22.7679ZM79.857 26.2623C78.458 26.2623 77.212 26.0219 76.119 25.5409C75.0323 25.0538 74.1735 24.3855 73.5427 23.5361C72.9181 22.6804 72.5965 21.6936 72.5777 20.5756H76.6624C76.6874 21.0441 76.8404 21.4563 77.1214 21.8123C77.4087 22.162 77.7897 22.4337 78.2644 22.6273C78.7391 22.821 79.2731 22.9178 79.8664 22.9178C80.4847 22.9178 81.0312 22.8085 81.5059 22.5899C81.9806 22.3713 82.3522 22.0684 82.6207 21.6811C82.8893 21.2939 83.0236 20.8473 83.0236 20.3414C83.0236 19.8293 82.8799 19.3765 82.5926 18.983C82.3116 18.5833 81.9056 18.271 81.3747 18.0461C80.8501 17.8213 80.2255 17.7089 79.501 17.7089H77.7117V14.7297H79.501C80.1131 14.7297 80.6534 14.6235 81.1218 14.4112C81.5965 14.1988 81.965 13.9053 82.2273 13.5305C82.4896 13.1495 82.6207 12.7061 82.6207 12.2002C82.6207 11.7193 82.5052 11.2977 82.2741 10.9355C82.0493 10.567 81.7307 10.2797 81.3185 10.0736C80.9126 9.86745 80.4379 9.7644 79.8945 9.7644C79.3449 9.7644 78.8421 9.86433 78.3862 10.0642C77.9303 10.2578 77.5649 10.5357 77.2901 10.898C77.0153 11.2602 76.8685 11.6849 76.8498 12.1721H72.9618C72.9806 11.0666 73.296 10.0923 73.908 9.24913C74.5201 8.40597 75.3446 7.74705 76.3813 7.27238C77.4244 6.79146 78.6017 6.55101 79.9133 6.55101C81.2373 6.55101 82.3959 6.79146 83.389 7.27238C84.382 7.7533 85.1534 8.40284 85.703 9.22103C86.2588 10.033 86.5337 10.9448 86.5274 11.9566C86.5337 13.0309 86.1995 13.9271 85.525 14.6454C84.8567 15.3636 83.9854 15.8196 82.9112 16.0132V16.1631C84.3227 16.3442 85.3969 16.8345 86.1339 17.6339C86.8772 18.4271 87.2457 19.4202 87.2394 20.6131C87.2457 21.7061 86.9303 22.6773 86.2932 23.5267C85.6624 24.3761 84.7911 25.0444 83.6794 25.5316C82.5677 26.0187 81.2935 26.2623 79.857 26.2623ZM97.6783 26.4216C96.0669 26.4153 94.6803 26.0187 93.5186 25.2318C92.3632 24.4448 91.4732 23.305 90.8486 21.8123C90.2303 20.3196 89.9243 18.5239 89.9305 16.4254C89.9305 14.3331 90.2397 12.55 90.858 11.076C91.4826 9.60201 92.3726 8.48092 93.528 7.7127C94.6897 6.93824 96.0731 6.55101 97.6783 6.55101C99.2834 6.55101 100.664 6.93824 101.819 7.7127C102.981 8.48716 103.874 9.61138 104.499 11.0854C105.123 12.5531 105.432 14.3331 105.426 16.4254C105.426 18.5302 105.114 20.3289 104.489 21.8217C103.871 23.3144 102.984 24.4542 101.829 25.2412C100.673 26.0281 99.2896 26.4216 97.6783 26.4216ZM97.6783 23.0583C98.7775 23.0583 99.655 22.5056 100.311 21.4001C100.967 20.2946 101.291 18.6364 101.285 16.4254C101.285 14.9702 101.135 13.7585 100.835 12.7904C100.542 11.8223 100.123 11.0947 99.5801 10.6076C99.0429 10.1204 98.409 9.87682 97.6783 9.87682C96.5853 9.87682 95.7109 10.4233 95.0551 11.5163C94.3993 12.6093 94.0683 14.2457 94.062 16.4254C94.062 17.8994 94.2088 19.1298 94.5023 20.1166C94.8021 21.0972 95.2237 21.8341 95.7671 22.3276C96.3105 22.8147 96.9475 23.0583 97.6783 23.0583ZM115.476 26.2623C114.033 26.2623 112.75 26.0281 111.626 25.5597C110.508 25.085 109.63 24.4386 108.993 23.6204C108.356 22.8022 108.037 21.8747 108.037 20.838C108.037 20.0385 108.219 19.3046 108.581 18.6364C108.949 17.9618 109.449 17.4028 110.08 16.9594C110.711 16.5097 111.416 16.2224 112.197 16.0975V15.9663C111.173 15.7602 110.342 15.2637 109.705 14.4768C109.068 13.6836 108.749 12.7623 108.749 11.713C108.749 10.72 109.04 9.83622 109.621 9.06176C110.202 8.28105 110.998 7.66898 112.01 7.22554C113.028 6.77585 114.183 6.55101 115.476 6.55101C116.769 6.55101 117.921 6.77585 118.933 7.22554C119.951 7.67522 120.751 8.29042 121.331 9.07113C121.912 9.84559 122.206 10.7262 122.212 11.713C122.206 12.7686 121.881 13.6898 121.238 14.4768C120.594 15.2637 119.77 15.7602 118.764 15.9663V16.0975C119.533 16.2224 120.229 16.5097 120.854 16.9594C121.484 17.4028 121.984 17.9618 122.353 18.6364C122.727 19.3046 122.918 20.0385 122.924 20.838C122.918 21.8747 122.596 22.8022 121.959 23.6204C121.322 24.4386 120.441 25.085 119.317 25.5597C118.199 26.0281 116.919 26.2623 115.476 26.2623ZM115.476 23.2831C116.119 23.2831 116.681 23.1676 117.162 22.9365C117.643 22.6992 118.018 22.3744 118.287 21.9622C118.561 21.5437 118.699 21.0628 118.699 20.5194C118.699 19.9636 118.558 19.4733 118.277 19.0486C117.996 18.6176 117.615 18.2804 117.134 18.0368C116.653 17.787 116.101 17.662 115.476 17.662C114.858 17.662 114.305 17.787 113.818 18.0368C113.331 18.2804 112.947 18.6176 112.666 19.0486C112.391 19.4733 112.253 19.9636 112.253 20.5194C112.253 21.0628 112.388 21.5437 112.656 21.9622C112.925 22.3744 113.303 22.6992 113.79 22.9365C114.277 23.1676 114.839 23.2831 115.476 23.2831ZM115.476 14.711C116.013 14.711 116.491 14.6017 116.909 14.3831C117.328 14.1645 117.656 13.8616 117.893 13.4743C118.13 13.0871 118.249 12.6405 118.249 12.1346C118.249 11.635 118.13 11.1978 117.893 10.823C117.656 10.4421 117.331 10.1454 116.919 9.93303C116.507 9.71443 116.026 9.60513 115.476 9.60513C114.933 9.60513 114.452 9.71443 114.033 9.93303C113.615 10.1454 113.287 10.4421 113.05 10.823C112.819 11.1978 112.703 11.635 112.703 12.1346C112.703 12.6405 112.822 13.0871 113.059 13.4743C113.296 13.8616 113.624 14.1645 114.043 14.3831C114.461 14.6017 114.939 14.711 115.476 14.711ZM18.5965 45.5305H14.4931C14.4181 44.9997 14.2651 44.5281 14.034 44.1159C13.8029 43.6974 13.5062 43.3414 13.144 43.0479C12.7817 42.7543 12.3633 42.5295 11.8886 42.3734C11.4202 42.2172 10.9112 42.1391 10.3616 42.1391C9.36849 42.1391 8.50347 42.3858 7.76648 42.8792C7.02949 43.3664 6.45802 44.0784 6.05205 45.0153C5.64608 45.9459 5.4431 47.0763 5.4431 48.4067C5.4431 49.7745 5.64608 50.9237 6.05205 51.8543C6.46426 52.7849 7.03886 53.4875 7.77585 53.9622C8.51284 54.4368 9.36537 54.6742 10.3334 54.6742C10.8768 54.6742 11.3796 54.6024 11.8418 54.4587C12.3102 54.3151 12.7255 54.1058 13.0878 53.831C13.45 53.55 13.7498 53.2096 13.9872 52.8099C14.2307 52.4101 14.3994 51.9542 14.4931 51.4421L18.5965 51.4608C18.4903 52.3414 18.2248 53.1908 17.8001 54.009C17.3817 54.821 16.8164 55.5486 16.1044 56.1919C15.3987 56.8289 14.5555 57.3348 13.5749 57.7096C12.6006 58.0781 11.4983 58.2623 10.2679 58.2623C8.55656 58.2623 7.02637 57.8751 5.67731 57.1006C4.33449 56.3262 3.27273 55.2051 2.49202 53.7373C1.71756 52.2696 1.33033 50.4927 1.33033 48.4067C1.33033 46.3144 1.7238 44.5344 2.51076 43.0666C3.29771 41.5989 4.36572 40.4809 5.71478 39.7127C7.06384 38.9382 8.58154 38.551 10.2679 38.551C11.3796 38.551 12.4101 38.7071 13.3595 39.0194C14.3151 39.3317 15.1613 39.7876 15.8983 40.3872C16.6353 40.9806 17.2349 41.7082 17.6971 42.5701C18.1655 43.432 18.4653 44.4188 18.5965 45.5305ZM21.4304 58V43.61H27.5668C29.3406 43.61 30.7427 43.9473 31.7732 44.6218C32.8038 45.2963 33.319 46.255 33.319 47.4979C33.319 48.2786 33.0286 48.9282 32.4478 49.4466C31.8669 49.965 31.0612 50.3147 30.0307 50.4958C30.8926 50.5583 31.6265 50.755 32.2323 51.0861C32.8444 51.4108 33.3097 51.8324 33.6282 52.3508C33.953 52.8692 34.1154 53.4438 34.1154 54.0746C34.1154 54.8928 33.8968 55.5954 33.4596 56.1825C33.0286 56.7696 32.3947 57.2193 31.5578 57.5316C30.7271 57.8439 29.7122 58 28.513 58H21.4304ZM25.1497 55.0115H28.513C29.0689 55.0115 29.5029 54.8803 29.8152 54.618C30.1338 54.3494 30.293 53.984 30.293 53.5219C30.293 53.0097 30.1338 52.6069 29.8152 52.3133C29.5029 52.0198 29.0689 51.873 28.513 51.873H25.1497V55.0115ZM25.1497 49.5309H27.6511C28.0508 49.5309 28.3912 49.4747 28.6723 49.3622C28.9596 49.2436 29.1782 49.0749 29.3281 48.8563C29.4842 48.6378 29.5623 48.3786 29.5623 48.0788C29.5623 47.6353 29.3843 47.2887 29.0283 47.0389C28.6723 46.789 28.1851 46.6641 27.5668 46.6641H25.1497V49.5309ZM40.4438 52.7349L45.6246 43.61H49.5593V58H45.7557V48.847L40.5937 58H36.6308V43.61H40.4438V52.7349ZM51.6345 62.2158V54.8334H52.7399C53.0585 54.6336 53.3145 54.3151 53.5082 53.8779C53.708 53.4407 53.8704 52.9254 53.9953 52.3321C54.1265 51.7387 54.2264 51.0985 54.2951 50.4115C54.3701 49.7183 54.4356 49.0187 54.4918 48.313L54.8666 43.61H65.9027V54.8334H68.1324V62.2158H64.3288V58H55.5317V62.2158H51.6345ZM56.7122 54.8334H62.1365V46.6829H58.258L58.1081 48.313C58.0019 49.8494 57.8489 51.1548 57.649 52.229C57.4492 53.297 57.1369 54.1652 56.7122 54.8334ZM72.922 63.3963C72.4161 63.3963 71.9414 63.3557 71.498 63.2745C71.0608 63.1995 70.6986 63.1027 70.4113 62.984L71.3106 60.0049C71.7791 60.1485 72.2006 60.2266 72.5754 60.2391C72.9564 60.2516 73.2843 60.1641 73.5591 59.9768C73.8401 59.7894 74.0681 59.4709 74.243 59.0212L74.4772 58.4122L69.3151 43.61H73.5122L76.4914 54.1777H76.6413L79.6486 43.61H83.8738L78.2808 59.5552C78.0122 60.3296 77.6469 61.0042 77.1847 61.5788C76.7287 62.1596 76.151 62.6062 75.4515 62.9185C74.752 63.237 73.9088 63.3963 72.922 63.3963ZM95.931 49.2124V52.3508H88.4175V49.2124H95.931ZM89.7291 43.61V58H85.9161V43.61H89.7291ZM98.4324 43.61V58H94.6476V43.61H98.4324ZM108.03 58.2811C106.575 58.2811 105.317 57.9719 104.255 57.3536C103.199 56.729 102.384 55.8609 101.81 54.7491C101.235 53.6312 100.948 52.3352 100.948 50.8612C100.948 49.3747 101.235 48.0756 101.81 46.9639C102.384 45.8459 103.199 44.9778 104.255 44.3595C105.317 43.7349 106.575 43.4226 108.03 43.4226C109.486 43.4226 110.741 43.7349 111.797 44.3595C112.858 44.9778 113.677 45.8459 114.251 46.9639C114.826 48.0756 115.113 49.3747 115.113 50.8612C115.113 52.3352 114.826 53.6312 114.251 54.7491C113.677 55.8609 112.858 56.729 111.797 57.3536C110.741 57.9719 109.486 58.2811 108.03 58.2811ZM108.049 55.1895C108.711 55.1895 109.264 55.0021 109.707 54.6273C110.151 54.2464 110.485 53.728 110.71 53.0722C110.941 52.4164 111.056 51.67 111.056 50.8331C111.056 49.9962 110.941 49.2498 110.71 48.594C110.485 47.9382 110.151 47.4198 109.707 47.0389C109.264 46.6579 108.711 46.4674 108.049 46.4674C107.381 46.4674 106.819 46.6579 106.363 47.0389C105.913 47.4198 105.573 47.9382 105.342 48.594C105.117 49.2498 105.004 49.9962 105.004 50.8331C105.004 51.67 105.117 52.4164 105.342 53.0722C105.573 53.728 105.913 54.2464 106.363 54.6273C106.819 55.0021 107.381 55.1895 108.049 55.1895ZM117.708 58V43.61H123.844C125.618 43.61 127.02 43.9473 128.051 44.6218C129.081 45.2963 129.597 46.255 129.597 47.4979C129.597 48.2786 129.306 48.9282 128.725 49.4466C128.145 49.965 127.339 50.3147 126.308 50.4958C127.17 50.5583 127.904 50.755 128.51 51.0861C129.122 51.4108 129.587 51.8324 129.906 52.3508C130.231 52.8692 130.393 53.4438 130.393 54.0746C130.393 54.8928 130.174 55.5954 129.737 56.1825C129.306 56.7696 128.672 57.2193 127.835 57.5316C127.005 57.8439 125.99 58 124.791 58H117.708ZM121.427 55.0115H124.791C125.347 55.0115 125.781 54.8803 126.093 54.618C126.411 54.3494 126.571 53.984 126.571 53.5219C126.571 53.0097 126.411 52.6069 126.093 52.3133C125.781 52.0198 125.347 51.873 124.791 51.873H121.427V55.0115ZM121.427 49.5309H123.929C124.329 49.5309 124.669 49.4747 124.95 49.3622C125.237 49.2436 125.456 49.0749 125.606 48.8563C125.762 48.6378 125.84 48.3786 125.84 48.0788C125.84 47.6353 125.662 47.2887 125.306 47.0389C124.95 46.789 124.463 46.6641 123.844 46.6641H121.427V49.5309ZM136.721 52.7349L141.902 43.61H145.837V58H142.033V48.847L136.871 58H132.908V43.61H136.721V52.7349ZM161.525 43.61V58H157.74V43.61H161.525ZM159.679 49.9244V53.0722C159.373 53.2096 158.992 53.3407 158.536 53.4656C158.08 53.5843 157.602 53.6811 157.103 53.7561C156.603 53.831 156.135 53.8685 155.697 53.8685C153.63 53.8685 152.003 53.4438 150.816 52.5944C149.63 51.7387 149.036 50.374 149.036 48.5003V43.5913H152.802V48.5003C152.802 49.0562 152.896 49.4965 153.084 49.8213C153.277 50.1461 153.583 50.3803 154.002 50.5239C154.426 50.6613 154.992 50.73 155.697 50.73C156.353 50.73 156.996 50.6613 157.627 50.5239C158.258 50.3865 158.942 50.1867 159.679 49.9244ZM182.412 58L176.247 49.8213H174.861V58H170.804V38.8133H174.861V46.4768H175.676L182.046 38.8133H187.096L179.61 47.7134L187.442 58H182.412ZM194.853 58.2811C193.379 58.2811 192.111 57.9688 191.049 57.3442C189.994 56.7134 189.182 55.839 188.614 54.721C188.051 53.6031 187.77 52.3164 187.77 50.8612C187.77 49.3872 188.055 48.0944 188.623 46.9827C189.198 45.8647 190.013 44.9934 191.068 44.3688C192.124 43.738 193.379 43.4226 194.834 43.4226C196.09 43.4226 197.189 43.6506 198.132 44.1065C199.075 44.5625 199.821 45.2026 200.371 46.0271C200.921 46.8515 201.224 47.8196 201.28 48.9313H197.514C197.407 48.213 197.126 47.6353 196.67 47.1981C196.221 46.7547 195.631 46.533 194.9 46.533C194.281 46.533 193.741 46.7016 193.279 47.0389C192.823 47.3699 192.467 47.8539 192.211 48.491C191.955 49.128 191.827 49.8994 191.827 50.805C191.827 51.7231 191.952 52.5038 192.202 53.1471C192.458 53.7904 192.817 54.2807 193.279 54.618C193.741 54.9552 194.281 55.1239 194.9 55.1239C195.356 55.1239 195.765 55.0302 196.127 54.8428C196.496 54.6554 196.798 54.3838 197.036 54.0278C197.279 53.6655 197.439 53.2314 197.514 52.7255H201.28C201.217 53.8248 200.918 54.7929 200.38 55.6298C199.85 56.4604 199.116 57.11 198.179 57.5784C197.242 58.0468 196.133 58.2811 194.853 58.2811ZM210.393 58.2811C208.913 58.2811 207.639 57.9813 206.571 57.3817C205.509 56.7759 204.691 55.9202 204.116 54.8147C203.541 53.703 203.254 52.3883 203.254 50.8706C203.254 49.3904 203.541 48.0913 204.116 46.9733C204.691 45.8553 205.499 44.984 206.543 44.3595C207.592 43.7349 208.822 43.4226 210.234 43.4226C211.183 43.4226 212.067 43.5756 212.885 43.8817C213.709 44.1815 214.428 44.6343 215.04 45.2401C215.658 45.8459 216.139 46.6079 216.482 47.526C216.826 48.4379 216.998 49.5059 216.998 50.73V51.8262H204.847V49.3529H213.241C213.241 48.7783 213.116 48.2693 212.866 47.8258C212.616 47.3824 212.27 47.0357 211.826 46.7859C211.389 46.5298 210.88 46.4018 210.299 46.4018C209.693 46.4018 209.156 46.5423 208.688 46.8234C208.226 47.0982 207.863 47.4698 207.601 47.9382C207.339 48.4004 207.205 48.9157 207.198 49.484V51.8355C207.198 52.5475 207.329 53.1627 207.592 53.6811C207.86 54.1995 208.238 54.5992 208.725 54.8803C209.213 55.1613 209.79 55.3019 210.459 55.3019C210.902 55.3019 211.308 55.2394 211.676 55.1145C212.045 54.9896 212.36 54.8022 212.623 54.5524C212.885 54.3026 213.085 53.9965 213.222 53.6343L216.913 53.8779C216.726 54.7647 216.342 55.5392 215.761 56.2012C215.187 56.857 214.443 57.3692 213.531 57.7377C212.626 58.0999 211.58 58.2811 210.393 58.2811ZM229.617 49.2124V52.3508H222.104V49.2124H229.617ZM223.415 43.61V58H219.602V43.61H223.415ZM232.118 43.61V58H228.334V43.61H232.118ZM239.028 52.7349L244.209 43.61H248.143V58H244.34V48.847L239.178 58H235.215V43.61H239.028V52.7349ZM259.774 58V46.7391H257.076C256.345 46.7391 255.79 46.9077 255.409 47.245C255.028 47.5822 254.84 47.982 254.846 48.4441C254.84 48.9126 255.021 49.3092 255.39 49.6339C255.765 49.9525 256.314 50.1117 257.039 50.1117H261.105V52.8099H257.039C255.808 52.8099 254.743 52.6225 253.844 52.2477C252.945 51.873 252.251 51.3515 251.764 50.6832C251.277 50.0087 251.037 49.2248 251.043 48.3317C251.037 47.3949 251.277 46.5736 251.764 45.8678C252.251 45.1558 252.948 44.6031 253.853 44.2096C254.765 43.8099 255.84 43.61 257.076 43.61H263.494V58H259.774ZM250.631 58L254.631 50.5052H258.444L254.453 58H250.631Z" fill="black"/>
</svg>
