<svg width="1557" height="2322" viewBox="0 0 1557 2322" fill="none" xmlns="http://www.w3.org/2000/svg">
<g clip-path="url(#clip0_14_143)">
<path d="M21.2683 985.326C18.9374 984.947 17.0198 984.07 15.5155 982.696C14.0111 981.321 12.9628 979.594 12.3705 977.515C11.7782 975.436 11.6839 973.156 12.0876 970.674C12.4983 968.149 13.3247 965.996 14.5669 964.215C15.8216 962.426 17.3739 961.122 19.2237 960.304C21.0861 959.477 23.1396 959.246 25.3841 959.611C27.1322 959.896 28.655 960.476 29.9525 961.351C31.2501 962.227 32.2519 963.32 32.958 964.631C33.6641 965.942 33.9987 967.393 33.9617 968.981L30.1418 968.36C30.0347 967.18 29.5505 966.071 28.6891 965.034C27.8402 963.987 26.5741 963.327 24.8907 963.053C23.4016 962.811 22.0327 962.987 20.7841 963.582C19.548 964.167 18.5029 965.11 17.6489 966.411C16.8074 967.703 16.234 969.288 15.9286 971.166C15.6162 973.087 15.6463 974.808 16.0189 976.331C16.4024 977.855 17.0857 979.102 18.0691 980.07C19.0632 981.041 20.3156 981.649 21.8264 981.894C22.8191 982.056 23.7483 982.03 24.6137 981.816C25.4792 981.602 26.2452 981.217 26.9116 980.661C27.578 980.105 28.1037 979.393 28.4885 978.525L32.3085 979.147C31.854 980.579 31.1048 981.814 30.061 982.852C29.0298 983.88 27.762 984.626 26.2577 985.091C24.7658 985.546 23.1027 985.624 21.2683 985.326ZM46.7294 989.467C44.4849 989.102 42.6024 988.247 41.082 986.904C39.5724 985.562 38.499 983.853 37.8618 981.778C37.2354 979.704 37.131 977.383 37.5487 974.815C37.9699 972.225 38.807 970.041 40.06 968.262C41.3237 966.485 42.8842 965.199 44.7413 964.405C46.6092 963.612 48.6655 963.398 50.91 963.763C53.1545 964.128 55.0315 964.982 56.5412 966.324C58.0616 967.668 59.1341 969.382 59.7588 971.466C60.3942 973.552 60.5013 975.89 60.0801 978.48C59.6624 981.048 58.8226 983.215 57.5606 984.982C56.3094 986.75 54.7498 988.03 52.8819 988.823C51.0247 989.617 48.9739 989.832 46.7294 989.467ZM47.2875 986.035C48.9925 986.313 50.4664 986.104 51.7092 985.409C52.952 984.714 53.9537 983.697 54.7141 982.359C55.4745 981.02 55.9899 979.52 56.2601 977.858C56.5304 976.197 56.5179 974.605 56.2226 973.084C55.9272 971.563 55.3012 970.27 54.3444 969.206C53.3877 968.142 52.0568 967.472 50.3519 967.195C48.6469 966.917 47.1721 967.132 45.9275 967.837C44.6829 968.543 43.6796 969.571 42.9174 970.92C42.1552 972.269 41.639 973.775 41.3687 975.436C41.0984 977.098 41.1118 978.684 41.4089 980.195C41.706 981.705 42.3338 982.987 43.2923 984.04C44.2508 985.093 45.5826 985.758 47.2875 986.035Z" fill="white"/>
<path d="M99.5364 953.626L101.867 955.63C101.234 956.49 100.447 957.148 99.5033 957.605C98.5599 958.062 97.4682 958.427 96.2282 958.701C94.9882 958.975 93.608 959.272 92.0876 959.593C90.3731 959.946 89.0147 960.605 88.0123 961.571C87.0098 962.537 86.3239 963.804 85.9544 965.373C85.5849 966.943 85.4924 968.809 85.6768 970.973L86.0003 970.919C86.5818 969.226 87.5553 967.888 88.9208 966.906C90.2862 965.924 91.8208 965.29 93.5246 965.006C95.4655 964.681 97.2881 964.842 98.9923 965.488C100.696 966.134 102.15 967.271 103.353 968.899C104.557 970.527 105.376 972.646 105.813 975.255C106.247 977.854 106.158 980.174 105.546 982.216C104.945 984.256 103.9 985.928 102.411 987.23C100.93 988.519 99.0796 989.349 96.8583 989.721C94.637 990.092 92.6032 989.895 90.757 989.128C88.9089 988.351 87.3482 987.004 86.0747 985.089C84.7995 983.163 83.9059 980.669 83.3939 977.606L82.9504 974.954C82.0257 969.422 82.2626 965.07 83.6611 961.899C85.0704 958.726 87.6594 956.775 91.428 956.045C92.7579 955.779 93.9476 955.569 94.9972 955.415C96.0468 955.262 96.9498 955.061 97.7064 954.813C98.4629 954.564 99.0729 954.169 99.5364 953.626ZM96.285 986.292C97.7839 986.041 99.0093 985.448 99.9615 984.513C100.924 983.576 101.582 982.375 101.936 980.908C102.287 979.43 102.307 977.759 101.995 975.893C101.693 974.082 101.138 972.589 100.332 971.416C99.5374 970.241 98.5395 969.41 97.3386 968.924C96.1378 968.437 94.7771 968.321 93.2567 968.575C92.1461 968.761 91.1802 969.116 90.3591 969.642C89.538 970.167 88.876 970.848 88.3731 971.686C87.8703 972.524 87.5347 973.5 87.3663 974.614C87.2087 975.727 87.2327 976.965 87.4382 978.327C87.9033 981.109 88.928 983.226 90.5121 984.68C92.0963 986.133 94.0206 986.67 96.285 986.292ZM116.55 980.111L125.307 958.894L129.707 958.159L133.86 983.003L130.043 983.641L126.83 964.426L118.138 985.631L113.674 986.377L109.521 961.533L113.338 960.895L116.55 980.111Z" fill="white"/>
<path d="M87.2838 1044.46L82.8215 1010.12L86.5293 1009.64L87.0448 1013.6L87.5002 1013.54C87.7257 1013.07 88.0442 1012.47 88.4555 1011.73C88.8764 1010.98 89.5239 1010.28 90.3981 1009.63C91.2817 1008.96 92.5366 1008.52 94.1629 1008.31C96.2661 1008.04 98.1884 1008.32 99.9295 1009.17C101.671 1010.01 103.117 1011.34 104.267 1013.15C105.418 1014.96 106.163 1017.18 106.504 1019.81C106.848 1022.45 106.696 1024.8 106.048 1026.86C105.399 1028.91 104.347 1030.57 102.891 1031.84C101.434 1033.09 99.6647 1033.86 97.5831 1034.13C95.9786 1034.34 94.6593 1034.24 93.6254 1033.83C92.5901 1033.42 91.7678 1032.9 91.1587 1032.28C90.5482 1031.66 90.0724 1031.14 89.7313 1030.72L89.4061 1030.76L91.1217 1043.96L87.2838 1044.46ZM88.217 1022.12C88.4621 1024 88.9548 1025.63 89.695 1027C90.4339 1028.36 91.3874 1029.38 92.5555 1030.05C93.7222 1030.72 95.0753 1030.95 96.6148 1030.75C98.2194 1030.54 99.5034 1029.94 100.467 1028.96C101.44 1027.96 102.103 1026.71 102.458 1025.19C102.822 1023.67 102.889 1022.02 102.658 1020.24C102.43 1018.48 101.953 1016.94 101.228 1015.6C100.512 1014.25 99.5587 1013.23 98.3675 1012.55C97.1857 1011.85 95.7817 1011.61 94.1554 1011.82C92.5943 1012.02 91.3338 1012.59 90.3742 1013.52C89.4131 1014.44 88.7531 1015.64 88.3942 1017.12C88.0338 1018.58 87.9747 1020.25 88.217 1022.12ZM121.4 1031.1C119.817 1031.31 118.342 1031.2 116.974 1030.77C115.605 1030.33 114.467 1029.59 113.56 1028.55C112.652 1027.5 112.092 1026.16 111.881 1024.53C111.695 1023.1 111.826 1021.9 112.274 1020.94C112.721 1019.97 113.383 1019.17 114.26 1018.53C115.137 1017.9 116.129 1017.39 117.235 1016.99C118.35 1016.58 119.478 1016.23 120.618 1015.92C122.111 1015.53 123.322 1015.22 124.253 1015C125.193 1014.77 125.863 1014.5 126.265 1014.2C126.677 1013.89 126.843 1013.43 126.762 1012.81L126.745 1012.68C126.537 1011.07 125.936 1009.88 124.942 1009.11C123.959 1008.33 122.584 1008.06 120.817 1008.29C118.985 1008.53 117.601 1009.12 116.664 1010.05C115.728 1010.99 115.107 1011.94 114.803 1012.91L110.991 1012.08C111.444 1010.48 112.158 1009.18 113.132 1008.2C114.116 1007.2 115.231 1006.45 116.477 1005.94C117.733 1005.43 118.99 1005.09 120.248 1004.92C121.05 1004.82 121.984 1004.8 123.05 1004.86C124.126 1004.91 125.19 1005.16 126.241 1005.62C127.304 1006.07 128.237 1006.85 129.041 1007.95C129.845 1009.05 130.376 1010.59 130.634 1012.57L132.772 1029.03L128.934 1029.53L128.495 1026.14L128.3 1026.17C128.11 1026.75 127.752 1027.38 127.225 1028.08C126.698 1028.78 125.959 1029.41 125.007 1029.97C124.055 1030.54 122.852 1030.91 121.4 1031.1ZM121.537 1027.58C123.055 1027.38 124.296 1026.92 125.259 1026.18C126.233 1025.45 126.925 1024.58 127.333 1023.57C127.753 1022.55 127.895 1021.53 127.76 1020.48L127.303 1016.97C127.166 1017.19 126.831 1017.41 126.3 1017.65C125.777 1017.87 125.166 1018.09 124.466 1018.3C123.775 1018.5 123.1 1018.69 122.439 1018.86C121.787 1019.02 121.259 1019.16 120.854 1019.27C119.874 1019.53 118.969 1019.86 118.139 1020.26C117.32 1020.66 116.681 1021.17 116.225 1021.82C115.778 1022.45 115.617 1023.25 115.744 1024.23C115.917 1025.56 116.542 1026.51 117.617 1027.06C118.702 1027.6 120.009 1027.78 121.537 1027.58Z" fill="white"/>
<path d="M94.1564 1080.2C91.8092 1079.58 89.9206 1078.53 88.4907 1077.05C87.0742 1075.56 86.1521 1073.76 85.7243 1071.64C85.3098 1069.52 85.4306 1067.21 86.0867 1064.72C86.7428 1062.22 87.7757 1060.14 89.1854 1058.48C90.6085 1056.81 92.2799 1055.65 94.1995 1055.02C96.1325 1054.37 98.1986 1054.34 100.398 1054.92C101.667 1055.25 102.864 1055.79 103.99 1056.54C105.116 1057.29 106.061 1058.27 106.826 1059.49C107.594 1060.7 108.074 1062.16 108.268 1063.87C108.462 1065.58 108.261 1067.58 107.663 1069.85L107.246 1071.43L88.4676 1066.5L89.3183 1063.26L104.29 1067.2C104.652 1065.82 104.699 1064.53 104.433 1063.3C104.177 1062.08 103.629 1061.03 102.789 1060.14C101.959 1059.25 100.867 1058.63 99.5138 1058.28C98.023 1057.89 96.6358 1057.92 95.3521 1058.37C94.0818 1058.82 93.0016 1059.55 92.1115 1060.57C91.2213 1061.59 90.5998 1062.77 90.2467 1064.12L89.6796 1066.27C89.1958 1068.11 89.103 1069.76 89.401 1071.2C89.7123 1072.64 90.3514 1073.84 91.3182 1074.81C92.2877 1075.77 93.5285 1076.44 95.0405 1076.84C96.0238 1077.1 96.9481 1077.19 97.8134 1077.13C98.692 1077.05 99.4958 1076.81 100.225 1076.41C100.956 1075.99 101.592 1075.4 102.132 1074.63L105.481 1076.6C104.778 1077.73 103.854 1078.64 102.711 1079.33C101.57 1080.01 100.271 1080.44 98.8133 1080.61C97.3582 1080.77 95.8059 1080.64 94.1564 1080.2ZM113.29 1062.38L114.208 1058.89L134.001 1064.09L133.084 1067.58L125.09 1065.48L119.602 1086.35L115.859 1085.37L121.347 1064.49L113.29 1062.38Z" fill="white"/>
<path d="M159.143 1106.07C157.148 1107.33 155.132 1107.95 153.095 1107.92C151.057 1107.89 149.127 1107.3 147.303 1106.14C145.48 1104.97 143.895 1103.33 142.549 1101.21C141.179 1099.05 140.368 1096.89 140.114 1094.73C139.864 1092.56 140.159 1090.56 140.999 1088.72C141.842 1086.86 143.224 1085.32 145.145 1084.11C146.641 1083.16 148.165 1082.58 149.716 1082.37C151.268 1082.17 152.743 1082.32 154.141 1082.83C155.54 1083.34 156.753 1084.2 157.781 1085.42L154.512 1087.49C153.648 1086.68 152.549 1086.17 151.217 1085.97C149.887 1085.75 148.502 1086.09 147.062 1087.01C145.787 1087.82 144.881 1088.86 144.342 1090.13C143.806 1091.39 143.651 1092.79 143.877 1094.33C144.105 1095.85 144.729 1097.42 145.748 1099.02C146.789 1100.67 147.955 1101.94 149.245 1102.83C150.544 1103.71 151.883 1104.19 153.261 1104.26C154.648 1104.33 155.989 1103.95 157.281 1103.13C158.131 1102.59 158.808 1101.96 159.314 1101.22C159.819 1100.49 160.136 1099.69 160.265 1098.83C160.394 1097.97 160.314 1097.09 160.025 1096.19L163.294 1094.12C163.906 1095.49 164.166 1096.91 164.074 1098.38C163.986 1099.83 163.534 1101.23 162.717 1102.58C161.904 1103.91 160.712 1105.07 159.143 1106.07ZM184.804 1089.18L173.215 1070.9L167.564 1074.48C166.29 1075.29 165.475 1076.22 165.12 1077.27C164.765 1078.32 164.916 1079.37 165.571 1080.4C166.215 1081.42 167.049 1082.01 168.073 1082.17C169.107 1082.33 170.201 1082.05 171.355 1081.32L178.225 1076.96L180.157 1080.01L173.287 1084.36C171.846 1085.28 170.443 1085.81 169.078 1085.96C167.713 1086.12 166.45 1085.9 165.289 1085.32C164.123 1084.72 163.128 1083.78 162.302 1082.47C161.471 1081.16 161.053 1079.85 161.046 1078.53C161.04 1077.22 161.426 1075.95 162.203 1074.75C162.989 1073.54 164.144 1072.45 165.667 1071.49L174.421 1065.94L187.907 1087.21L184.804 1089.18ZM170.621 1098.17L169.952 1083.76L173.498 1081.51L174.167 1095.92L170.621 1098.17Z" fill="white"/>
<path d="M23.6033 2304.93L35.7386 2285.44H40.1991V2310.63H36.3289V2291.15L24.2592 2310.63H19.7331V2285.44H23.6033V2304.93ZM60.2757 2310.63V2285.44H80.0857V2310.63H76.2155V2289.05H64.1458V2310.63H60.2757ZM97.7147 2311.16C95.2876 2311.16 93.194 2310.62 91.4338 2309.55C89.6846 2308.47 88.3344 2306.96 87.3833 2305.02C86.4431 2303.08 85.973 2300.82 85.973 2298.24C85.973 2295.66 86.4431 2293.38 87.3833 2291.41C88.3344 2289.43 89.6573 2287.89 91.3519 2286.79C93.0574 2285.67 95.0471 2285.12 97.3211 2285.12C98.633 2285.12 99.9286 2285.33 101.208 2285.77C102.487 2286.21 103.651 2286.92 104.701 2287.9C105.75 2288.88 106.587 2290.17 107.21 2291.77C107.833 2293.38 108.144 2295.36 108.144 2297.71V2299.35H88.728V2296H104.209C104.209 2294.58 103.924 2293.32 103.356 2292.2C102.798 2291.09 102 2290.21 100.962 2289.56C99.934 2288.92 98.7205 2288.59 97.3211 2288.59C95.7796 2288.59 94.4458 2288.98 93.3197 2289.74C92.2046 2290.49 91.3464 2291.48 90.7451 2292.69C90.1438 2293.91 89.8431 2295.21 89.8431 2296.6V2298.83C89.8431 2300.73 90.1711 2302.34 90.8271 2303.66C91.494 2304.98 92.4178 2305.98 93.5985 2306.66C94.7793 2307.34 96.1513 2307.68 97.7147 2307.68C98.7314 2307.68 99.6498 2307.54 100.47 2307.25C101.301 2306.96 102.017 2306.52 102.618 2305.94C103.219 2305.35 103.684 2304.62 104.012 2303.75L107.751 2304.79C107.357 2306.06 106.696 2307.18 105.767 2308.14C104.837 2309.09 103.689 2309.83 102.323 2310.37C100.956 2310.9 99.4202 2311.16 97.7147 2311.16ZM114.032 2320.08V2285.44H117.771V2289.45H118.23C118.514 2289.01 118.908 2288.45 119.411 2287.77C119.924 2287.08 120.657 2286.47 121.608 2285.94C122.57 2285.39 123.871 2285.12 125.511 2285.12C127.632 2285.12 129.502 2285.65 131.12 2286.71C132.738 2287.77 134 2289.27 134.908 2291.22C135.815 2293.16 136.269 2295.46 136.269 2298.1C136.269 2300.77 135.815 2303.08 134.908 2305.04C134 2306.99 132.743 2308.5 131.136 2309.57C129.529 2310.63 127.676 2311.16 125.577 2311.16C123.959 2311.16 122.663 2310.89 121.69 2310.35C120.717 2309.81 119.968 2309.19 119.443 2308.5C118.919 2307.8 118.514 2307.22 118.23 2306.76H117.902V2320.08H114.032ZM117.836 2298.04C117.836 2299.94 118.115 2301.62 118.673 2303.07C119.23 2304.52 120.045 2305.65 121.116 2306.47C122.188 2307.28 123.499 2307.68 125.052 2307.68C126.67 2307.68 128.02 2307.25 129.102 2306.4C130.196 2305.54 131.016 2304.38 131.562 2302.93C132.12 2301.46 132.399 2299.83 132.399 2298.04C132.399 2296.27 132.125 2294.67 131.579 2293.25C131.043 2291.82 130.229 2290.69 129.135 2289.86C128.053 2289.01 126.692 2288.59 125.052 2288.59C123.478 2288.59 122.155 2288.99 121.083 2289.79C120.012 2290.58 119.203 2291.68 118.656 2293.1C118.11 2294.51 117.836 2296.16 117.836 2298.04ZM152.733 2311.16C150.306 2311.16 148.213 2310.62 146.453 2309.55C144.703 2308.47 143.353 2306.96 142.402 2305.02C141.462 2303.08 140.992 2300.82 140.992 2298.24C140.992 2295.66 141.462 2293.38 142.402 2291.41C143.353 2289.43 144.676 2287.89 146.371 2286.79C148.076 2285.67 150.066 2285.12 152.34 2285.12C153.652 2285.12 154.947 2285.33 156.226 2285.77C157.506 2286.21 158.67 2286.92 159.719 2287.9C160.769 2288.88 161.605 2290.17 162.229 2291.77C162.852 2293.38 163.163 2295.36 163.163 2297.71V2299.35H143.747V2296H159.228C159.228 2294.58 158.943 2293.32 158.375 2292.2C157.817 2291.09 157.019 2290.21 155.981 2289.56C154.953 2288.92 153.739 2288.59 152.34 2288.59C150.798 2288.59 149.465 2288.98 148.339 2289.74C147.223 2290.49 146.365 2291.48 145.764 2292.69C145.163 2293.91 144.862 2295.21 144.862 2296.6V2298.83C144.862 2300.73 145.19 2302.34 145.846 2303.66C146.513 2304.98 147.437 2305.98 148.617 2306.66C149.798 2307.34 151.17 2307.68 152.733 2307.68C153.75 2307.68 154.669 2307.54 155.489 2307.25C156.319 2306.96 157.036 2306.52 157.637 2305.94C158.238 2305.35 158.703 2304.62 159.031 2303.75L162.77 2304.79C162.376 2306.06 161.715 2307.18 160.785 2308.14C159.856 2309.09 158.708 2309.83 157.342 2310.37C155.975 2310.9 154.439 2311.16 152.733 2311.16ZM166.361 2317.85V2307.03H168.46C168.974 2306.49 169.417 2305.91 169.788 2305.29C170.16 2304.66 170.483 2303.93 170.756 2303.07C171.04 2302.21 171.281 2301.16 171.478 2299.92C171.674 2298.68 171.849 2297.17 172.002 2295.41L172.855 2285.44H188.861V2307.03H192.731V2317.85H188.861V2310.63H170.231V2317.85H166.361ZM172.855 2307.03H184.99V2289.05H176.463L175.807 2295.41C175.534 2298.05 175.195 2300.35 174.79 2302.32C174.386 2304.29 173.741 2305.86 172.855 2307.03ZM205.28 2311.22C203.684 2311.22 202.235 2310.92 200.934 2310.32C199.633 2309.71 198.6 2308.83 197.835 2307.68C197.07 2306.52 196.687 2305.12 196.687 2303.48C196.687 2302.04 196.971 2300.87 197.54 2299.97C198.108 2299.07 198.868 2298.36 199.819 2297.84C200.77 2297.33 201.82 2296.95 202.968 2296.69C204.127 2296.43 205.291 2296.22 206.461 2296.07C207.991 2295.87 209.232 2295.73 210.183 2295.63C211.146 2295.52 211.845 2295.34 212.283 2295.09C212.731 2294.84 212.955 2294.4 212.955 2293.77V2293.64C212.955 2292.03 212.512 2290.77 211.627 2289.87C210.752 2288.98 209.424 2288.53 207.642 2288.53C205.794 2288.53 204.345 2288.93 203.296 2289.74C202.246 2290.55 201.508 2291.41 201.082 2292.33L197.409 2291.02C198.065 2289.49 198.939 2288.3 200.032 2287.44C201.137 2286.58 202.339 2285.98 203.64 2285.64C204.952 2285.29 206.242 2285.12 207.51 2285.12C208.319 2285.12 209.249 2285.21 210.298 2285.41C211.359 2285.6 212.381 2285.99 213.365 2286.58C214.36 2287.17 215.185 2288.06 215.841 2289.25C216.497 2290.44 216.825 2292.04 216.825 2294.04V2310.63H212.955V2307.22H212.758C212.496 2307.77 212.058 2308.35 211.446 2308.98C210.834 2309.6 210.019 2310.13 209.003 2310.57C207.986 2311 206.745 2311.22 205.28 2311.22ZM205.871 2307.75C207.401 2307.75 208.691 2307.45 209.741 2306.84C210.801 2306.24 211.599 2305.47 212.135 2304.52C212.682 2303.56 212.955 2302.56 212.955 2301.51V2297.97C212.791 2298.17 212.43 2298.35 211.873 2298.51C211.326 2298.67 210.692 2298.8 209.97 2298.92C209.26 2299.03 208.565 2299.13 207.888 2299.22C207.221 2299.3 206.68 2299.36 206.264 2299.42C205.258 2299.55 204.318 2299.76 203.443 2300.06C202.58 2300.34 201.88 2300.77 201.344 2301.35C200.82 2301.92 200.557 2302.7 200.557 2303.68C200.557 2305.02 201.055 2306.04 202.05 2306.73C203.055 2307.41 204.329 2307.75 205.871 2307.75ZM234.45 2311.16C232.023 2311.16 229.929 2310.62 228.169 2309.55C226.42 2308.47 225.07 2306.96 224.119 2305.02C223.178 2303.08 222.708 2300.82 222.708 2298.24C222.708 2295.66 223.178 2293.38 224.119 2291.41C225.07 2289.43 226.393 2287.89 228.087 2286.79C229.793 2285.67 231.782 2285.12 234.056 2285.12C235.368 2285.12 236.664 2285.33 237.943 2285.77C239.222 2286.21 240.386 2286.92 241.436 2287.9C242.485 2288.88 243.322 2290.17 243.945 2291.77C244.568 2293.38 244.88 2295.36 244.88 2297.71V2299.35H225.463V2296H240.944C240.944 2294.58 240.66 2293.32 240.091 2292.2C239.534 2291.09 238.736 2290.21 237.697 2289.56C236.669 2288.92 235.456 2288.59 234.056 2288.59C232.515 2288.59 231.181 2288.98 230.055 2289.74C228.94 2290.49 228.082 2291.48 227.48 2292.69C226.879 2293.91 226.578 2295.21 226.578 2296.6V2298.83C226.578 2300.73 226.906 2302.34 227.562 2303.66C228.229 2304.98 229.153 2305.98 230.334 2306.66C231.515 2307.34 232.887 2307.68 234.45 2307.68C235.467 2307.68 236.385 2307.54 237.205 2307.25C238.036 2306.96 238.752 2306.52 239.353 2305.94C239.955 2305.35 240.419 2304.62 240.747 2303.75L244.486 2304.79C244.093 2306.06 243.431 2307.18 242.502 2308.14C241.573 2309.09 240.425 2309.83 239.058 2310.37C237.691 2310.9 236.155 2311.16 234.45 2311.16ZM248.422 2289.05V2285.44H268.888V2289.05H260.623V2310.63H256.753V2289.05H248.422ZM283.458 2311.16C281.097 2311.16 279.064 2310.6 277.358 2309.48C275.653 2308.37 274.341 2306.83 273.422 2304.88C272.504 2302.92 272.045 2300.68 272.045 2298.17C272.045 2295.61 272.515 2293.35 273.455 2291.4C274.406 2289.43 275.729 2287.89 277.424 2286.79C279.129 2285.67 281.119 2285.12 283.393 2285.12C285.164 2285.12 286.76 2285.44 288.181 2286.1C289.603 2286.76 290.767 2287.67 291.674 2288.85C292.582 2290.04 293.145 2291.41 293.364 2292.99H289.493C289.198 2291.84 288.542 2290.82 287.525 2289.94C286.52 2289.04 285.164 2288.59 283.458 2288.59C281.95 2288.59 280.627 2288.99 279.49 2289.77C278.364 2290.55 277.484 2291.65 276.85 2293.07C276.227 2294.48 275.915 2296.14 275.915 2298.04C275.915 2299.98 276.221 2301.68 276.833 2303.12C277.456 2304.57 278.331 2305.69 279.457 2306.48C280.594 2307.28 281.928 2307.68 283.458 2307.68C284.464 2307.68 285.377 2307.51 286.197 2307.16C287.017 2306.81 287.711 2306.3 288.28 2305.65C288.848 2304.99 289.253 2304.2 289.493 2303.29H293.364C293.145 2304.77 292.604 2306.11 291.74 2307.3C290.887 2308.48 289.756 2309.42 288.345 2310.12C286.946 2310.81 285.317 2311.16 283.458 2311.16ZM314.174 2310.63V2288.99H307.483C305.974 2288.99 304.788 2289.34 303.925 2290.04C303.061 2290.74 302.629 2291.7 302.629 2292.92C302.629 2294.12 303.017 2295.07 303.793 2295.76C304.58 2296.45 305.657 2296.79 307.024 2296.79H315.158V2300.4H307.024C305.318 2300.4 303.848 2300.1 302.613 2299.5C301.377 2298.9 300.426 2298.04 299.759 2296.92C299.092 2295.8 298.759 2294.46 298.759 2292.92C298.759 2291.37 299.109 2290.04 299.808 2288.92C300.508 2287.81 301.508 2286.95 302.809 2286.35C304.121 2285.74 305.679 2285.44 307.483 2285.44H317.847V2310.63H314.174ZM297.381 2310.63L304.531 2298.1H308.729L301.579 2310.63H297.381ZM337.94 2310.63V2285.44H357.75V2310.63H353.88V2289.05H341.81V2310.63H337.94ZM375.051 2311.16C372.777 2311.16 370.782 2310.62 369.066 2309.53C367.36 2308.45 366.026 2306.94 365.064 2304.99C364.113 2303.05 363.638 2300.77 363.638 2298.17C363.638 2295.55 364.113 2293.26 365.064 2291.3C366.026 2289.34 367.36 2287.82 369.066 2286.74C370.782 2285.66 372.777 2285.12 375.051 2285.12C377.325 2285.12 379.315 2285.66 381.021 2286.74C382.737 2287.82 384.071 2289.34 385.022 2291.3C385.984 2293.26 386.465 2295.55 386.465 2298.17C386.465 2300.77 385.984 2303.05 385.022 2304.99C384.071 2306.94 382.737 2308.45 381.021 2309.53C379.315 2310.62 377.325 2311.16 375.051 2311.16ZM375.051 2307.68C376.779 2307.68 378.2 2307.24 379.315 2306.35C380.43 2305.47 381.256 2304.3 381.791 2302.86C382.327 2301.42 382.595 2299.85 382.595 2298.17C382.595 2296.49 382.327 2294.92 381.791 2293.46C381.256 2292.01 380.43 2290.83 379.315 2289.94C378.2 2289.04 376.779 2288.59 375.051 2288.59C373.324 2288.59 371.903 2289.04 370.788 2289.94C369.672 2290.83 368.847 2292.01 368.311 2293.46C367.776 2294.92 367.508 2296.49 367.508 2298.17C367.508 2299.85 367.776 2301.42 368.311 2302.86C368.847 2304.3 369.672 2305.47 370.788 2306.35C371.903 2307.24 373.324 2307.68 375.051 2307.68ZM415.594 2311.16C413.232 2311.16 411.199 2310.6 409.493 2309.48C407.788 2308.37 406.476 2306.83 405.558 2304.88C404.639 2302.92 404.18 2300.68 404.18 2298.17C404.18 2295.61 404.65 2293.35 405.59 2291.4C406.542 2289.43 407.864 2287.89 409.559 2286.79C411.264 2285.67 413.254 2285.12 415.528 2285.12C417.299 2285.12 418.896 2285.44 420.317 2286.1C421.738 2286.76 422.902 2287.67 423.81 2288.85C424.717 2290.04 425.28 2291.41 425.499 2292.99H421.629C421.334 2291.84 420.678 2290.82 419.661 2289.94C418.655 2289.04 417.299 2288.59 415.594 2288.59C414.085 2288.59 412.762 2288.99 411.625 2289.77C410.499 2290.55 409.619 2291.65 408.985 2293.07C408.362 2294.48 408.05 2296.14 408.05 2298.04C408.05 2299.98 408.356 2301.68 408.969 2303.12C409.592 2304.57 410.466 2305.69 411.592 2306.48C412.729 2307.28 414.063 2307.68 415.594 2307.68C416.6 2307.68 417.513 2307.51 418.332 2307.16C419.152 2306.81 419.847 2306.3 420.415 2305.65C420.984 2304.99 421.388 2304.2 421.629 2303.29H425.499C425.28 2304.77 424.739 2306.11 423.875 2307.3C423.023 2308.48 421.891 2309.42 420.481 2310.12C419.081 2310.81 417.452 2311.16 415.594 2311.16ZM431.157 2310.63V2285.44H450.967V2310.63H447.096V2289.05H435.027V2310.63H431.157ZM468.596 2311.16C466.168 2311.16 464.075 2310.62 462.315 2309.55C460.565 2308.47 459.215 2306.96 458.264 2305.02C457.324 2303.08 456.854 2300.82 456.854 2298.24C456.854 2295.66 457.324 2293.38 458.264 2291.41C459.215 2289.43 460.538 2287.89 462.233 2286.79C463.938 2285.67 465.928 2285.12 468.202 2285.12C469.514 2285.12 470.809 2285.33 472.089 2285.77C473.368 2286.21 474.532 2286.92 475.582 2287.9C476.631 2288.88 477.467 2290.17 478.091 2291.77C478.714 2293.38 479.025 2295.36 479.025 2297.71V2299.35H459.609V2296H475.09C475.09 2294.58 474.805 2293.32 474.237 2292.2C473.679 2291.09 472.881 2290.21 471.843 2289.56C470.815 2288.92 469.601 2288.59 468.202 2288.59C466.66 2288.59 465.327 2288.98 464.201 2289.74C463.085 2290.49 462.227 2291.48 461.626 2292.69C461.025 2293.91 460.724 2295.21 460.724 2296.6V2298.83C460.724 2300.73 461.052 2302.34 461.708 2303.66C462.375 2304.98 463.299 2305.98 464.479 2306.66C465.66 2307.34 467.032 2307.68 468.596 2307.68C469.612 2307.68 470.531 2307.54 471.351 2307.25C472.181 2306.96 472.898 2306.52 473.499 2305.94C474.1 2305.35 474.565 2304.62 474.893 2303.75L478.632 2304.79C478.238 2306.06 477.577 2307.18 476.647 2308.14C475.718 2309.09 474.57 2309.83 473.204 2310.37C471.837 2310.9 470.301 2311.16 468.596 2311.16ZM504.723 2285.44V2307.03H508.265V2318.77H504.395V2310.63H484.913V2285.44H488.783V2307.03H500.852V2285.44H504.723ZM518.096 2304.93L530.231 2285.44H534.692V2310.63H530.822V2291.15L518.752 2310.63H514.226V2285.44H518.096V2304.93ZM549.193 2311.22C547.597 2311.22 546.148 2310.92 544.847 2310.32C543.546 2309.71 542.513 2308.83 541.748 2307.68C540.982 2306.52 540.6 2305.12 540.6 2303.48C540.6 2302.04 540.884 2300.87 541.452 2299.97C542.021 2299.07 542.781 2298.36 543.732 2297.84C544.683 2297.33 545.733 2296.95 546.881 2296.69C548.039 2296.43 549.204 2296.22 550.374 2296.07C551.904 2295.87 553.145 2295.73 554.096 2295.63C555.058 2295.52 555.758 2295.34 556.195 2295.09C556.643 2294.84 556.868 2294.4 556.868 2293.77V2293.64C556.868 2292.03 556.425 2290.77 555.539 2289.87C554.665 2288.98 553.336 2288.53 551.554 2288.53C549.707 2288.53 548.258 2288.93 547.208 2289.74C546.159 2290.55 545.421 2291.41 544.995 2292.33L541.321 2291.02C541.977 2289.49 542.852 2288.3 543.945 2287.44C545.049 2286.58 546.252 2285.98 547.553 2285.64C548.865 2285.29 550.155 2285.12 551.423 2285.12C552.232 2285.12 553.161 2285.21 554.211 2285.41C555.271 2285.6 556.294 2285.99 557.278 2286.58C558.272 2287.17 559.098 2288.06 559.754 2289.25C560.41 2290.44 560.738 2292.04 560.738 2294.04V2310.63H556.868V2307.22H556.671C556.408 2307.77 555.971 2308.35 555.359 2308.98C554.747 2309.6 553.932 2310.13 552.915 2310.57C551.899 2311 550.658 2311.22 549.193 2311.22ZM549.783 2307.75C551.314 2307.75 552.604 2307.45 553.653 2306.84C554.714 2306.24 555.512 2305.47 556.048 2304.52C556.594 2303.56 556.868 2302.56 556.868 2301.51V2297.97C556.704 2298.17 556.343 2298.35 555.785 2298.51C555.239 2298.67 554.604 2298.8 553.883 2298.92C553.172 2299.03 552.478 2299.13 551.8 2299.22C551.133 2299.3 550.592 2299.36 550.177 2299.42C549.171 2299.55 548.231 2299.76 547.356 2300.06C546.492 2300.34 545.793 2300.77 545.257 2301.35C544.732 2301.92 544.47 2302.7 544.47 2303.68C544.47 2305.02 544.967 2306.04 545.962 2306.73C546.968 2307.41 548.242 2307.75 549.783 2307.75ZM565.571 2310.63V2307.03H566.49C567.244 2307.03 567.873 2306.88 568.376 2306.58C568.878 2306.28 569.283 2305.75 569.589 2304.99C569.906 2304.23 570.147 2303.17 570.311 2301.81C570.486 2300.44 570.611 2298.71 570.688 2296.6L571.147 2285.44H587.94V2310.63H584.069V2289.05H574.82L574.427 2298.04C574.339 2300.1 574.153 2301.92 573.869 2303.5C573.596 2305.06 573.175 2306.37 572.607 2307.43C572.049 2308.5 571.306 2309.29 570.376 2309.83C569.447 2310.36 568.283 2310.63 566.883 2310.63H565.571ZM598.386 2294.56H605.601C608.553 2294.56 610.811 2295.31 612.374 2296.81C613.938 2298.31 614.719 2300.2 614.719 2302.5C614.719 2304.01 614.369 2305.38 613.67 2306.62C612.97 2307.84 611.942 2308.82 610.587 2309.55C609.231 2310.27 607.569 2310.63 605.601 2310.63H595.04V2285.44H598.911V2307.03H605.601C607.132 2307.03 608.389 2306.62 609.373 2305.81C610.357 2305 610.849 2303.96 610.849 2302.7C610.849 2301.36 610.357 2300.27 609.373 2299.43C608.389 2298.59 607.132 2298.17 605.601 2298.17H598.386V2294.56ZM637.469 2296.27V2299.88H623.562V2296.27H637.469ZM624.481 2285.44V2310.63H620.611V2285.44H624.481ZM640.421 2285.44V2310.63H636.55V2285.44H640.421ZM657.722 2311.16C655.448 2311.16 653.452 2310.62 651.736 2309.53C650.031 2308.45 648.697 2306.94 647.735 2304.99C646.784 2303.05 646.308 2300.77 646.308 2298.17C646.308 2295.55 646.784 2293.26 647.735 2291.3C648.697 2289.34 650.031 2287.82 651.736 2286.74C653.452 2285.66 655.448 2285.12 657.722 2285.12C659.996 2285.12 661.985 2285.66 663.691 2286.74C665.407 2287.82 666.741 2289.34 667.692 2291.3C668.654 2293.26 669.135 2295.55 669.135 2298.17C669.135 2300.77 668.654 2303.05 667.692 2304.99C666.741 2306.94 665.407 2308.45 663.691 2309.53C661.985 2310.62 659.996 2311.16 657.722 2311.16ZM657.722 2307.68C659.449 2307.68 660.87 2307.24 661.985 2306.35C663.101 2305.47 663.926 2304.3 664.462 2302.86C664.997 2301.42 665.265 2299.85 665.265 2298.17C665.265 2296.49 664.997 2294.92 664.462 2293.46C663.926 2292.01 663.101 2290.83 661.985 2289.94C660.87 2289.04 659.449 2288.59 657.722 2288.59C655.994 2288.59 654.573 2289.04 653.458 2289.94C652.343 2290.83 651.517 2292.01 650.982 2293.46C650.446 2294.92 650.178 2296.49 650.178 2298.17C650.178 2299.85 650.446 2301.42 650.982 2302.86C651.517 2304.3 652.343 2305.47 653.458 2306.35C654.573 2307.24 655.994 2307.68 657.722 2307.68ZM688.818 2305.39L697.608 2285.44H701.282L690.393 2310.63H687.244L676.552 2285.44H680.16L688.818 2305.39ZM678.913 2285.44V2310.63H675.043V2285.44H678.913ZM698.723 2310.63V2285.44H702.594V2310.63H698.723ZM711.269 2320.08C710.613 2320.08 710.028 2320.02 709.514 2319.91C709 2319.82 708.645 2319.72 708.448 2319.62L709.432 2316.21C710.372 2316.45 711.203 2316.54 711.925 2316.47C712.646 2316.41 713.286 2316.08 713.843 2315.5C714.412 2314.93 714.931 2314.01 715.401 2312.73L716.123 2310.76L706.808 2285.44H711.006L717.959 2305.52H718.222L725.175 2285.44H729.373L718.681 2314.31C718.2 2315.61 717.604 2316.68 716.894 2317.54C716.183 2318.4 715.358 2319.04 714.417 2319.46C713.488 2319.87 712.438 2320.08 711.269 2320.08ZM747.47 2310.63V2285.44H767.28V2310.63H763.409V2289.05H751.34V2310.63H747.47ZM774.348 2320.08V2285.44H778.087V2289.45H778.546C778.83 2289.01 779.224 2288.45 779.727 2287.77C780.24 2287.08 780.973 2286.47 781.924 2285.94C782.886 2285.39 784.187 2285.12 785.827 2285.12C787.948 2285.12 789.817 2285.65 791.435 2286.71C793.053 2287.77 794.316 2289.27 795.224 2291.22C796.131 2293.16 796.585 2295.46 796.585 2298.1C796.585 2300.77 796.131 2303.08 795.224 2305.04C794.316 2306.99 793.059 2308.5 791.452 2309.57C789.845 2310.63 787.992 2311.16 785.893 2311.16C784.275 2311.16 782.979 2310.89 782.006 2310.35C781.033 2309.81 780.284 2309.19 779.759 2308.5C779.235 2307.8 778.83 2307.22 778.546 2306.76H778.218V2320.08H774.348ZM778.152 2298.04C778.152 2299.94 778.431 2301.62 778.989 2303.07C779.546 2304.52 780.361 2305.65 781.432 2306.47C782.503 2307.28 783.815 2307.68 785.368 2307.68C786.986 2307.68 788.336 2307.25 789.418 2306.4C790.512 2305.54 791.332 2304.38 791.878 2302.93C792.436 2301.46 792.715 2299.83 792.715 2298.04C792.715 2296.27 792.441 2294.67 791.895 2293.25C791.359 2291.82 790.544 2290.69 789.451 2289.86C788.369 2289.01 787.008 2288.59 785.368 2288.59C783.793 2288.59 782.471 2288.99 781.399 2289.79C780.328 2290.58 779.519 2291.68 778.972 2293.1C778.426 2294.51 778.152 2296.16 778.152 2298.04ZM812.721 2311.16C810.447 2311.16 808.452 2310.62 806.736 2309.53C805.03 2308.45 803.696 2306.94 802.734 2304.99C801.783 2303.05 801.308 2300.77 801.308 2298.17C801.308 2295.55 801.783 2293.26 802.734 2291.3C803.696 2289.34 805.03 2287.82 806.736 2286.74C808.452 2285.66 810.447 2285.12 812.721 2285.12C814.995 2285.12 816.985 2285.66 818.691 2286.74C820.407 2287.82 821.741 2289.34 822.692 2291.3C823.654 2293.26 824.135 2295.55 824.135 2298.17C824.135 2300.77 823.654 2303.05 822.692 2304.99C821.741 2306.94 820.407 2308.45 818.691 2309.53C816.985 2310.62 814.995 2311.16 812.721 2311.16ZM812.721 2307.68C814.449 2307.68 815.87 2307.24 816.985 2306.35C818.1 2305.47 818.926 2304.3 819.461 2302.86C819.997 2301.42 820.265 2299.85 820.265 2298.17C820.265 2296.49 819.997 2294.92 819.461 2293.46C818.926 2292.01 818.1 2290.83 816.985 2289.94C815.87 2289.04 814.449 2288.59 812.721 2288.59C810.994 2288.59 809.573 2289.04 808.458 2289.94C807.342 2290.83 806.517 2292.01 805.981 2293.46C805.446 2294.92 805.178 2296.49 805.178 2298.17C805.178 2299.85 805.446 2301.42 805.981 2302.86C806.517 2304.3 807.342 2305.47 808.458 2306.35C809.573 2307.24 810.994 2307.68 812.721 2307.68ZM830.043 2310.63V2285.44H840.341C843.053 2285.44 845.207 2286.06 846.803 2287.28C848.399 2288.51 849.197 2290.12 849.197 2292.13C849.197 2293.67 848.743 2294.85 847.836 2295.69C846.928 2296.52 845.764 2297.09 844.343 2297.38C845.272 2297.51 846.174 2297.84 847.049 2298.37C847.934 2298.89 848.667 2299.61 849.246 2300.53C849.826 2301.44 850.115 2302.55 850.115 2303.88C850.115 2305.17 849.787 2306.32 849.131 2307.34C848.475 2308.35 847.535 2309.16 846.311 2309.75C845.086 2310.34 843.621 2310.63 841.916 2310.63H830.043ZM833.716 2307.09H841.916C843.25 2307.09 844.294 2306.77 845.048 2306.14C845.802 2305.51 846.18 2304.64 846.18 2303.55C846.18 2302.25 845.802 2301.23 845.048 2300.48C844.294 2299.73 843.25 2299.35 841.916 2299.35H833.716V2307.09ZM833.716 2296H840.341C841.38 2296 842.271 2295.86 843.015 2295.58C843.758 2295.28 844.326 2294.87 844.72 2294.33C845.125 2293.79 845.327 2293.14 845.327 2292.4C845.327 2291.34 844.884 2290.51 843.998 2289.9C843.113 2289.29 841.894 2288.99 840.341 2288.99H833.716V2296ZM866.207 2311.16C863.933 2311.16 861.938 2310.62 860.221 2309.53C858.516 2308.45 857.182 2306.94 856.22 2304.99C855.269 2303.05 854.793 2300.77 854.793 2298.17C854.793 2295.55 855.269 2293.26 856.22 2291.3C857.182 2289.34 858.516 2287.82 860.221 2286.74C861.938 2285.66 863.933 2285.12 866.207 2285.12C868.481 2285.12 870.471 2285.66 872.176 2286.74C873.893 2287.82 875.226 2289.34 876.177 2291.3C877.14 2293.26 877.621 2295.55 877.621 2298.17C877.621 2300.77 877.14 2303.05 876.177 2304.99C875.226 2306.94 873.893 2308.45 872.176 2309.53C870.471 2310.62 868.481 2311.16 866.207 2311.16ZM866.207 2307.68C867.934 2307.68 869.355 2307.24 870.471 2306.35C871.586 2305.47 872.411 2304.3 872.947 2302.86C873.483 2301.42 873.75 2299.85 873.75 2298.17C873.75 2296.49 873.483 2294.92 872.947 2293.46C872.411 2292.01 871.586 2290.83 870.471 2289.94C869.355 2289.04 867.934 2288.59 866.207 2288.59C864.479 2288.59 863.058 2289.04 861.943 2289.94C860.828 2290.83 860.003 2292.01 859.467 2293.46C858.931 2294.92 858.663 2296.49 858.663 2298.17C858.663 2299.85 858.931 2301.42 859.467 2302.86C860.003 2304.3 860.828 2305.47 861.943 2306.35C863.058 2307.24 864.479 2307.68 866.207 2307.68ZM880.839 2317.85V2307.03H882.938C883.452 2306.49 883.895 2305.91 884.266 2305.29C884.638 2304.66 884.961 2303.93 885.234 2303.07C885.518 2302.21 885.759 2301.16 885.955 2299.92C886.152 2298.68 886.327 2297.17 886.48 2295.41L887.333 2285.44H903.338V2307.03H907.209V2317.85H903.338V2310.63H884.709V2317.85H880.839ZM887.333 2307.03H899.468V2289.05H890.941L890.285 2295.41C890.011 2298.05 889.673 2300.35 889.268 2302.32C888.863 2304.29 888.218 2305.86 887.333 2307.03ZM914.838 2320.08C914.182 2320.08 913.597 2320.02 913.084 2319.91C912.57 2319.82 912.214 2319.72 912.018 2319.62L913.002 2316.21C913.942 2316.45 914.773 2316.54 915.494 2316.47C916.216 2316.41 916.855 2316.08 917.413 2315.5C917.981 2314.93 918.501 2314.01 918.971 2312.73L919.692 2310.76L910.378 2285.44H914.576L921.529 2305.52H921.791L928.745 2285.44H932.943L922.251 2314.31C921.77 2315.61 921.174 2316.68 920.463 2317.54C919.753 2318.4 918.927 2319.04 917.987 2319.46C917.058 2319.87 916.008 2320.08 914.838 2320.08Z" fill="white"/>
<path d="M1383.63 989.384C1386.53 994.63 1385.18 1002.67 1378.65 1013.43C1372.22 1024.03 1361.2 1036.56 1346.35 1050.21C1316.67 1077.48 1272.07 1108.89 1219.59 1137.93C1167.11 1166.97 1116.8 1188.06 1077.93 1198.71C1058.47 1204.05 1042 1206.73 1029.61 1206.54C1017.02 1206.35 1009.49 1203.23 1006.59 1197.99C1003.69 1192.74 1005.04 1184.7 1011.57 1173.94C1018 1163.34 1029.02 1150.81 1043.87 1137.16C1073.55 1109.89 1118.15 1078.48 1170.63 1049.44C1223.11 1020.4 1273.42 999.309 1312.29 988.655C1331.75 983.323 1348.22 980.64 1360.61 980.827C1373.2 981.018 1380.73 984.139 1383.63 989.384Z" stroke="white" stroke-width="4.39695"/>
<path d="M1410.01 1033.35C1412.92 1038.6 1411.56 1046.63 1405.03 1057.4C1398.61 1068 1387.58 1080.53 1372.73 1094.18C1343.05 1121.45 1298.45 1152.86 1245.97 1181.9C1193.49 1210.93 1143.18 1232.03 1104.31 1242.68C1084.85 1248.02 1068.38 1250.7 1055.99 1250.51C1043.4 1250.32 1035.87 1247.2 1032.97 1241.95C1030.07 1236.71 1031.42 1228.67 1037.95 1217.91C1044.38 1207.31 1055.4 1194.78 1070.25 1181.13C1099.93 1153.86 1144.53 1122.45 1197.01 1093.41C1249.5 1064.37 1299.8 1043.28 1338.68 1032.62C1358.13 1027.29 1374.6 1024.61 1387 1024.8C1399.58 1024.99 1407.11 1028.11 1410.01 1033.35Z" stroke="white" stroke-width="4.39695"/>
<path d="M1436.39 1077.32C1439.3 1082.57 1437.94 1090.6 1431.41 1101.37C1424.99 1111.97 1413.96 1124.5 1399.11 1138.15C1369.43 1165.42 1324.84 1196.83 1272.35 1225.87C1219.87 1254.91 1169.56 1276 1130.69 1286.65C1111.23 1291.99 1094.77 1294.67 1082.37 1294.48C1069.78 1294.29 1062.25 1291.17 1059.35 1285.92C1056.45 1280.68 1057.81 1272.64 1064.33 1261.88C1070.76 1251.28 1081.78 1238.75 1096.63 1225.1C1126.31 1197.83 1170.91 1166.42 1223.39 1137.38C1275.88 1108.34 1326.18 1087.25 1365.06 1076.59C1384.51 1071.26 1400.98 1068.58 1413.38 1068.77C1425.96 1068.96 1433.49 1072.08 1436.39 1077.32Z" stroke="white" stroke-width="4.39695"/>
<path d="M1462.78 1121.29C1465.68 1126.54 1464.32 1134.57 1457.8 1145.34C1451.37 1155.94 1440.35 1168.47 1425.49 1182.12C1395.82 1209.39 1351.22 1240.8 1298.73 1269.84C1246.25 1298.87 1195.94 1319.97 1157.07 1330.62C1137.62 1335.95 1121.15 1338.64 1108.75 1338.45C1096.16 1338.26 1088.64 1335.14 1085.73 1329.89C1082.83 1324.65 1084.19 1316.61 1090.71 1305.85C1097.14 1295.25 1108.16 1282.72 1123.02 1269.07C1152.7 1241.8 1197.29 1210.38 1249.78 1181.35C1302.26 1152.31 1352.57 1131.22 1391.44 1120.56C1410.89 1115.23 1427.36 1112.55 1439.76 1112.74C1452.35 1112.93 1459.87 1116.05 1462.78 1121.29Z" stroke="white" stroke-width="4.39695"/>
<path d="M1489.16 1165.26C1492.06 1170.51 1490.71 1178.54 1484.18 1189.31C1477.75 1199.91 1466.73 1212.44 1451.88 1226.09C1422.2 1253.36 1377.6 1284.77 1325.12 1313.81C1272.63 1342.84 1222.33 1363.94 1183.45 1374.59C1164 1379.92 1147.53 1382.61 1135.13 1382.42C1122.55 1382.23 1115.02 1379.11 1112.12 1373.86C1109.21 1368.62 1110.57 1360.58 1117.1 1349.82C1123.52 1339.22 1134.55 1326.69 1149.4 1313.04C1179.08 1285.77 1223.67 1254.35 1276.16 1225.32C1328.64 1196.28 1378.95 1175.19 1417.82 1164.53C1437.28 1159.2 1453.74 1156.52 1466.14 1156.71C1478.73 1156.9 1486.26 1160.02 1489.16 1165.26Z" stroke="white" stroke-width="4.39695"/>
<path d="M1515.54 1231.22C1518.44 1236.46 1517.09 1244.5 1510.56 1255.26C1504.13 1265.86 1493.11 1278.39 1478.26 1292.04C1448.58 1319.31 1403.98 1350.72 1351.5 1379.76C1299.01 1408.8 1248.71 1429.89 1209.83 1440.55C1190.38 1445.88 1173.91 1448.56 1161.52 1448.37C1148.93 1448.18 1141.4 1445.06 1138.5 1439.82C1135.6 1434.57 1136.95 1426.54 1143.48 1415.77C1149.9 1405.17 1160.93 1392.64 1175.78 1378.99C1205.46 1351.72 1250.06 1320.31 1302.54 1291.27C1355.02 1262.24 1405.33 1241.14 1444.2 1230.49C1463.66 1225.16 1480.13 1222.47 1492.52 1222.66C1505.11 1222.85 1512.64 1225.97 1515.54 1231.22Z" stroke="white" stroke-width="4.39695"/>
<path d="M1532.21 1429.72C1533.27 1435.62 1529.41 1442.79 1519.77 1450.89C1510.28 1458.87 1495.82 1467.19 1477.37 1475.35C1440.5 1491.65 1388.18 1507.07 1329.15 1517.72C1270.12 1528.36 1215.71 1532.19 1175.47 1529.79C1155.34 1528.59 1138.88 1525.85 1127.2 1521.69C1115.34 1517.47 1109.21 1512.09 1108.15 1506.19C1107.08 1500.29 1110.95 1493.12 1120.59 1485.02C1130.08 1477.04 1144.54 1468.72 1162.99 1460.56C1199.85 1444.27 1252.18 1428.84 1311.2 1418.19C1370.23 1407.55 1424.65 1403.73 1464.88 1406.12C1485.02 1407.32 1501.48 1410.07 1513.16 1414.22C1525.02 1418.45 1531.14 1423.82 1532.21 1429.72Z" stroke="white" stroke-width="4.39695"/>
<path d="M1534.1 1500.38C1534.91 1506.32 1530.74 1513.32 1520.76 1521C1510.93 1528.56 1496.13 1536.25 1477.34 1543.6C1439.81 1558.29 1386.87 1571.45 1327.44 1579.54C1268 1587.63 1213.47 1589.1 1173.38 1584.98C1153.31 1582.91 1136.99 1579.46 1125.5 1574.8C1113.83 1570.07 1107.94 1564.44 1107.14 1558.5C1106.33 1552.56 1110.5 1545.56 1120.47 1537.88C1130.3 1530.32 1145.11 1522.63 1163.89 1515.28C1201.42 1500.58 1254.36 1487.43 1313.8 1479.34C1373.23 1471.25 1427.76 1469.77 1467.85 1473.9C1487.92 1475.96 1504.24 1479.42 1515.73 1484.08C1527.4 1488.81 1533.29 1494.44 1534.1 1500.38Z" stroke="white" stroke-width="4.39695"/>
<path d="M1514.67 1596.36C1514.5 1602.36 1509.25 1608.59 1498.15 1614.53C1487.23 1620.39 1471.36 1625.57 1451.63 1629.76C1412.21 1638.14 1357.83 1642.5 1297.88 1640.8C1237.92 1639.1 1183.88 1631.67 1144.99 1621.07C1125.53 1615.76 1109.99 1609.69 1099.41 1603.22C1088.67 1596.66 1083.78 1590.14 1083.95 1584.15C1084.12 1578.16 1089.37 1571.93 1100.47 1565.98C1111.39 1560.12 1127.25 1554.94 1146.98 1550.75C1186.41 1542.37 1240.79 1538.01 1300.74 1539.71C1360.7 1541.41 1414.74 1548.84 1453.63 1559.45C1473.09 1564.75 1488.63 1570.82 1499.21 1577.29C1509.95 1583.85 1514.84 1590.37 1514.67 1596.36Z" stroke="white" stroke-width="4.39695"/>
<path d="M1497.24 1704.07C1495.99 1709.93 1489.7 1715.11 1477.71 1718.95C1465.91 1722.73 1449.37 1724.96 1429.2 1725.52C1388.91 1726.63 1334.65 1721.09 1275.98 1708.58C1217.32 1696.07 1165.52 1678.99 1129.19 1661.53C1111.01 1652.79 1096.81 1644.01 1087.58 1635.74C1078.21 1627.34 1074.57 1620.05 1075.82 1614.18C1077.07 1608.32 1083.37 1603.14 1095.35 1599.3C1107.16 1595.51 1123.7 1593.29 1143.86 1592.73C1184.15 1591.61 1238.42 1597.16 1297.08 1609.67C1355.74 1622.18 1407.55 1639.26 1443.88 1656.72C1462.06 1665.46 1476.25 1674.24 1485.48 1682.51C1494.86 1690.91 1498.49 1698.2 1497.24 1704.07Z" stroke="white" stroke-width="4.39695"/>
<path d="M1462.12 1793.42C1459.73 1798.92 1452.53 1802.74 1440.02 1804.12C1427.7 1805.49 1411.05 1804.38 1391.17 1800.92C1351.47 1794 1299.38 1777.78 1244.38 1753.86C1189.38 1729.94 1142 1702.9 1109.86 1678.57C1093.78 1666.39 1081.62 1654.97 1074.21 1645.03C1066.7 1634.93 1064.58 1627.06 1066.97 1621.56C1069.36 1616.07 1076.56 1612.24 1089.08 1610.86C1101.4 1609.5 1118.05 1610.6 1137.92 1614.06C1177.63 1620.98 1229.71 1637.2 1284.71 1661.12C1339.72 1685.04 1387.1 1712.08 1419.23 1736.41C1435.31 1748.59 1447.47 1760.01 1454.88 1769.95C1462.4 1780.05 1464.51 1787.92 1462.12 1793.42Z" stroke="white" stroke-width="4.39695"/>
<path d="M1398.49 1919.35C1394.65 1923.96 1386.67 1925.61 1374.27 1923.43C1362.06 1921.29 1346.39 1915.56 1328.29 1906.67C1292.1 1888.91 1246.66 1858.74 1200.56 1820.36C1154.46 1781.98 1116.56 1742.75 1092.53 1710.39C1080.51 1694.2 1072.03 1679.82 1067.71 1668.2C1063.32 1656.4 1063.5 1648.26 1067.34 1643.65C1071.17 1639.04 1079.15 1637.39 1091.55 1639.57C1103.76 1641.71 1119.43 1647.44 1137.54 1656.33C1173.72 1674.1 1219.17 1704.26 1265.27 1742.64C1311.36 1781.02 1349.27 1820.25 1373.29 1852.61C1385.32 1868.8 1393.79 1883.18 1398.11 1894.8C1402.5 1906.6 1402.33 1914.75 1398.49 1919.35Z" stroke="white" stroke-width="4.39695"/>
<path d="M1305.42 2022.23C1300.5 2025.66 1292.37 2025.15 1280.99 2019.77C1269.78 2014.48 1256.17 2004.82 1241.06 1991.46C1210.85 1964.77 1174.98 1923.67 1140.66 1874.49C1106.33 1825.3 1080.13 1777.45 1065.5 1739.89C1058.18 1721.1 1053.8 1705 1052.7 1692.65C1051.59 1680.11 1053.91 1672.3 1058.82 1668.87C1063.74 1665.44 1071.87 1665.95 1083.26 1671.33C1094.47 1676.62 1108.07 1686.28 1123.19 1699.64C1153.39 1726.33 1189.26 1767.42 1223.59 1816.61C1257.91 1865.8 1284.11 1913.65 1298.74 1951.2C1306.07 1970 1310.44 1986.1 1311.54 1998.45C1312.66 2010.99 1310.34 2018.8 1305.42 2022.23Z" stroke="white" stroke-width="4.39695"/>
<path d="M1168.83 2091.45C1163.03 2092.94 1155.59 2089.62 1146.81 2080.6C1138.16 2071.71 1128.8 2057.9 1119.31 2040.1C1100.36 2004.52 1081.15 1953.47 1066.22 1895.38C1051.28 1837.28 1043.49 1783.29 1042.94 1742.99C1042.66 1722.82 1044.2 1706.21 1047.49 1694.25C1050.83 1682.12 1055.74 1675.61 1061.55 1674.12C1067.36 1672.63 1074.79 1675.96 1083.58 1684.98C1092.22 1693.86 1101.58 1707.67 1111.07 1725.48C1130.02 1761.05 1149.23 1812.1 1164.16 1870.2C1179.1 1928.29 1186.89 1982.28 1187.44 2022.58C1187.72 2042.75 1186.19 2059.37 1182.89 2071.32C1179.55 2083.46 1174.64 2089.96 1168.83 2091.45Z" stroke="white" stroke-width="4.39695"/>
<path d="M1106.23 2128.34C1100.38 2129.63 1093.06 2126.04 1084.6 2116.72C1076.26 2107.55 1067.39 2093.41 1058.53 2075.29C1040.83 2039.08 1023.41 1987.39 1010.5 1928.81C997.6 1870.23 991.691 1816.01 992.538 1775.71C992.962 1755.54 995.076 1738.99 998.782 1727.16C1002.55 1715.15 1007.68 1708.82 1013.53 1707.53C1019.39 1706.24 1026.71 1709.82 1035.17 1719.14C1043.51 1728.32 1052.38 1742.45 1061.24 1760.57C1078.94 1796.79 1096.36 1848.48 1109.27 1907.05C1122.17 1965.63 1128.08 2019.86 1127.23 2060.16C1126.81 2080.32 1124.69 2096.88 1120.99 2108.71C1117.22 2120.72 1112.09 2127.05 1106.23 2128.34Z" stroke="white" stroke-width="4.39695"/>
<path d="M1030.61 2149.38C1024.69 2150.31 1017.61 2146.29 1009.72 2136.47C1001.96 2126.81 993.96 2112.16 986.217 2093.54C970.744 2056.32 956.485 2003.67 947.157 1944.42C937.828 1885.16 935.218 1830.68 938.506 1790.5C940.152 1770.4 943.265 1754.01 947.682 1742.42C952.167 1730.66 957.676 1724.65 963.598 1723.72C969.519 1722.79 976.607 1726.81 984.49 1736.63C992.252 1746.29 1000.25 1760.94 1008 1779.56C1023.47 1816.78 1037.73 1869.44 1047.06 1928.69C1056.38 1987.94 1058.99 2042.42 1055.71 2082.6C1054.06 2102.7 1050.95 2119.09 1046.53 2130.68C1042.05 2142.44 1036.54 2148.45 1030.61 2149.38Z" stroke="white" stroke-width="4.39695"/>
<path d="M949.103 2177.96C943.12 2178.33 936.438 2173.67 929.503 2163.16C922.674 2152.82 916.071 2137.49 910.095 2118.22C898.153 2079.73 888.858 2025.98 885.084 1966.11C881.311 1906.25 883.784 1851.76 890.797 1812.07C894.307 1792.2 898.933 1776.17 904.408 1765.05C909.969 1753.75 916.013 1748.29 921.996 1747.91C927.978 1747.53 934.661 1752.2 941.596 1762.7C948.425 1773.05 955.027 1788.38 961.003 1807.64C972.945 1846.14 982.241 1899.89 986.014 1959.75C989.787 2019.61 987.315 2074.11 980.301 2113.8C976.792 2133.66 972.166 2149.7 966.69 2160.82C961.129 2172.11 955.086 2177.58 949.103 2177.96Z" stroke="white" stroke-width="4.39695"/>
<path d="M883.149 2182.35C877.166 2182.73 870.484 2178.07 863.549 2167.56C856.72 2157.21 850.117 2141.89 844.141 2122.62C832.199 2084.12 822.904 2030.37 819.13 1970.51C815.357 1910.65 817.83 1856.16 824.843 1816.46C828.353 1796.6 832.979 1780.57 838.454 1769.45C844.015 1758.15 850.059 1752.68 856.041 1752.31C862.024 1751.93 868.706 1756.59 875.642 1767.1C882.471 1777.45 889.073 1792.77 895.049 1812.04C906.991 1850.54 916.287 1904.29 920.06 1964.15C923.833 2024.01 921.361 2078.5 914.347 2118.2C910.838 2138.06 906.212 2154.09 900.736 2165.21C895.175 2176.51 889.131 2181.98 883.149 2182.35Z" stroke="white" stroke-width="4.39695"/>
<path d="M830.386 2177.96C824.403 2178.33 817.721 2173.67 810.786 2163.16C803.957 2152.82 797.354 2137.49 791.378 2118.22C779.436 2079.73 770.14 2025.98 766.367 1966.11C762.594 1906.25 765.066 1851.76 772.08 1812.07C775.589 1792.2 780.215 1776.17 785.691 1765.05C791.252 1753.75 797.296 1748.29 803.278 1747.91C809.261 1747.53 815.943 1752.2 822.878 1762.7C829.707 1773.05 836.31 1788.38 842.286 1807.64C854.228 1846.14 863.523 1899.89 867.297 1959.75C871.07 2019.61 868.597 2074.11 861.584 2113.8C858.074 2133.66 853.449 2149.7 847.973 2160.82C842.412 2172.11 836.368 2177.58 830.386 2177.96Z" stroke="white" stroke-width="4.39695"/>
<path d="M761.917 2175.81C755.922 2175.85 749.516 2170.81 743.189 2159.92C736.959 2149.21 731.238 2133.53 726.366 2113.96C716.631 2074.84 710.404 2020.65 710.038 1960.67C709.672 1900.69 715.237 1846.43 724.494 1807.2C729.126 1787.57 734.656 1771.82 740.755 1761.03C746.948 1750.07 753.293 1744.95 759.287 1744.92C765.282 1744.88 771.688 1749.92 778.015 1760.8C784.245 1771.52 789.966 1787.19 794.838 1806.77C804.573 1845.88 810.8 1900.07 811.166 1960.05C811.532 2020.03 805.967 2074.3 796.71 2113.53C792.078 2133.16 786.548 2148.9 780.449 2159.7C774.256 2170.66 767.911 2175.77 761.917 2175.81Z" stroke="white" stroke-width="4.39695"/>
<path d="M688.969 2173.08C682.981 2172.8 676.848 2167.44 671.101 2156.23C665.442 2145.2 660.552 2129.25 656.714 2109.45C649.045 2069.88 645.672 2015.43 648.455 1955.52C651.237 1895.6 659.643 1841.7 670.946 1803.01C676.603 1783.65 682.951 1768.22 689.608 1757.76C696.369 1747.14 702.973 1742.37 708.961 1742.64C714.949 1742.92 721.082 1748.29 726.829 1759.49C732.488 1770.52 737.379 1786.47 741.216 1806.28C748.885 1845.85 752.258 1900.29 749.476 1960.21C746.693 2020.12 738.287 2074.02 726.984 2112.71C721.327 2132.07 714.979 2147.5 708.322 2157.96C701.562 2168.58 694.957 2173.36 688.969 2173.08Z" stroke="white" stroke-width="4.39695"/>
<path d="M600.801 2161.07C594.861 2160.26 589.226 2154.37 584.493 2142.71C579.833 2131.22 576.373 2114.9 574.303 2094.83C570.166 2054.74 571.624 2000.21 579.698 1940.77C587.772 1881.34 600.914 1828.39 615.597 1790.86C622.945 1772.07 630.634 1757.26 638.19 1747.43C645.864 1737.45 652.865 1733.28 658.805 1734.09C664.745 1734.9 670.379 1740.78 675.112 1752.45C679.773 1763.94 683.232 1780.26 685.302 1800.33C689.439 1840.42 687.981 1894.95 679.907 1954.39C671.833 2013.82 658.691 2066.76 644.008 2104.3C636.66 2123.09 628.971 2137.89 621.415 2147.72C613.741 2157.7 606.741 2161.87 600.801 2161.07Z" stroke="white" stroke-width="4.39695"/>
<path d="M521.281 2151.19C515.398 2150.04 510.114 2143.84 506.066 2131.92C502.079 2120.18 499.571 2103.68 498.668 2083.53C496.862 2043.26 501.478 1988.91 512.984 1930.04C524.49 1871.18 540.679 1819.08 557.513 1782.46C565.938 1764.13 574.472 1749.79 582.585 1740.42C590.825 1730.9 598.056 1727.14 603.939 1728.29C609.822 1729.44 615.106 1735.65 619.154 1747.57C623.141 1759.31 625.649 1775.8 626.552 1795.95C628.358 1836.22 623.742 1890.58 612.236 1949.44C600.73 2008.31 584.541 2060.4 567.707 2097.02C559.282 2115.35 550.748 2129.69 542.635 2139.06C534.395 2148.58 527.164 2152.34 521.281 2151.19Z" stroke="white" stroke-width="4.39695"/>
<path d="M450.484 2140.38C444.664 2138.95 439.686 2132.49 436.218 2120.39C432.803 2108.47 431.095 2091.87 431.166 2071.7C431.308 2031.4 438.544 1977.33 452.881 1919.09C467.217 1860.84 485.903 1809.6 504.487 1773.83C513.787 1755.93 523.004 1742.02 531.561 1733.05C540.25 1723.94 547.654 1720.53 553.475 1721.97C559.296 1723.4 564.274 1729.85 567.742 1741.95C571.157 1753.87 572.865 1770.47 572.794 1790.64C572.652 1830.95 565.415 1885.02 551.079 1943.26C536.743 2001.5 518.057 2052.75 499.473 2088.52C490.173 2106.42 480.956 2120.33 472.399 2129.3C463.709 2138.41 456.305 2141.81 450.484 2140.38Z" stroke="white" stroke-width="4.39695"/>
<path d="M375.122 2119.49C369.384 2117.75 364.748 2111.05 361.914 2098.78C359.123 2086.7 358.281 2070.04 359.401 2049.9C361.638 2009.65 371.677 1956.04 389.022 1898.62C406.367 1841.2 427.694 1790.99 448.112 1756.24C458.331 1738.85 468.259 1725.44 477.27 1716.92C486.422 1708.28 493.993 1705.26 499.731 1707C505.47 1708.73 510.105 1715.43 512.939 1727.7C515.73 1739.78 516.572 1756.44 515.452 1776.58C513.215 1816.83 503.176 1870.45 485.831 1927.86C468.486 1985.28 447.159 2035.49 426.741 2070.24C416.522 2087.63 406.595 2101.04 397.583 2109.56C388.432 2118.2 380.86 2121.22 375.122 2119.49Z" stroke="white" stroke-width="4.39695"/>
<path d="M281.112 2088.81C275.706 2086.22 272.147 2078.89 271.218 2066.34C270.303 2053.98 272.013 2037.38 276.193 2017.64C284.545 1978.21 302.647 1926.75 328.55 1872.65C354.453 1818.55 383.191 1772.19 408.673 1740.96C421.425 1725.33 433.283 1713.59 443.488 1706.55C453.852 1699.4 461.794 1697.58 467.201 1700.17C472.608 1702.76 476.166 1710.09 477.095 1722.64C478.011 1735.01 476.3 1751.6 472.12 1771.34C463.768 1810.77 445.666 1862.23 419.763 1916.33C393.86 1970.43 365.123 2016.79 339.64 2048.02C326.888 2063.65 315.03 2075.39 304.825 2082.43C294.462 2089.58 286.519 2091.4 281.112 2088.81Z" stroke="white" stroke-width="4.39695"/>
<path d="M173.422 2032.47C168.701 2028.78 166.808 2020.85 168.607 2008.39C170.38 1996.12 175.629 1980.28 183.966 1961.92C200.624 1925.21 229.397 1878.87 266.356 1831.63C303.316 1784.39 341.375 1745.31 372.992 1720.31C388.815 1707.8 402.925 1698.89 414.408 1694.22C426.069 1689.47 434.218 1689.4 438.94 1693.1C443.661 1696.79 445.555 1704.72 443.755 1717.18C441.982 1729.45 436.733 1745.29 428.396 1763.65C411.738 1800.36 382.965 1846.7 346.006 1893.94C309.046 1941.18 270.987 1980.26 239.37 2005.26C223.547 2017.77 209.437 2026.68 197.954 2031.35C186.293 2036.1 178.144 2036.17 173.422 2032.47Z" stroke="white" stroke-width="4.39695"/>
<path d="M1535.76 1321.22C1537.99 1326.79 1535.66 1334.59 1527.85 1344.47C1520.17 1354.2 1507.68 1365.27 1491.26 1376.98C1458.44 1400.39 1410.31 1426.06 1354.65 1448.4C1298.98 1470.74 1246.46 1485.47 1206.57 1491.24C1186.6 1494.14 1169.93 1494.77 1157.65 1493.05C1145.18 1491.31 1138.1 1487.28 1135.87 1481.72C1133.63 1476.16 1135.97 1468.35 1143.77 1458.47C1151.46 1448.74 1163.94 1437.67 1180.37 1425.96C1213.18 1402.56 1261.31 1376.89 1316.98 1354.54C1372.64 1332.2 1425.17 1317.48 1465.06 1311.7C1485.02 1308.81 1501.7 1308.18 1513.97 1309.89C1526.44 1311.63 1533.53 1315.66 1535.76 1321.22Z" stroke="white" stroke-width="4.39695"/>
<rect x="2.2" y="2.2" width="1419.6" height="200.6" rx="100.3" stroke="white" stroke-width="4.4"/>
<rect x="2.2" y="254.2" width="596.6" height="200.6" rx="100.3" stroke="white" stroke-width="4.4"/>
<rect x="655.2" y="850.8" width="596.6" height="200.6" rx="100.3" transform="rotate(-90 655.2 850.8)" stroke="white" stroke-width="4.4"/>
<rect x="897.2" y="854.8" width="596.6" height="518.6" rx="100.3" transform="rotate(-90 897.2 854.8)" stroke="white" stroke-width="4.4"/>
<path d="M101.555 348C114.642 325.333 147.358 325.333 160.445 348V348C173.531 370.667 157.173 399 131 399V399C104.827 399 88.4685 370.667 101.555 348V348Z" fill="white"/>
<path d="M273.081 331.5C281.934 316.167 304.066 316.167 312.919 331.5L331.971 364.5C340.824 379.833 329.758 399 312.053 399H273.947C256.242 399 245.176 379.833 254.029 364.5L273.081 331.5Z" fill="white"/>
<path d="M454 297L512.89 399H395.11L454 297Z" fill="white"/>
<path d="M787.673 337.604L752.255 385.126L746.5 380.837L778.113 338.42L754.167 320.573L722.554 362.99L716.799 358.701L752.217 311.179L787.673 337.604Z" fill="white"/>
<path d="M778.086 512.917L720.122 500.551L721.619 493.532L773.356 504.57L779.588 475.361L727.85 464.324L729.348 457.305L787.312 469.671L778.086 512.917Z" fill="white"/>
<path d="M750.056 656.839L719.558 607.655L725.514 603.962L752.736 647.862L777.52 632.494L750.298 588.594L756.254 584.9L786.752 634.084L750.056 656.839Z" fill="white"/>
<path d="M721.651 767.004L752.21 715.124L758.493 718.825L731.216 765.132L757.358 780.531L784.635 734.224L790.917 737.925L760.358 789.804L721.651 767.004Z" fill="white"/>
<path d="M243.677 1036.15V1010.96H263.487V1036.15H259.617V1014.57H247.547V1036.15H243.677ZM280.788 1036.68C278.514 1036.68 276.519 1036.13 274.802 1035.05C273.097 1033.97 271.763 1032.46 270.801 1030.51C269.85 1028.56 269.374 1026.29 269.374 1023.69C269.374 1021.06 269.85 1018.77 270.801 1016.82C271.763 1014.86 273.097 1013.34 274.802 1012.26C276.519 1011.18 278.514 1010.63 280.788 1010.63C283.062 1010.63 285.052 1011.18 286.757 1012.26C288.474 1013.34 289.807 1014.86 290.759 1016.82C291.721 1018.77 292.202 1021.06 292.202 1023.69C292.202 1026.29 291.721 1028.56 290.759 1030.51C289.807 1032.46 288.474 1033.97 286.757 1035.05C285.052 1036.13 283.062 1036.68 280.788 1036.68ZM280.788 1033.2C282.515 1033.2 283.937 1032.76 285.052 1031.87C286.167 1030.99 286.992 1029.82 287.528 1028.38C288.064 1026.94 288.332 1025.37 288.332 1023.69C288.332 1022 288.064 1020.44 287.528 1018.98C286.992 1017.53 286.167 1016.35 285.052 1015.46C283.937 1014.56 282.515 1014.11 280.788 1014.11C279.061 1014.11 277.639 1014.56 276.524 1015.46C275.409 1016.35 274.584 1017.53 274.048 1018.98C273.512 1020.44 273.244 1022 273.244 1023.69C273.244 1025.37 273.512 1026.94 274.048 1028.38C274.584 1029.82 275.409 1030.99 276.524 1031.87C277.639 1032.76 279.061 1033.2 280.788 1033.2Z" fill="white"/>
<path d="M371.677 1019.15V993.962H375.547V1004.92H378.105L387.158 993.962H392.143L381.976 1006.1L392.274 1019.15H387.289L379.024 1008.52H375.547V1019.15H371.677ZM398.973 1028.6C398.317 1028.6 397.732 1028.54 397.218 1028.43C396.705 1028.33 396.349 1028.24 396.153 1028.14L397.136 1024.73C398.077 1024.97 398.908 1025.06 399.629 1024.99C400.351 1024.92 400.99 1024.6 401.548 1024.02C402.116 1023.45 402.636 1022.53 403.106 1021.25L403.827 1019.28L394.513 993.962H398.711L405.664 1014.03H405.926L412.88 993.962H417.078L406.386 1022.82C405.905 1024.13 405.309 1025.2 404.598 1026.06C403.887 1026.92 403.062 1027.56 402.122 1027.97C401.193 1028.39 400.143 1028.6 398.973 1028.6Z" fill="white"/>
<path d="M427.565 1035.18C425.243 1035.62 423.142 1035.44 421.261 1034.66C419.38 1033.87 417.809 1032.6 416.548 1030.85C415.286 1029.09 414.425 1026.98 413.965 1024.51C413.496 1021.99 413.544 1019.69 414.11 1017.59C414.685 1015.48 415.704 1013.73 417.167 1012.33C418.64 1010.93 420.493 1010.01 422.729 1009.6C424.47 1009.27 426.099 1009.3 427.617 1009.69C429.134 1010.07 430.447 1010.76 431.555 1011.75C432.664 1012.75 433.47 1014 433.973 1015.51L430.168 1016.22C429.668 1015.14 428.837 1014.26 427.675 1013.58C426.522 1012.88 425.107 1012.69 423.43 1013C421.947 1013.28 420.719 1013.91 419.745 1014.89C418.781 1015.86 418.117 1017.1 417.754 1018.61C417.4 1020.11 417.397 1021.8 417.745 1023.67C418.102 1025.58 418.713 1027.19 419.58 1028.5C420.457 1029.8 421.522 1030.74 422.775 1031.32C424.039 1031.9 425.423 1032.05 426.928 1031.77C427.917 1031.58 428.782 1031.24 429.524 1030.75C430.266 1030.26 430.856 1029.63 431.295 1028.88C431.734 1028.14 431.987 1027.29 432.055 1026.34L435.86 1025.63C435.918 1027.13 435.631 1028.55 435 1029.88C434.378 1031.2 433.438 1032.33 432.18 1033.27C430.93 1034.21 429.392 1034.84 427.565 1035.18ZM452.924 1030.46C450.688 1030.87 448.628 1030.71 446.742 1029.96C444.867 1029.21 443.279 1027.96 441.976 1026.23C440.685 1024.49 439.8 1022.34 439.324 1019.78C438.843 1017.2 438.891 1014.86 439.467 1012.77C440.055 1010.66 441.087 1008.93 442.566 1007.55C444.055 1006.17 445.917 1005.27 448.152 1004.86C450.388 1004.44 452.443 1004.61 454.318 1005.36C456.204 1006.11 457.793 1007.36 459.087 1009.11C460.391 1010.86 461.284 1013.02 461.765 1015.6C462.241 1018.16 462.185 1020.48 461.596 1022.57C461.018 1024.66 459.984 1026.39 458.495 1027.77C457.016 1029.14 455.159 1030.04 452.924 1030.46ZM452.287 1027.04C453.985 1026.72 455.301 1026.03 456.235 1024.95C457.169 1023.88 457.767 1022.58 458.029 1021.07C458.292 1019.55 458.269 1017.96 457.96 1016.31C457.652 1014.65 457.101 1013.16 456.308 1011.83C455.515 1010.5 454.488 1009.49 453.227 1008.82C451.967 1008.14 450.488 1007.96 448.789 1008.28C447.091 1008.59 445.776 1009.29 444.844 1010.38C443.912 1011.46 443.316 1012.77 443.056 1014.3C442.796 1015.83 442.82 1017.42 443.128 1019.07C443.437 1020.73 443.987 1022.22 444.778 1023.54C445.569 1024.86 446.593 1025.85 447.852 1026.52C449.111 1027.18 450.589 1027.36 452.287 1027.04ZM484.329 998.448L488.944 1023.21L485.139 1023.92L480.524 999.158L484.329 998.448ZM485.045 1010.53L485.706 1014.07C484.906 1014.56 484.105 1015 483.302 1015.4C482.497 1015.8 481.64 1016.15 480.731 1016.47C479.82 1016.77 478.805 1017.03 477.688 1017.24C474.883 1017.76 472.49 1017.42 470.509 1016.22C468.539 1015.02 467.272 1012.9 466.707 1009.87L465.229 1001.94L469.033 1001.23L470.512 1009.16C470.748 1010.43 471.184 1011.43 471.82 1012.16C472.456 1012.88 473.225 1013.37 474.126 1013.61C475.028 1013.86 475.995 1013.88 477.027 1013.69C478.639 1013.39 480.068 1012.97 481.314 1012.44C482.57 1011.89 483.813 1011.26 485.045 1010.53Z" fill="white"/>
<path d="M463.801 984.156L471.323 960.116L475.017 961.272L471.745 971.727L474.187 972.491L486.097 964.74L490.855 966.228L477.528 974.773L483.458 990.307L478.7 988.818L473.986 976.208L470.668 975.17L467.494 985.311L463.801 984.156ZM494.37 994.34C492.847 993.864 491.554 993.144 490.492 992.182C489.433 991.209 488.71 990.06 488.322 988.736C487.938 987.402 487.991 985.952 488.481 984.387C488.912 983.01 489.532 981.978 490.343 981.292C491.156 980.596 492.093 980.145 493.155 979.939C494.216 979.732 495.332 979.68 496.502 979.783C497.687 979.879 498.86 980.029 500.022 980.232C501.542 980.501 502.77 980.731 503.707 980.921C504.658 981.104 505.379 981.141 505.872 981.031C506.375 980.925 506.719 980.575 506.905 979.98L506.945 979.855C507.428 978.311 507.381 976.979 506.803 975.859C506.236 974.742 505.103 973.917 503.402 973.385C501.639 972.833 500.135 972.787 498.892 973.245C497.649 973.704 496.687 974.308 496.005 975.057L492.891 972.708C493.975 971.443 495.165 970.567 496.463 970.08C497.775 969.585 499.102 969.371 500.445 969.436C501.802 969.494 503.085 969.712 504.295 970.091C505.067 970.332 505.925 970.704 506.868 971.205C507.824 971.699 508.684 972.375 509.447 973.232C510.22 974.093 510.742 975.189 511.012 976.523C511.282 977.856 511.118 979.477 510.521 981.386L505.564 997.225L501.871 996.069L502.889 992.814L502.702 992.755C502.288 993.198 501.696 993.626 500.925 994.038C500.155 994.45 499.219 994.712 498.118 994.826C497.017 994.94 495.768 994.778 494.37 994.34ZM495.972 991.199C497.432 991.656 498.753 991.754 499.934 991.494C501.126 991.237 502.12 990.734 502.915 989.986C503.721 989.242 504.28 988.369 504.594 987.367L505.652 983.987C505.436 984.126 505.038 984.19 504.457 984.18C503.89 984.163 503.244 984.104 502.519 984.003C501.808 983.895 501.116 983.782 500.443 983.663C499.784 983.537 499.248 983.438 498.835 983.366C497.836 983.191 496.875 983.113 495.952 983.134C495.043 983.147 494.246 983.35 493.562 983.743C492.891 984.129 492.409 984.792 492.115 985.731C491.714 987.014 491.885 988.133 492.629 989.087C493.386 990.035 494.5 990.738 495.972 991.199ZM527.019 998.44L541.364 982.034L544.869 983.131L526.955 1003.92L523.95 1002.98L521.268 975.746L524.711 976.823L527.019 998.44ZM523.522 976.451L515.999 1000.49L512.306 999.335L519.828 975.295L523.522 976.451ZM534.905 1006.41L542.428 982.367L546.122 983.523L538.599 1007.56L534.905 1006.41Z" fill="white"/>
<mask id="mask0_14_143" style="mask-type:alpha" maskUnits="userSpaceOnUse" x="895" y="256" width="523" height="601">
<rect x="897.2" y="854.8" width="596.6" height="518.6" rx="100.3" transform="rotate(-90 897.2 854.8)" fill="#D9D9D9" stroke="white" stroke-width="4.4"/>
</mask>
<g mask="url(#mask0_14_143)">
<path d="M1156.5 68L1210.05 232.799H1383.33L1243.14 334.651L1296.69 499.451L1156.5 397.599L1016.31 499.451L1069.86 334.651L929.673 232.799H1102.95L1156.5 68Z" fill="white"/>
</g>
</g>
<defs>
<clipPath id="clip0_14_143">
<rect width="1557" height="2322" fill="white"/>
</clipPath>
</defs>
</svg>
