<svg width="1557" height="2322" viewBox="0 0 1557 2322" fill="none" xmlns="http://www.w3.org/2000/svg">
<g clip-path="url(#clip0_14_144)">
<path d="M1383.63 989.384C1386.53 994.63 1385.18 1002.67 1378.65 1013.43C1372.22 1024.03 1361.2 1036.56 1346.35 1050.21C1316.67 1077.48 1272.07 1108.89 1219.59 1137.93C1167.11 1166.97 1116.8 1188.06 1077.93 1198.71C1058.47 1204.05 1042 1206.73 1029.61 1206.54C1017.02 1206.35 1009.49 1203.23 1006.59 1197.99C1003.69 1192.74 1005.04 1184.7 1011.57 1173.94C1018 1163.34 1029.02 1150.81 1043.87 1137.16C1073.55 1109.89 1118.15 1078.48 1170.63 1049.44C1223.11 1020.4 1273.42 999.309 1312.29 988.655C1331.75 983.323 1348.22 980.64 1360.61 980.827C1373.2 981.018 1380.73 984.139 1383.63 989.384Z" stroke="white" stroke-width="4.39695"/>
<path d="M1410.01 1033.35C1412.92 1038.6 1411.56 1046.63 1405.03 1057.4C1398.61 1068 1387.58 1080.53 1372.73 1094.18C1343.05 1121.45 1298.45 1152.86 1245.97 1181.9C1193.49 1210.93 1143.18 1232.03 1104.31 1242.68C1084.85 1248.02 1068.38 1250.7 1055.99 1250.51C1043.4 1250.32 1035.87 1247.2 1032.97 1241.95C1030.07 1236.71 1031.42 1228.67 1037.95 1217.91C1044.38 1207.31 1055.4 1194.78 1070.25 1181.13C1099.93 1153.86 1144.53 1122.45 1197.01 1093.41C1249.5 1064.37 1299.8 1043.28 1338.68 1032.62C1358.13 1027.29 1374.6 1024.61 1387 1024.8C1399.58 1024.99 1407.11 1028.11 1410.01 1033.35Z" stroke="white" stroke-width="4.39695"/>
<path d="M1436.39 1077.32C1439.3 1082.57 1437.94 1090.6 1431.41 1101.37C1424.99 1111.97 1413.96 1124.5 1399.11 1138.15C1369.43 1165.42 1324.84 1196.83 1272.35 1225.87C1219.87 1254.91 1169.56 1276 1130.69 1286.65C1111.23 1291.99 1094.77 1294.67 1082.37 1294.48C1069.78 1294.29 1062.25 1291.17 1059.35 1285.92C1056.45 1280.68 1057.81 1272.64 1064.33 1261.88C1070.76 1251.28 1081.78 1238.75 1096.63 1225.1C1126.31 1197.83 1170.91 1166.42 1223.39 1137.38C1275.88 1108.34 1326.18 1087.25 1365.06 1076.59C1384.51 1071.26 1400.98 1068.58 1413.38 1068.77C1425.96 1068.96 1433.49 1072.08 1436.39 1077.32Z" stroke="white" stroke-width="4.39695"/>
<path d="M1462.78 1121.29C1465.68 1126.54 1464.32 1134.57 1457.8 1145.34C1451.37 1155.94 1440.35 1168.47 1425.49 1182.12C1395.82 1209.39 1351.22 1240.8 1298.73 1269.84C1246.25 1298.87 1195.94 1319.97 1157.07 1330.62C1137.62 1335.95 1121.15 1338.64 1108.75 1338.45C1096.16 1338.26 1088.64 1335.14 1085.73 1329.89C1082.83 1324.65 1084.19 1316.61 1090.71 1305.85C1097.14 1295.25 1108.16 1282.72 1123.02 1269.07C1152.7 1241.8 1197.29 1210.38 1249.78 1181.35C1302.26 1152.31 1352.57 1131.22 1391.44 1120.56C1410.89 1115.23 1427.36 1112.55 1439.76 1112.74C1452.35 1112.93 1459.87 1116.05 1462.78 1121.29Z" stroke="white" stroke-width="4.39695"/>
<path d="M1489.16 1165.26C1492.06 1170.51 1490.71 1178.54 1484.18 1189.31C1477.75 1199.91 1466.73 1212.44 1451.88 1226.09C1422.2 1253.36 1377.6 1284.77 1325.12 1313.81C1272.63 1342.84 1222.33 1363.94 1183.45 1374.59C1164 1379.92 1147.53 1382.61 1135.13 1382.42C1122.55 1382.23 1115.02 1379.11 1112.12 1373.86C1109.21 1368.62 1110.57 1360.58 1117.1 1349.82C1123.52 1339.22 1134.55 1326.69 1149.4 1313.04C1179.08 1285.77 1223.67 1254.35 1276.16 1225.32C1328.64 1196.28 1378.95 1175.19 1417.82 1164.53C1437.28 1159.2 1453.74 1156.52 1466.14 1156.71C1478.73 1156.9 1486.26 1160.02 1489.16 1165.26Z" stroke="white" stroke-width="4.39695"/>
<path d="M1515.54 1231.22C1518.44 1236.46 1517.09 1244.5 1510.56 1255.26C1504.13 1265.86 1493.11 1278.39 1478.26 1292.04C1448.58 1319.31 1403.98 1350.72 1351.5 1379.76C1299.01 1408.8 1248.71 1429.89 1209.83 1440.55C1190.38 1445.88 1173.91 1448.56 1161.52 1448.37C1148.93 1448.18 1141.4 1445.06 1138.5 1439.82C1135.6 1434.57 1136.95 1426.54 1143.48 1415.77C1149.9 1405.17 1160.93 1392.64 1175.78 1378.99C1205.46 1351.72 1250.06 1320.31 1302.54 1291.27C1355.02 1262.24 1405.33 1241.14 1444.2 1230.49C1463.66 1225.16 1480.13 1222.47 1492.52 1222.66C1505.11 1222.85 1512.64 1225.97 1515.54 1231.22Z" stroke="white" stroke-width="4.39695"/>
<path d="M1532.21 1429.72C1533.27 1435.62 1529.41 1442.79 1519.77 1450.89C1510.28 1458.87 1495.82 1467.19 1477.37 1475.35C1440.5 1491.65 1388.18 1507.07 1329.15 1517.72C1270.12 1528.36 1215.71 1532.19 1175.47 1529.79C1155.34 1528.59 1138.88 1525.85 1127.2 1521.69C1115.34 1517.47 1109.21 1512.09 1108.15 1506.19C1107.08 1500.29 1110.95 1493.12 1120.59 1485.02C1130.08 1477.04 1144.54 1468.72 1162.99 1460.56C1199.85 1444.27 1252.18 1428.84 1311.2 1418.19C1370.23 1407.55 1424.65 1403.73 1464.88 1406.12C1485.02 1407.32 1501.48 1410.07 1513.16 1414.22C1525.02 1418.45 1531.14 1423.82 1532.21 1429.72Z" stroke="white" stroke-width="4.39695"/>
<path d="M1534.1 1500.38C1534.91 1506.32 1530.74 1513.32 1520.76 1521C1510.93 1528.56 1496.13 1536.25 1477.34 1543.6C1439.81 1558.29 1386.87 1571.45 1327.44 1579.54C1268 1587.63 1213.47 1589.1 1173.38 1584.98C1153.31 1582.91 1136.99 1579.46 1125.5 1574.8C1113.83 1570.07 1107.94 1564.44 1107.14 1558.5C1106.33 1552.56 1110.5 1545.56 1120.47 1537.88C1130.3 1530.32 1145.11 1522.63 1163.89 1515.28C1201.42 1500.58 1254.36 1487.43 1313.8 1479.34C1373.23 1471.25 1427.76 1469.77 1467.85 1473.9C1487.92 1475.96 1504.24 1479.42 1515.73 1484.08C1527.4 1488.81 1533.29 1494.44 1534.1 1500.38Z" stroke="white" stroke-width="4.39695"/>
<path d="M1514.67 1596.36C1514.5 1602.36 1509.25 1608.59 1498.15 1614.53C1487.23 1620.39 1471.36 1625.57 1451.63 1629.76C1412.21 1638.14 1357.83 1642.5 1297.88 1640.8C1237.92 1639.1 1183.88 1631.67 1144.99 1621.07C1125.53 1615.76 1109.99 1609.69 1099.41 1603.22C1088.67 1596.66 1083.78 1590.14 1083.95 1584.15C1084.12 1578.16 1089.37 1571.93 1100.47 1565.98C1111.39 1560.12 1127.25 1554.94 1146.98 1550.75C1186.41 1542.37 1240.79 1538.01 1300.74 1539.71C1360.7 1541.41 1414.74 1548.84 1453.63 1559.45C1473.09 1564.75 1488.63 1570.82 1499.21 1577.29C1509.95 1583.85 1514.84 1590.37 1514.67 1596.36Z" stroke="white" stroke-width="4.39695"/>
<path d="M1497.24 1704.07C1495.99 1709.93 1489.7 1715.11 1477.71 1718.95C1465.91 1722.73 1449.37 1724.96 1429.2 1725.52C1388.91 1726.63 1334.65 1721.09 1275.98 1708.58C1217.32 1696.07 1165.52 1678.99 1129.19 1661.53C1111.01 1652.79 1096.81 1644.01 1087.58 1635.74C1078.21 1627.34 1074.57 1620.05 1075.82 1614.18C1077.07 1608.32 1083.37 1603.14 1095.35 1599.3C1107.16 1595.51 1123.7 1593.29 1143.86 1592.73C1184.15 1591.61 1238.42 1597.16 1297.08 1609.67C1355.74 1622.18 1407.55 1639.26 1443.88 1656.72C1462.06 1665.46 1476.25 1674.24 1485.48 1682.51C1494.86 1690.91 1498.49 1698.2 1497.24 1704.07Z" stroke="white" stroke-width="4.39695"/>
<path d="M1462.12 1793.42C1459.73 1798.92 1452.53 1802.74 1440.02 1804.12C1427.7 1805.49 1411.05 1804.38 1391.17 1800.92C1351.47 1794 1299.38 1777.78 1244.38 1753.86C1189.38 1729.94 1142 1702.9 1109.86 1678.57C1093.78 1666.39 1081.62 1654.97 1074.21 1645.03C1066.7 1634.93 1064.58 1627.06 1066.97 1621.56C1069.36 1616.07 1076.56 1612.24 1089.08 1610.86C1101.4 1609.5 1118.05 1610.6 1137.92 1614.06C1177.63 1620.98 1229.71 1637.2 1284.71 1661.12C1339.72 1685.04 1387.1 1712.08 1419.23 1736.41C1435.31 1748.59 1447.47 1760.01 1454.88 1769.95C1462.4 1780.05 1464.51 1787.92 1462.12 1793.42Z" stroke="white" stroke-width="4.39695"/>
<path d="M1398.49 1919.35C1394.65 1923.96 1386.67 1925.61 1374.27 1923.43C1362.06 1921.29 1346.39 1915.56 1328.29 1906.67C1292.1 1888.91 1246.66 1858.74 1200.56 1820.36C1154.46 1781.98 1116.56 1742.75 1092.53 1710.39C1080.51 1694.2 1072.03 1679.82 1067.71 1668.2C1063.32 1656.4 1063.5 1648.26 1067.34 1643.65C1071.17 1639.04 1079.15 1637.39 1091.55 1639.57C1103.76 1641.71 1119.43 1647.44 1137.54 1656.33C1173.72 1674.1 1219.17 1704.26 1265.27 1742.64C1311.36 1781.02 1349.27 1820.25 1373.29 1852.61C1385.32 1868.8 1393.79 1883.18 1398.11 1894.8C1402.5 1906.6 1402.33 1914.75 1398.49 1919.35Z" stroke="white" stroke-width="4.39695"/>
<path d="M1305.42 2022.23C1300.5 2025.66 1292.37 2025.15 1280.99 2019.77C1269.78 2014.48 1256.17 2004.82 1241.06 1991.46C1210.85 1964.77 1174.98 1923.67 1140.66 1874.49C1106.33 1825.3 1080.13 1777.45 1065.5 1739.89C1058.18 1721.1 1053.8 1705 1052.7 1692.65C1051.59 1680.11 1053.91 1672.3 1058.82 1668.87C1063.74 1665.44 1071.87 1665.95 1083.26 1671.33C1094.47 1676.62 1108.07 1686.28 1123.19 1699.64C1153.39 1726.33 1189.26 1767.42 1223.59 1816.61C1257.91 1865.8 1284.11 1913.65 1298.74 1951.2C1306.07 1970 1310.44 1986.1 1311.54 1998.45C1312.66 2010.99 1310.34 2018.8 1305.42 2022.23Z" stroke="white" stroke-width="4.39695"/>
<path d="M1168.83 2091.45C1163.03 2092.94 1155.59 2089.62 1146.81 2080.6C1138.16 2071.71 1128.8 2057.9 1119.31 2040.1C1100.36 2004.52 1081.15 1953.47 1066.22 1895.38C1051.28 1837.28 1043.49 1783.29 1042.94 1742.99C1042.66 1722.82 1044.2 1706.21 1047.49 1694.25C1050.83 1682.12 1055.74 1675.61 1061.55 1674.12C1067.36 1672.63 1074.79 1675.96 1083.58 1684.98C1092.22 1693.86 1101.58 1707.67 1111.07 1725.48C1130.02 1761.05 1149.23 1812.1 1164.16 1870.2C1179.1 1928.29 1186.89 1982.28 1187.44 2022.58C1187.72 2042.75 1186.19 2059.37 1182.89 2071.32C1179.55 2083.46 1174.64 2089.96 1168.83 2091.45Z" stroke="white" stroke-width="4.39695"/>
<path d="M1106.23 2128.34C1100.38 2129.63 1093.06 2126.04 1084.6 2116.72C1076.26 2107.55 1067.39 2093.41 1058.53 2075.29C1040.83 2039.08 1023.41 1987.39 1010.5 1928.81C997.6 1870.23 991.691 1816.01 992.538 1775.71C992.962 1755.54 995.076 1738.99 998.782 1727.16C1002.55 1715.15 1007.68 1708.82 1013.53 1707.53C1019.39 1706.24 1026.71 1709.82 1035.17 1719.14C1043.51 1728.32 1052.38 1742.45 1061.24 1760.57C1078.94 1796.79 1096.36 1848.48 1109.27 1907.05C1122.17 1965.63 1128.08 2019.86 1127.23 2060.16C1126.81 2080.32 1124.69 2096.88 1120.99 2108.71C1117.22 2120.72 1112.09 2127.05 1106.23 2128.34Z" stroke="white" stroke-width="4.39695"/>
<path d="M1030.61 2149.38C1024.69 2150.31 1017.61 2146.29 1009.72 2136.47C1001.96 2126.81 993.96 2112.16 986.217 2093.54C970.744 2056.32 956.485 2003.67 947.157 1944.42C937.828 1885.16 935.218 1830.68 938.506 1790.5C940.152 1770.4 943.265 1754.01 947.682 1742.42C952.167 1730.66 957.676 1724.65 963.598 1723.72C969.519 1722.79 976.607 1726.81 984.49 1736.63C992.252 1746.29 1000.25 1760.94 1008 1779.56C1023.47 1816.78 1037.73 1869.44 1047.06 1928.69C1056.38 1987.94 1058.99 2042.42 1055.71 2082.6C1054.06 2102.7 1050.95 2119.09 1046.53 2130.68C1042.05 2142.44 1036.54 2148.45 1030.61 2149.38Z" stroke="white" stroke-width="4.39695"/>
<path d="M949.103 2177.96C943.12 2178.33 936.438 2173.67 929.503 2163.16C922.674 2152.82 916.071 2137.49 910.095 2118.22C898.153 2079.73 888.858 2025.98 885.084 1966.11C881.311 1906.25 883.784 1851.76 890.797 1812.07C894.307 1792.2 898.933 1776.17 904.408 1765.05C909.969 1753.75 916.013 1748.29 921.996 1747.91C927.978 1747.53 934.661 1752.2 941.596 1762.7C948.425 1773.05 955.027 1788.38 961.003 1807.64C972.945 1846.14 982.241 1899.89 986.014 1959.75C989.787 2019.61 987.315 2074.11 980.301 2113.8C976.792 2133.66 972.166 2149.7 966.69 2160.82C961.129 2172.11 955.086 2177.58 949.103 2177.96Z" stroke="white" stroke-width="4.39695"/>
<path d="M883.149 2182.35C877.166 2182.73 870.484 2178.07 863.549 2167.56C856.72 2157.21 850.117 2141.89 844.141 2122.62C832.199 2084.12 822.904 2030.37 819.13 1970.51C815.357 1910.65 817.83 1856.16 824.843 1816.46C828.353 1796.6 832.979 1780.57 838.454 1769.45C844.015 1758.15 850.059 1752.68 856.041 1752.31C862.024 1751.93 868.706 1756.59 875.642 1767.1C882.471 1777.45 889.073 1792.77 895.049 1812.04C906.991 1850.54 916.287 1904.29 920.06 1964.15C923.833 2024.01 921.361 2078.5 914.347 2118.2C910.838 2138.06 906.212 2154.09 900.736 2165.21C895.175 2176.51 889.131 2181.98 883.149 2182.35Z" stroke="white" stroke-width="4.39695"/>
<path d="M830.386 2177.96C824.403 2178.33 817.721 2173.67 810.786 2163.16C803.957 2152.82 797.354 2137.49 791.378 2118.22C779.436 2079.73 770.14 2025.98 766.367 1966.11C762.594 1906.25 765.066 1851.76 772.08 1812.07C775.589 1792.2 780.215 1776.17 785.691 1765.05C791.252 1753.75 797.296 1748.29 803.278 1747.91C809.261 1747.53 815.943 1752.2 822.878 1762.7C829.707 1773.05 836.31 1788.38 842.286 1807.64C854.228 1846.14 863.523 1899.89 867.297 1959.75C871.07 2019.61 868.597 2074.11 861.584 2113.8C858.074 2133.66 853.449 2149.7 847.973 2160.82C842.412 2172.11 836.368 2177.58 830.386 2177.96Z" stroke="white" stroke-width="4.39695"/>
<path d="M761.917 2175.81C755.922 2175.85 749.516 2170.81 743.189 2159.92C736.959 2149.21 731.238 2133.53 726.366 2113.96C716.631 2074.84 710.404 2020.65 710.038 1960.67C709.672 1900.69 715.237 1846.43 724.494 1807.2C729.126 1787.57 734.656 1771.82 740.755 1761.03C746.948 1750.07 753.293 1744.95 759.287 1744.92C765.282 1744.88 771.688 1749.92 778.015 1760.8C784.245 1771.52 789.966 1787.19 794.838 1806.77C804.573 1845.88 810.8 1900.07 811.166 1960.05C811.532 2020.03 805.967 2074.3 796.71 2113.53C792.078 2133.16 786.548 2148.9 780.449 2159.7C774.256 2170.66 767.911 2175.77 761.917 2175.81Z" stroke="white" stroke-width="4.39695"/>
<path d="M688.969 2173.08C682.981 2172.8 676.848 2167.44 671.101 2156.23C665.442 2145.2 660.552 2129.25 656.714 2109.45C649.045 2069.88 645.672 2015.43 648.455 1955.52C651.237 1895.6 659.643 1841.7 670.946 1803.01C676.603 1783.65 682.951 1768.22 689.608 1757.76C696.369 1747.14 702.973 1742.37 708.961 1742.64C714.949 1742.92 721.082 1748.29 726.829 1759.49C732.488 1770.52 737.379 1786.47 741.216 1806.28C748.885 1845.85 752.258 1900.29 749.476 1960.21C746.693 2020.12 738.287 2074.02 726.984 2112.71C721.327 2132.07 714.979 2147.5 708.322 2157.96C701.562 2168.58 694.957 2173.36 688.969 2173.08Z" stroke="white" stroke-width="4.39695"/>
<path d="M600.801 2161.07C594.861 2160.26 589.226 2154.37 584.493 2142.71C579.833 2131.22 576.373 2114.9 574.303 2094.83C570.166 2054.74 571.624 2000.21 579.698 1940.77C587.772 1881.34 600.914 1828.39 615.597 1790.86C622.945 1772.07 630.634 1757.26 638.19 1747.43C645.864 1737.45 652.865 1733.28 658.805 1734.09C664.745 1734.9 670.379 1740.78 675.112 1752.45C679.773 1763.94 683.232 1780.26 685.302 1800.33C689.439 1840.42 687.981 1894.95 679.907 1954.39C671.833 2013.82 658.691 2066.76 644.008 2104.3C636.66 2123.09 628.971 2137.89 621.415 2147.72C613.741 2157.7 606.741 2161.87 600.801 2161.07Z" stroke="white" stroke-width="4.39695"/>
<path d="M521.281 2151.19C515.398 2150.04 510.114 2143.84 506.066 2131.92C502.079 2120.18 499.571 2103.68 498.668 2083.53C496.862 2043.26 501.478 1988.91 512.984 1930.04C524.49 1871.18 540.679 1819.08 557.513 1782.46C565.938 1764.13 574.472 1749.79 582.585 1740.42C590.825 1730.9 598.056 1727.14 603.939 1728.29C609.822 1729.44 615.106 1735.65 619.154 1747.57C623.141 1759.31 625.649 1775.8 626.552 1795.95C628.358 1836.22 623.742 1890.58 612.236 1949.44C600.73 2008.31 584.541 2060.4 567.707 2097.02C559.282 2115.35 550.748 2129.69 542.635 2139.06C534.395 2148.58 527.164 2152.34 521.281 2151.19Z" stroke="white" stroke-width="4.39695"/>
<path d="M450.484 2140.38C444.664 2138.95 439.686 2132.49 436.218 2120.39C432.803 2108.47 431.095 2091.87 431.166 2071.7C431.308 2031.4 438.544 1977.33 452.881 1919.09C467.217 1860.84 485.903 1809.6 504.487 1773.83C513.787 1755.93 523.004 1742.02 531.561 1733.05C540.25 1723.94 547.654 1720.53 553.475 1721.97C559.296 1723.4 564.274 1729.85 567.742 1741.95C571.157 1753.87 572.865 1770.47 572.794 1790.64C572.652 1830.95 565.415 1885.02 551.079 1943.26C536.743 2001.5 518.057 2052.75 499.473 2088.52C490.173 2106.42 480.956 2120.33 472.399 2129.3C463.709 2138.41 456.305 2141.81 450.484 2140.38Z" stroke="white" stroke-width="4.39695"/>
<path d="M375.122 2119.49C369.384 2117.75 364.748 2111.05 361.914 2098.78C359.123 2086.7 358.281 2070.04 359.401 2049.9C361.638 2009.65 371.677 1956.04 389.022 1898.62C406.367 1841.2 427.694 1790.99 448.112 1756.24C458.331 1738.85 468.259 1725.44 477.27 1716.92C486.422 1708.28 493.993 1705.26 499.731 1707C505.47 1708.73 510.105 1715.43 512.939 1727.7C515.73 1739.78 516.572 1756.44 515.452 1776.58C513.215 1816.83 503.176 1870.45 485.831 1927.86C468.486 1985.28 447.159 2035.49 426.741 2070.24C416.522 2087.63 406.595 2101.04 397.583 2109.56C388.432 2118.2 380.86 2121.22 375.122 2119.49Z" stroke="white" stroke-width="4.39695"/>
<path d="M281.112 2088.81C275.706 2086.22 272.147 2078.89 271.218 2066.34C270.303 2053.98 272.013 2037.38 276.193 2017.64C284.545 1978.21 302.647 1926.75 328.55 1872.65C354.453 1818.55 383.191 1772.19 408.673 1740.96C421.425 1725.33 433.283 1713.59 443.488 1706.55C453.852 1699.4 461.794 1697.58 467.201 1700.17C472.608 1702.76 476.166 1710.09 477.095 1722.64C478.011 1735.01 476.3 1751.6 472.12 1771.34C463.768 1810.77 445.666 1862.23 419.763 1916.33C393.86 1970.43 365.123 2016.79 339.64 2048.02C326.888 2063.65 315.03 2075.39 304.825 2082.43C294.462 2089.58 286.519 2091.4 281.112 2088.81Z" stroke="white" stroke-width="4.39695"/>
<path d="M173.422 2032.47C168.701 2028.78 166.808 2020.85 168.607 2008.39C170.38 1996.12 175.629 1980.28 183.966 1961.92C200.624 1925.21 229.397 1878.87 266.356 1831.63C303.316 1784.39 341.375 1745.31 372.992 1720.31C388.815 1707.8 402.925 1698.89 414.408 1694.22C426.069 1689.47 434.218 1689.4 438.94 1693.1C443.661 1696.79 445.555 1704.72 443.755 1717.18C441.982 1729.45 436.733 1745.29 428.396 1763.65C411.738 1800.36 382.965 1846.7 346.006 1893.94C309.046 1941.18 270.987 1980.26 239.37 2005.26C223.547 2017.77 209.437 2026.68 197.954 2031.35C186.293 2036.1 178.144 2036.17 173.422 2032.47Z" stroke="white" stroke-width="4.39695"/>
<path d="M1535.76 1321.22C1537.99 1326.79 1535.66 1334.59 1527.85 1344.47C1520.17 1354.2 1507.68 1365.27 1491.26 1376.98C1458.44 1400.39 1410.31 1426.06 1354.65 1448.4C1298.98 1470.74 1246.46 1485.47 1206.57 1491.24C1186.6 1494.14 1169.93 1494.77 1157.65 1493.05C1145.18 1491.31 1138.1 1487.28 1135.87 1481.72C1133.63 1476.16 1135.97 1468.35 1143.77 1458.47C1151.46 1448.74 1163.94 1437.67 1180.37 1425.96C1213.18 1402.56 1261.31 1376.89 1316.98 1354.54C1372.64 1332.2 1425.17 1317.48 1465.06 1311.7C1485.02 1308.81 1501.7 1308.18 1513.97 1309.89C1526.44 1311.63 1533.53 1315.66 1535.76 1321.22Z" stroke="white" stroke-width="4.39695"/>
<rect x="2.2" y="2.2" width="1419.6" height="200.6" rx="100.3" stroke="white" stroke-width="4.4"/>
<rect x="2.2" y="254.2" width="596.6" height="200.6" rx="100.3" stroke="white" stroke-width="4.4"/>
<rect x="2.2" y="506.2" width="596.6" height="200.6" rx="100.3" stroke="white" stroke-width="4.4"/>
<rect x="655.2" y="850.8" width="596.6" height="200.6" rx="100.3" transform="rotate(-90 655.2 850.8)" stroke="white" stroke-width="4.4"/>
<rect x="897.2" y="854.8" width="596.6" height="518.6" rx="100.3" transform="rotate(-90 897.2 854.8)" stroke="white" stroke-width="4.4"/>
<path d="M101.555 348C114.642 325.333 147.358 325.333 160.445 348V348C173.531 370.667 157.173 399 131 399V399C104.827 399 88.4685 370.667 101.555 348V348Z" fill="white"/>
<path d="M273.081 331.5C281.934 316.167 304.066 316.167 312.919 331.5L331.971 364.5C340.824 379.833 329.758 399 312.053 399H273.947C256.242 399 245.176 379.833 254.029 364.5L273.081 331.5Z" fill="white"/>
<path d="M454 297L512.89 399H395.11L454 297Z" fill="white"/>
<path d="M143.067 624V590.415H154.809C157.148 590.415 159.078 590.819 160.598 591.628C162.117 592.426 163.249 593.503 163.992 594.859C164.736 596.204 165.107 597.696 165.107 599.336C165.107 600.779 164.85 601.971 164.337 602.911C163.834 603.851 163.167 604.594 162.336 605.141C161.516 605.688 160.625 606.092 159.663 606.355V606.683C160.69 606.748 161.724 607.109 162.762 607.765C163.801 608.421 164.67 609.361 165.37 610.586C166.069 611.81 166.419 613.308 166.419 615.079C166.419 616.763 166.037 618.277 165.271 619.621C164.506 620.966 163.298 622.032 161.647 622.819C159.996 623.606 157.848 624 155.202 624H143.067ZM147.134 620.392H155.202C157.859 620.392 159.745 619.878 160.86 618.851C161.986 617.812 162.549 616.555 162.549 615.079C162.549 613.942 162.259 612.892 161.68 611.93C161.1 610.957 160.275 610.181 159.204 609.602C158.132 609.011 156.864 608.716 155.399 608.716H147.134V620.392ZM147.134 605.174H154.677C155.902 605.174 157.006 604.933 157.99 604.452C158.985 603.971 159.772 603.293 160.352 602.419C160.942 601.544 161.237 600.517 161.237 599.336C161.237 597.86 160.723 596.608 159.696 595.58C158.668 594.542 157.039 594.023 154.809 594.023H147.134V605.174ZM174.479 624H170.216L182.548 590.415H186.746L199.078 624H194.814L184.778 595.728H184.516L174.479 624ZM176.054 610.881H193.24V614.489H176.054V610.881ZM204.309 590.415H208.376V620.261H220.183V590.415H224.25V620.261H236.058V590.415H240.125V624H204.309V590.415ZM249.657 624H245.393L257.725 590.415H261.923L274.255 624H269.991L259.955 595.728H259.693L249.657 624ZM251.231 610.881H268.417V614.489H251.231V610.881ZM317.598 590.415V624H313.531V594.023H296.607V624H292.54V590.415H317.598ZM325.802 624V590.415H337.15C339.784 590.415 341.938 590.89 343.611 591.841C345.295 592.782 346.541 594.055 347.35 595.662C348.159 597.27 348.563 599.063 348.563 601.041C348.563 603.02 348.159 604.819 347.35 606.437C346.552 608.055 345.316 609.345 343.644 610.307C341.971 611.258 339.828 611.734 337.215 611.734H329.081V608.126H337.084C338.888 608.126 340.337 607.814 341.43 607.191C342.523 606.568 343.316 605.726 343.808 604.666C344.311 603.594 344.562 602.386 344.562 601.041C344.562 599.697 344.311 598.494 343.808 597.434C343.316 596.373 342.518 595.542 341.413 594.941C340.309 594.329 338.844 594.023 337.019 594.023H329.869V624H325.802ZM353.065 624H348.801L361.133 590.415H365.331L377.664 624H373.4L363.364 595.728H363.101L353.065 624ZM354.639 610.881H371.825V614.489H354.639V610.881ZM382.895 624V590.415H394.637C396.976 590.415 398.906 590.819 400.425 591.628C401.945 592.426 403.077 593.503 403.82 594.859C404.563 596.204 404.935 597.696 404.935 599.336C404.935 600.779 404.678 601.971 404.164 602.911C403.662 603.851 402.995 604.594 402.164 605.141C401.344 605.688 400.453 606.092 399.491 606.355V606.683C400.518 606.748 401.551 607.109 402.59 607.765C403.629 608.421 404.498 609.361 405.198 610.586C405.897 611.81 406.247 613.308 406.247 615.079C406.247 616.763 405.864 618.277 405.099 619.621C404.334 620.966 403.126 622.032 401.475 622.819C399.824 623.606 397.676 624 395.03 624H382.895ZM386.962 620.392H395.03C397.687 620.392 399.573 619.878 400.688 618.851C401.814 617.812 402.377 616.555 402.377 615.079C402.377 613.942 402.087 612.892 401.508 611.93C400.928 610.957 400.103 610.181 399.032 609.602C397.96 609.011 396.692 608.716 395.227 608.716H386.962V620.392ZM386.962 605.174H394.505C395.73 605.174 396.834 604.933 397.818 604.452C398.813 603.971 399.6 603.293 400.179 602.419C400.77 601.544 401.065 600.517 401.065 599.336C401.065 597.86 400.551 596.608 399.523 595.58C398.496 594.542 396.867 594.023 394.637 594.023H386.962V605.174ZM410.043 632.134V620.392H412.208C412.952 619.714 413.651 618.758 414.307 617.522C414.974 616.276 415.537 614.614 415.996 612.537C416.466 610.449 416.778 607.798 416.931 604.584L417.653 590.415H437.594V620.392H441.464V632.068H437.594V624H413.914V632.134H410.043ZM417.062 620.392H433.724V594.023H421.326L420.801 604.584C420.67 607.032 420.44 609.252 420.112 611.242C419.784 613.22 419.364 614.975 418.85 616.506C418.336 618.025 417.74 619.321 417.062 620.392ZM448.987 624H444.723L457.055 590.415H461.254L473.586 624H469.322L459.286 595.728H459.023L448.987 624ZM450.561 610.881H467.748V614.489H450.561V610.881Z" fill="white"/>
<path d="M787.673 337.604L752.255 385.126L746.5 380.837L778.113 338.42L754.167 320.573L722.554 362.99L716.799 358.701L752.217 311.179L787.673 337.604Z" fill="white"/>
<path d="M778.086 512.917L720.122 500.551L721.619 493.532L773.356 504.57L779.588 475.361L727.85 464.324L729.348 457.305L787.312 469.671L778.086 512.917Z" fill="white"/>
<path d="M750.056 656.839L719.558 607.655L725.514 603.962L752.736 647.862L777.52 632.494L750.298 588.594L756.254 584.9L786.752 634.084L750.056 656.839Z" fill="white"/>
<path d="M721.651 767.004L752.21 715.124L758.493 718.825L731.216 765.132L757.358 780.531L784.635 734.224L790.917 737.925L760.358 789.804L721.651 767.004Z" fill="white"/>
<mask id="mask0_14_144" style="mask-type:alpha" maskUnits="userSpaceOnUse" x="895" y="256" width="523" height="601">
<rect x="897.2" y="854.8" width="596.6" height="518.6" rx="100.3" transform="rotate(-90 897.2 854.8)" fill="#D9D9D9" stroke="white" stroke-width="4.4"/>
</mask>
<g mask="url(#mask0_14_144)">
<path d="M1156.5 68L1210.05 232.799H1383.33L1243.14 334.651L1296.69 499.451L1156.5 397.599L1016.31 499.451L1069.86 334.651L929.673 232.799H1102.95L1156.5 68Z" fill="white"/>
</g>
</g>
<defs>
<clipPath id="clip0_14_144">
<rect width="1557" height="2322" fill="white"/>
</clipPath>
</defs>
</svg>
