<svg width="1771" height="1291" viewBox="0 0 1771 1291" fill="none" xmlns="http://www.w3.org/2000/svg">
<g clip-path="url(#clip0_8_866)">
<path d="M581 196.271L590.5 116.271C36.5001 26.7709 54 420.937 145.5 616.77L233 582.771C55 200.771 406 134.771 581 196.271Z" stroke="white" stroke-width="5"/>
<path d="M268.762 454.62L198.698 412.958C431.015 22.0875 804.642 304.31 674.383 626.269L599.528 598.822C645.017 188.984 335.339 310.01 268.762 454.62Z" stroke="white" stroke-width="5"/>
<path d="M881.008 748.259L820.007 694.191C1121.54 353.855 1435.57 701.172 1247.22 992.971L1178.84 951.966C1300.42 557.943 973.537 618.711 881.008 748.259Z" stroke="white" stroke-width="5"/>
<path d="M613.5 201.271L627 125.271C819 181.771 853.187 483.271 805.5 663.271C734.5 931.271 982.5 845.271 1011 741.271L1066.5 774.771C977 980.271 656 928.771 745.5 640.771C817.1 410.371 687.333 251.771 613.5 201.271Z" stroke="white" stroke-width="5"/>
<path d="M1154 807.271L1096 777.772C998.005 1262.27 1411.5 1195.77 1428 723.271L1369.5 714.271C1275 1213.77 1090.5 1030.77 1154 807.271Z" stroke="white" stroke-width="5"/>
<path d="M495.835 695.674L488.395 631.03C30.3646 816.911 314.171 1124.9 717.187 877.705L692.381 823.965C223.779 1021.05 274.442 766.172 495.835 695.674Z" stroke="white" stroke-width="5"/>
<path d="M934 99.7715C834 433.771 1054.33 463.938 1177 437.271V529.271C793.8 582.071 800.333 250.938 851.5 78.7715L934 99.7715Z" stroke="white" stroke-width="5"/>
<path d="M302.916 565.246L329.05 604.909C-77.0301 1100.02 552.615 1090.51 771.204 929.716L810.545 989.421C54.5406 1415.11 -22.8095 688.854 302.916 565.246Z" stroke="white" stroke-width="5"/>
<path d="M233.985 413.18L229.703 410.598L244.347 386.308L248.629 388.889L242.715 398.699L268.329 414.141L265.56 418.735L239.946 403.292L233.985 413.18Z" fill="white"/>
<path d="M287.684 387.581C285.313 389.657 282.739 390.914 279.961 391.353C277.194 391.781 274.421 391.42 271.641 390.269C268.873 389.108 266.301 387.171 263.926 384.458C261.53 381.722 259.935 378.9 259.14 375.991C258.357 373.072 258.36 370.27 259.151 367.584C259.952 364.889 261.539 362.503 263.91 360.427C266.281 358.351 268.85 357.099 271.616 356.67C274.394 356.232 277.172 356.599 279.95 357.771C282.74 358.933 285.333 360.882 287.728 363.618C290.104 366.331 291.678 369.142 292.451 372.049C293.236 374.947 293.228 377.743 292.426 380.439C291.636 383.124 290.055 385.505 287.684 387.581ZM284.51 383.956C286.311 382.379 287.389 380.62 287.743 378.678C288.098 376.737 287.895 374.769 287.137 372.776C286.378 370.782 285.23 368.907 283.693 367.152C282.156 365.396 280.444 364.005 278.558 362.978C276.672 361.95 274.738 361.479 272.757 361.562C270.776 361.645 268.885 362.475 267.084 364.052C265.283 365.629 264.21 367.394 263.866 369.347C263.521 371.3 263.733 373.279 264.502 375.284C265.271 377.289 266.424 379.17 267.961 380.925C269.498 382.681 271.205 384.066 273.081 385.082C274.957 386.098 276.881 386.558 278.852 386.463C280.823 386.369 282.709 385.533 284.51 383.956Z" fill="white"/>
<path d="M430.317 298.934C427.178 299.223 424.356 298.73 421.85 297.455C419.358 296.178 417.325 294.258 415.75 291.695C414.19 289.131 413.244 286.053 412.913 282.462C412.579 278.841 412.944 275.62 414.008 272.798C415.086 269.975 416.734 267.708 418.95 265.998C421.181 264.286 423.865 263.285 427.004 262.996C430.142 262.706 432.957 263.2 435.448 264.477C437.954 265.752 439.988 267.68 441.55 270.259C443.127 272.837 444.082 275.937 444.416 279.558C444.747 283.149 444.372 286.348 443.292 289.156C442.227 291.963 440.579 294.222 438.348 295.934C436.132 297.645 433.455 298.645 430.317 298.934ZM429.874 294.136C432.258 293.917 434.163 293.125 435.589 291.761C437.016 290.397 438.007 288.685 438.562 286.625C439.118 284.566 439.289 282.374 439.075 280.05C438.861 277.727 438.291 275.596 437.367 273.658C436.443 271.719 435.154 270.202 433.501 269.107C431.848 268.011 429.83 267.574 427.446 267.793C425.062 268.013 423.158 268.813 421.733 270.192C420.308 271.571 419.318 273.298 418.764 275.372C418.21 277.447 418.04 279.646 418.254 281.97C418.468 284.293 419.037 286.417 419.959 288.34C420.882 290.264 422.17 291.765 423.821 292.846C425.473 293.926 427.49 294.356 429.874 294.136Z" fill="white"/>
<path d="M524.701 309.963C521.99 308.356 519.994 306.301 518.713 303.797C517.445 301.301 516.925 298.553 517.154 295.554C517.396 292.562 518.436 289.515 520.276 286.413C522.13 283.285 524.316 280.891 526.833 279.23C529.364 277.578 532.028 276.709 534.826 276.624C537.637 276.547 540.398 277.313 543.109 278.92C545.82 280.527 547.809 282.579 549.077 285.075C550.358 287.578 550.874 290.333 550.624 293.338C550.388 296.351 549.342 299.421 547.488 302.549C545.648 305.65 543.468 308.021 540.945 309.661C538.436 311.308 535.775 312.171 532.964 312.248C530.166 312.332 527.412 311.571 524.701 309.963ZM527.158 305.819C529.217 307.04 531.225 307.517 533.18 307.25C535.135 306.982 536.942 306.178 538.601 304.836C540.26 303.494 541.684 301.82 542.874 299.813C544.064 297.806 544.854 295.747 545.243 293.635C545.632 291.523 545.479 289.538 544.783 287.681C544.088 285.824 542.71 284.285 540.651 283.064C538.592 281.843 536.581 281.373 534.618 281.653C532.655 281.934 530.84 282.751 529.174 284.106C527.508 285.461 526.079 287.142 524.889 289.149C523.699 291.156 522.913 293.209 522.532 295.307C522.15 297.406 522.311 299.378 523.015 301.222C523.718 303.066 525.099 304.598 527.158 305.819Z" fill="white"/>
<path d="M307.703 363.259L304.286 359.609L305.215 358.74C305.978 358.025 306.474 357.28 306.703 356.505C306.922 355.719 306.829 354.8 306.424 353.747C306.02 352.672 305.259 351.371 304.141 349.845C303.023 348.296 301.504 346.419 299.582 344.212L289.484 332.495L306.472 316.589L330.332 342.071L326.417 345.737L305.974 323.905L296.618 332.666L304.732 342.13C306.601 344.303 308.137 346.321 309.341 348.183C310.545 350.023 311.362 351.749 311.791 353.36C312.232 354.961 312.236 356.473 311.803 357.895C311.37 359.317 310.446 360.691 309.03 362.017L307.703 363.259Z" fill="white"/>
<path d="M337.595 308.946L346.175 303.81C349.685 301.709 352.903 300.992 355.828 301.661C358.753 302.329 361.033 304.028 362.667 306.758C363.741 308.552 364.302 310.432 364.349 312.4C364.389 314.354 363.863 316.249 362.773 318.085C361.674 319.908 359.955 321.52 357.615 322.92L345.057 330.438L327.127 300.486L331.729 297.731L347.091 323.393L355.047 318.63C356.867 317.541 358.074 316.165 358.668 314.502C359.262 312.84 359.108 311.255 358.205 309.747C357.256 308.161 355.897 307.217 354.127 306.917C352.358 306.616 350.563 307.011 348.743 308.1L340.163 313.236L337.595 308.946Z" fill="white"/>
<path d="M379.435 311.087L370.028 277.469L375.193 276.024L379.284 290.644L382.699 289.689L390.689 271.688L397.342 269.826L388.305 289.819L406.925 303.395L400.271 305.256L385.272 294.161L380.632 295.459L384.601 309.642L379.435 311.087Z" fill="white"/>
<path d="M473.826 296.714L474.805 291.81L476.053 292.06C477.079 292.264 477.973 292.234 478.737 291.97C479.503 291.69 480.197 291.079 480.817 290.137C481.456 289.183 482.071 287.807 482.661 286.009C483.27 284.199 483.912 281.871 484.589 279.024L488.239 263.993L511.061 268.55L504.226 302.783L498.966 301.733L504.822 272.403L492.252 269.893L489.279 282C488.599 284.784 487.853 287.208 487.039 289.27C486.244 291.321 485.316 292.99 484.255 294.277C483.21 295.567 481.983 296.449 480.575 296.925C479.166 297.401 477.511 297.449 475.609 297.07L473.826 296.714Z" fill="white"/>
<path d="M549.541 319.01L572.106 316.519L574.373 294.472L578.869 298.975L576.541 317.744L578.597 319.802L589.147 309.268L592.936 313.063L582.386 323.598L584.378 325.592L603.15 323.292L607.646 327.795L585.66 330.093L583.072 352.59L578.511 348.022L580.775 329.061L578.848 327.131L568.234 337.73L564.444 333.934L575.058 323.335L573.131 321.406L554.102 323.577L549.541 319.01Z" fill="white"/>
<path d="M611.367 358.431L616.085 367.248C618.015 370.855 618.576 374.103 617.768 376.993C616.96 379.883 615.153 382.078 612.348 383.579C610.504 384.566 608.599 385.035 606.632 384.988C604.678 384.934 602.81 384.318 601.029 383.14C599.261 381.955 597.733 380.16 596.447 377.756L589.542 364.851L620.321 348.381L622.852 353.11L596.481 367.221L600.855 375.397C601.856 377.267 603.172 378.539 604.804 379.212C606.436 379.886 608.027 379.808 609.577 378.979C611.207 378.106 612.214 376.794 612.6 375.041C612.985 373.289 612.677 371.477 611.676 369.607L606.958 360.79L611.367 358.431Z" fill="white"/>
<path d="M631.047 388.271L635.593 386.19L647.396 411.981L642.85 414.062L638.083 403.646L610.887 416.093L608.655 411.215L635.851 398.769L631.047 388.271Z" fill="white"/>
<path d="M619.098 449.29C618.841 446.149 619.363 443.332 620.663 440.838C621.966 438.36 623.906 436.346 626.485 434.797C629.066 433.264 632.153 432.349 635.747 432.055C639.371 431.758 642.589 432.156 645.399 433.248C648.211 434.356 650.461 436.026 652.149 438.26C653.838 440.508 654.811 443.203 655.069 446.344C655.326 449.485 654.803 452.294 653.501 454.773C652.201 457.266 650.252 459.28 647.657 460.815C645.063 462.365 641.953 463.289 638.329 463.586C634.735 463.88 631.54 463.473 628.743 462.364C625.947 461.271 623.705 459.6 622.016 457.351C620.328 455.118 619.355 452.431 619.098 449.29ZM623.9 448.896C624.096 451.282 624.868 453.195 626.217 454.636C627.567 456.076 629.268 457.084 631.322 457.661C633.376 458.237 635.566 458.431 637.891 458.24C640.217 458.05 642.354 457.502 644.301 456.598C646.249 455.693 647.779 454.42 648.891 452.779C650.004 451.137 650.462 449.123 650.266 446.737C650.071 444.351 649.291 442.439 647.927 441C646.562 439.561 644.846 438.554 642.777 437.978C640.708 437.403 638.51 437.21 636.185 437.401C633.859 437.591 631.73 438.138 629.797 439.041C627.865 439.944 626.35 441.216 625.253 442.857C624.156 444.497 623.705 446.51 623.9 448.896Z" fill="white"/>
<path d="M628.344 477.07L633.333 477.399L633.249 478.669C633.181 479.712 633.327 480.595 633.69 481.317C634.067 482.04 634.764 482.648 635.779 483.14C636.809 483.648 638.253 484.077 640.113 484.427C641.987 484.794 644.38 485.126 647.29 485.423L662.67 487.073L661.142 510.296L626.308 508.004L626.66 502.652L656.505 504.615L657.346 491.825L644.955 490.463C642.105 490.154 639.605 489.731 637.453 489.195C635.316 488.675 633.54 487.973 632.126 487.09C630.71 486.223 629.674 485.122 629.018 483.788C628.361 482.454 628.097 480.82 628.224 478.885L628.344 477.07Z" fill="white"/>
<path d="M646.445 535.307L644.095 545.027C643.134 549.003 641.39 551.801 638.864 553.419C636.337 555.037 633.527 555.473 630.434 554.725C628.402 554.234 626.668 553.316 625.231 551.971C623.81 550.63 622.826 548.927 622.281 546.862C621.75 544.801 621.805 542.445 622.446 539.794L625.885 525.568L659.817 533.769L658.557 538.983L629.485 531.956L627.306 540.969C626.808 543.031 626.943 544.856 627.713 546.445C628.482 548.034 629.721 549.035 631.43 549.448C633.226 549.882 634.852 549.573 636.306 548.522C637.761 547.471 638.737 545.914 639.235 543.852L641.585 534.132L646.445 535.307Z" fill="white"/>
<path d="M623.054 560.919L654.87 575.285L652.663 580.174L638.826 573.926L637.367 577.157L646.041 594.839L643.198 601.136L633.669 581.372L611.307 586.935L614.15 580.638L632.287 576.26L634.269 571.868L620.847 565.807L623.054 560.919Z" fill="white"/>
<path d="M1166.56 55.4991L1088.78 6.88586C995.099 144.275 941.598 397.707 1252.95 391.391C1502.04 386.338 1428.9 546.449 1361.19 627.136L1391.89 675.487C1585.17 576.211 1540.05 294.103 1271.15 309.897C1056.03 322.532 1111.79 145.563 1166.56 55.4991Z" stroke="white" stroke-width="5"/>
<path d="M986.71 1051.22L1030.28 1033.15C1390.9 1410.23 1539.64 891.283 1444.23 697.468L1509.82 670.272C1718.02 1329.28 1020.58 1329.97 986.71 1051.22Z" stroke="white" stroke-width="5"/>
<path d="M864.296 685.462L860.773 681.914L880.898 661.928L884.422 665.475L876.294 673.547L897.369 694.769L893.564 698.548L872.488 677.326L864.296 685.462Z" fill="white"/>
<path d="M921.16 675.823C918.596 677.655 915.91 678.652 913.102 678.814C910.307 678.967 907.583 678.333 904.93 676.914C902.29 675.485 899.922 673.304 897.826 670.369C895.713 667.41 894.405 664.444 893.901 661.471C893.41 658.489 893.69 655.7 894.742 653.106C895.806 650.503 897.62 648.286 900.184 646.454C902.749 644.622 905.429 643.63 908.224 643.477C911.032 643.315 913.76 643.954 916.409 645.395C919.07 646.827 921.458 649.023 923.571 651.982C925.667 654.917 926.956 657.869 927.438 660.838C927.933 663.799 927.649 666.581 926.585 669.184C925.533 671.779 923.725 673.992 921.16 675.823ZM918.36 671.903C920.308 670.511 921.554 668.867 922.099 666.97C922.643 665.073 922.636 663.095 922.078 661.036C921.52 658.977 920.562 656.998 919.206 655.099C917.85 653.201 916.284 651.647 914.509 650.439C912.734 649.23 910.856 648.57 908.876 648.457C906.897 648.344 904.933 648.983 902.985 650.375C901.037 651.766 899.795 653.416 899.259 655.326C898.724 657.235 898.739 659.225 899.306 661.297C899.873 663.368 900.835 665.353 902.191 667.252C903.547 669.151 905.109 670.698 906.875 671.894C908.642 673.09 910.51 673.738 912.481 673.839C914.452 673.939 916.412 673.294 918.36 671.903Z" fill="white"/>
<path d="M934.297 665.369L932.018 660.919L933.151 660.339C934.082 659.862 934.764 659.283 935.198 658.601C935.625 657.906 935.789 656.996 935.69 655.872C935.598 654.728 935.225 653.268 934.571 651.492C933.924 649.696 932.981 647.472 931.742 644.821L925.265 630.775L945.981 620.168L961.89 651.241L957.116 653.685L943.485 627.063L932.076 632.905L937.266 644.239C938.463 646.844 939.384 649.206 940.028 651.328C940.678 653.429 940.987 655.313 940.956 656.981C940.938 658.641 940.525 660.095 939.717 661.343C938.909 662.591 937.642 663.657 935.915 664.54L934.297 665.369Z" fill="white"/>
<path d="M967.214 625.116L976.659 621.829C980.522 620.484 983.818 620.436 986.547 621.684C989.275 622.932 991.163 625.059 992.208 628.064C992.896 630.039 993.063 631.994 992.71 633.93C992.352 635.851 991.452 637.6 990.012 639.176C988.566 640.738 986.555 641.967 983.98 642.864L970.156 647.675L958.682 614.705L963.748 612.942L973.579 641.19L982.336 638.142C984.339 637.444 985.801 636.342 986.72 634.835C987.639 633.328 987.81 631.745 987.232 630.085C986.625 628.339 985.485 627.139 983.814 626.485C982.143 625.832 980.305 625.854 978.302 626.551L968.858 629.838L967.214 625.116Z" fill="white"/>
<path d="M1001.18 637.297L993.922 603.151L999.168 602.035L1002.33 616.885L1005.79 616.148L1014.91 598.688L1021.66 597.251L1011.38 616.632L1029.1 631.358L1022.35 632.796L1008.08 620.773L1003.37 621.776L1006.43 636.181L1001.18 637.297Z" fill="white"/>
<path d="M1045.86 630.626C1042.72 630.865 1039.91 630.326 1037.42 629.011C1034.95 627.694 1032.95 625.742 1031.42 623.154C1029.9 620.564 1029 617.472 1028.73 613.876C1028.45 610.25 1028.87 607.035 1029.98 604.231C1031.1 601.426 1032.79 599.186 1035.03 597.511C1037.29 595.835 1039.99 594.878 1043.13 594.639C1046.27 594.4 1049.08 594.939 1051.55 596.256C1054.04 597.571 1056.04 599.531 1057.56 602.136C1059.09 604.739 1060 607.854 1060.27 611.479C1060.55 615.075 1060.12 618.268 1059 621.058C1057.89 623.847 1056.2 626.08 1053.94 627.756C1051.7 629.431 1049.01 630.387 1045.86 630.626ZM1045.5 625.822C1047.89 625.64 1049.8 624.879 1051.25 623.538C1052.7 622.198 1053.72 620.502 1054.31 618.451C1054.9 616.401 1055.1 614.212 1054.93 611.886C1054.75 609.559 1054.21 607.419 1053.32 605.466C1052.43 603.513 1051.16 601.976 1049.53 600.854C1047.89 599.732 1045.88 599.262 1043.5 599.443C1041.11 599.625 1039.19 600.393 1037.74 601.749C1036.3 603.105 1035.28 604.816 1034.69 606.881C1034.1 608.947 1033.9 611.143 1034.08 613.47C1034.25 615.796 1034.79 617.929 1035.68 619.867C1036.57 621.805 1037.83 623.327 1039.47 624.434C1041.1 625.54 1043.11 626.003 1045.5 625.822Z" fill="white"/>
<path d="M1078.89 628.801L1079.62 623.854L1080.88 624.039C1081.91 624.191 1082.8 624.115 1083.55 623.812C1084.31 623.493 1084.97 622.848 1085.54 621.875C1086.13 620.89 1086.67 619.484 1087.17 617.658C1087.68 615.82 1088.21 613.461 1088.74 610.584L1091.61 595.386L1114.64 598.769L1109.56 633.307L1104.26 632.527L1108.6 602.936L1095.92 601.073L1093.57 613.316C1093.04 616.131 1092.41 618.59 1091.71 620.691C1091.02 622.78 1090.18 624.494 1089.18 625.833C1088.21 627.175 1087.03 628.12 1085.64 628.667C1084.26 629.214 1082.61 629.347 1080.69 629.065L1078.89 628.801Z" fill="white"/>
<path d="M1127.76 639.436C1124.78 638.427 1122.4 636.832 1120.62 634.65C1118.86 632.473 1117.78 629.894 1117.38 626.912C1116.99 623.935 1117.38 620.738 1118.53 617.322C1119.69 613.876 1121.33 611.08 1123.45 608.932C1125.58 606.788 1128.01 605.384 1130.73 604.719C1133.46 604.059 1136.32 604.233 1139.31 605.241C1142.29 606.249 1144.66 607.841 1146.42 610.019C1148.2 612.201 1149.28 614.787 1149.66 617.779C1150.05 620.775 1149.67 623.995 1148.51 627.441C1147.35 630.857 1145.71 633.63 1143.59 635.759C1141.48 637.893 1139.05 639.29 1136.32 639.95C1133.6 640.615 1130.75 640.444 1127.76 639.436ZM1129.3 634.87C1131.57 635.636 1133.63 635.685 1135.49 635.016C1137.35 634.348 1138.95 633.185 1140.29 631.527C1141.63 629.87 1142.68 627.936 1143.42 625.725C1144.17 623.514 1144.51 621.336 1144.46 619.189C1144.4 617.042 1143.83 615.133 1142.77 613.462C1141.7 611.79 1140.03 610.571 1137.76 609.806C1135.5 609.04 1133.43 608.999 1131.57 609.681C1129.71 610.364 1128.1 611.542 1126.75 613.213C1125.41 614.885 1124.36 616.826 1123.61 619.037C1122.87 621.248 1122.53 623.419 1122.59 625.552C1122.65 627.684 1123.22 629.579 1124.29 631.236C1125.36 632.893 1127.03 634.105 1129.3 634.87Z" fill="white"/>
<path d="M1144.47 642.936L1166.02 635.804L1163.65 613.768L1168.98 617.237L1170.61 636.079L1173.05 637.665L1181.18 625.166L1185.67 628.09L1177.55 640.589L1179.91 642.125L1197.79 635.969L1203.13 639.438L1182.1 646.26L1184.25 668.803L1178.84 665.285L1177.11 646.267L1174.82 644.781L1166.64 657.356L1162.15 654.432L1170.32 641.857L1168.04 640.37L1149.88 646.454L1144.47 642.936Z" fill="white"/>
<path d="M1205.17 660.115L1211.79 667.611C1214.5 670.678 1215.79 673.71 1215.67 676.708C1215.55 679.706 1214.29 682.258 1211.91 684.364C1210.34 685.748 1208.6 686.643 1206.67 687.049C1204.76 687.446 1202.8 687.276 1200.79 686.539C1198.8 685.793 1196.9 684.397 1195.1 682.353L1185.41 671.382L1211.58 648.276L1215.13 652.296L1192.71 672.093L1198.84 679.044C1200.25 680.634 1201.82 681.569 1203.56 681.849C1205.31 682.129 1206.84 681.687 1208.16 680.524C1209.54 679.3 1210.22 677.792 1210.19 675.997C1210.16 674.203 1209.45 672.511 1208.04 670.92L1201.42 663.424L1205.17 660.115Z" fill="white"/>
<path d="M1238.98 692.09L1243.53 690.008L1255.34 715.794L1250.8 717.877L1246.03 707.463L1218.84 719.92L1216.6 715.044L1243.79 702.587L1238.98 692.09Z" fill="white"/>
<path d="M1228.27 749.719C1227.5 746.661 1227.56 743.797 1228.44 741.126C1229.33 738.469 1230.92 736.168 1233.21 734.223C1235.51 732.291 1238.41 730.89 1241.91 730.018C1245.44 729.139 1248.67 729.011 1251.62 729.634C1254.58 730.272 1257.07 731.557 1259.1 733.488C1261.13 735.433 1262.52 737.935 1263.29 740.993C1264.05 744.051 1263.99 746.908 1263.1 749.564C1262.22 752.235 1260.63 754.538 1258.31 756.473C1256 758.422 1253.08 759.837 1249.56 760.716C1246.06 761.588 1242.84 761.703 1239.9 761.061C1236.96 760.434 1234.48 759.148 1232.45 757.202C1230.42 755.271 1229.03 752.777 1228.27 749.719ZM1232.94 748.554C1233.52 750.877 1234.59 752.64 1236.16 753.843C1237.72 755.046 1239.56 755.765 1241.68 756.002C1243.8 756.239 1245.99 756.075 1248.26 755.511C1250.52 754.947 1252.54 754.061 1254.32 752.854C1256.09 751.646 1257.4 750.142 1258.23 748.342C1259.06 746.542 1259.19 744.481 1258.61 742.158C1258.03 739.835 1256.95 738.074 1255.37 736.875C1253.79 735.676 1251.94 734.959 1249.8 734.726C1247.67 734.493 1245.47 734.658 1243.2 735.223C1240.94 735.787 1238.93 736.671 1237.17 737.875C1235.4 739.079 1234.12 740.579 1233.3 742.375C1232.48 744.172 1232.36 746.231 1232.94 748.554Z" fill="white"/>
<path d="M1233.22 767.204L1238.2 766.745L1238.32 768.013C1238.42 769.054 1238.7 769.902 1239.17 770.559C1239.66 771.214 1240.44 771.705 1241.52 772.031C1242.62 772.372 1244.11 772.569 1246 772.623C1247.91 772.69 1250.33 772.643 1253.25 772.48L1268.7 771.696L1270.83 794.87L1236.07 798.073L1235.58 792.732L1265.36 789.988L1264.18 777.224L1251.73 777.823C1248.87 777.965 1246.33 777.94 1244.12 777.748C1241.93 777.57 1240.07 777.156 1238.53 776.506C1237 775.872 1235.8 774.947 1234.94 773.733C1234.09 772.519 1233.57 770.946 1233.39 769.015L1233.22 767.204Z" fill="white"/>
<path d="M1258.34 810.223L1258.1 820.22C1258.01 824.309 1256.89 827.412 1254.77 829.529C1252.64 831.645 1249.99 832.665 1246.81 832.589C1244.71 832.539 1242.83 832.009 1241.14 830.998C1239.46 829.988 1238.14 828.532 1237.17 826.63C1236.22 824.727 1235.77 822.413 1235.84 819.687L1236.19 805.054L1271.09 805.89L1270.96 811.252L1241.06 810.536L1240.84 819.806C1240.79 821.927 1241.3 823.682 1242.39 825.072C1243.48 826.462 1244.9 827.178 1246.66 827.22C1248.51 827.265 1250.03 826.619 1251.23 825.284C1252.43 823.949 1253.06 822.221 1253.11 820.1L1253.35 810.103L1258.34 810.223Z" fill="white"/>
<path d="M1234.92 839.186L1269.6 843.21L1268.98 848.537L1253.9 846.788L1253.49 850.309L1267.12 864.521L1266.33 871.384L1251.25 855.449L1231.63 867.541L1232.43 860.678L1248.38 850.997L1248.93 846.211L1234.3 844.514L1234.92 839.186Z" fill="white"/>
<path d="M1227.42 885.704C1228.02 882.611 1229.28 880.04 1231.21 877.992C1233.13 875.958 1235.55 874.545 1238.45 873.751C1241.35 872.973 1244.57 872.928 1248.11 873.617C1251.68 874.312 1254.67 875.565 1257.08 877.377C1259.48 879.204 1261.2 881.421 1262.22 884.028C1263.24 886.65 1263.44 889.507 1262.84 892.601C1262.24 895.694 1260.98 898.257 1259.05 900.291C1257.13 902.339 1254.71 903.751 1251.79 904.527C1248.87 905.317 1245.63 905.365 1242.06 904.67C1238.52 903.981 1235.56 902.725 1233.16 900.901C1230.77 899.092 1229.06 896.876 1228.04 894.255C1227.02 891.648 1226.81 888.798 1227.42 885.704ZM1232.15 886.625C1231.69 888.975 1231.91 891.025 1232.82 892.777C1233.73 894.528 1235.1 895.96 1236.92 897.071C1238.74 898.181 1240.8 898.96 1243.09 899.406C1245.38 899.852 1247.58 899.903 1249.7 899.559C1251.82 899.215 1253.64 898.404 1255.15 897.124C1256.67 895.844 1257.66 894.03 1258.11 891.68C1258.57 889.33 1258.34 887.278 1257.41 885.524C1256.49 883.769 1255.11 882.335 1253.27 881.221C1251.44 880.108 1249.37 879.328 1247.08 878.882C1244.79 878.436 1242.59 878.386 1240.49 878.733C1238.38 879.08 1236.58 879.894 1235.08 881.177C1233.58 882.459 1232.6 884.275 1232.15 886.625Z" fill="white"/>
<path d="M1220.43 920.477L1225.23 921.87L1224.88 923.092C1224.59 924.096 1224.54 924.99 1224.74 925.773C1224.95 926.561 1225.5 927.304 1226.39 928.002C1227.28 928.72 1228.6 929.449 1230.34 930.191C1232.1 930.951 1234.36 931.789 1237.14 932.706L1251.81 937.621L1245.33 959.973L1211.8 950.251L1213.29 945.099L1242.02 953.429L1245.59 941.118L1233.78 937.125C1231.06 936.211 1228.71 935.262 1226.72 934.276C1224.75 933.308 1223.16 932.242 1221.97 931.076C1220.78 929.924 1220 928.627 1219.65 927.183C1219.29 925.739 1219.38 924.086 1219.92 922.223L1220.43 920.477Z" fill="white"/>
<path d="M1472.67 724.435L1506.97 717.921L1512.09 744.893L1477.79 751.408L1476.79 746.138L1506.18 740.557L1503.05 724.123L1473.67 729.705L1472.67 724.435Z" fill="white"/>
<path d="M1466.29 761.484L1513.74 754.263L1514.52 759.386L1509.04 760.22L1509.14 760.849C1509.79 761.148 1510.64 761.571 1511.67 762.118C1512.72 762.679 1513.72 763.555 1514.65 764.746C1515.6 765.95 1516.24 767.676 1516.59 769.923C1517.03 772.829 1516.69 775.501 1515.58 777.939C1514.46 780.377 1512.66 782.42 1510.19 784.069C1507.71 785.718 1504.66 786.819 1501.03 787.37C1497.38 787.926 1494.12 787.787 1491.25 786.952C1488.39 786.114 1486.06 784.706 1484.26 782.727C1482.47 780.747 1481.36 778.318 1480.92 775.442C1480.58 773.225 1480.68 771.394 1481.21 769.95C1481.76 768.503 1482.45 767.348 1483.28 766.485C1484.13 765.62 1484.84 764.945 1485.41 764.46L1485.34 764.011L1467.1 766.787L1466.29 761.484ZM1497.28 762.102C1494.67 762.498 1492.43 763.23 1490.56 764.297C1488.7 765.362 1487.32 766.714 1486.42 768.353C1485.53 769.99 1485.25 771.871 1485.57 773.998C1485.91 776.215 1486.78 777.976 1488.17 779.281C1489.58 780.599 1491.34 781.481 1493.45 781.927C1495.57 782.385 1497.86 782.428 1500.32 782.054C1502.74 781.685 1504.87 780.977 1506.71 779.932C1508.56 778.9 1509.94 777.548 1510.85 775.877C1511.78 774.218 1512.07 772.265 1511.73 770.019C1511.4 767.862 1510.58 766.132 1509.26 764.831C1507.96 763.527 1506.28 762.649 1504.21 762.196C1502.17 761.741 1499.86 761.71 1497.28 762.102Z" fill="white"/>
<path d="M1485.21 808.638C1484.98 806.438 1485.18 804.398 1485.81 802.516C1486.46 800.632 1487.52 799.078 1488.99 797.853C1490.47 796.627 1492.35 795.892 1494.61 795.649C1496.59 795.434 1498.25 795.653 1499.57 796.303C1500.9 796.952 1501.99 797.893 1502.84 799.128C1503.69 800.362 1504.38 801.751 1504.89 803.296C1505.43 804.854 1505.88 806.427 1506.27 808.016C1506.77 810.096 1507.15 811.784 1507.43 813.08C1507.72 814.39 1508.08 815.327 1508.49 815.892C1508.9 816.473 1509.54 816.716 1510.4 816.624L1510.58 816.605C1512.81 816.364 1514.47 815.568 1515.58 814.215C1516.68 812.876 1517.1 810.98 1516.84 808.524C1516.56 805.978 1515.79 804.042 1514.52 802.716C1513.25 801.39 1511.95 800.501 1510.62 800.05L1511.89 794.794C1514.09 795.47 1515.86 796.499 1517.2 797.879C1518.56 799.272 1519.56 800.84 1520.22 802.582C1520.9 804.338 1521.33 806.09 1521.52 807.837C1521.64 808.952 1521.64 810.247 1521.53 811.722C1521.43 813.211 1521.04 814.677 1520.38 816.121C1519.71 817.579 1518.61 818.849 1517.06 819.929C1515.52 821.01 1513.37 821.699 1510.61 821.996L1487.74 824.458L1487.17 819.125L1491.87 818.619L1491.84 818.348C1491.05 818.068 1490.17 817.552 1489.23 816.801C1488.28 816.05 1487.42 815.006 1486.67 813.67C1485.92 812.334 1485.43 810.656 1485.21 808.638ZM1490.09 808.935C1490.32 811.044 1490.93 812.777 1491.91 814.134C1492.9 815.506 1494.08 816.491 1495.47 817.088C1496.87 817.7 1498.28 817.928 1499.73 817.772L1504.61 817.247C1504.32 817.05 1504.01 816.58 1503.71 815.836C1503.41 815.105 1503.13 814.252 1502.86 813.275C1502.6 812.312 1502.36 811.371 1502.14 810.449C1501.94 809.542 1501.77 808.806 1501.63 808.242C1501.3 806.875 1500.87 805.611 1500.33 804.45C1499.81 803.302 1499.11 802.402 1498.23 801.75C1497.37 801.111 1496.26 800.865 1494.91 801.011C1493.06 801.21 1491.73 802.046 1490.93 803.519C1490.14 805.006 1489.86 806.811 1490.09 808.935Z" fill="white"/>
<path d="M1488.61 834.388L1523.46 832.289L1524.32 846.536C1524.54 850.287 1523.87 853.318 1522.31 855.628C1520.75 857.938 1518.58 859.177 1515.8 859.344C1513.68 859.472 1512 858.943 1510.76 857.758C1509.54 856.572 1508.66 855.008 1508.13 853.067C1508.03 854.363 1507.65 855.638 1507 856.892C1506.34 858.16 1505.41 859.234 1504.19 860.112C1502.98 860.989 1501.46 861.483 1499.63 861.593C1497.85 861.701 1496.22 861.343 1494.76 860.52C1493.3 859.698 1492.11 858.464 1491.19 856.819C1490.27 855.174 1489.74 853.172 1489.6 850.813L1488.61 834.388ZM1493.82 839.175L1494.5 850.518C1494.61 852.363 1495.14 853.781 1496.08 854.772C1497.02 855.762 1498.24 856.212 1499.76 856.121C1501.56 856.013 1502.94 855.406 1503.9 854.3C1504.88 853.194 1505.32 851.718 1505.21 849.873L1504.53 838.53L1493.82 839.175ZM1509.15 838.251L1509.71 847.416C1509.79 848.853 1510.06 850.074 1510.52 851.079C1510.99 852.082 1511.61 852.834 1512.38 853.334C1513.17 853.848 1514.08 854.074 1515.11 854.012C1516.58 853.924 1517.69 853.242 1518.45 851.967C1519.22 850.691 1519.54 848.979 1519.41 846.832L1518.86 837.666L1509.15 838.251Z" fill="white"/>
<path d="M1480.53 865.356L1495.53 865.294L1495.54 868.203C1496.29 868.912 1497.09 869.522 1497.96 870.034C1498.82 870.546 1499.85 870.988 1501.03 871.362C1502.23 871.751 1503.69 872.078 1505.4 872.344C1507.13 872.61 1509.21 872.843 1511.65 873.045L1525.47 874.17L1525.57 896.351L1495.66 896.476L1495.68 901.839L1480.68 901.902L1480.66 896.538L1490.66 896.496L1490.55 870.678L1480.55 870.72L1480.53 865.356ZM1495.57 874.294L1495.64 891.112L1520.54 891.008L1520.5 879.19L1511.67 878.318C1508.02 877.954 1504.83 877.498 1502.1 876.949C1499.37 876.399 1497.19 875.514 1495.57 874.294Z" fill="white"/>
<path d="M1477.09 910.794C1477.15 909.886 1477.28 909.082 1477.47 908.381C1477.65 907.678 1477.82 907.195 1477.97 906.932L1482.61 908.587C1482.19 909.867 1482 911.008 1482.03 912.012C1482.06 913.016 1482.45 913.928 1483.2 914.75C1483.94 915.585 1485.17 916.383 1486.9 917.143L1489.56 918.311L1525.39 907.611L1525.02 913.418L1496.66 921.304L1496.64 921.667L1523.8 933.016L1523.44 938.823L1484.44 921.544C1482.68 920.767 1481.24 919.85 1480.12 918.793C1478.99 917.736 1478.18 916.539 1477.68 915.203C1477.19 913.881 1476.99 912.412 1477.09 910.794Z" fill="white"/>
<path d="M1501.74 983.925L1496.82 983.064L1500.13 964.079L1505.06 964.94L1501.74 983.925ZM1519.62 968.776L1485.23 962.766L1486.15 957.483L1520.54 963.492L1519.62 968.776ZM1515.81 990.537L1481.43 984.528L1482.35 979.244L1516.74 985.253L1515.81 990.537Z" fill="white"/>
<path d="M1475.11 1006.38C1476 1003.13 1477.49 1000.53 1479.57 998.576C1481.66 996.637 1484.17 995.387 1487.1 994.828C1490.05 994.288 1493.25 994.492 1496.69 995.441C1500.14 996.39 1503.01 997.854 1505.29 999.834C1507.58 1001.83 1509.16 1004.17 1510.01 1006.84C1510.87 1009.53 1510.89 1012.39 1510.05 1015.43C1509.57 1017.18 1508.8 1018.83 1507.74 1020.38C1506.69 1021.93 1505.31 1023.22 1503.61 1024.26C1501.92 1025.31 1499.89 1025.95 1497.52 1026.19C1495.14 1026.44 1492.38 1026.12 1489.24 1025.26L1487.05 1024.66L1494.19 998.712L1498.66 999.942L1492.97 1020.63C1494.87 1021.15 1496.66 1021.24 1498.36 1020.89C1500.06 1020.55 1501.53 1019.81 1502.77 1018.66C1504.01 1017.52 1504.89 1016.02 1505.4 1014.15C1505.97 1012.09 1505.95 1010.17 1505.34 1008.38C1504.74 1006.61 1503.75 1005.11 1502.34 1003.86C1500.94 1002.61 1499.32 1001.73 1497.46 1001.22L1494.48 1000.4C1491.94 999.695 1489.66 999.541 1487.66 999.93C1485.66 1000.34 1483.98 1001.21 1482.63 1002.53C1481.29 1003.86 1480.33 1005.57 1479.75 1007.66C1479.38 1009.01 1479.23 1010.29 1479.31 1011.49C1479.4 1012.71 1479.72 1013.83 1480.27 1014.85C1480.84 1015.87 1481.65 1016.76 1482.7 1017.52L1479.92 1022.13C1478.37 1021.14 1477.12 1019.84 1476.18 1018.25C1475.25 1016.65 1474.68 1014.85 1474.47 1012.82C1474.27 1010.81 1474.48 1008.66 1475.11 1006.38Z" fill="white"/>
<path d="M1472.26 1071.04L1467.74 1068.89L1476 1051.48L1480.52 1053.62L1472.26 1071.04ZM1493.52 1061.2L1461.98 1046.24L1464.28 1041.4L1495.82 1056.36L1493.52 1061.2ZM1484.06 1081.16L1452.52 1066.2L1454.82 1061.35L1486.36 1076.32L1484.06 1081.16Z" fill="white"/>
<path d="M1443.04 1080.1C1444.24 1078.24 1445.68 1076.78 1447.36 1075.72C1449.05 1074.67 1450.86 1074.13 1452.77 1074.11C1454.69 1074.09 1456.61 1074.7 1458.52 1075.93C1460.19 1077.02 1461.34 1078.23 1461.96 1079.57C1462.58 1080.91 1462.84 1082.33 1462.72 1083.83C1462.6 1085.32 1462.25 1086.83 1461.68 1088.35C1461.11 1089.9 1460.48 1091.41 1459.77 1092.89C1458.85 1094.82 1458.09 1096.37 1457.49 1097.55C1456.89 1098.75 1456.57 1099.7 1456.53 1100.4C1456.49 1101.11 1456.83 1101.7 1457.55 1102.17L1457.71 1102.27C1459.59 1103.49 1461.38 1103.92 1463.09 1103.57C1464.8 1103.22 1466.32 1102.02 1467.66 1099.94C1469.05 1097.79 1469.67 1095.8 1469.52 1093.97C1469.37 1092.14 1468.92 1090.63 1468.18 1089.45L1472.47 1086.16C1473.76 1088.08 1474.48 1089.99 1474.65 1091.91C1474.82 1093.84 1474.62 1095.69 1474.03 1097.46C1473.45 1099.25 1472.68 1100.88 1471.73 1102.36C1471.12 1103.3 1470.3 1104.31 1469.28 1105.38C1468.27 1106.47 1467.05 1107.37 1465.62 1108.07C1464.18 1108.78 1462.52 1109.07 1460.64 1108.94C1458.76 1108.8 1456.66 1107.98 1454.33 1106.47L1435.03 1093.97L1437.94 1089.47L1441.91 1092.04L1442.06 1091.81C1441.62 1091.09 1441.27 1090.14 1441.01 1088.96C1440.74 1087.78 1440.74 1086.43 1441 1084.92C1441.25 1083.41 1441.93 1081.8 1443.04 1080.1ZM1446.64 1083.4C1445.48 1085.18 1444.86 1086.91 1444.77 1088.58C1444.67 1090.27 1444.97 1091.78 1445.68 1093.12C1446.37 1094.48 1447.33 1095.55 1448.55 1096.34L1452.67 1099.01C1452.56 1098.67 1452.63 1098.11 1452.86 1097.34C1453.09 1096.59 1453.41 1095.75 1453.81 1094.82C1454.22 1093.91 1454.63 1093.03 1455.04 1092.17C1455.45 1091.34 1455.78 1090.66 1456.03 1090.14C1456.64 1088.87 1457.1 1087.61 1457.41 1086.37C1457.73 1085.16 1457.76 1084.02 1457.49 1082.96C1457.22 1081.92 1456.52 1081.03 1455.37 1080.29C1453.81 1079.27 1452.25 1079.09 1450.7 1079.72C1449.15 1080.38 1447.8 1081.61 1446.64 1083.4Z" fill="white"/>
<path d="M1432.66 1109.37L1441.31 1139.98L1437.15 1144.56L1411.33 1121.06L1414.94 1117.09L1434.91 1135.27L1426.2 1104.72L1430.42 1100.08L1456.24 1123.58L1452.63 1127.55L1432.66 1109.37ZM1452.3 1145.19L1448.94 1148.89C1447.12 1147.24 1446.21 1145.26 1446.2 1142.96C1446.18 1140.65 1447.16 1138.42 1449.12 1136.27C1451.04 1134.15 1453.15 1132.99 1455.45 1132.79C1457.74 1132.59 1459.79 1133.32 1461.6 1134.97L1458.24 1138.67C1457.36 1137.88 1456.38 1137.42 1455.28 1137.3C1454.17 1137.19 1453.08 1137.72 1452.01 1138.9C1450.94 1140.08 1450.5 1141.22 1450.7 1142.33C1450.9 1143.44 1451.43 1144.4 1452.3 1145.19Z" fill="white"/>
<path d="M1403.33 1115.37L1412.5 1127.24L1410.2 1129.02C1410.09 1130.04 1410.09 1131.06 1410.21 1132.05C1410.33 1133.05 1410.61 1134.13 1411.03 1135.3C1411.45 1136.49 1412.07 1137.84 1412.91 1139.37C1413.75 1140.9 1414.83 1142.7 1416.15 1144.76L1423.67 1156.41L1406.11 1169.98L1387.83 1146.31L1383.58 1149.59L1374.41 1137.72L1378.65 1134.44L1384.77 1142.35L1405.2 1126.57L1399.08 1118.65L1403.33 1115.37ZM1405.38 1132.75L1392.07 1143.03L1407.3 1162.74L1416.65 1155.51L1411.98 1147.98C1410.05 1144.86 1408.47 1142.05 1407.24 1139.55C1406.02 1137.05 1405.4 1134.78 1405.38 1132.75Z" fill="white"/>
<path d="M1364.25 1153.12C1367.23 1151.57 1370.15 1150.89 1373 1151.08C1375.84 1151.29 1378.47 1152.28 1380.87 1154.05C1383.27 1155.85 1385.3 1158.33 1386.95 1161.5C1388.6 1164.67 1389.47 1167.77 1389.58 1170.79C1389.67 1173.83 1389.03 1176.57 1387.65 1179.01C1386.27 1181.48 1384.18 1183.43 1381.38 1184.89C1379.77 1185.73 1378.04 1186.29 1376.18 1186.57C1374.33 1186.85 1372.44 1186.72 1370.52 1186.18C1368.61 1185.65 1366.76 1184.6 1364.97 1183.02C1363.17 1181.44 1361.52 1179.21 1360.02 1176.32L1358.97 1174.3L1382.85 1161.89L1384.99 1166L1365.95 1175.9C1366.86 1177.65 1368.02 1179.03 1369.43 1180.03C1370.83 1181.05 1372.37 1181.62 1374.06 1181.75C1375.74 1181.89 1377.44 1181.51 1379.16 1180.61C1381.05 1179.63 1382.45 1178.3 1383.35 1176.64C1384.23 1175 1384.66 1173.24 1384.62 1171.37C1384.59 1169.49 1384.13 1167.7 1383.24 1165.99L1381.81 1163.25C1380.6 1160.91 1379.16 1159.14 1377.51 1157.93C1375.85 1156.74 1374.08 1156.1 1372.18 1156.01C1370.3 1155.93 1368.39 1156.39 1366.47 1157.39C1365.22 1158.04 1364.18 1158.8 1363.36 1159.68C1362.52 1160.57 1361.92 1161.57 1361.55 1162.66C1361.19 1163.77 1361.09 1164.97 1361.24 1166.26L1355.98 1167.36C1355.65 1165.55 1355.75 1163.75 1356.28 1161.98C1356.81 1160.21 1357.75 1158.56 1359.09 1157.03C1360.43 1155.51 1362.15 1154.21 1364.25 1153.12Z" fill="white"/>
<path d="M1357.67 1195.96L1352.53 1197.48L1344.02 1168.81L1331.39 1172.56L1339.89 1201.23L1334.75 1202.76L1326.24 1174.08L1313.61 1177.83L1322.11 1206.5L1316.97 1208.03L1307.04 1174.56L1347.74 1162.49L1357.67 1195.96Z" fill="white"/>
<path d="M1298.32 1197.57L1288.38 1198.64C1284.31 1199.07 1281.09 1198.38 1278.72 1196.54C1276.34 1194.71 1274.98 1192.21 1274.64 1189.05C1274.42 1186.97 1274.7 1185.03 1275.48 1183.22C1276.26 1181.43 1277.53 1179.93 1279.29 1178.72C1281.05 1177.53 1283.29 1176.78 1286 1176.49L1300.56 1174.93L1304.28 1209.64L1298.95 1210.21L1295.76 1180.47L1286.54 1181.46C1284.43 1181.69 1282.75 1182.43 1281.52 1183.69C1280.28 1184.95 1279.76 1186.46 1279.95 1188.2C1280.14 1190.04 1280.98 1191.47 1282.46 1192.48C1283.94 1193.5 1285.74 1193.89 1287.85 1193.67L1297.79 1192.6L1298.32 1197.57Z" fill="white"/>
<path d="M1252.99 1177.87L1250.3 1212.68L1222.93 1210.57L1225.62 1175.76L1230.97 1176.17L1228.66 1205.99L1245.34 1207.28L1247.65 1177.46L1252.99 1177.87Z" fill="white"/>
<path d="M1221.04 1161.84L1210.94 1208.76L1205.88 1207.67L1207.04 1202.25L1206.42 1202.12C1205.91 1202.63 1205.21 1203.27 1204.33 1204.04C1203.44 1204.82 1202.26 1205.44 1200.82 1205.89C1199.36 1206.35 1197.51 1206.34 1195.29 1205.86C1192.42 1205.24 1190.04 1203.98 1188.16 1202.07C1186.28 1200.16 1185 1197.75 1184.34 1194.85C1183.68 1191.95 1183.73 1188.71 1184.51 1185.12C1185.28 1181.51 1186.57 1178.51 1188.37 1176.12C1190.17 1173.75 1192.31 1172.07 1194.8 1171.09C1197.29 1170.12 1199.96 1169.94 1202.8 1170.56C1204.99 1171.03 1206.67 1171.77 1207.83 1172.78C1208.99 1173.8 1209.82 1174.86 1210.33 1175.95C1210.84 1177.05 1211.22 1177.95 1211.47 1178.65L1211.92 1178.75L1215.8 1160.71L1221.04 1161.84ZM1209.46 1190.59C1210.01 1188.01 1210.13 1185.66 1209.8 1183.52C1209.46 1181.41 1208.69 1179.64 1207.47 1178.21C1206.26 1176.8 1204.6 1175.87 1202.5 1175.42C1200.3 1174.95 1198.35 1175.13 1196.64 1175.97C1194.9 1176.82 1193.45 1178.15 1192.29 1179.96C1191.11 1181.79 1190.25 1183.91 1189.73 1186.34C1189.21 1188.74 1189.12 1190.98 1189.44 1193.07C1189.75 1195.17 1190.53 1196.94 1191.76 1198.38C1192.99 1199.84 1194.71 1200.8 1196.93 1201.28C1199.06 1201.74 1200.97 1201.59 1202.65 1200.82C1204.34 1200.06 1205.75 1198.8 1206.91 1197.04C1208.06 1195.29 1208.91 1193.14 1209.46 1190.59Z" fill="white"/>
<path d="M1173.66 1162.36C1175.76 1163.08 1177.52 1164.12 1178.95 1165.5C1180.38 1166.89 1181.34 1168.51 1181.82 1170.36C1182.3 1172.22 1182.17 1174.23 1181.43 1176.38C1180.78 1178.27 1179.88 1179.67 1178.73 1180.59C1177.58 1181.52 1176.26 1182.11 1174.78 1182.36C1173.31 1182.6 1171.76 1182.63 1170.14 1182.44C1168.5 1182.26 1166.88 1182.01 1165.28 1181.68C1163.19 1181.25 1161.5 1180.88 1160.2 1180.58C1158.89 1180.29 1157.9 1180.21 1157.21 1180.34C1156.51 1180.47 1156.02 1180.94 1155.74 1181.76L1155.68 1181.93C1154.95 1184.05 1154.96 1185.9 1155.72 1187.47C1156.46 1189.04 1158 1190.23 1160.33 1191.03C1162.75 1191.87 1164.83 1191.99 1166.57 1191.4C1168.31 1190.82 1169.67 1190.02 1170.64 1189.01L1174.87 1192.38C1173.32 1194.09 1171.63 1195.26 1169.82 1195.88C1167.98 1196.52 1166.13 1196.76 1164.27 1196.62C1162.4 1196.49 1160.63 1196.13 1158.97 1195.56C1157.91 1195.2 1156.73 1194.65 1155.45 1193.92C1154.14 1193.2 1152.98 1192.23 1151.95 1191.01C1150.91 1189.79 1150.23 1188.25 1149.91 1186.39C1149.59 1184.53 1149.88 1182.29 1150.78 1179.67L1158.27 1157.92L1163.34 1159.67L1161.8 1164.14L1162.06 1164.23C1162.65 1163.63 1163.49 1163.06 1164.57 1162.52C1165.65 1161.98 1166.96 1161.65 1168.49 1161.54C1170.02 1161.42 1171.74 1161.7 1173.66 1162.36ZM1171.32 1166.65C1169.32 1165.96 1167.49 1165.77 1165.84 1166.08C1164.18 1166.39 1162.79 1167.05 1161.66 1168.05C1160.51 1169.05 1159.7 1170.24 1159.23 1171.62L1157.63 1176.26C1157.93 1176.07 1158.49 1176 1159.29 1176.04C1160.08 1176.08 1160.97 1176.19 1161.97 1176.36C1162.95 1176.54 1163.91 1176.72 1164.83 1176.91C1165.74 1177.11 1166.48 1177.27 1167.05 1177.39C1168.43 1177.67 1169.75 1177.81 1171.03 1177.82C1172.29 1177.84 1173.41 1177.59 1174.37 1177.07C1175.31 1176.56 1176.01 1175.66 1176.45 1174.37C1177.06 1172.61 1176.86 1171.05 1175.87 1169.7C1174.86 1168.36 1173.34 1167.34 1171.32 1166.65Z" fill="white"/>
<path d="M1151.08 1154.84L1135.64 1186.15L1122.84 1179.84C1119.47 1178.17 1117.16 1176.09 1115.93 1173.59C1114.7 1171.09 1114.7 1168.59 1115.93 1166.09C1116.87 1164.19 1118.16 1162.99 1119.8 1162.5C1121.44 1162.03 1123.23 1162.04 1125.18 1162.54C1124.1 1161.81 1123.18 1160.85 1122.42 1159.66C1121.64 1158.47 1121.17 1157.12 1121.01 1155.63C1120.85 1154.14 1121.17 1152.58 1121.98 1150.93C1122.77 1149.33 1123.89 1148.1 1125.33 1147.24C1126.77 1146.37 1128.43 1145.95 1130.31 1145.97C1132.2 1145.99 1134.2 1146.52 1136.32 1147.56L1151.08 1154.84ZM1144.34 1156.99L1134.15 1151.96C1132.49 1151.15 1131 1150.9 1129.67 1151.23C1128.34 1151.55 1127.35 1152.4 1126.68 1153.75C1125.88 1155.37 1125.72 1156.87 1126.2 1158.26C1126.68 1159.66 1127.74 1160.77 1129.4 1161.59L1139.59 1166.61L1144.34 1156.99ZM1137.54 1170.77L1129.31 1166.71C1128.02 1166.07 1126.82 1165.7 1125.73 1165.6C1124.62 1165.51 1123.66 1165.68 1122.84 1166.1C1122 1166.54 1121.36 1167.21 1120.9 1168.14C1120.25 1169.46 1120.29 1170.76 1121.02 1172.05C1121.75 1173.35 1123.08 1174.48 1125.01 1175.43L1133.24 1179.49L1137.54 1170.77Z" fill="white"/>
<path d="M1130.58 1133.81L1122.23 1146.27L1119.81 1144.65C1118.8 1144.87 1117.85 1145.19 1116.94 1145.62C1116.03 1146.05 1115.09 1146.65 1114.12 1147.42C1113.12 1148.2 1112.04 1149.22 1110.86 1150.49C1109.67 1151.78 1108.31 1153.37 1106.77 1155.28L1098.1 1166.1L1079.67 1153.75L1096.32 1128.9L1091.87 1125.92L1100.22 1113.46L1104.68 1116.44L1099.11 1124.75L1120.55 1139.13L1126.12 1130.82L1130.58 1133.81ZM1114.75 1141.25L1100.78 1131.89L1086.91 1152.58L1096.73 1159.16L1102.39 1152.34C1104.74 1149.52 1106.91 1147.13 1108.89 1145.18C1110.87 1143.23 1112.83 1141.92 1114.75 1141.25Z" fill="white"/>
<path d="M1098.34 1107.18C1099.01 1107.8 1099.55 1108.41 1099.97 1109.01C1100.4 1109.59 1100.67 1110.03 1100.77 1110.31L1096.56 1112.85C1095.83 1111.72 1095.07 1110.84 1094.28 1110.23C1093.48 1109.62 1092.53 1109.34 1091.41 1109.4C1090.3 1109.44 1088.9 1109.89 1087.22 1110.75L1084.63 1112.06L1070.21 1146.56L1065.94 1142.6L1077.81 1115.66L1077.55 1115.41L1051.56 1129.24L1047.29 1125.28L1085.37 1106.05C1087.09 1105.19 1088.71 1104.66 1090.23 1104.46C1091.77 1104.25 1093.21 1104.38 1094.56 1104.85C1095.89 1105.3 1097.16 1106.08 1098.34 1107.18Z" fill="white"/>
<path d="M1030.55 1077.36L1034.77 1074.68L1045.13 1090.93L1040.91 1093.62L1030.55 1077.36ZM1027.58 1100.6L1057.01 1081.84L1059.9 1086.37L1030.46 1105.13L1027.58 1100.6ZM1015.7 1081.97L1045.14 1063.21L1048.02 1067.74L1018.59 1086.5L1015.7 1081.97Z" fill="white"/>
<path d="M1144.09 493.162L1144.45 498.149L1116.16 500.196L1115.8 495.209L1127.22 494.382L1125.06 464.551L1130.41 464.164L1132.57 493.995L1144.09 493.162Z" fill="white"/>
<path d="M1092.93 464.591C1096.08 464.646 1098.83 465.444 1101.18 466.985C1103.52 468.526 1105.33 470.656 1106.62 473.376C1107.89 476.096 1108.49 479.258 1108.43 482.864C1108.37 486.499 1107.65 489.662 1106.29 492.35C1104.91 495.039 1103.02 497.113 1100.63 498.571C1098.23 500.03 1095.45 500.731 1092.3 500.677C1089.15 500.622 1086.4 499.824 1084.07 498.283C1081.71 496.742 1079.9 494.604 1078.63 491.869C1077.35 489.134 1076.73 485.949 1076.8 482.313C1076.86 478.708 1077.58 475.568 1078.96 472.895C1080.33 470.221 1082.21 468.155 1084.62 466.697C1087 465.238 1089.77 464.536 1092.93 464.591ZM1092.84 469.409C1090.45 469.367 1088.47 469.946 1086.9 471.146C1085.34 472.347 1084.16 473.94 1083.39 475.927C1082.61 477.914 1082.2 480.073 1082.16 482.406C1082.12 484.739 1082.45 486.92 1083.16 488.948C1083.87 490.975 1084.98 492.624 1086.51 493.893C1088.03 495.162 1089.99 495.817 1092.38 495.859C1094.78 495.901 1096.76 495.314 1098.32 494.099C1099.89 492.883 1101.06 491.275 1101.84 489.273C1102.62 487.271 1103.03 485.103 1103.07 482.77C1103.11 480.437 1102.77 478.264 1102.07 476.252C1101.36 474.239 1100.24 472.606 1098.72 471.352C1097.19 470.098 1095.24 469.45 1092.84 469.409Z" fill="white"/>
<path d="M1073.93 464.874L1073.25 469.829L1071.99 469.657C1070.96 469.517 1070.07 469.602 1069.32 469.914C1068.57 470.241 1067.92 470.893 1067.36 471.872C1066.78 472.864 1066.25 474.276 1065.77 476.107C1065.28 477.951 1064.78 480.315 1064.28 483.198L1061.57 498.427L1038.51 495.297L1043.21 460.705L1048.52 461.426L1044.5 491.064L1057.2 492.788L1059.42 480.52C1059.92 477.698 1060.52 475.233 1061.2 473.124C1061.87 471.028 1062.69 469.305 1063.67 467.954C1064.63 466.602 1065.8 465.645 1067.18 465.082C1068.55 464.52 1070.2 464.369 1072.12 464.63L1073.93 464.874Z" fill="white"/>
<path d="M1026.01 479.425L1016.4 476.667C1012.47 475.539 1009.75 473.679 1008.24 471.086C1006.73 468.493 1006.41 465.668 1007.29 462.609C1007.86 460.6 1008.86 458.905 1010.26 457.527C1011.66 456.163 1013.4 455.252 1015.49 454.795C1017.57 454.352 1019.92 454.506 1022.54 455.258L1036.61 459.294L1026.99 492.85L1021.83 491.371L1030.08 462.621L1021.16 460.064C1019.13 459.479 1017.3 459.538 1015.68 460.239C1014.06 460.941 1013 462.137 1012.52 463.826C1012.01 465.603 1012.25 467.24 1013.24 468.738C1014.23 470.235 1015.74 471.276 1017.78 471.861L1027.39 474.618L1026.01 479.425Z" fill="white"/>
<path d="M1005.8 449.907L991.005 481.525L986.147 479.251L992.582 465.501L989.371 463.998L971.573 472.431L965.315 469.503L985.206 460.242L979.947 437.807L986.205 440.736L990.337 458.93L994.701 460.972L1000.94 447.633L1005.8 449.907Z" fill="white"/>
<path d="M967.39 427.664C969.934 429.525 971.723 431.763 972.757 434.378C973.78 436.984 974.033 439.769 973.517 442.733C972.988 445.688 971.66 448.621 969.531 451.531C967.384 454.466 964.978 456.639 962.313 458.05C959.636 459.452 956.9 460.061 954.107 459.876C951.301 459.682 948.627 458.655 946.083 456.795C943.539 454.934 941.756 452.701 940.734 450.095C939.7 447.48 939.451 444.688 939.988 441.721C940.513 438.745 941.849 435.789 943.996 432.854C946.125 429.944 948.524 427.794 951.192 426.404C953.848 425.005 956.579 424.403 959.385 424.597C962.178 424.781 964.846 425.804 967.39 427.664ZM964.546 431.553C962.613 430.14 960.661 429.472 958.689 429.551C956.717 429.629 954.841 430.256 953.061 431.432C951.282 432.608 949.703 434.137 948.325 436.021C946.948 437.904 945.964 439.878 945.373 441.943C944.783 444.008 944.745 445.998 945.258 447.913C945.772 449.828 946.995 451.492 948.928 452.906C950.86 454.319 952.816 454.98 954.797 454.89C956.778 454.8 958.663 454.16 960.452 452.972C962.241 451.784 963.824 450.248 965.202 448.365C966.579 446.482 967.559 444.514 968.14 442.461C968.722 440.408 968.751 438.431 968.228 436.528C967.705 434.625 966.478 432.967 964.546 431.553Z" fill="white"/>
<path d="M943.369 408.298L939.374 411.304L938.609 410.287C937.98 409.452 937.293 408.878 936.547 408.567C935.789 408.266 934.864 408.26 933.774 408.549C932.662 408.836 931.288 409.453 929.65 410.401C927.99 411.346 925.961 412.655 923.56 414.329L910.829 423.112L896.836 404.516L924.73 383.527L927.955 387.813L904.056 405.796L911.763 416.038L922.043 408.986C924.404 407.361 926.575 406.05 928.555 405.053C930.514 404.053 932.318 403.426 933.966 403.172C935.605 402.905 937.108 403.064 938.475 403.646C939.843 404.229 941.11 405.295 942.276 406.845L943.369 408.298Z" fill="white"/>
<path d="M916.21 365.804C917.62 368.622 918.187 371.431 917.911 374.229C917.627 377.014 916.578 379.607 914.763 382.006C912.942 384.392 910.418 386.392 907.194 388.006C903.942 389.634 900.808 390.465 897.793 390.5C894.771 390.522 892.06 389.811 889.661 388.369C887.255 386.913 885.347 384.776 883.936 381.958C882.525 379.14 881.962 376.338 882.245 373.553C882.522 370.755 883.578 368.159 885.413 365.766C887.242 363.36 889.782 361.343 893.033 359.716C896.258 358.101 899.375 357.287 902.383 357.272C905.385 357.244 908.089 357.958 910.495 359.413C912.894 360.856 914.799 362.986 916.21 365.804ZM911.901 367.961C910.83 365.82 909.399 364.333 907.61 363.501C905.821 362.668 903.866 362.367 901.745 362.598C899.624 362.83 897.521 363.468 895.434 364.512C893.348 365.556 891.569 366.861 890.1 368.427C888.63 369.993 887.686 371.745 887.266 373.683C886.847 375.621 887.173 377.661 888.245 379.801C889.316 381.942 890.753 383.426 892.556 384.251C894.359 385.077 896.327 385.371 898.462 385.133C900.596 384.895 902.706 384.254 904.793 383.21C906.879 382.165 908.651 380.863 910.107 379.304C911.563 377.745 912.494 376 912.9 374.069C913.306 372.137 912.973 370.101 911.901 367.961Z" fill="white"/>
<path d="M906.896 349.436L885.94 340.705L873.296 358.907L871.537 352.791L882.651 337.488L881.847 334.693L867.518 338.812L866.036 333.657L880.365 329.538L879.586 326.829L862.042 319.766L860.284 313.65L880.64 322.27L893.784 303.829L895.567 310.032L884.417 325.535L885.17 328.156L899.586 324.012L901.068 329.166L886.652 333.311L887.406 335.932L905.113 343.233L906.896 349.436Z" fill="white"/>
<path d="M870.946 297.577L869.549 287.675C868.977 283.624 869.568 280.381 871.32 277.946C873.073 275.51 875.525 274.07 878.675 273.626C880.746 273.334 882.696 273.548 884.527 274.269C886.343 274.992 887.885 276.213 889.152 277.931C890.405 279.652 891.222 281.863 891.603 284.563L893.648 299.056L859.081 303.933L858.332 298.622L887.948 294.444L886.652 285.262C886.356 283.161 885.557 281.514 884.256 280.321C882.956 279.127 881.435 278.653 879.695 278.899C877.864 279.157 876.467 280.043 875.502 281.556C874.537 283.069 874.203 284.876 874.5 286.976L875.897 296.878L870.946 297.577Z" fill="white"/>
<path d="M858.554 253.235L853.554 253.296L853.21 224.935L858.21 224.874L858.349 236.328L888.256 235.965L888.321 241.328L858.414 241.691L858.554 253.235Z" fill="white"/>
<path d="M889.951 204.16C889.74 207.305 888.807 210.013 887.151 212.286C885.496 214.544 883.278 216.248 880.498 217.398C877.719 218.532 874.53 218.979 870.932 218.737C867.304 218.494 864.181 217.623 861.563 216.126C858.946 214.614 856.969 212.629 855.631 210.17C854.293 207.696 853.73 204.887 853.941 201.743C854.152 198.598 855.085 195.897 856.74 193.639C858.396 191.366 860.622 189.663 863.416 188.529C866.211 187.381 869.423 186.928 873.051 187.172C876.649 187.413 879.749 188.29 882.351 189.801C884.953 191.296 886.923 193.281 888.26 195.755C889.599 198.214 890.162 201.016 889.951 204.16ZM885.144 203.837C885.304 201.449 884.824 199.442 883.703 197.818C882.582 196.194 881.049 194.945 879.103 194.07C877.157 193.195 875.02 192.68 872.692 192.523C870.364 192.367 868.17 192.592 866.109 193.198C864.049 193.803 862.347 194.836 861.004 196.294C859.661 197.753 858.909 199.677 858.749 202.065C858.588 204.454 859.076 206.461 860.212 208.086C861.348 209.711 862.897 210.962 864.858 211.837C866.819 212.713 868.963 213.229 871.291 213.386C873.619 213.542 875.806 213.317 877.851 212.71C879.897 212.103 881.583 211.07 882.911 209.61C884.239 208.15 884.984 206.226 885.144 203.837Z" fill="white"/>
<path d="M890.638 184.33L885.691 183.604L885.876 182.345C886.028 181.31 885.952 180.419 885.648 179.67C885.33 178.919 884.684 178.257 883.711 177.686C882.726 177.097 881.32 176.554 879.494 176.056C877.656 175.541 875.297 175.019 872.419 174.49L857.221 171.616L860.6 148.59L895.139 153.659L894.36 158.965L864.768 154.623L862.907 167.305L875.151 169.653C877.966 170.189 880.425 170.81 882.526 171.516C884.615 172.206 886.329 173.047 887.669 174.04C889.011 175.018 889.956 176.198 890.503 177.58C891.051 178.962 891.184 180.612 890.902 182.531L890.638 184.33Z" fill="white"/>
<path d="M876.148 135.207L878.39 125.461C879.308 121.474 881.021 118.658 883.53 117.012C886.038 115.366 888.843 114.9 891.944 115.613C893.982 116.082 895.726 116.981 897.177 118.31C898.613 119.636 899.616 121.328 900.184 123.386C900.737 125.441 900.708 127.798 900.096 130.456L896.814 144.719L862.794 136.891L863.997 131.664L893.144 138.371L895.223 129.334C895.699 127.267 895.543 125.444 894.757 123.863C893.97 122.283 892.72 121.296 891.007 120.901C889.206 120.487 887.583 120.813 886.141 121.881C884.698 122.948 883.739 124.515 883.263 126.582L881.021 136.328L876.148 135.207Z" fill="white"/>
<circle cx="1100" cy="83" r="32" fill="white"/>
<circle cx="667.5" cy="868.771" r="24.5" fill="white"/>
<circle cx="545.5" cy="914.771" r="24.5" fill="white"/>
<circle cx="483.5" cy="928.771" r="24.5" fill="white"/>
<circle cx="300.5" cy="870.771" r="24.5" fill="white"/>
<circle cx="303.5" cy="804.771" r="24.5" fill="white"/>
<circle cx="393.5" cy="710.5" r="24.5" fill="white"/>
<circle cx="1333" cy="353.271" r="32" fill="white"/>
<circle cx="1463" cy="468.271" r="32" fill="white"/>
<circle cx="1454" cy="547.271" r="32" fill="white"/>
<circle cx="1075" cy="264.271" r="32" fill="white"/>
<path d="M119.006 476.357L163.18 434.84L177.048 493.854L119.006 476.357Z" fill="white"/>
<path d="M108.978 391.102L158.708 356.433L163.868 416.835L108.978 391.102Z" fill="white"/>
<path d="M228.674 162.341L283.611 187.972L233.946 222.733L228.674 162.341Z" fill="white"/>
<path d="M391.91 109.862L426.376 159.733L365.953 164.646L391.91 109.862Z" fill="white"/>
<path d="M1092.6 845.032L1141.79 822.909L1136.35 876.572L1092.6 845.032Z" fill="white"/>
<path d="M1088.6 918.58L1133.86 889.241L1136.64 943.107L1088.6 918.58Z" fill="white"/>
<path d="M1140.74 1058.04L1155.36 1006.13L1193.01 1044.75L1140.74 1058.04Z" fill="white"/>
<path d="M1233.97 1086.19L1198.94 1045.17L1251.97 1035.34L1233.97 1086.19Z" fill="white"/>
<path d="M1350.23 991.159L1296.35 988.566L1325.53 943.205L1350.23 991.159Z" fill="white"/>
<path d="M1379.32 926.793L1326.03 935.084L1345.49 884.783L1379.32 926.793Z" fill="white"/>
<path d="M1417.9 804.34L1366.12 819.417L1378.95 767.03L1417.9 804.34Z" fill="white"/>
<rect x="658.014" y="161.271" width="42.2144" height="42.2144" transform="rotate(26.7694 658.014 161.271)" fill="white"/>
<rect x="722.502" y="207.271" width="42.2144" height="42.2144" transform="rotate(46.2662 722.502 207.271)" fill="white"/>
<rect x="790.463" y="329.271" width="42.2144" height="42.2144" transform="rotate(73.4403 790.463 329.271)" fill="white"/>
<rect x="806.721" y="399.271" width="42.2144" height="42.2144" transform="rotate(81.2282 806.721 399.271)" fill="white"/>
<rect x="815.158" y="462.271" width="42.2144" height="42.2144" transform="rotate(87.0454 815.158 462.271)" fill="white"/>
<rect x="806.991" y="605.95" width="42.2144" height="42.2144" transform="rotate(101.864 806.991 605.95)" fill="white"/>
<rect x="789.991" y="671.95" width="42.2144" height="42.2144" transform="rotate(101.864 789.991 671.95)" fill="white"/>
<rect x="791.189" y="796" width="42.2144" height="42.2144" transform="rotate(54.0861 791.189 796)" fill="white"/>
<rect x="830.655" y="840" width="42.2144" height="42.2144" transform="rotate(9.07031 830.655 840)" fill="white"/>
<rect x="943" y="830.73" width="42.2144" height="42.2144" transform="rotate(-37.091 943 830.73)" fill="white"/>
<path d="M1539.78 658.317L1612.27 693.54C1861.03 193.534 1484.76 81.4235 1273.23 104.831L1279.26 199.536C1691.74 154.338 1649.64 511.233 1539.78 658.317Z" stroke="white" stroke-width="5"/>
<path d="M750.042 968.462L763.268 1000.77L737.86 1011.17L724.634 978.864L729.598 976.832L740.93 1004.51L756.41 998.174L745.078 970.495L750.042 968.462Z" fill="white"/>
<path d="M710.58 970.321L727.862 1015.1L723.028 1016.97L721.031 1011.79L720.437 1012.02C720.288 1012.73 720.058 1013.65 719.746 1014.77C719.425 1015.92 718.783 1017.08 717.821 1018.25C716.85 1019.43 715.304 1020.44 713.184 1021.25C710.441 1022.31 707.76 1022.56 705.138 1022C702.517 1021.43 700.135 1020.12 697.99 1018.05C695.846 1015.99 694.114 1013.25 692.794 1009.83C691.462 1006.38 690.895 1003.16 691.092 1000.18C691.294 997.212 692.167 994.634 693.71 992.446C695.259 990.273 697.39 988.663 700.104 987.616C702.196 986.808 704.005 986.508 705.53 986.715C707.061 986.937 708.338 987.362 709.36 987.99C710.388 988.633 711.2 989.18 711.796 989.632L712.22 989.469L705.576 972.252L710.58 970.321ZM716.658 1000.72C715.709 998.256 714.511 996.226 713.065 994.624C711.624 993.036 710.006 991.98 708.212 991.454C706.423 990.943 704.525 991.074 702.518 991.849C700.426 992.656 698.893 993.881 697.919 995.524C696.936 997.186 696.454 999.094 696.473 1001.25C696.483 1003.42 696.936 1005.66 697.83 1007.98C698.714 1010.27 699.864 1012.2 701.28 1013.76C702.687 1015.35 704.305 1016.41 706.133 1016.93C707.952 1017.48 709.922 1017.35 712.043 1016.53C714.078 1015.74 715.589 1014.57 716.576 1013C717.569 1011.45 718.064 1009.62 718.061 1007.51C718.064 1005.41 717.597 1003.15 716.658 1000.72Z" fill="white"/>
<path d="M669.387 998.926C671.47 998.181 673.501 997.896 675.479 998.074C677.462 998.265 679.221 998.931 680.756 1000.07C682.296 1001.23 683.449 1002.87 684.214 1005.01C684.888 1006.9 685.063 1008.56 684.74 1009.99C684.422 1011.44 683.763 1012.72 682.761 1013.84C681.76 1014.95 680.569 1015.94 679.189 1016.81C677.799 1017.69 676.377 1018.5 674.922 1019.25C673.017 1020.22 671.467 1020.99 670.271 1021.57C669.067 1022.16 668.238 1022.72 667.785 1023.25C667.318 1023.79 667.229 1024.46 667.52 1025.28L667.582 1025.45C668.337 1027.56 669.502 1028.99 671.076 1029.75C672.636 1030.51 674.579 1030.48 676.904 1029.64C679.315 1028.78 681.016 1027.58 682.008 1026.03C682.999 1024.49 683.559 1023.01 683.687 1021.62L689.092 1021.61C688.951 1023.92 688.366 1025.88 687.338 1027.5C686.301 1029.15 685.012 1030.49 683.473 1031.54C681.924 1032.61 680.323 1033.44 678.668 1034.03C677.612 1034.41 676.354 1034.72 674.892 1034.95C673.422 1035.2 671.907 1035.17 670.347 1034.86C668.773 1034.56 667.28 1033.78 665.868 1032.53C664.455 1031.28 663.282 1029.35 662.348 1026.74L654.598 1005.09L659.648 1003.28L661.241 1007.73L661.498 1007.64C661.585 1006.8 661.883 1005.84 662.39 1004.74C662.898 1003.64 663.714 1002.57 664.836 1001.52C665.959 1000.47 667.476 999.61 669.387 998.926ZM670.24 1003.74C668.243 1004.45 666.7 1005.45 665.611 1006.72C664.508 1008 663.829 1009.39 663.575 1010.88C663.305 1012.38 663.416 1013.81 663.906 1015.18L665.56 1019.8C665.682 1019.47 666.069 1019.06 666.72 1018.59C667.361 1018.13 668.125 1017.66 669.01 1017.16C669.887 1016.69 670.747 1016.24 671.59 1015.81C672.425 1015.4 673.1 1015.06 673.617 1014.79C674.868 1014.15 675.995 1013.43 676.999 1012.64C677.993 1011.87 678.704 1010.98 679.133 1009.97C679.552 1008.98 679.532 1007.85 679.072 1006.56C678.444 1004.81 677.321 1003.71 675.701 1003.28C674.072 1002.87 672.252 1003.02 670.24 1003.74Z" fill="white"/>
<path d="M645.041 1008.34L656.044 1041.47L642.498 1045.97C638.932 1047.16 635.832 1047.29 633.198 1046.38C630.564 1045.47 628.807 1043.69 627.929 1041.04C627.26 1039.03 627.339 1037.27 628.164 1035.77C628.995 1034.28 630.28 1033.03 632.021 1032.02C630.741 1032.25 629.412 1032.21 628.032 1031.91C626.638 1031.6 625.36 1030.97 624.196 1030.02C623.038 1029.08 622.17 1027.74 621.592 1026C621.029 1024.3 620.956 1022.64 621.375 1021.02C621.794 1019.39 622.679 1017.93 624.032 1016.61C625.384 1015.3 627.182 1014.28 629.426 1013.53L645.041 1008.34ZM641.757 1014.61L630.973 1018.19C629.218 1018.77 627.984 1019.65 627.268 1020.81C626.553 1021.97 626.434 1023.27 626.912 1024.71C627.48 1026.42 628.423 1027.6 629.74 1028.25C631.061 1028.91 632.599 1028.95 634.354 1028.37L645.138 1024.79L641.757 1014.61ZM646.599 1029.19L637.885 1032.08C636.519 1032.54 635.41 1033.11 634.556 1033.81C633.707 1034.52 633.141 1035.32 632.857 1036.19C632.564 1037.09 632.58 1038.03 632.904 1039.01C633.367 1040.4 634.313 1041.3 635.74 1041.7C637.172 1042.12 638.909 1041.99 640.951 1041.31L649.665 1038.42L646.599 1029.19Z" fill="white"/>
<path d="M612.194 1008.63L616.519 1022.99L613.733 1023.83C613.266 1024.75 612.91 1025.69 612.665 1026.67C612.421 1027.64 612.288 1028.75 612.266 1029.99C612.234 1031.25 612.334 1032.74 612.567 1034.46C612.804 1036.19 613.173 1038.25 613.673 1040.65L616.526 1054.22L595.286 1060.62L586.662 1031.98L581.526 1033.53L577.201 1019.17L582.336 1017.62L585.22 1027.19L609.941 1019.75L607.058 1010.17L612.194 1008.63ZM607.901 1025.59L591.798 1030.43L598.98 1054.29L610.296 1050.88L608.624 1042.17C607.934 1038.57 607.464 1035.38 607.214 1032.6C606.965 1029.83 607.194 1027.49 607.901 1025.59Z" fill="white"/>
<path d="M567.189 1018.53C568.068 1018.3 568.871 1018.17 569.599 1018.13C570.322 1018.08 570.833 1018.09 571.131 1018.15L571.021 1023.07C569.676 1023.08 568.532 1023.26 567.588 1023.6C566.644 1023.94 565.902 1024.6 565.36 1025.58C564.799 1026.54 564.431 1027.96 564.254 1029.84L563.984 1032.73L585.43 1063.36L579.805 1064.85L563.381 1040.41L563.029 1040.51L560.82 1069.86L555.195 1071.35L559.302 1028.89C559.486 1026.98 559.903 1025.33 560.553 1023.93C561.199 1022.52 562.079 1021.37 563.191 1020.48C564.289 1019.6 565.622 1018.95 567.189 1018.53Z" fill="white"/>
<path d="M505.89 1066.73L504.879 1061.83L523.753 1057.93L524.764 1062.83L505.89 1066.73ZM526.553 1077.78L519.49 1043.59L524.743 1042.51L531.805 1076.69L526.553 1077.78ZM504.919 1082.25L497.856 1048.06L503.109 1046.97L510.171 1081.16L504.919 1082.25Z" fill="white"/>
<path d="M473.899 1051.2C477.224 1050.69 480.205 1050.98 482.841 1052.08C485.464 1053.2 487.63 1054.98 489.339 1057.43C491.035 1059.9 492.154 1062.9 492.695 1066.44C493.236 1069.97 493.069 1073.19 492.194 1076.08C491.306 1078.99 489.817 1081.38 487.728 1083.25C485.625 1085.13 483.016 1086.31 479.901 1086.79C478.104 1087.07 476.283 1087.04 474.439 1086.71C472.595 1086.38 470.851 1085.65 469.207 1084.52C467.565 1083.41 466.149 1081.81 464.958 1079.74C463.767 1077.67 462.925 1075.03 462.432 1071.81L462.088 1069.56L488.687 1065.49L489.389 1070.07L468.182 1073.32C468.48 1075.26 469.135 1076.94 470.148 1078.35C471.146 1079.76 472.423 1080.8 473.982 1081.47C475.525 1082.13 477.255 1082.32 479.172 1082.03C481.284 1081.7 483.031 1080.9 484.413 1079.62C485.782 1078.35 486.751 1076.82 487.321 1075.03C487.89 1073.24 488.029 1071.4 487.737 1069.5L487.27 1066.44C486.871 1063.83 486.083 1061.69 484.907 1060.02C483.718 1058.36 482.243 1057.19 480.481 1056.49C478.721 1055.81 476.77 1055.63 474.629 1055.96C473.236 1056.17 472.007 1056.56 470.944 1057.12C469.867 1057.7 468.978 1058.45 468.276 1059.37C467.576 1060.31 467.093 1061.41 466.827 1062.67L461.485 1062.02C461.758 1060.2 462.43 1058.53 463.502 1057.02C464.575 1055.52 465.992 1054.26 467.752 1053.24C469.514 1052.24 471.563 1051.56 473.899 1051.2Z" fill="white"/>
<path d="M414.997 1078.01L414.666 1073.02L433.897 1071.75L434.227 1076.74L414.997 1078.01ZM433.948 1091.79L431.642 1056.96L436.994 1056.6L439.3 1091.43L433.948 1091.79ZM411.905 1093.25L409.6 1058.41L414.952 1058.06L417.257 1092.89L411.905 1093.25Z" fill="white"/>
<path d="M390.711 1057.74C392.923 1057.76 394.927 1058.19 396.724 1059.04C398.52 1059.9 399.943 1061.13 400.991 1062.73C402.04 1064.34 402.555 1066.29 402.538 1068.56C402.523 1070.56 402.116 1072.18 401.319 1073.41C400.521 1074.67 399.461 1075.64 398.137 1076.34C396.814 1077.05 395.355 1077.57 393.762 1077.9C392.153 1078.25 390.537 1078.53 388.914 1078.73C386.791 1078.99 385.07 1079.18 383.751 1079.3C382.416 1079.44 381.445 1079.69 380.836 1080.03C380.212 1080.37 379.897 1080.98 379.89 1081.84L379.889 1082.02C379.872 1084.27 380.472 1086.01 381.69 1087.27C382.892 1088.52 384.729 1089.15 387.198 1089.17C389.759 1089.19 391.771 1088.65 393.234 1087.54C394.697 1086.42 395.728 1085.24 396.329 1083.97L401.406 1085.82C400.481 1087.94 399.256 1089.58 397.732 1090.75C396.193 1091.94 394.52 1092.76 392.713 1093.21C390.891 1093.68 389.101 1093.91 387.344 1093.9C386.223 1093.89 384.936 1093.74 383.484 1093.46C382.016 1093.19 380.603 1092.64 379.246 1091.81C377.873 1090.99 376.739 1089.74 375.843 1088.08C374.946 1086.43 374.508 1084.21 374.53 1081.44L374.705 1058.44L380.069 1058.48L380.033 1063.21L380.305 1063.21C380.675 1062.45 381.287 1061.65 382.142 1060.79C382.997 1059.93 384.131 1059.21 385.545 1058.61C386.959 1058.02 388.681 1057.73 390.711 1057.74ZM389.856 1062.55C387.735 1062.54 385.944 1062.94 384.483 1063.76C383.007 1064.59 381.893 1065.65 381.14 1066.96C380.373 1068.28 379.983 1069.66 379.972 1071.12L379.935 1076.02C380.164 1075.75 380.666 1075.51 381.44 1075.29C382.2 1075.08 383.08 1074.9 384.081 1074.74C385.067 1074.59 386.03 1074.46 386.97 1074.35C387.895 1074.25 388.646 1074.17 389.222 1074.09C390.618 1073.92 391.923 1073.64 393.138 1073.24C394.338 1072.85 395.312 1072.26 396.061 1071.47C396.794 1070.68 397.166 1069.61 397.176 1068.25C397.191 1066.38 396.512 1064.97 395.141 1064C393.754 1063.05 391.992 1062.57 389.856 1062.55Z" fill="white"/>
<path d="M360.02 1065.32L340.465 1090.41L334.317 1089.76L337.976 1055.04L343.31 1055.61L340.48 1082.46L359.945 1057.36L366.183 1058.02L362.524 1092.73L357.19 1092.17L360.02 1065.32ZM342.771 1102.35L337.798 1101.83C338.056 1099.39 339.11 1097.48 340.961 1096.11C342.812 1094.73 345.184 1094.2 348.077 1094.5C350.925 1094.8 353.111 1095.82 354.635 1097.55C356.144 1099.28 356.77 1101.36 356.513 1103.8L351.54 1103.28C351.664 1102.1 351.449 1101.04 350.895 1100.08C350.326 1099.12 349.25 1098.56 347.668 1098.39C346.086 1098.22 344.909 1098.55 344.137 1099.37C343.35 1100.18 342.895 1101.18 342.771 1102.35Z" fill="white"/>
<path d="M336.283 1044.99L332.827 1059.59L329.997 1058.92C329.133 1059.48 328.35 1060.12 327.65 1060.84C326.95 1061.56 326.279 1062.45 325.639 1063.51C324.98 1064.59 324.32 1065.93 323.66 1067.53C322.997 1069.15 322.281 1071.12 321.513 1073.44L317.18 1086.62L295.594 1081.51L302.484 1052.4L297.265 1051.17L300.72 1036.57L305.94 1037.81L303.636 1047.54L328.76 1053.49L331.063 1043.75L336.283 1044.99ZM324.07 1057.51L307.704 1053.64L301.966 1077.88L313.466 1080.6L316.382 1072.23C317.592 1068.76 318.783 1065.77 319.957 1063.24C321.131 1060.72 322.502 1058.81 324.07 1057.51Z" fill="white"/>
<path d="M282.229 1038.9C285.344 1040.16 287.751 1041.95 289.45 1044.24C291.13 1046.54 292.074 1049.19 292.283 1052.17C292.473 1055.16 291.893 1058.31 290.544 1061.62C289.195 1064.93 287.403 1067.6 285.168 1069.64C282.913 1071.68 280.409 1072.97 277.657 1073.5C274.885 1074.04 272.039 1073.71 269.121 1072.53C267.437 1071.84 265.888 1070.88 264.475 1069.65C263.062 1068.42 261.939 1066.9 261.106 1065.09C260.268 1063.29 259.869 1061.2 259.909 1058.81C259.949 1056.42 260.584 1053.72 261.812 1050.7L262.67 1048.6L287.591 1058.75L285.842 1063.04L265.972 1054.95C265.23 1056.77 264.931 1058.55 265.078 1060.28C265.211 1062 265.775 1063.55 266.771 1064.92C267.753 1066.28 269.142 1067.33 270.938 1068.06C272.917 1068.87 274.829 1069.08 276.674 1068.68C278.5 1068.3 280.115 1067.48 281.522 1066.24C282.928 1065 283.994 1063.48 284.72 1061.7L285.885 1058.84C286.88 1056.4 287.302 1054.16 287.151 1052.11C286.981 1050.08 286.319 1048.32 285.163 1046.81C284.002 1045.33 282.418 1044.17 280.411 1043.36C279.106 1042.83 277.853 1042.53 276.652 1042.46C275.432 1042.41 274.284 1042.6 273.209 1043.03C272.129 1043.47 271.15 1044.17 270.271 1045.12L266.021 1041.82C267.189 1040.39 268.621 1039.31 270.317 1038.56C272.007 1037.82 273.869 1037.47 275.903 1037.5C277.931 1037.54 280.04 1038 282.229 1038.9Z" fill="white"/>
<path d="M244.628 1061.45L240.266 1058.33L257.667 1034L246.945 1026.33L229.544 1050.66L225.182 1047.54L242.583 1023.21L231.862 1015.54L214.461 1039.87L210.098 1036.75L230.408 1008.36L264.938 1033.06L244.628 1061.45Z" fill="white"/>
<path d="M207.942 1015.46L201.557 1007.76C198.944 1004.61 197.745 1001.54 197.96 998.548C198.174 995.555 199.505 993.043 201.954 991.012C203.563 989.677 205.336 988.836 207.273 988.489C209.198 988.151 211.151 988.382 213.132 989.18C215.101 989.987 216.957 991.44 218.698 993.539L228.043 1004.8L201.177 1027.09L197.752 1022.97L220.771 1003.87L214.85 996.732C213.496 995.099 211.952 994.116 210.218 993.783C208.484 993.449 206.941 993.843 205.589 994.965C204.166 996.146 203.441 997.633 203.414 999.427C203.387 1001.22 204.05 1002.94 205.405 1004.57L211.79 1012.26L207.942 1015.46Z" fill="white"/>
<path d="M201.71 968.667L169.432 981.963L158.975 956.578L191.253 943.282L193.296 948.241L165.641 959.633L172.012 975.099L199.667 963.708L201.71 968.667Z" fill="white"/>
<path d="M201.977 933.876L154.938 943.432L153.906 938.354L159.34 937.25L159.214 936.627C158.541 936.361 157.675 935.981 156.616 935.485C155.539 934.977 154.505 934.151 153.515 933.007C152.507 931.851 151.777 930.16 151.325 927.932C150.739 925.052 150.944 922.366 151.937 919.876C152.931 917.386 154.624 915.256 157.017 913.487C159.41 911.718 162.403 910.468 165.996 909.738C169.619 909.002 172.884 908.98 175.793 909.672C178.686 910.368 181.082 911.659 182.98 913.546C184.864 915.436 186.096 917.807 186.675 920.658C187.121 922.855 187.115 924.688 186.656 926.158C186.182 927.63 185.55 928.818 184.759 929.72C183.954 930.626 183.278 931.335 182.733 931.848L182.824 932.294L200.909 928.619L201.977 933.876ZM170.993 934.79C173.576 934.265 175.779 933.423 177.6 932.265C179.406 931.11 180.718 929.691 181.536 928.01C182.339 926.331 182.526 924.438 182.098 922.33C181.651 920.132 180.7 918.416 179.243 917.181C177.768 915.935 175.968 915.141 173.843 914.8C171.699 914.447 169.41 914.518 166.975 915.012C164.569 915.501 162.477 916.313 160.697 917.447C158.9 918.57 157.588 919.988 156.761 921.702C155.917 923.405 155.721 925.369 156.173 927.597C156.607 929.735 157.514 931.421 158.894 932.656C160.259 933.894 161.982 934.688 164.063 935.038C166.129 935.392 168.439 935.309 170.993 934.79Z" fill="white"/>
<path d="M183.151 893.161C183.266 895.37 182.954 897.397 182.216 899.241C181.462 901.085 180.319 902.579 178.785 903.721C177.237 904.864 175.327 905.494 173.058 905.612C171.061 905.716 169.421 905.407 168.139 904.685C166.842 903.964 165.804 902.963 165.024 901.684C164.245 900.405 163.639 898.98 163.209 897.409C162.762 895.824 162.39 894.228 162.094 892.62C161.711 890.516 161.418 888.809 161.213 887.5C160.992 886.176 160.692 885.22 160.313 884.633C159.932 884.031 159.311 883.752 158.448 883.797L158.267 883.807C156.027 883.924 154.319 884.627 153.142 885.917C151.965 887.192 151.44 889.063 151.569 891.53C151.702 894.087 152.366 896.062 153.562 897.457C154.757 898.851 156.006 899.81 157.307 900.334L155.756 905.512C153.591 904.715 151.878 903.59 150.619 902.139C149.344 900.673 148.426 899.052 147.863 897.276C147.284 895.485 146.949 893.712 146.857 891.957C146.799 890.837 146.868 889.544 147.065 888.077C147.246 886.596 147.709 885.154 148.455 883.749C149.2 882.33 150.374 881.123 151.976 880.129C153.578 879.135 155.763 878.566 158.532 878.422L181.501 877.225L181.78 882.582L177.06 882.828L177.074 883.1C177.849 883.424 178.69 883.987 179.597 884.789C180.503 885.592 181.296 886.681 181.975 888.056C182.653 889.432 183.045 891.134 183.151 893.161ZM178.297 892.595C178.186 890.476 177.677 888.713 176.769 887.303C175.861 885.879 174.729 884.831 173.374 884.158C172.018 883.47 170.614 883.164 169.161 883.239L164.259 883.495C164.543 883.707 164.819 884.194 165.086 884.954C165.337 885.699 165.572 886.567 165.79 887.557C165.993 888.532 166.179 889.486 166.349 890.418C166.503 891.336 166.633 892.08 166.738 892.651C166.993 894.033 167.355 895.319 167.827 896.508C168.283 897.683 168.931 898.621 169.771 899.32C170.596 900.005 171.689 900.313 173.051 900.242C174.912 900.145 176.284 899.383 177.165 897.956C178.031 896.515 178.408 894.728 178.297 892.595Z" fill="white"/>
<path d="M181.606 867.554L146.799 864.893L147.887 850.662C148.173 846.915 149.247 844.004 151.107 841.928C152.968 839.851 155.288 838.919 158.068 839.132C160.183 839.294 161.774 840.046 162.842 841.389C163.894 842.73 164.549 844.399 164.807 846.394C165.086 845.124 165.635 843.912 166.452 842.759C167.271 841.591 168.345 840.655 169.676 839.951C170.991 839.246 172.562 838.964 174.39 839.103C176.173 839.24 177.732 839.815 179.068 840.829C180.404 841.843 181.415 843.227 182.101 844.981C182.788 846.735 183.041 848.791 182.861 851.148L181.606 867.554ZM177.099 862.104L177.966 850.774C178.107 848.93 177.779 847.454 176.982 846.345C176.186 845.235 175.032 844.623 173.521 844.507C171.724 844.37 170.271 844.783 169.164 845.747C168.042 846.71 167.411 848.113 167.27 849.956L166.403 861.286L177.099 862.104ZM161.781 860.933L162.48 851.778C162.59 850.343 162.488 849.096 162.174 848.039C161.844 846.981 161.33 846.151 160.632 845.551C159.919 844.934 159.049 844.586 158.022 844.508C156.556 844.396 155.361 844.92 154.437 846.08C153.497 847.239 152.945 848.891 152.781 851.036L152.082 860.191L161.781 860.933Z" fill="white"/>
<path d="M193.307 841.732L178.56 838.987L179.092 836.127C178.493 835.291 177.815 834.541 177.061 833.876C176.306 833.212 175.382 832.585 174.29 831.997C173.185 831.39 171.816 830.796 170.183 830.215C168.534 829.631 166.531 829.011 164.171 828.357L150.802 824.666L154.861 802.859L184.265 808.332L185.247 803.058L199.993 805.803L199.012 811.076L189.181 809.246L184.457 834.629L194.288 836.458L193.307 841.732ZM180.207 830.139L183.284 813.605L158.795 809.047L156.633 820.666L165.136 823.173C168.656 824.213 171.706 825.259 174.285 826.309C176.863 827.359 178.837 828.636 180.207 830.139Z" fill="white"/>
<path d="M205.569 797.512C205.311 798.384 205.009 799.14 204.662 799.78C204.33 800.424 204.06 800.858 203.852 801.081L199.704 798.435C200.392 797.279 200.835 796.209 201.03 795.224C201.226 794.239 201.049 793.263 200.497 792.294C199.965 791.316 198.94 790.263 197.425 789.136L195.092 787.405L157.782 789.852L159.429 784.271L188.838 782.905L188.94 782.556L164.988 765.438L166.636 759.858L200.804 785.394C202.345 786.544 203.542 787.759 204.397 789.038C205.266 790.321 205.792 791.669 205.976 793.082C206.163 794.48 206.028 795.957 205.569 797.512Z" fill="white"/>
<path d="M197.371 723.625L201.952 725.629L194.227 743.286L189.646 741.282L197.371 723.625ZM176.414 734.103L208.396 748.096L206.246 753.01L174.264 739.017L176.414 734.103ZM185.269 713.864L217.251 727.857L215.101 732.771L183.119 718.778L185.269 713.864Z" fill="white"/>
<path d="M229.661 705.777C228.026 708.716 225.966 710.89 223.482 712.299C220.992 713.688 218.255 714.306 215.271 714.154C212.281 713.981 209.223 713.025 206.099 711.286C202.975 709.547 200.538 707.445 198.788 704.98C197.033 702.494 196.058 699.853 195.863 697.057C195.662 694.24 196.328 691.455 197.861 688.701C198.745 687.112 199.883 685.691 201.275 684.437C202.667 683.182 204.312 682.251 206.211 681.644C208.096 681.029 210.222 680.885 212.588 681.214C214.955 681.543 217.561 682.499 220.407 684.083L222.393 685.189L209.306 708.701L205.255 706.446L215.689 687.7C213.968 686.742 212.241 686.231 210.507 686.168C208.781 686.092 207.177 686.465 205.696 687.288C204.223 688.098 203.014 689.35 202.071 691.044C201.032 692.911 200.596 694.784 200.764 696.663C200.926 698.522 201.539 700.225 202.603 701.771C203.667 703.317 205.04 704.558 206.722 705.494L209.422 706.997C211.726 708.279 213.9 708.969 215.944 709.066C217.982 709.143 219.816 708.698 221.446 707.733C223.062 706.76 224.398 705.327 225.451 703.434C226.137 702.202 226.584 700.994 226.792 699.81C226.995 698.605 226.948 697.443 226.651 696.324C226.342 695.198 225.768 694.142 224.93 693.155L228.721 689.335C229.991 690.666 230.896 692.219 231.435 693.993C231.96 695.759 232.087 697.65 231.814 699.666C231.528 701.675 230.811 703.711 229.661 705.777Z" fill="white"/>
<path d="M245.592 644.756L249.573 647.78L237.916 663.128L233.934 660.103L245.592 644.756ZM222.759 650.017L250.558 671.132L247.314 675.403L219.515 654.288L222.759 650.017ZM236.121 632.425L263.92 653.541L260.676 657.812L232.877 636.696L236.121 632.425Z" fill="white"/>
<path d="M275.383 641.97C273.853 643.567 272.163 644.729 270.314 645.454C268.454 646.169 266.583 646.359 264.701 646.025C262.807 645.679 261.04 644.721 259.399 643.148C257.954 641.765 257.056 640.359 256.704 638.931C256.341 637.492 256.358 636.05 256.756 634.605C257.154 633.161 257.777 631.744 258.626 630.354C259.474 628.943 260.383 627.578 261.351 626.261C262.622 624.54 263.663 623.157 264.477 622.111C265.29 621.043 265.78 620.17 265.948 619.491C266.126 618.802 265.903 618.158 265.279 617.561L265.148 617.435C263.529 615.884 261.846 615.121 260.1 615.148C258.364 615.164 256.642 616.063 254.934 617.847C253.162 619.696 252.178 621.533 251.982 623.359C251.785 625.185 251.942 626.752 252.452 628.059L247.618 630.477C246.715 628.354 246.361 626.336 246.555 624.424C246.75 622.491 247.301 620.711 248.209 619.084C249.117 617.436 250.178 615.977 251.394 614.708C252.17 613.898 253.159 613.063 254.363 612.201C255.565 611.318 256.934 610.667 258.468 610.248C260.012 609.819 261.695 609.847 263.517 610.333C265.338 610.819 267.25 612.021 269.252 613.939L285.861 629.85L282.151 633.723L278.737 630.453L278.548 630.65C278.844 631.436 279.01 632.435 279.047 633.645C279.083 634.855 278.833 636.179 278.296 637.615C277.759 639.052 276.788 640.504 275.383 641.97ZM272.47 638.046C273.938 636.514 274.873 634.935 275.278 633.308C275.693 631.67 275.681 630.127 275.243 628.679C274.815 627.22 274.076 625.988 273.026 624.981L269.481 621.585C269.521 621.938 269.355 622.472 268.985 623.187C268.614 623.881 268.143 624.647 267.571 625.484C266.999 626.3 266.432 627.089 265.87 627.852C265.307 628.592 264.854 629.197 264.51 629.665C263.677 630.797 262.989 631.943 262.446 633.101C261.903 634.238 261.664 635.352 261.73 636.444C261.796 637.514 262.321 638.521 263.306 639.464C264.652 640.753 266.146 641.23 267.789 640.895C269.432 640.538 270.992 639.588 272.47 638.046Z" fill="white"/>
<path d="M1294.4 168.484L1292.75 133.116L1319.8 132.459L1321.46 167.828L1316.17 167.956L1314.75 137.653L1298.27 138.053L1299.69 168.356L1294.4 168.484Z" fill="white"/>
<path d="M1330.22 181.162L1331.11 132.523L1336.22 132.747L1336.11 138.366L1336.74 138.394C1337.14 137.796 1337.69 137.037 1338.4 136.115C1339.12 135.179 1340.13 134.363 1341.45 133.667C1342.77 132.957 1344.56 132.652 1346.8 132.75C1349.7 132.877 1352.24 133.733 1354.42 135.32C1356.6 136.906 1358.29 139.092 1359.48 141.88C1360.66 144.667 1361.23 147.918 1361.16 151.634C1361.09 155.38 1360.41 158.6 1359.12 161.294C1357.83 163.972 1356.07 166.016 1353.85 167.424C1351.63 168.817 1349.08 169.451 1346.22 169.325C1344.01 169.228 1342.24 168.774 1340.93 167.964C1339.61 167.138 1338.61 166.226 1337.91 165.227C1337.21 164.213 1336.67 163.375 1336.29 162.713L1335.85 162.693L1335.5 181.394L1330.22 181.162ZM1335.98 150.438C1335.93 153.109 1336.27 155.482 1336.99 157.558C1337.72 159.618 1338.8 161.256 1340.24 162.471C1341.69 163.672 1343.47 164.318 1345.59 164.411C1347.8 164.508 1349.65 163.99 1351.15 162.858C1352.67 161.71 1353.82 160.132 1354.6 158.123C1355.4 156.099 1355.83 153.828 1355.87 151.31C1355.92 148.823 1355.59 146.565 1354.88 144.536C1354.18 142.493 1353.1 140.855 1351.63 139.622C1350.17 138.375 1348.32 137.703 1346.08 137.605C1343.93 137.51 1342.11 137.991 1340.63 139.048C1339.15 140.089 1338.01 141.592 1337.23 143.555C1336.45 145.503 1336.03 147.797 1335.98 150.438Z" fill="white"/>
<path d="M1375.83 171.618C1373.66 171.378 1371.72 170.74 1370.02 169.703C1368.32 168.651 1367.02 167.265 1366.11 165.545C1365.2 163.809 1364.84 161.794 1365.03 159.501C1365.2 157.483 1365.72 155.89 1366.6 154.721C1367.47 153.538 1368.59 152.659 1369.94 152.083C1371.3 151.508 1372.77 151.13 1374.36 150.951C1375.96 150.759 1377.57 150.644 1379.18 150.605C1381.29 150.561 1382.99 150.541 1384.3 150.546C1385.62 150.538 1386.59 150.391 1387.21 150.105C1387.85 149.821 1388.21 149.243 1388.28 148.372L1388.29 148.188C1388.48 145.926 1388.02 144.101 1386.92 142.714C1385.84 141.329 1384.08 140.502 1381.66 140.234C1379.14 139.956 1377.13 140.304 1375.6 141.277C1374.08 142.251 1372.98 143.347 1372.29 144.567L1367.45 142.18C1368.52 140.138 1369.84 138.604 1371.43 137.575C1373.03 136.534 1374.74 135.874 1376.55 135.596C1378.37 135.304 1380.15 135.253 1381.87 135.444C1382.97 135.566 1384.22 135.843 1385.63 136.276C1387.05 136.696 1388.4 137.392 1389.67 138.366C1390.95 139.341 1391.97 140.711 1392.73 142.476C1393.48 144.242 1393.74 146.523 1393.51 149.321L1391.6 172.529L1386.34 171.947L1386.73 167.177L1386.46 167.147C1386.04 167.872 1385.38 168.625 1384.48 169.404C1383.57 170.183 1382.4 170.802 1380.97 171.261C1379.54 171.719 1377.82 171.839 1375.83 171.618ZM1377.03 166.845C1379.12 167.075 1380.9 166.849 1382.4 166.166C1383.91 165.485 1385.09 164.519 1385.93 163.27C1386.78 162.022 1387.27 160.664 1387.39 159.196L1387.8 154.243C1387.55 154.493 1387.04 154.691 1386.26 154.837C1385.5 154.969 1384.62 155.064 1383.63 155.124C1382.65 155.17 1381.69 155.203 1380.76 155.223C1379.84 155.23 1379.1 155.24 1378.53 155.254C1377.14 155.286 1375.84 155.443 1374.62 155.724C1373.41 155.992 1372.41 156.491 1371.61 157.22C1370.83 157.936 1370.39 158.982 1370.27 160.358C1370.12 162.239 1370.68 163.736 1371.95 164.848C1373.24 165.948 1374.94 166.613 1377.03 166.845Z" fill="white"/>
<path d="M1400.36 173.725L1405.62 138.819L1419.5 141.342C1423.16 142.006 1425.94 143.382 1427.83 145.47C1429.73 147.557 1430.47 149.995 1430.05 152.783C1429.73 154.904 1428.87 156.436 1427.47 157.381C1426.07 158.31 1424.38 158.805 1422.41 158.866C1423.63 159.275 1424.78 159.951 1425.85 160.892C1426.93 161.836 1427.77 163.015 1428.36 164.43C1428.95 165.829 1429.11 167.446 1428.83 169.279C1428.56 171.066 1427.88 172.584 1426.78 173.833C1425.69 175.081 1424.25 175.964 1422.48 176.482C1420.7 177.001 1418.67 177.051 1416.37 176.633L1400.36 173.725ZM1406.05 169.716L1417.11 171.724C1418.9 172.051 1420.38 171.867 1421.53 171.174C1422.68 170.48 1423.37 169.375 1423.59 167.86C1423.87 166.057 1423.57 164.548 1422.71 163.333C1421.85 162.103 1420.52 161.325 1418.72 160.998L1407.67 158.99L1406.05 169.716ZM1408.36 154.354L1417.3 155.977C1418.7 156.231 1419.93 156.252 1420.99 156.041C1422.06 155.814 1422.91 155.377 1423.55 154.731C1424.21 154.073 1424.62 153.228 1424.77 152.198C1425 150.729 1424.57 149.469 1423.5 148.419C1422.44 147.353 1420.86 146.631 1418.76 146.25L1409.83 144.628L1408.36 154.354Z" fill="white"/>
<path d="M1428.23 188.9L1431.68 174.156L1434.46 174.901C1435.31 174.354 1436.08 173.722 1436.78 173.005C1437.47 172.288 1438.13 171.397 1438.76 170.332C1439.42 169.256 1440.07 167.912 1440.72 166.299C1441.38 164.671 1442.09 162.686 1442.85 160.342L1447.16 147.063L1468.39 152.743L1461.52 182.141L1466.65 183.515L1463.21 198.258L1458.07 196.885L1460.37 187.056L1435.66 180.444L1433.36 190.273L1428.23 188.9ZM1440.29 176.461L1456.38 180.768L1462.11 156.284L1450.8 153.258L1447.9 161.692C1446.7 165.184 1445.52 168.199 1444.35 170.736C1443.19 173.273 1441.84 175.182 1440.29 176.461Z" fill="white"/>
<path d="M1469.92 202.892C1469.07 202.578 1468.34 202.225 1467.72 201.834C1467.11 201.458 1466.69 201.157 1466.48 200.932L1469.26 196.89C1470.37 197.659 1471.4 198.173 1472.36 198.432C1473.32 198.691 1474.29 198.57 1475.26 198.071C1476.25 197.591 1477.33 196.617 1478.5 195.15L1480.3 192.891L1479.49 154.915L1484.91 156.927L1484.99 186.826L1485.33 186.952L1503.19 163.719L1508.61 165.731L1482.03 198.805C1480.84 200.297 1479.59 201.436 1478.3 202.224C1477 203.027 1475.65 203.478 1474.25 203.577C1472.87 203.681 1471.42 203.453 1469.92 202.892Z" fill="white"/>
<path d="M1545.54 201.376L1543.2 205.809L1526.49 196.301L1528.83 191.868L1545.54 201.376ZM1536.94 179.197L1520.62 210.148L1515.97 207.502L1532.29 176.551L1536.94 179.197ZM1556.1 190.095L1539.78 221.046L1535.13 218.4L1551.45 187.449L1556.1 190.095Z" fill="white"/>
<path d="M1557.87 234.994C1555.21 232.925 1553.35 230.543 1552.3 227.847C1551.26 225.149 1551.02 222.315 1551.56 219.346C1552.12 216.374 1553.45 213.449 1555.56 210.572C1557.67 207.694 1560.04 205.559 1562.68 204.165C1565.34 202.769 1568.06 202.177 1570.82 202.39C1573.6 202.6 1576.24 203.675 1578.73 205.613C1580.17 206.732 1581.41 208.08 1582.45 209.658C1583.5 211.236 1584.19 213.021 1584.54 215.013C1584.9 216.993 1584.76 219.145 1584.13 221.469C1583.5 223.793 1582.22 226.265 1580.3 228.887L1578.96 230.716L1557.67 214.164L1560.4 210.433L1577.38 223.63C1578.54 222.044 1579.26 220.388 1579.55 218.659C1579.85 216.94 1579.7 215.278 1579.09 213.673C1578.49 212.078 1577.42 210.684 1575.89 209.491C1574.2 208.177 1572.42 207.467 1570.56 207.36C1568.72 207.251 1566.98 207.617 1565.32 208.458C1563.67 209.299 1562.28 210.493 1561.14 212.042L1559.32 214.529C1557.77 216.651 1556.81 218.729 1556.44 220.764C1556.1 222.796 1556.3 224.699 1557.03 226.474C1557.77 228.236 1559 229.784 1560.71 231.116C1561.83 231.983 1562.95 232.607 1564.08 232.989C1565.23 233.368 1566.38 233.491 1567.51 233.358C1568.65 233.212 1569.76 232.791 1570.83 232.095L1574.08 236.453C1572.61 237.532 1570.97 238.212 1569.16 238.492C1567.37 238.761 1565.5 238.612 1563.57 238.044C1561.64 237.465 1559.74 236.448 1557.87 234.994Z" fill="white"/>
<path d="M1612.1 262.416L1608.27 265.567L1596.17 250.354L1599.99 247.203L1612.1 262.416ZM1612.26 238.754L1585.56 260.755L1582.19 256.522L1608.89 234.52L1612.26 238.754ZM1626.14 256.191L1599.44 278.192L1596.07 273.959L1622.77 251.957L1626.14 256.191Z" fill="white"/>
<path d="M1607.05 292.249C1605.99 290.273 1605.4 288.285 1605.26 286.283C1605.14 284.273 1605.51 282.421 1606.39 280.726C1607.27 279.024 1608.7 277.639 1610.68 276.571C1612.41 275.631 1614.01 275.22 1615.46 275.34C1616.93 275.453 1618.29 275.93 1619.53 276.773C1620.78 277.615 1621.93 278.665 1623 279.922C1624.08 281.186 1625.1 282.492 1626.06 283.84C1627.31 285.606 1628.3 287.046 1629.05 288.159C1629.82 289.279 1630.5 290.027 1631.09 290.405C1631.69 290.796 1632.36 290.788 1633.11 290.382L1633.27 290.297C1635.22 289.243 1636.44 287.876 1636.93 286.196C1637.43 284.529 1637.09 282.593 1635.91 280.387C1634.69 278.1 1633.24 276.571 1631.58 275.799C1629.91 275.027 1628.38 274.676 1627 274.746L1626.14 269.345C1628.42 269.16 1630.43 269.466 1632.18 270.264C1633.95 271.068 1635.47 272.165 1636.74 273.554C1638.02 274.95 1639.09 276.433 1639.93 278.003C1640.46 279.004 1640.96 280.219 1641.42 281.646C1641.89 283.08 1642.1 284.598 1642.04 286.2C1641.99 287.816 1641.47 289.418 1640.47 291.007C1639.47 292.595 1637.76 294.041 1635.36 295.344L1615.4 306.155L1612.84 301.364L1616.94 299.142L1616.81 298.899C1615.98 298.93 1614.98 298.77 1613.83 298.418C1612.68 298.066 1611.5 297.403 1610.3 296.43C1609.1 295.456 1608.02 294.062 1607.05 292.249ZM1611.62 290.715C1612.63 292.61 1613.85 294.011 1615.27 294.918C1616.69 295.839 1618.15 296.321 1619.65 296.365C1621.16 296.422 1622.54 296.108 1623.8 295.425L1628.06 293.117C1627.72 293.042 1627.26 292.713 1626.7 292.13C1626.15 291.553 1625.57 290.857 1624.95 290.043C1624.34 289.234 1623.77 288.439 1623.21 287.657C1622.68 286.881 1622.24 286.254 1621.9 285.776C1621.08 284.616 1620.2 283.591 1619.27 282.701C1618.35 281.817 1617.37 281.232 1616.32 280.947C1615.29 280.667 1614.18 280.848 1613 281.489C1611.38 282.365 1610.49 283.643 1610.32 285.323C1610.17 287.01 1610.6 288.807 1611.62 290.715Z" fill="white"/>
<path d="M1627.99 316.218L1658.54 324.688L1660.42 330.672L1627.55 340.769L1625.92 335.577L1651.34 327.768L1620.82 319.386L1618.91 313.314L1651.78 303.217L1653.41 308.409L1627.99 316.218ZM1668.41 317.891L1669.94 322.73C1667.62 323.44 1665.48 323.2 1663.49 322.008C1661.5 320.817 1660.07 318.814 1659.18 315.998C1658.31 313.226 1658.35 310.793 1659.3 308.699C1660.25 306.62 1661.89 305.225 1664.2 304.515L1665.72 309.355C1664.61 309.697 1663.73 310.312 1663.09 311.202C1662.45 312.105 1662.37 313.327 1662.86 314.867C1663.34 316.407 1664.11 317.378 1665.16 317.779C1666.21 318.195 1667.3 318.232 1668.41 317.891Z" fill="white"/>
<path d="M1619.14 345.527L1633.81 343.817L1634.21 346.743C1635.03 347.374 1635.9 347.9 1636.81 348.32C1637.73 348.739 1638.79 349.072 1640 349.319C1641.22 349.578 1642.69 349.748 1644.4 349.827C1646.13 349.904 1648.2 349.91 1650.61 349.845L1664.29 349.458L1667.3 371.77L1638.04 375.181L1638.76 380.576L1624.09 382.287L1623.36 376.892L1633.14 375.751L1629.65 349.782L1619.87 350.922L1619.14 345.527ZM1635.03 352.869L1637.31 369.786L1661.68 366.945L1660.08 355.058L1651.33 355.149C1647.71 355.184 1644.52 355.076 1641.78 354.823C1639.03 354.57 1636.79 353.919 1635.03 352.869Z" fill="white"/>
<path d="M1633.09 398.557C1633.1 395.147 1633.84 392.226 1635.31 389.795C1636.8 387.379 1638.87 385.54 1641.51 384.278C1644.18 383.031 1647.27 382.458 1650.8 382.557C1654.32 382.656 1657.43 383.403 1660.11 384.799C1662.81 386.212 1664.91 388.129 1666.41 390.552C1667.93 392.991 1668.68 395.807 1668.67 399.002C1668.66 400.845 1668.36 402.657 1667.76 404.437C1667.15 406.217 1666.18 407.826 1664.83 409.262C1663.49 410.699 1661.73 411.825 1659.53 412.639C1657.33 413.453 1654.62 413.815 1651.41 413.724L1649.17 413.662L1649.26 386.384L1653.83 386.513L1653.76 408.261C1655.7 408.315 1657.44 407.964 1658.96 407.208C1660.49 406.468 1661.7 405.38 1662.58 403.946C1663.47 402.527 1663.91 400.835 1663.92 398.869C1663.93 396.703 1663.41 394.815 1662.37 393.203C1661.34 391.608 1660 390.364 1658.35 389.473C1656.69 388.582 1654.92 388.11 1653.02 388.057L1649.97 387.971C1647.37 387.898 1645.17 388.297 1643.36 389.168C1641.56 390.054 1640.19 391.314 1639.25 392.946C1638.31 394.579 1637.84 396.494 1637.84 398.69C1637.83 400.118 1638.02 401.414 1638.41 402.577C1638.81 403.755 1639.4 404.778 1640.19 405.645C1640.99 406.512 1641.99 407.193 1643.19 407.687L1641.73 412.9C1640 412.298 1638.48 411.326 1637.17 409.984C1635.88 408.642 1634.87 407.001 1634.14 405.061C1633.43 403.121 1633.08 400.953 1633.09 398.557Z" fill="white"/>
<path d="M1668 423.199L1667.29 428.578L1638.1 423.827L1636.35 437.045L1665.53 441.796L1664.82 447.175L1635.64 442.424L1633.89 455.642L1663.07 460.393L1662.35 465.772L1628.3 460.226L1633.94 417.654L1668 423.199Z" fill="white"/>
<path d="M1646.57 478.98L1644.23 488.798C1643.27 492.815 1641.55 495.617 1639.06 497.204C1636.57 498.791 1633.8 499.17 1630.76 498.342C1628.76 497.798 1627.06 496.827 1625.65 495.43C1624.25 494.036 1623.29 492.285 1622.76 490.176C1622.24 488.071 1622.3 485.68 1622.94 483.002L1626.36 468.632L1659.73 477.716L1658.48 482.982L1629.89 475.199L1627.72 484.303C1627.22 486.386 1627.35 488.243 1628.1 489.873C1628.86 491.504 1630.07 492.548 1631.75 493.005C1633.52 493.486 1635.12 493.209 1636.56 492.174C1637.99 491.139 1638.96 489.58 1639.45 487.497L1641.79 477.679L1646.57 478.98Z" fill="white"/>
<path d="M1613.78 516.83L1646.23 529.047L1637.34 555.224L1604.89 543.008L1606.63 537.894L1634.43 548.36L1639.84 532.411L1612.04 521.944L1613.78 516.83Z" fill="white"/>
<path d="M1590.13 545.571L1633.85 564.767L1631.91 569.603L1626.86 567.385L1626.62 567.979C1627.03 568.59 1627.53 569.408 1628.12 570.434C1628.73 571.48 1629.12 572.767 1629.31 574.294C1629.5 575.842 1629.17 577.676 1628.32 579.798C1627.22 582.541 1625.58 584.666 1623.41 586.171C1621.23 587.676 1618.68 588.477 1615.75 588.572C1612.83 588.667 1609.69 587.981 1606.35 586.515C1602.99 585.037 1600.3 583.168 1598.3 580.91C1596.32 578.657 1595.06 576.195 1594.54 573.522C1594.04 570.855 1594.33 568.164 1595.41 565.449C1596.25 563.356 1597.26 561.829 1598.44 560.867C1599.63 559.911 1600.8 559.285 1601.94 558.988C1603.1 558.697 1604.04 558.495 1604.77 558.381L1604.94 557.957L1588.13 550.577L1590.13 545.571ZM1615.98 562.708C1613.58 561.653 1611.32 561.084 1609.19 560.999C1607.08 560.921 1605.23 561.347 1603.64 562.279C1602.07 563.216 1600.88 564.689 1600.07 566.697C1599.24 568.79 1599.08 570.773 1599.59 572.646C1600.12 574.539 1601.15 576.242 1602.71 577.755C1604.27 579.288 1606.18 580.551 1608.44 581.545C1610.68 582.527 1612.83 583.058 1614.91 583.138C1617 583.239 1618.85 582.813 1620.46 581.859C1622.08 580.926 1623.32 579.398 1624.17 577.277C1624.98 575.24 1625.16 573.308 1624.71 571.48C1624.27 569.657 1623.3 567.999 1621.79 566.504C1620.29 565.015 1618.36 563.75 1615.98 562.708Z" fill="white"/>
<path d="M1581.53 597.689C1582.46 595.67 1583.67 594.022 1585.16 592.746C1586.67 591.477 1588.36 590.712 1590.22 590.45C1592.1 590.195 1594.05 590.572 1596.07 591.582C1597.86 592.47 1599.14 593.55 1599.92 594.82C1600.71 596.098 1601.15 597.497 1601.23 599.016C1601.31 600.536 1601.18 602.099 1600.82 603.706C1600.48 605.334 1600.06 606.934 1599.57 608.508C1598.93 610.566 1598.39 612.227 1597.96 613.49C1597.54 614.775 1597.36 615.771 1597.41 616.479C1597.47 617.201 1597.88 617.753 1598.65 618.137L1598.81 618.218C1600.81 619.214 1602.62 619.427 1604.24 618.859C1605.85 618.304 1607.18 616.899 1608.21 614.645C1609.28 612.308 1609.62 610.226 1609.23 608.4C1608.83 606.575 1608.2 605.11 1607.31 604.005L1611.06 600.165C1612.57 601.937 1613.53 603.777 1613.95 605.685C1614.38 607.613 1614.43 609.505 1614.09 611.359C1613.77 613.234 1613.23 614.974 1612.5 616.578C1612.03 617.602 1611.37 618.717 1610.52 619.924C1609.68 621.151 1608.6 622.205 1607.31 623.086C1606 623.982 1604.42 624.478 1602.57 624.574C1600.72 624.67 1598.55 624.103 1596.08 622.872L1575.57 612.657L1577.81 607.761L1582.03 609.861L1582.14 609.612C1581.62 608.943 1581.15 608.03 1580.74 606.872C1580.32 605.714 1580.14 604.357 1580.18 602.802C1580.23 601.247 1580.68 599.542 1581.53 597.689ZM1585.48 600.575C1584.6 602.512 1584.22 604.329 1584.36 606.027C1584.49 607.738 1584.98 609.226 1585.85 610.489C1586.71 611.766 1587.78 612.727 1589.08 613.373L1593.46 615.553C1593.31 615.225 1593.3 614.657 1593.42 613.851C1593.54 613.065 1593.74 612.179 1594.01 611.192C1594.29 610.226 1594.57 609.287 1594.85 608.376C1595.15 607.485 1595.38 606.76 1595.55 606.201C1595.97 604.847 1596.25 603.527 1596.39 602.239C1596.54 600.971 1596.42 599.82 1596.01 598.786C1595.61 597.772 1594.8 596.962 1593.59 596.357C1591.93 595.529 1590.38 595.533 1588.95 596.367C1587.53 597.223 1586.38 598.625 1585.48 600.575Z" fill="white"/>
<path d="M1572.85 618.343L1603.47 634.91L1597.06 647.713C1595.38 651.083 1593.3 653.358 1590.81 654.537C1588.33 655.716 1585.87 655.644 1583.43 654.321C1581.57 653.315 1580.41 651.97 1579.95 650.289C1579.5 648.614 1579.54 646.796 1580.07 644.835C1579.33 645.904 1578.37 646.81 1577.19 647.552C1576 648.308 1574.67 648.744 1573.19 648.86C1571.73 648.984 1570.19 648.611 1568.59 647.74C1567.02 646.892 1565.82 645.726 1564.99 644.241C1564.16 642.757 1563.77 641.06 1563.82 639.149C1563.86 637.239 1564.41 635.223 1565.47 633.103L1572.85 618.343ZM1574.87 625.239L1569.78 635.433C1568.95 637.091 1568.68 638.598 1568.99 639.952C1569.29 641.307 1570.1 642.344 1571.43 643.063C1573.01 643.919 1574.49 644.122 1575.86 643.673C1577.25 643.232 1578.35 642.182 1579.18 640.524L1584.28 630.33L1574.87 625.239ZM1588.35 632.53L1584.23 640.767C1583.58 642.058 1583.2 643.259 1583.08 644.37C1582.98 645.489 1583.13 646.469 1583.54 647.31C1583.95 648.173 1584.61 648.848 1585.51 649.337C1586.8 650.035 1588.09 650.031 1589.37 649.325C1590.66 648.627 1591.79 647.313 1592.76 645.383L1596.88 637.147L1588.35 632.53Z" fill="white"/>
<path d="M471.005 109.032L498.217 163.204L437.697 159.684L471.005 109.032Z" fill="white"/>
<path d="M547.111 119.458L565.54 177.21L506.31 164.294L547.111 119.458Z" fill="white"/>
<path d="M120.773 299.961L180.409 289.075L160.018 346.165L120.773 299.961Z" fill="white"/>
<rect x="885" y="851.221" width="42.2144" height="42.2144" transform="rotate(-19.6868 885 851.221)" fill="white"/>
<circle cx="349.5" cy="916.5" r="24.5" fill="white"/>
<circle cx="451.5" cy="680.5" r="24.5" fill="white"/>
</g>
<defs>
<clipPath id="clip0_8_866">
<rect width="1771" height="1291" fill="white"/>
</clipPath>
</defs>
</svg>
