<svg width="22" height="35" viewBox="0 0 22 35" fill="none" xmlns="http://www.w3.org/2000/svg">
<path d="M0.476598 35V32.0482L11.5624 19.9129C12.8633 18.4916 13.9348 17.2562 14.7766 16.2067C15.6184 15.1462 16.2415 14.1513 16.6461 13.2221C17.0615 12.2819 17.2692 11.2979 17.2692 10.2702C17.2692 9.0895 16.985 8.0673 16.4165 7.20361C15.8589 6.33993 15.0936 5.67304 14.1206 5.20293C13.1476 4.73282 12.0543 4.49777 10.8408 4.49777C9.55074 4.49777 8.42467 4.76562 7.46259 5.30132C6.51145 5.82609 5.77349 6.56405 5.24872 7.51519C4.73488 8.46634 4.47797 9.58148 4.47797 10.8606H0.60779C0.60779 8.89271 1.0615 7.16535 1.96891 5.6785C2.87633 4.19165 4.11172 3.03279 5.6751 2.2019C7.24941 1.37102 9.01504 0.955576 10.972 0.955576C12.9399 0.955576 14.6836 1.37102 16.2033 2.2019C17.7229 3.03279 18.9146 4.15339 19.7783 5.56371C20.642 6.97403 21.0738 8.54287 21.0738 10.2702C21.0738 11.5056 20.8497 12.7137 20.4014 13.8944C19.9641 15.0642 19.1988 16.3707 18.1056 17.8138C17.0232 19.246 15.52 20.9952 13.5958 23.0615L6.05227 31.1298V31.3922H21.6642V35H0.476598Z" fill="white"/>
</svg>
