<svg width="24" height="36" viewBox="0 0 24 36" fill="none" xmlns="http://www.w3.org/2000/svg">
<path d="M11.8247 35.4592C9.66007 35.4592 7.73044 35.0875 6.03588 34.344C4.35224 33.6006 3.01298 32.5675 2.01811 31.2446C1.03417 29.9108 0.498464 28.3639 0.411002 26.6037H4.54356C4.63102 27.686 5.00274 28.6208 5.6587 29.4079C6.31466 30.1841 7.17288 30.7854 8.23335 31.2118C9.29382 31.6382 10.4691 31.8514 11.7591 31.8514C13.2023 31.8514 14.4814 31.5999 15.5965 31.097C16.7117 30.5941 17.5863 29.8944 18.2204 28.9979C18.8545 28.1015 19.1715 27.0629 19.1715 25.8821C19.1715 24.6467 18.8654 23.5589 18.2532 22.6187C17.6409 21.6676 16.7445 20.9242 15.5637 20.3884C14.383 19.8527 12.9399 19.5849 11.2344 19.5849H8.54493V15.9771H11.2344C12.5682 15.9771 13.738 15.7366 14.7438 15.2555C15.7605 14.7745 16.5531 14.0967 17.1216 13.2221C17.7011 12.3474 17.9908 11.3198 17.9908 10.139C17.9908 9.00204 17.7393 8.01263 17.2364 7.17081C16.7335 6.329 16.0229 5.67304 15.1045 5.20293C14.1971 4.73282 13.1257 4.49777 11.8903 4.49777C10.7315 4.49777 9.6382 4.71096 8.61053 5.13733C7.59379 5.55278 6.7629 6.15954 6.11787 6.95763C5.47284 7.74478 5.123 8.69593 5.06833 9.81106H1.13256C1.19816 8.0509 1.72839 6.50939 2.72327 5.18653C3.71814 3.85274 5.01913 2.81413 6.62624 2.07071C8.24428 1.32729 10.0208 0.955576 11.9559 0.955576C14.0331 0.955576 15.8152 1.37648 17.302 2.2183C18.7889 3.04919 19.9313 4.14792 20.7294 5.51451C21.5275 6.8811 21.9266 8.35701 21.9266 9.94226C21.9266 11.8336 21.4291 13.4462 20.4342 14.78C19.4503 16.1138 18.111 17.0376 16.4165 17.5514V17.8138C18.5374 18.1636 20.1937 19.0656 21.3854 20.5196C22.577 21.9628 23.1729 23.7503 23.1729 25.8821C23.1729 27.7079 22.6754 29.3478 21.6806 30.8018C20.6966 32.245 19.3519 33.382 17.6464 34.2128C15.9409 35.0437 14.0003 35.4592 11.8247 35.4592Z" fill="white"/>
</svg>
