<svg width="28" height="56" viewBox="0 0 28 56" fill="none" xmlns="http://www.w3.org/2000/svg">
<g clip-path="url(#clip0_8_637)">
<path d="M13.972 45.4592C12.0478 45.4592 10.315 45.0765 8.77349 44.3112C7.23198 43.546 5.99659 42.4964 5.06731 41.1626C4.13803 39.8288 3.62966 38.3092 3.54219 36.6037H7.47797C7.63102 38.1233 8.31978 39.3806 9.54425 40.3755C10.7796 41.3594 12.2556 41.8514 13.972 41.8514C15.3495 41.8514 16.574 41.5289 17.6454 40.8838C18.7277 40.2388 19.575 39.3533 20.1872 38.2272C20.8104 37.0902 21.122 35.8056 21.122 34.3734C21.122 32.9084 20.7995 31.602 20.1544 30.454C19.5203 29.2952 18.6457 28.3823 17.5306 27.7154C16.4154 27.0485 15.1418 26.7096 13.7096 26.6987C12.6819 26.6877 11.6269 26.8463 10.5446 27.1742C9.46225 27.4913 8.57124 27.9013 7.87154 28.4042L4.06696 27.945L6.10045 11.4147H23.549V15.0225H9.51145L8.33072 24.9276H8.5275C9.21626 24.3809 10.0799 23.9272 11.1186 23.5664C12.1572 23.2057 13.2395 23.0253 14.3656 23.0253C16.4209 23.0253 18.2521 23.5172 19.8592 24.5012C21.4773 25.4742 22.7455 26.808 23.6638 28.5026C24.5931 30.1971 25.0577 32.1322 25.0577 34.3078C25.0577 36.4506 24.5767 38.3639 23.6146 40.0475C22.6635 41.7202 21.3516 43.043 19.6789 44.0161C18.0062 44.9781 16.1039 45.4592 13.972 45.4592Z" fill="white"/>
</g>
<defs>
<clipPath id="clip0_8_637">
<rect width="28" height="56" fill="white"/>
</clipPath>
</defs>
</svg>
