<svg width="28" height="56" viewBox="0 0 28 56" fill="none" xmlns="http://www.w3.org/2000/svg">
<g clip-path="url(#clip0_8_637)">
<path d="M3.4766 45V42.0482L14.5624 29.9129C15.8633 28.4916 16.9348 27.2562 17.7766 26.2067C18.6184 25.1462 19.2415 24.1513 19.6461 23.2221C20.0615 22.2819 20.2692 21.2979 20.2692 20.2702C20.2692 19.0895 19.985 18.0673 19.4165 17.2036C18.8589 16.3399 18.0936 15.673 17.1206 15.2029C16.1476 14.7328 15.0543 14.4978 13.8408 14.4978C12.5507 14.4978 11.4247 14.7656 10.4626 15.3013C9.51145 15.8261 8.77349 16.564 8.24872 17.5152C7.73488 18.4663 7.47797 19.5815 7.47797 20.8606H3.60779C3.60779 18.8927 4.0615 17.1653 4.96891 15.6785C5.87633 14.1917 7.11172 13.0328 8.6751 12.2019C10.2494 11.371 12.015 10.9556 13.972 10.9556C15.9399 10.9556 17.6836 11.371 19.2033 12.2019C20.7229 13.0328 21.9146 14.1534 22.7783 15.5637C23.642 16.974 24.0738 18.5429 24.0738 20.2702C24.0738 21.5056 23.8497 22.7137 23.4014 23.8944C22.9641 25.0642 22.1988 26.3707 21.1056 27.8138C20.0232 29.246 18.52 30.9952 16.5958 33.0615L9.05227 41.1298V41.3922H24.6642V45H3.4766Z" fill="white"/>
</g>
<defs>
<clipPath id="clip0_8_637">
<rect width="28" height="56" fill="white"/>
</clipPath>
</defs>
</svg>
