<svg width="398" height="498" viewBox="0 0 398 498" fill="none" xmlns="http://www.w3.org/2000/svg">
<g clip-path="url(#clip0_1_479)">
<path d="M368.688 120.222C346.632 108.205 322.424 100.65 297.448 97.988C272.472 95.326 247.216 97.6096 223.123 104.708C199.029 111.807 176.57 123.582 157.027 139.36C137.483 155.139 121.24 174.612 109.222 196.668C97.2051 218.724 89.6498 242.931 86.9879 267.908C84.3259 292.884 86.6095 318.14 93.7081 342.233C100.807 366.327 112.581 388.786 128.36 408.329C144.138 427.872 163.612 444.116 185.668 456.134L277.178 288.178L368.688 120.222Z" fill="white"/>
</g>
<defs>
<clipPath id="clip0_1_479">
<rect width="217" height="448" fill="white" transform="translate(203.808) rotate(27.0603)"/>
</clipPath>
</defs>
</svg>
