<svg width="1414" height="667" viewBox="0 0 1414 667" fill="none" xmlns="http://www.w3.org/2000/svg">
<path d="M4.31192 45V41.3922H5.23027C5.98463 41.3922 6.61326 41.2446 7.11616 40.9494C7.61907 40.6433 8.02357 40.1131 8.32969 39.3587C8.64674 38.5934 8.88726 37.533 9.05125 36.1773C9.22617 34.8107 9.3519 33.0724 9.42843 30.9624L9.8876 19.8111H26.6802V45H22.81V23.4189H13.561L13.1674 32.4055C13.0799 34.4718 12.8941 36.2921 12.6098 37.8664C12.3365 39.4298 11.9156 40.7417 11.3471 41.8022C10.7895 42.8627 10.0461 43.6607 9.11684 44.1964C8.18757 44.7321 7.02323 45 5.62385 45H4.31192Z" fill="white"/>
<path d="M327.542 316.446V281.811H331.281V285.812H331.74C332.025 285.375 332.418 284.818 332.921 284.14C333.435 283.451 334.167 282.839 335.119 282.303C336.081 281.756 337.382 281.483 339.022 281.483C341.142 281.483 343.012 282.013 344.63 283.074C346.248 284.134 347.511 285.638 348.418 287.584C349.326 289.53 349.779 291.825 349.779 294.471C349.779 297.139 349.326 299.451 348.418 301.408C347.511 303.354 346.254 304.863 344.646 305.934C343.039 306.995 341.186 307.525 339.087 307.525C337.469 307.525 336.174 307.257 335.201 306.721C334.228 306.175 333.479 305.557 332.954 304.868C332.429 304.168 332.025 303.589 331.74 303.13H331.412V316.446H327.542ZM331.347 294.406C331.347 296.308 331.626 297.986 332.183 299.44C332.741 300.883 333.555 302.015 334.627 302.835C335.698 303.644 337.01 304.048 338.562 304.048C340.18 304.048 341.531 303.622 342.613 302.769C343.706 301.905 344.526 300.746 345.073 299.292C345.63 297.827 345.909 296.198 345.909 294.406C345.909 292.634 345.636 291.038 345.089 289.617C344.553 288.185 343.739 287.053 342.646 286.222C341.563 285.381 340.202 284.96 338.562 284.96C336.988 284.96 335.665 285.359 334.594 286.157C333.522 286.944 332.713 288.048 332.167 289.469C331.62 290.88 331.347 292.525 331.347 294.406Z" fill="white"/>
<path d="M537.968 165L548.201 152.209L538.099 139.811H542.691L551.087 150.569H553.186V139.811H557.056V150.569H559.09L567.486 139.811H572.078L562.042 152.209L572.209 165H567.552L559.024 154.177H557.056V165H553.186V154.177H551.218L542.625 165H537.968Z" fill="white"/>
<path d="M48.5 72L248 207" stroke="white" stroke-width="5"/>
<path d="M323 211L508.5 158.5" stroke="white" stroke-width="5"/>
<path d="M547 185L426 453.5" stroke="white" stroke-width="5"/>
<path d="M32.5578 3.78718V16H31.0789V5.33764H31.0073L28.0257 7.31745V5.8147L31.0789 3.78718H32.5578Z" fill="white"/>
<path d="M305.264 203V201.927L309.295 197.514C309.768 196.997 310.158 196.548 310.464 196.166C310.77 195.78 310.997 195.419 311.144 195.081C311.295 194.739 311.371 194.381 311.371 194.007C311.371 193.578 311.267 193.206 311.061 192.892C310.858 192.578 310.579 192.336 310.226 192.165C309.872 191.994 309.474 191.908 309.033 191.908C308.564 191.908 308.154 192.006 307.805 192.2C307.459 192.391 307.19 192.66 307 193.006C306.813 193.351 306.719 193.757 306.719 194.222H305.312C305.312 193.506 305.477 192.878 305.807 192.338C306.137 191.797 306.586 191.376 307.155 191.073C307.727 190.771 308.369 190.62 309.081 190.62C309.796 190.62 310.43 190.771 310.983 191.073C311.536 191.376 311.969 191.783 312.283 192.296C312.597 192.809 312.754 193.379 312.754 194.007C312.754 194.457 312.673 194.896 312.51 195.325C312.351 195.751 312.072 196.226 311.675 196.75C311.281 197.271 310.735 197.907 310.035 198.659L307.292 201.593V201.688H312.969V203H305.264Z" fill="white"/>
<path d="M354.264 284V282.927L358.295 278.514C358.768 277.997 359.158 277.548 359.464 277.166C359.77 276.78 359.997 276.419 360.144 276.081C360.295 275.739 360.371 275.381 360.371 275.007C360.371 274.578 360.267 274.206 360.061 273.892C359.858 273.578 359.579 273.336 359.226 273.165C358.872 272.994 358.474 272.908 358.033 272.908C357.564 272.908 357.154 273.006 356.805 273.2C356.459 273.391 356.19 273.66 356 274.006C355.813 274.351 355.719 274.757 355.719 275.222H354.312C354.312 274.506 354.477 273.878 354.807 273.338C355.137 272.797 355.586 272.376 356.155 272.073C356.727 271.771 357.369 271.62 358.081 271.62C358.796 271.62 359.43 271.771 359.983 272.073C360.536 272.376 360.969 272.783 361.283 273.296C361.597 273.809 361.754 274.379 361.754 275.007C361.754 275.457 361.673 275.896 361.51 276.325C361.351 276.751 361.072 277.226 360.675 277.75C360.281 278.271 359.735 278.907 359.035 279.659L356.292 282.593V282.688H361.969V284H354.264Z" fill="white"/>
<path d="M580.391 136.167C579.604 136.167 578.902 136.032 578.286 135.761C577.674 135.491 577.187 135.115 576.825 134.634C576.467 134.149 576.272 133.587 576.24 132.947H577.743C577.775 133.34 577.91 133.68 578.149 133.967C578.387 134.249 578.699 134.467 579.085 134.622C579.47 134.778 579.898 134.855 580.367 134.855C580.892 134.855 581.357 134.764 581.762 134.581C582.168 134.398 582.486 134.143 582.716 133.817C582.947 133.491 583.062 133.114 583.062 132.684C583.062 132.235 582.951 131.84 582.728 131.498C582.506 131.152 582.18 130.882 581.75 130.687C581.321 130.492 580.796 130.395 580.176 130.395H579.198V129.083H580.176C580.661 129.083 581.087 128.995 581.452 128.82C581.822 128.645 582.11 128.399 582.317 128.081C582.528 127.763 582.633 127.389 582.633 126.96C582.633 126.546 582.542 126.186 582.359 125.88C582.176 125.574 581.917 125.336 581.583 125.165C581.254 124.994 580.864 124.908 580.415 124.908C579.993 124.908 579.596 124.986 579.222 125.141C578.852 125.292 578.55 125.513 578.316 125.803C578.081 126.089 577.954 126.435 577.934 126.84H576.503C576.527 126.2 576.719 125.64 577.081 125.159C577.443 124.674 577.916 124.296 578.5 124.026C579.089 123.755 579.735 123.62 580.439 123.62C581.194 123.62 581.842 123.773 582.383 124.079C582.923 124.382 583.339 124.781 583.629 125.278C583.919 125.775 584.064 126.312 584.064 126.888C584.064 127.576 583.883 128.162 583.522 128.647C583.164 129.132 582.677 129.468 582.061 129.655V129.75C582.832 129.878 583.434 130.206 583.867 130.734C584.301 131.259 584.517 131.909 584.517 132.684C584.517 133.348 584.337 133.945 583.975 134.473C583.617 134.998 583.128 135.412 582.508 135.714C581.888 136.016 581.182 136.167 580.391 136.167Z" fill="white"/>
<path d="M347.391 636.167C346.604 636.167 345.902 636.032 345.286 635.761C344.674 635.491 344.187 635.115 343.825 634.634C343.467 634.149 343.272 633.587 343.24 632.947H344.743C344.775 633.34 344.91 633.68 345.149 633.967C345.387 634.249 345.699 634.467 346.085 634.622C346.47 634.778 346.898 634.855 347.367 634.855C347.892 634.855 348.357 634.764 348.762 634.581C349.168 634.398 349.486 634.143 349.716 633.817C349.947 633.491 350.062 633.114 350.062 632.684C350.062 632.235 349.951 631.84 349.728 631.498C349.506 631.152 349.18 630.882 348.75 630.687C348.321 630.492 347.796 630.395 347.176 630.395H346.198V629.083H347.176C347.661 629.083 348.087 628.995 348.452 628.82C348.822 628.645 349.11 628.399 349.317 628.081C349.528 627.763 349.633 627.389 349.633 626.96C349.633 626.546 349.542 626.186 349.359 625.88C349.176 625.574 348.917 625.336 348.583 625.165C348.254 624.994 347.864 624.908 347.415 624.908C346.993 624.908 346.596 624.986 346.222 625.141C345.852 625.292 345.55 625.513 345.316 625.803C345.081 626.089 344.954 626.435 344.934 626.84H343.503C343.527 626.2 343.719 625.64 344.081 625.159C344.443 624.674 344.916 624.296 345.5 624.026C346.089 623.755 346.735 623.62 347.439 623.62C348.194 623.62 348.842 623.773 349.383 624.079C349.923 624.382 350.339 624.781 350.629 625.278C350.919 625.775 351.064 626.312 351.064 626.888C351.064 627.576 350.883 628.162 350.522 628.647C350.164 629.132 349.677 629.468 349.061 629.655V629.75C349.832 629.878 350.434 630.206 350.867 630.734C351.301 631.259 351.517 631.909 351.517 632.684C351.517 633.348 351.337 633.945 350.975 634.473C350.617 634.998 350.128 635.412 349.508 635.714C348.888 636.016 348.182 636.167 347.391 636.167Z" fill="white"/>
<path d="M429.978 468.495V467.279L435.345 458.787H436.228V460.672H435.631L431.576 467.088V467.183H438.804V468.495H429.978ZM435.727 471V468.126V467.559V458.787H437.134V471H435.727Z" fill="white"/>
<path d="M611.978 468.495V467.279L617.345 458.787H618.228V460.672H617.631L613.576 467.088V467.183H620.804V468.495H611.978ZM617.727 471V468.126V467.559V458.787H619.134V471H617.727Z" fill="white"/>
<path d="M863.081 469.167C862.381 469.167 861.751 469.028 861.19 468.75C860.63 468.471 860.181 468.09 859.843 467.605C859.505 467.12 859.32 466.567 859.288 465.947H860.719C860.775 466.499 861.025 466.957 861.471 467.318C861.92 467.676 862.457 467.855 863.081 467.855C863.582 467.855 864.027 467.738 864.416 467.503C864.81 467.269 865.118 466.947 865.341 466.537C865.567 466.124 865.681 465.657 865.681 465.136C865.681 464.603 865.563 464.128 865.329 463.711C865.098 463.289 864.78 462.957 864.375 462.715C863.969 462.472 863.506 462.349 862.985 462.345C862.612 462.341 862.228 462.399 861.834 462.518C861.441 462.633 861.117 462.782 860.862 462.965L859.479 462.798L860.218 456.787H866.563V458.099H861.459L861.029 461.701H861.101C861.351 461.502 861.665 461.337 862.043 461.206C862.421 461.075 862.814 461.009 863.224 461.009C863.971 461.009 864.637 461.188 865.222 461.546C865.81 461.9 866.271 462.385 866.605 463.001C866.943 463.617 867.112 464.321 867.112 465.112C867.112 465.891 866.937 466.587 866.587 467.199C866.241 467.807 865.764 468.288 865.156 468.642C864.548 468.992 863.856 469.167 863.081 469.167Z" fill="white"/>
<path d="M957.319 352.167C956.818 352.159 956.317 352.064 955.817 351.881C955.316 351.698 954.858 351.39 954.445 350.956C954.031 350.519 953.7 349.929 953.449 349.185C953.199 348.438 953.073 347.5 953.073 346.371C953.073 345.289 953.175 344.331 953.378 343.496C953.58 342.658 953.874 341.952 954.26 341.379C954.646 340.803 955.111 340.366 955.655 340.067C956.204 339.769 956.822 339.62 957.51 339.62C958.194 339.62 958.802 339.757 959.335 340.032C959.872 340.302 960.309 340.68 960.647 341.165C960.985 341.65 961.203 342.208 961.303 342.84H959.848C959.713 342.292 959.45 341.837 959.061 341.475C958.671 341.113 958.154 340.932 957.51 340.932C956.564 340.932 955.818 341.344 955.274 342.167C954.733 342.989 954.461 344.144 954.457 345.631H954.552C954.775 345.293 955.039 345.005 955.345 344.767C955.655 344.524 955.997 344.337 956.371 344.206C956.745 344.075 957.14 344.009 957.558 344.009C958.257 344.009 958.898 344.184 959.478 344.534C960.058 344.88 960.524 345.359 960.873 345.971C961.223 346.579 961.398 347.277 961.398 348.064C961.398 348.82 961.229 349.511 960.891 350.139C960.553 350.764 960.078 351.261 959.466 351.63C958.858 351.996 958.142 352.175 957.319 352.167ZM957.319 350.855C957.82 350.855 958.269 350.73 958.667 350.479C959.068 350.229 959.385 349.893 959.615 349.472C959.85 349.05 959.967 348.581 959.967 348.064C959.967 347.559 959.854 347.1 959.627 346.687C959.404 346.269 959.096 345.937 958.703 345.691C958.313 345.444 957.868 345.321 957.367 345.321C956.989 345.321 956.637 345.397 956.311 345.548C955.985 345.695 955.699 345.898 955.453 346.156C955.21 346.414 955.019 346.711 954.88 347.045C954.741 347.374 954.672 347.722 954.672 348.088C954.672 348.573 954.785 349.026 955.011 349.448C955.242 349.869 955.556 350.209 955.954 350.467C956.355 350.726 956.81 350.855 957.319 350.855Z" fill="white"/>
<path d="M34.5578 329.787V342H33.0789V331.338H33.0073L30.0257 333.317V331.815L33.0789 329.787H34.5578Z" fill="white"/>
<path d="M323.955 656.59C322.358 656.59 320.91 656.29 319.609 655.688C318.308 655.076 317.275 654.196 316.509 653.048C315.744 651.889 315.361 650.49 315.361 648.85C315.361 647.407 315.646 646.237 316.214 645.341C316.783 644.433 317.543 643.723 318.494 643.209C319.445 642.695 320.494 642.312 321.642 642.061C322.801 641.798 323.965 641.591 325.135 641.438C326.666 641.241 327.907 641.093 328.858 640.995C329.82 640.886 330.52 640.705 330.957 640.454C331.405 640.202 331.629 639.765 331.629 639.142V639.011C331.629 637.393 331.187 636.135 330.301 635.239C329.426 634.342 328.098 633.894 326.316 633.894C324.468 633.894 323.02 634.299 321.97 635.108C320.921 635.917 320.183 636.78 319.756 637.699L316.083 636.387C316.739 634.856 317.614 633.664 318.707 632.812C319.811 631.948 321.014 631.347 322.315 631.008C323.627 630.658 324.917 630.483 326.185 630.483C326.994 630.483 327.923 630.581 328.973 630.778C330.033 630.964 331.055 631.352 332.039 631.943C333.034 632.533 333.86 633.424 334.516 634.616C335.172 635.807 335.499 637.403 335.499 639.404V656H331.629V652.589H331.433C331.17 653.136 330.733 653.721 330.121 654.344C329.508 654.967 328.694 655.497 327.677 655.934C326.66 656.372 325.42 656.59 323.955 656.59ZM324.545 653.114C326.076 653.114 327.366 652.813 328.415 652.212C329.476 651.611 330.274 650.834 330.809 649.883C331.356 648.932 331.629 647.932 331.629 646.882V643.34C331.465 643.537 331.105 643.717 330.547 643.881C330 644.034 329.366 644.171 328.645 644.291C327.934 644.4 327.24 644.499 326.562 644.586C325.895 644.663 325.354 644.728 324.939 644.783C323.933 644.914 322.992 645.127 322.118 645.423C321.254 645.707 320.554 646.139 320.019 646.718C319.494 647.287 319.232 648.063 319.232 649.047C319.232 650.392 319.729 651.408 320.724 652.097C321.73 652.775 323.003 653.114 324.545 653.114Z" fill="white"/>
<path d="M935.955 376.59C934.358 376.59 932.91 376.29 931.609 375.688C930.308 375.076 929.275 374.196 928.509 373.048C927.744 371.889 927.361 370.49 927.361 368.85C927.361 367.407 927.646 366.237 928.214 365.341C928.783 364.433 929.543 363.723 930.494 363.209C931.445 362.695 932.494 362.312 933.642 362.061C934.801 361.798 935.965 361.591 937.135 361.438C938.666 361.241 939.907 361.093 940.858 360.995C941.82 360.886 942.52 360.705 942.957 360.454C943.405 360.202 943.629 359.765 943.629 359.142V359.011C943.629 357.393 943.187 356.135 942.301 355.239C941.426 354.342 940.098 353.894 938.316 353.894C936.468 353.894 935.02 354.299 933.97 355.108C932.921 355.917 932.183 356.78 931.756 357.699L928.083 356.387C928.739 354.856 929.614 353.664 930.707 352.812C931.811 351.948 933.014 351.347 934.315 351.008C935.627 350.658 936.917 350.483 938.185 350.483C938.994 350.483 939.923 350.581 940.973 350.778C942.033 350.964 943.055 351.352 944.039 351.943C945.034 352.533 945.86 353.424 946.516 354.616C947.172 355.807 947.499 357.403 947.499 359.404V376H943.629V372.589H943.433C943.17 373.136 942.733 373.721 942.121 374.344C941.508 374.967 940.694 375.497 939.677 375.934C938.66 376.372 937.42 376.59 935.955 376.59ZM936.545 373.114C938.076 373.114 939.366 372.813 940.415 372.212C941.476 371.611 942.274 370.834 942.809 369.883C943.356 368.932 943.629 367.932 943.629 366.882V363.34C943.465 363.537 943.105 363.717 942.547 363.881C942 364.034 941.366 364.171 940.645 364.291C939.934 364.4 939.24 364.499 938.562 364.586C937.895 364.663 937.354 364.728 936.939 364.783C935.933 364.914 934.992 365.127 934.118 365.423C933.254 365.707 932.554 366.139 932.019 366.718C931.494 367.287 931.232 368.063 931.232 369.047C931.232 370.392 931.729 371.408 932.724 372.097C933.73 372.775 935.003 373.114 936.545 373.114Z" fill="white"/>
<path d="M338.5 629.5L402.5 502.5" stroke="white" stroke-width="5"/>
<path d="M439.5 482H580.5" stroke="white" stroke-width="5"/>
<path d="M621.5 488L835.5 493.5" stroke="white" stroke-width="5"/>
<path d="M874.5 475.5L922 388.5" stroke="white" stroke-width="5"/>
<path d="M42 342.714L313 307" stroke="white" stroke-width="5"/>
<path d="M344 323L317.5 615" stroke="white" stroke-width="5"/>
<path d="M1012.54 583V557.811H1022.84C1025.55 557.811 1027.71 558.423 1029.3 559.648C1030.9 560.872 1031.7 562.49 1031.7 564.502C1031.7 566.032 1031.24 567.219 1030.34 568.06C1029.43 568.891 1028.26 569.454 1026.84 569.749C1027.77 569.881 1028.67 570.209 1029.55 570.733C1030.43 571.258 1031.17 571.98 1031.75 572.898C1032.33 573.806 1032.61 574.921 1032.61 576.244C1032.61 577.534 1032.29 578.687 1031.63 579.704C1030.97 580.721 1030.03 581.524 1028.81 582.114C1027.59 582.705 1026.12 583 1024.42 583H1012.54ZM1016.22 579.458H1024.42C1025.75 579.458 1026.79 579.141 1027.55 578.507C1028.3 577.873 1028.68 577.009 1028.68 575.916C1028.68 574.615 1028.3 573.592 1027.55 572.849C1026.79 572.095 1025.75 571.717 1024.42 571.717H1016.22V579.458ZM1016.22 568.372H1022.84C1023.88 568.372 1024.77 568.23 1025.51 567.946C1026.26 567.65 1026.83 567.235 1027.22 566.699C1027.62 566.153 1027.83 565.508 1027.83 564.764C1027.83 563.704 1027.38 562.873 1026.5 562.271C1025.61 561.659 1024.39 561.353 1022.84 561.353H1016.22V568.372Z" fill="white"/>
<path d="M1264.54 511.446V476.811H1268.28V480.812H1268.74C1269.02 480.375 1269.42 479.817 1269.92 479.14C1270.43 478.451 1271.17 477.839 1272.12 477.303C1273.08 476.756 1274.38 476.483 1276.02 476.483C1278.14 476.483 1280.01 477.013 1281.63 478.074C1283.25 479.134 1284.51 480.637 1285.42 482.583C1286.33 484.529 1286.78 486.825 1286.78 489.471C1286.78 492.139 1286.33 494.451 1285.42 496.408C1284.51 498.354 1283.25 499.863 1281.65 500.934C1280.04 501.995 1278.19 502.525 1276.09 502.525C1274.47 502.525 1273.17 502.257 1272.2 501.721C1271.23 501.175 1270.48 500.557 1269.95 499.868C1269.43 499.168 1269.02 498.589 1268.74 498.13H1268.41V511.446H1264.54ZM1268.35 489.405C1268.35 491.308 1268.63 492.986 1269.18 494.44C1269.74 495.883 1270.56 497.015 1271.63 497.835C1272.7 498.644 1274.01 499.048 1275.56 499.048C1277.18 499.048 1278.53 498.622 1279.61 497.769C1280.71 496.905 1281.53 495.746 1282.07 494.292C1282.63 492.827 1282.91 491.198 1282.91 489.405C1282.91 487.634 1282.64 486.038 1282.09 484.617C1281.55 483.185 1280.74 482.053 1279.65 481.222C1278.56 480.38 1277.2 479.96 1275.56 479.96C1273.99 479.96 1272.67 480.359 1271.59 481.157C1270.52 481.944 1269.71 483.048 1269.17 484.469C1268.62 485.88 1268.35 487.525 1268.35 489.405Z" fill="white"/>
<path d="M1056.5 566L1241 492" stroke="white" stroke-width="5"/>
<path d="M1264.5 463.5L1205 339" stroke="white" stroke-width="5"/>
<path d="M1201.2 280.093L1380.8 112.907" stroke="white" stroke-width="5"/>
</svg>
