<svg width="24" height="27" viewBox="0 0 24 27" fill="none" xmlns="http://www.w3.org/2000/svg">
<path d="M11.7752 26.5248C9.5012 26.5248 7.50598 25.9836 5.78955 24.9013C4.08405 23.8189 2.75026 22.3047 1.78818 20.3587C0.837035 18.4127 0.361463 16.1387 0.361463 13.5367C0.361463 10.9129 0.837035 8.62247 1.78818 6.66552C2.75026 4.70857 4.08405 3.18892 5.78955 2.10659C7.50598 1.02425 9.5012 0.483082 11.7752 0.483082C14.0492 0.483082 16.039 1.02425 17.7445 2.10659C19.4609 3.18892 20.7947 4.70857 21.7458 6.66552C22.7079 8.62247 23.1889 10.9129 23.1889 13.5367C23.1889 16.1387 22.7079 18.4127 21.7458 20.3587C20.7947 22.3047 19.4609 23.8189 17.7445 24.9013C16.039 25.9836 14.0492 26.5248 11.7752 26.5248ZM11.7752 23.0482C13.5026 23.0482 14.9238 22.6054 16.039 21.7198C17.1541 20.8343 17.9795 19.67 18.5152 18.2269C19.0509 16.7837 19.3188 15.2204 19.3188 13.5367C19.3188 11.8531 19.0509 10.2842 18.5152 8.8302C17.9795 7.37615 17.1541 6.20088 16.039 5.3044C14.9238 4.40792 13.5026 3.95968 11.7752 3.95968C10.0478 3.95968 8.62658 4.40792 7.51145 5.3044C6.39631 6.20088 5.57089 7.37615 5.03519 8.8302C4.49949 10.2842 4.23164 11.8531 4.23164 13.5367C4.23164 15.2204 4.49949 16.7837 5.03519 18.2269C5.57089 19.67 6.39631 20.8343 7.51145 21.7198C8.62658 22.6054 10.0478 23.0482 11.7752 23.0482Z" fill="white"/>
</svg>
