<svg width="28" height="56" viewBox="0 0 28 56" fill="none" xmlns="http://www.w3.org/2000/svg">
<path d="M7.8876 28.9289H15.1032C18.055 28.9289 20.3126 29.6778 21.876 31.1756C23.4394 32.6734 24.2211 34.5702 24.2211 36.8661C24.2211 38.3748 23.8712 39.7468 23.1715 40.9822C22.4718 42.2067 21.4441 43.1852 20.0885 43.9177C18.7328 44.6392 17.0711 45 15.1032 45H4.54219V19.8111H8.41237V41.3922H15.1032C16.6338 41.3922 17.891 40.9877 18.875 40.1787C19.8589 39.3697 20.3509 38.3311 20.3509 37.0629C20.3509 35.7291 19.8589 34.6413 18.875 33.7994C17.891 32.9576 16.6338 32.5367 15.1032 32.5367H7.8876V28.9289Z" fill="white"/>
</svg>
