<svg width="28" height="56" viewBox="0 0 28 56" fill="none" xmlns="http://www.w3.org/2000/svg">
<g clip-path="url(#clip0_8_636)">
<path d="M4.54219 41V15.8111H14.8408C17.5521 15.8111 19.7058 16.4233 21.302 17.6478C22.8982 18.8722 23.6963 20.4903 23.6963 22.5019C23.6963 24.0325 23.2426 25.2186 22.3352 26.0605C21.4277 26.8914 20.2634 27.4544 18.8422 27.7496C19.7714 27.8808 20.6734 28.2087 21.548 28.7335C22.4336 29.2583 23.166 29.9798 23.7455 30.8982C24.3249 31.8056 24.6146 32.9207 24.6146 34.2436C24.6146 35.5337 24.2866 36.6871 23.6307 37.7038C22.9747 38.7205 22.0345 39.5241 20.81 40.1145C19.5856 40.7048 18.1206 41 16.4151 41H4.54219ZM8.21558 37.4578H16.4151C17.7489 37.4578 18.793 37.1408 19.5473 36.5067C20.3017 35.8726 20.6789 35.0089 20.6789 33.9156C20.6789 32.6146 20.3017 31.5924 19.5473 30.849C18.793 30.0946 17.7489 29.7175 16.4151 29.7175H8.21558V37.4578ZM8.21558 26.372H14.8408C15.8794 26.372 16.7704 26.2299 17.5138 25.9457C18.2573 25.6505 18.8258 25.235 19.2193 24.6993C19.6239 24.1527 19.8261 23.5077 19.8261 22.7643C19.8261 21.7038 19.3833 20.8729 18.4978 20.2716C17.6122 19.6594 16.3932 19.3533 14.8408 19.3533H8.21558V26.372Z" fill="white"/>
</g>
<defs>
<clipPath id="clip0_8_636">
<rect width="28" height="56" fill="white"/>
</clipPath>
</defs>
</svg>
