<svg width="28" height="56" viewBox="0 0 28 56" fill="none" xmlns="http://www.w3.org/2000/svg">
<g clip-path="url(#clip0_8_636)">
<path d="M0.852751 45.2156V34.3922H2.95183C3.46567 33.8565 3.90844 33.2771 4.28015 32.6539C4.65186 32.0307 4.97438 31.2928 5.2477 30.44C5.53195 29.5764 5.77246 28.5268 5.96925 27.2914C6.16604 26.0451 6.34096 24.5418 6.49402 22.7817L7.34677 12.8111H23.3522V34.3922H27.2224V45.2156H23.3522V38H4.72293V45.2156H0.852751ZM7.34677 34.3922H19.4821V16.4189H10.9546L10.2986 22.7817C10.0253 25.4165 9.68637 27.7178 9.28186 29.6857C8.87735 31.6536 8.23232 33.2224 7.34677 34.3922Z" fill="white"/>
</g>
<defs>
<clipPath id="clip0_8_636">
<rect width="28" height="56" fill="white"/>
</clipPath>
</defs>
</svg>
