<svg width="28" height="56" viewBox="0 0 28 56" fill="none" xmlns="http://www.w3.org/2000/svg">
<g clip-path="url(#clip0_8_636)">
<path d="M8.03489 48.4459C7.37892 48.4459 6.79402 48.3912 6.28018 48.2819C5.76634 48.1835 5.41102 48.0851 5.21423 47.9867L6.19818 44.5757C7.1384 44.8162 7.96929 44.9037 8.69085 44.8381C9.41242 44.7725 10.052 44.45 10.6096 43.8705C11.1781 43.302 11.6974 42.3782 12.1675 41.0991L12.889 39.1312L3.57432 13.8109H7.7725L14.7257 33.8835H14.9881L21.9414 13.8109H26.1395L15.4473 42.6734C14.9663 43.9744 14.3704 45.0513 13.6598 45.904C12.9492 46.7677 12.1237 47.4073 11.1835 47.8227C10.2542 48.2382 9.20469 48.4459 8.03489 48.4459Z" fill="white"/>
</g>
<defs>
<clipPath id="clip0_8_636">
<rect width="28" height="56" fill="white"/>
</clipPath>
</defs>
</svg>
