<svg width="778" height="353" viewBox="0 0 778 353" fill="none" xmlns="http://www.w3.org/2000/svg">
<g clip-path="url(#clip0_3_566)">
<path d="M484.026 253.029L486.621 256.816C485.634 257.61 485.165 258.623 485.214 259.855C485.27 261.098 485.776 262.415 486.73 263.808C487.705 265.23 488.829 266.249 490.104 266.862C491.388 267.469 492.687 267.323 493.999 266.424C494.77 265.895 495.311 265.245 495.621 264.473C495.942 263.694 496.025 262.849 495.872 261.938C495.719 261.027 495.32 260.101 494.675 259.159L491.956 255.192L495.142 253.009L497.861 256.976C498.829 258.389 499.863 259.211 500.964 259.443C502.072 259.685 503.107 259.476 504.069 258.817C505.101 258.11 505.677 257.178 505.797 256.021C505.927 254.857 505.532 253.604 504.612 252.262C503.685 250.909 502.607 249.991 501.378 249.508C500.16 249.019 499.057 249.075 498.071 249.677L495.517 245.95C496.787 245.139 498.145 244.768 499.591 244.837C501.047 244.899 502.471 245.366 503.863 246.238C505.266 247.103 506.516 248.336 507.614 249.939C508.726 251.563 509.405 253.166 509.651 254.749C509.914 256.336 509.782 257.788 509.257 259.105C508.748 260.425 507.883 261.504 506.66 262.342C505.358 263.234 504.055 263.589 502.753 263.407C501.45 263.225 500.251 262.699 499.155 261.831L498.915 261.995C499.452 262.908 499.69 263.857 499.628 264.841C499.583 265.829 499.284 266.778 498.729 267.687C498.185 268.59 497.432 269.371 496.47 270.03C495.068 270.991 493.588 271.453 492.031 271.416C490.484 271.371 488.976 270.889 487.505 269.968C486.045 269.04 484.738 267.734 483.585 266.051C482.466 264.418 481.729 262.773 481.375 261.117C481.03 259.454 481.073 257.915 481.503 256.502C481.95 255.091 482.791 253.934 484.026 253.029Z" fill="white"/>
<path d="M739.612 333.881L755.285 315.643L749.648 310.799C748.377 309.706 747.125 309.142 745.89 309.106C744.656 309.07 743.596 309.568 742.709 310.6C741.838 311.613 741.481 312.691 741.636 313.833C741.8 314.983 742.458 316.053 743.61 317.043L750.463 322.932L747.85 325.972L740.998 320.082C739.561 318.847 738.539 317.529 737.934 316.128C737.329 314.727 737.149 313.316 737.394 311.893C737.648 310.462 738.332 309.097 739.448 307.798C740.572 306.49 741.833 305.619 743.23 305.186C744.627 304.754 746.091 304.755 747.622 305.19C749.163 305.633 750.693 306.508 752.213 307.814L760.945 315.318L742.707 336.54L739.612 333.881ZM725.465 321.722L740.56 316.343L744.097 319.383L729.002 324.762L725.465 321.722Z" fill="white"/>
<path d="M139.812 50.2701L139.266 22.2936L150.705 22.0704C153.716 22.0116 156.121 22.6449 157.921 23.9703C159.72 25.2956 160.641 27.0754 160.685 29.3097C160.718 31.0096 160.24 32.3369 159.25 33.2916C158.261 34.2341 156.98 34.8847 155.408 35.2433C156.442 35.3689 157.451 35.7136 158.434 36.2775C159.429 36.8411 160.258 37.6267 160.922 38.6341C161.585 39.6294 161.931 40.8616 161.96 42.3309C161.988 43.7637 161.648 45.0518 160.942 46.1953C160.235 47.3388 159.208 48.2517 157.861 48.9339C156.514 49.6162 154.893 49.9758 152.999 50.0127L139.812 50.2701ZM143.815 46.2563L152.922 46.0785C154.404 46.0496 155.556 45.6749 156.381 44.9542C157.205 44.2336 157.605 43.2662 157.581 42.0519C157.553 40.6069 157.112 39.4798 156.258 38.6705C155.404 37.849 154.236 37.4527 152.755 37.4816L143.648 37.6594L143.815 46.2563ZM143.575 33.9437L150.933 33.8001C152.087 33.7776 153.074 33.6004 153.893 33.2686C154.712 32.9246 155.335 32.4509 155.76 31.8474C156.198 31.2315 156.408 30.5107 156.392 29.685C156.369 28.5071 155.86 27.5939 154.863 26.9453C153.866 26.2845 152.506 25.9709 150.781 26.0046L143.423 26.1482L143.575 33.9437Z" fill="white"/>
<path d="M500 287.814C498.968 286.372 498.304 284.869 498.006 283.305C497.719 281.733 497.846 280.231 498.389 278.798C498.941 277.358 499.959 276.107 501.44 275.048C502.744 274.115 503.985 273.616 505.162 273.55C506.35 273.478 507.483 273.705 508.562 274.232C509.641 274.76 510.665 275.461 511.634 276.335C512.62 277.213 513.56 278.131 514.454 279.089C515.621 280.345 516.556 281.37 517.26 282.166C517.98 282.965 518.595 283.481 519.105 283.713C519.622 283.956 520.162 283.876 520.725 283.473L520.844 283.388C522.306 282.342 523.156 281.13 523.393 279.75C523.638 278.381 523.185 276.891 522.033 275.281C520.839 273.611 519.538 272.564 518.128 272.138C516.719 271.713 515.462 271.604 514.356 271.812L513.168 267.645C514.975 267.249 516.617 267.269 518.094 267.706C519.588 268.146 520.908 268.844 522.055 269.8C523.219 270.759 524.211 271.812 525.03 272.958C525.553 273.689 526.065 274.592 526.565 275.668C527.083 276.746 527.393 277.92 527.495 279.191C527.605 280.471 527.333 281.793 526.68 283.156C526.027 284.519 524.797 285.846 522.989 287.139L507.994 297.864L505.493 294.367L508.575 292.163L508.448 291.985C507.784 292.101 506.973 292.084 506.014 291.934C505.056 291.783 504.05 291.39 502.998 290.754C501.946 290.118 500.946 289.138 500 287.814ZM503.522 286.101C504.512 287.484 505.617 288.455 506.838 289.015C508.067 289.585 509.284 289.804 510.49 289.673C511.702 289.553 512.783 289.153 513.731 288.475L516.932 286.186C516.648 286.165 516.252 285.955 515.743 285.558C515.252 285.163 514.719 284.678 514.144 284.104C513.586 283.532 513.048 282.969 512.531 282.413C512.031 281.86 511.622 281.413 511.304 281.073C510.536 280.249 509.735 279.537 508.903 278.938C508.088 278.341 507.246 277.988 506.376 277.878C505.524 277.771 504.653 278.036 503.764 278.672C502.549 279.541 501.951 280.647 501.972 281.991C502.009 283.338 502.526 284.708 503.522 286.101Z" fill="white"/>
<path d="M114.617 44.2668L126.411 21.6612L131.352 21.284L133.482 49.1846L129.195 49.5119L127.548 27.9325L115.826 50.5325L110.813 50.9153L108.683 23.0146L112.969 22.6874L114.617 44.2668Z" fill="white"/>
<path d="M45.1962 145.658L22.5376 137.134L22.3118 133.059L50.92 143.589L51.1135 147.081L23.8317 160.489L23.61 156.487L45.1962 145.658ZM23.6866 157.87L51.6256 156.322L51.8634 160.614L23.9245 162.162L23.6866 157.87ZM50.408 134.349L22.469 135.897L22.2312 131.604L50.1701 130.056L50.408 134.349Z" fill="white"/>
<path d="M527.994 314.993L549.778 304.431L552.888 307.073L525.553 320.568L522.887 318.304L531.95 289.288L535.005 291.882L527.994 314.993ZM533.95 290.986L515.834 312.312L512.557 309.529L530.673 288.203L533.95 290.986ZM532.606 326.559L550.722 305.233L553.999 308.016L535.883 329.343L532.606 326.559Z" fill="white"/>
<path d="M34.3317 112.287L36.7912 104.658C37.7974 101.537 39.3588 99.405 41.4752 98.2626C43.5917 97.1203 45.8637 96.9404 48.2911 97.7229C49.8862 98.2372 51.2176 99.0748 52.2853 100.236C53.3414 101.393 54.0256 102.813 54.338 104.496C54.6388 106.175 54.4538 108.055 53.783 110.136L50.1831 121.302L23.5511 112.716L24.8703 108.624L47.6878 115.98L49.9685 108.906C50.4902 107.288 50.4911 105.821 49.9711 104.504C49.4512 103.188 48.5208 102.314 47.1799 101.882C45.7697 101.427 44.4519 101.577 43.2265 102.33C42.001 103.083 41.1274 104.269 40.6057 105.887L38.1462 113.516L34.3317 112.287ZM58.2549 96.2649L31.6229 87.6788L32.9422 83.5869L59.5741 92.173L58.2549 96.2649Z" fill="white"/>
<path d="M67.5383 79.444C65.6047 81.2168 63.521 82.2868 61.2874 82.654C59.0537 83.0212 56.8264 82.7484 54.6053 81.8354C52.3842 80.9224 50.3298 79.4364 48.4422 77.3774C46.5216 75.2827 45.2118 73.0812 44.5125 70.7729C43.814 68.4475 43.7441 66.1967 44.3027 64.0204C44.8621 61.827 46.0728 59.8767 47.9348 58.1696C49.385 56.84 50.9382 55.9103 52.5944 55.3804C54.2506 54.8506 55.8934 54.7285 57.5228 55.0141C59.1522 55.2997 60.6474 56.005 62.0083 57.1299L58.8393 60.0353C57.7358 59.317 56.4354 58.9769 54.9381 59.015C53.4415 59.036 51.9949 59.6867 50.5984 60.9671C49.3631 62.0997 48.5753 63.415 48.2352 64.9131C47.8959 66.3941 48.0001 67.9544 48.5478 69.5942C49.0963 71.2168 50.0846 72.807 51.5127 74.3646C52.9736 75.9581 54.4964 77.1158 56.081 77.8379C57.6747 78.5517 59.2321 78.8127 60.7533 78.6209C62.2834 78.4208 63.6751 77.7463 64.9284 76.5972C65.752 75.8422 66.3682 75.0136 66.7769 74.1116C67.1857 73.2096 67.3766 72.2766 67.3497 71.3127C67.3227 70.3488 67.063 69.4006 66.5706 68.4681L69.7396 65.5627C70.6767 66.9443 71.239 68.4472 71.4264 70.0714C71.6145 71.6783 71.3938 73.2977 70.7643 74.9293C70.1355 76.5439 69.0602 78.0487 67.5383 79.444Z" fill="white"/>
<path d="M78.863 63.5318L77.2297 59.8719L78.1613 59.4561C78.9266 59.1146 79.4974 58.6803 79.874 58.1532C80.2456 57.615 80.4159 56.8939 80.3849 55.9901C80.36 55.0702 80.1239 53.8856 79.6765 52.4361C79.2353 50.9706 78.5759 49.1503 77.6983 46.9751L73.1156 35.4549L90.1507 27.8524L101.554 53.4051L97.6283 55.1572L87.858 33.2644L78.4753 37.4517L82.1446 46.7464C82.9913 48.8821 83.6268 50.8128 84.0512 52.5385C84.4817 54.2482 84.6487 55.7696 84.5521 57.1028C84.4666 58.431 84.0737 59.5772 83.3735 60.5413C82.6734 61.5055 81.6135 62.3043 80.1939 62.9378L78.863 63.5318Z" fill="white"/>
<path d="M170.065 48.9671L193.158 38.1572L197.314 40.8557L182.075 64.3242L178.469 61.9828L190.255 43.8315L167.224 54.681L163.007 51.9428L178.245 28.4744L181.851 30.8157L170.065 48.9671Z" fill="white"/>
<path d="M466.293 240.194L489.385 229.384L493.541 232.083L478.303 255.551L474.697 253.21L486.483 235.059L463.451 245.908L459.234 243.17L474.473 219.701L478.079 222.043L466.293 240.194Z" fill="white"/>
<path d="M232.492 117.525L257.902 119.632L260.166 124.04L235.273 136.821L233.309 132.997L252.562 123.111L227.185 121.069L224.889 116.596L249.781 103.815L251.745 107.64L232.492 117.525Z" fill="white"/>
<path d="M184.498 68.6915L194.218 61.6138L195.59 63.4988C196.407 63.6099 197.217 63.6286 198.02 63.5549C198.823 63.4812 199.696 63.2883 200.641 62.9761C201.602 62.6666 202.702 62.1962 203.94 61.5651C205.188 60.9268 206.652 60.1009 208.333 59.0873L217.844 53.3331L228.311 67.7062L208.931 81.8187L211.461 85.2941L201.742 92.3718L199.211 88.8963L205.691 84.1779L193.509 67.4485L187.029 72.1669L184.498 68.6915ZM198.464 67.4455L206.4 78.3432L222.54 66.59L216.964 58.9321L210.821 62.5039C208.276 63.9814 205.988 65.1819 203.956 66.1055C201.924 67.0291 200.094 67.4758 198.464 67.4455Z" fill="white"/>
<path d="M214.85 98.2904C213.821 95.9832 213.468 93.7141 213.789 91.483C214.116 89.2629 215.049 87.2247 216.588 85.3681C218.132 83.5227 220.224 82.0114 222.864 80.8342C225.526 79.6472 228.065 79.0934 230.481 79.1731C232.901 79.2638 235.046 79.9296 236.916 81.1702C238.791 82.422 240.243 84.2015 241.271 86.5086C242.3 88.8158 242.651 91.0794 242.325 93.2994C242.003 95.5305 241.065 97.5713 239.51 99.4217C237.959 101.283 235.853 102.807 233.191 103.994C230.551 105.172 228.027 105.712 225.617 105.617C223.212 105.532 221.073 104.864 219.198 103.612C217.328 102.371 215.879 100.598 214.85 98.2904ZM218.377 96.7175C219.159 98.47 220.251 99.7117 221.654 100.442C223.057 101.173 224.612 101.484 226.318 101.375C228.025 101.265 229.732 100.83 231.44 100.068C233.148 99.3062 234.619 98.3246 235.852 97.1233C237.085 95.9219 237.904 94.5528 238.309 93.0158C238.714 91.4788 238.526 89.8341 237.744 88.0815C236.963 86.329 235.865 85.0898 234.451 84.364C233.037 83.6382 231.471 83.3324 229.753 83.4468C228.036 83.5611 226.323 83.9991 224.615 84.7608C222.906 85.5225 221.441 86.5016 220.22 87.698C218.998 88.8944 218.19 90.2586 217.796 91.7906C217.402 93.3227 217.596 94.965 218.377 96.7175Z" fill="white"/>
<path d="M257.307 176.753L281.505 177.447L283.044 181.226L252.566 180.57L251.248 177.33L272.688 155.781L274.199 159.493L257.307 176.753ZM273.677 158.211L247.759 168.758L246.139 164.776L272.057 154.229L273.677 158.211ZM256.055 189.142L281.972 178.594L283.593 182.576L257.675 193.124L256.055 189.142Z" fill="white"/>
<path d="M241.853 136.839L243.501 141.123C242.357 141.667 241.666 142.545 241.429 143.755C241.196 144.977 241.383 146.375 241.989 147.951C242.608 149.56 243.466 150.811 244.564 151.703C245.673 152.591 246.97 152.749 248.455 152.178C249.328 151.842 250.005 151.335 250.485 150.656C250.977 149.972 251.254 149.169 251.316 148.248C251.377 147.326 251.203 146.332 250.794 145.267L249.067 140.778L252.672 139.392L254.398 143.88C255.013 145.479 255.829 146.518 256.847 146.999C257.869 147.49 258.924 147.527 260.012 147.108C261.179 146.659 261.956 145.886 262.34 144.788C262.736 143.686 262.642 142.375 262.058 140.856C261.469 139.326 260.633 138.184 259.549 137.43C258.476 136.671 257.391 136.471 256.292 136.828L254.67 132.611C256.093 132.116 257.5 132.069 258.891 132.471C260.293 132.869 261.57 133.653 262.723 134.823C263.887 135.989 264.818 137.478 265.516 139.292C266.222 141.128 266.511 142.845 266.384 144.443C266.273 146.047 265.809 147.429 264.993 148.589C264.192 149.756 263.1 150.605 261.718 151.137C260.244 151.704 258.895 151.748 257.669 151.269C256.444 150.79 255.399 150.002 254.534 148.903L254.262 149.008C254.574 150.02 254.585 150.998 254.298 151.941C254.026 152.892 253.515 153.745 252.765 154.502C252.026 155.255 251.113 155.84 250.025 156.259C248.438 156.869 246.891 156.976 245.385 156.579C243.891 156.178 242.535 155.359 241.318 154.123C240.112 152.882 239.143 151.31 238.41 149.405C237.7 147.558 237.363 145.787 237.402 144.094C237.451 142.396 237.849 140.909 238.595 139.634C239.356 138.365 240.442 137.433 241.853 136.839Z" fill="white"/>
<path d="M286.786 217.707C284.091 217.796 281.747 217.278 279.753 216.153C277.771 215.016 276.217 213.39 275.09 211.277C273.974 209.151 273.369 206.656 273.274 203.791C273.179 200.926 273.618 198.384 274.589 196.165C275.573 193.933 276.985 192.173 278.826 190.885C280.678 189.584 282.867 188.892 285.392 188.808C286.848 188.76 288.295 188.955 289.731 189.393C291.167 189.832 292.486 190.578 293.687 191.632C294.888 192.674 295.864 194.075 296.615 195.837C297.366 197.598 297.785 199.784 297.871 202.393L297.932 204.214L276.374 204.928L276.251 201.213L293.439 200.644C293.387 199.066 293.024 197.669 292.352 196.452C291.692 195.234 290.774 194.286 289.597 193.608C288.432 192.93 287.073 192.616 285.519 192.668C283.808 192.725 282.341 193.198 281.119 194.089C279.909 194.968 278.992 196.092 278.369 197.461C277.746 198.831 277.46 200.286 277.511 201.828L277.593 204.304C277.663 206.416 278.086 208.195 278.863 209.639C279.652 211.071 280.714 212.148 282.051 212.869C283.386 213.578 284.922 213.904 286.658 213.847C287.787 213.809 288.801 213.618 289.701 213.272C290.613 212.914 291.392 212.402 292.038 211.737C292.684 211.059 293.173 210.229 293.505 209.246L297.695 210.273C297.304 211.696 296.611 212.958 295.615 214.061C294.618 215.151 293.371 216.018 291.873 216.663C290.375 217.296 288.679 217.644 286.786 217.707Z" fill="white"/>
<path d="M658.656 307.672L659.605 311.566L645.233 315.068L644.284 311.174L658.656 307.672ZM644.926 298.417L651.55 325.604L647.373 326.622L640.749 299.435L644.926 298.417ZM670.874 321.495C668.42 322.093 666.124 322.034 663.987 321.317C661.862 320.598 660.024 319.314 658.474 317.467C656.935 315.616 655.824 313.287 655.14 310.479C654.45 307.647 654.361 305.05 654.873 302.688C655.396 300.322 656.436 298.332 657.993 296.715C659.56 295.095 661.572 293.987 664.026 293.389C666.48 292.791 668.77 292.851 670.896 293.571C673.033 294.288 674.872 295.577 676.413 297.439C677.966 299.298 679.088 301.644 679.778 304.476C680.462 307.284 680.541 309.865 680.014 312.218C679.499 314.569 678.458 316.554 676.89 318.173C675.334 319.79 673.329 320.897 670.874 321.495ZM669.96 317.743C671.824 317.289 673.242 316.437 674.213 315.188C675.183 313.939 675.768 312.465 675.967 310.767C676.165 309.069 676.043 307.311 675.6 305.494C675.158 303.676 674.456 302.054 673.496 300.625C672.535 299.197 671.335 298.145 669.896 297.471C668.456 296.797 666.805 296.687 664.94 297.141C663.076 297.595 661.66 298.453 660.692 299.713C659.724 300.974 659.142 302.46 658.947 304.17C658.751 305.88 658.874 307.644 659.317 309.461C659.76 311.278 660.46 312.895 661.418 314.312C662.375 315.729 663.572 316.768 665.009 317.431C666.445 318.093 668.096 318.197 669.96 317.743Z" fill="white"/>
<path d="M566.522 340.839C563.827 340.928 561.483 340.41 559.49 339.285C557.508 338.148 555.953 336.522 554.826 334.409C553.711 332.283 553.106 329.787 553.011 326.923C552.916 324.058 553.354 321.516 554.326 319.297C555.309 317.065 556.721 315.305 558.562 314.016C560.414 312.716 562.603 312.023 565.128 311.94C566.584 311.892 568.031 312.087 569.467 312.525C570.903 312.964 572.222 313.71 573.424 314.764C574.625 315.805 575.601 317.207 576.352 318.968C577.103 320.73 577.521 322.915 577.608 325.525L577.668 327.346L556.11 328.06L555.988 324.345L573.175 323.776C573.123 322.198 572.761 320.801 572.089 319.583C571.429 318.366 570.51 317.418 569.333 316.74C568.169 316.062 566.809 315.748 565.256 315.8C563.544 315.856 562.077 316.33 560.855 317.221C559.645 318.1 558.728 319.224 558.105 320.593C557.482 321.963 557.196 323.418 557.247 324.96L557.329 327.436C557.399 329.548 557.823 331.326 558.6 332.771C559.388 334.203 560.451 335.28 561.787 336.001C563.123 336.71 564.659 337.036 566.394 336.979C567.523 336.941 568.538 336.75 569.438 336.404C570.349 336.046 571.128 335.534 571.774 334.868C572.42 334.191 572.909 333.36 573.241 332.377L577.431 333.405C577.041 334.828 576.347 336.09 575.351 337.192C574.354 338.283 573.107 339.15 571.609 339.795C570.112 340.428 568.416 340.776 566.522 340.839Z" fill="white"/>
<path d="M375.149 188.061L375.281 192.066L360.497 192.556L360.364 188.55L375.149 188.061ZM363.601 176.194L364.527 204.161L360.23 204.303L359.304 176.337L363.601 176.194ZM384.283 204.09C381.758 204.174 379.523 203.646 377.577 202.508C375.644 201.369 374.108 199.737 372.968 197.611C371.84 195.486 371.229 192.978 371.133 190.089C371.037 187.176 371.48 184.616 372.464 182.408C373.461 180.2 374.886 178.464 376.739 177.199C378.605 175.935 380.801 175.26 383.325 175.177C385.85 175.093 388.079 175.621 390.013 176.76C391.958 177.899 393.495 179.537 394.623 181.674C395.763 183.812 396.381 186.337 396.478 189.25C396.573 192.139 396.123 194.682 395.126 196.878C394.142 199.073 392.717 200.803 390.851 202.068C388.997 203.333 386.808 204.007 384.283 204.09ZM384.155 200.23C386.073 200.167 387.635 199.623 388.84 198.599C390.046 197.574 390.919 196.251 391.461 194.629C392.003 193.007 392.243 191.262 392.181 189.393C392.119 187.523 391.764 185.791 391.116 184.197C390.467 182.602 389.508 181.327 388.237 180.373C386.966 179.419 385.371 178.973 383.453 179.037C381.535 179.1 379.974 179.65 378.769 180.687C377.564 181.723 376.69 183.058 376.149 184.692C375.608 186.326 375.368 188.078 375.43 189.947C375.492 191.816 375.847 193.542 376.495 195.125C377.142 196.708 378.102 197.97 379.372 198.912C380.643 199.854 382.237 200.294 384.155 200.23Z" fill="white"/>
<path d="M323.032 190.77L323.656 194.729L308.396 197.135L307.772 193.176L323.032 190.77ZM306.907 181.14L311.265 208.781L307.018 209.45L302.661 181.81L306.907 181.14ZM324.399 178.383L328.756 206.024L324.509 206.693L320.152 179.053L324.399 178.383Z" fill="white"/>
<path d="M603.651 321.059L604.275 325.018L589.015 327.424L588.391 323.465L603.651 321.059ZM587.527 311.429L591.884 339.07L587.637 339.739L583.28 312.099L587.527 311.429ZM605.018 308.672L609.375 336.312L605.128 336.982L600.771 309.341L605.018 308.672Z" fill="white"/>
<path d="M352.433 207.268L348.751 183.505L341.406 184.643C339.75 184.899 338.507 185.485 337.678 186.4C336.849 187.315 336.539 188.445 336.747 189.789C336.951 191.109 337.538 192.081 338.508 192.705C339.489 193.328 340.73 193.523 342.23 193.29L351.159 191.906L351.773 195.867L342.844 197.251C340.971 197.541 339.306 197.461 337.848 197.011C336.389 196.561 335.199 195.781 334.277 194.67C333.353 193.547 332.761 192.14 332.498 190.448C332.234 188.743 332.391 187.22 332.97 185.876C333.548 184.533 334.5 183.421 335.826 182.539C337.164 181.656 338.823 181.061 340.803 180.754L352.181 178.991L356.466 206.643L352.433 207.268ZM333.999 210.124L339.717 195.154L344.325 194.44L338.608 209.41L333.999 210.124Z" fill="white"/>
<path d="M398.677 180.519L400.216 176.819L421.207 185.553L419.667 189.254L411.19 185.726L401.98 207.861L398.01 206.209L407.221 184.075L398.677 180.519Z" fill="white"/>
<path d="M680.895 292.953L680.03 289.04L702.229 284.132L703.094 288.046L694.129 290.028L699.305 313.436L695.107 314.364L689.931 290.956L680.895 292.953Z" fill="white"/>
<path d="M419.868 214.982C417.696 213.511 416.173 211.731 415.299 209.643C414.424 207.555 414.174 205.325 414.548 202.953C414.923 200.581 415.893 198.239 417.459 195.926C419.052 193.573 420.891 191.789 422.975 190.574C425.075 189.357 427.249 188.768 429.495 188.807C431.759 188.844 433.936 189.57 436.028 190.987C437.657 192.09 438.921 193.386 439.82 194.874C440.718 196.363 441.217 197.933 441.317 199.584C441.416 201.235 441.076 202.853 440.296 204.437L436.737 202.027C437.18 200.787 437.21 199.443 436.826 197.995C436.459 196.544 435.492 195.288 433.923 194.225C432.535 193.286 431.073 192.824 429.537 192.84C428.018 192.852 426.524 193.315 425.055 194.227C423.604 195.136 422.285 196.466 421.101 198.216C419.889 200.006 419.115 201.755 418.779 203.464C418.453 205.179 418.56 206.755 419.099 208.19C419.647 209.633 420.626 210.83 422.034 211.784C422.959 212.41 423.907 212.818 424.88 213.007C425.852 213.196 426.804 213.166 427.735 212.916C428.666 212.667 429.529 212.195 430.322 211.5L433.882 213.91C432.755 215.142 431.423 216.037 429.886 216.595C428.366 217.15 426.74 217.31 425.007 217.075C423.291 216.837 421.578 216.139 419.868 214.982Z" fill="white"/>
<path d="M713.265 314.609C711.093 313.139 709.57 311.359 708.696 309.271C707.821 307.183 707.571 304.953 707.945 302.581C708.32 300.209 709.29 297.866 710.856 295.553C712.449 293.2 714.288 291.416 716.372 290.202C718.472 288.984 720.646 288.395 722.892 288.435C725.156 288.472 727.333 289.198 729.425 290.614C731.054 291.717 732.318 293.013 733.217 294.502C734.115 295.991 734.614 297.56 734.714 299.212C734.813 300.863 734.473 302.481 733.693 304.065L730.134 301.655C730.577 300.415 730.607 299.071 730.223 297.623C729.856 296.172 728.889 294.915 727.32 293.853C725.932 292.913 724.47 292.451 722.934 292.467C721.415 292.48 719.921 292.943 718.452 293.855C717.001 294.764 715.682 296.093 714.498 297.843C713.286 299.633 712.512 301.383 712.176 303.091C711.85 304.807 711.957 306.383 712.496 307.818C713.044 309.26 714.023 310.458 715.431 311.411C716.356 312.038 717.304 312.446 718.277 312.635C719.249 312.823 720.2 312.793 721.132 312.544C722.063 312.295 722.926 311.823 723.719 311.128L727.279 313.538C726.152 314.77 724.82 315.664 723.283 316.223C721.763 316.778 720.137 316.938 718.404 316.703C716.688 316.465 714.975 315.767 713.265 314.609Z" fill="white"/>
<path d="M446.403 234.347L462.076 216.11L456.439 211.265C455.168 210.173 453.915 209.609 452.681 209.573C451.447 209.537 450.386 210.035 449.5 211.067C448.629 212.08 448.271 213.158 448.426 214.3C448.591 215.45 449.249 216.52 450.4 217.509L457.253 223.399L454.641 226.438L447.788 220.549C446.351 219.314 445.33 217.996 444.725 216.595C444.119 215.194 443.939 213.782 444.185 212.36C444.438 210.928 445.123 209.563 446.239 208.265C447.363 206.957 448.623 206.086 450.02 205.653C451.417 205.22 452.881 205.222 454.413 205.657C455.954 206.1 457.484 206.975 459.004 208.281L467.736 215.785L449.498 237.007L446.403 234.347ZM432.255 222.189L447.35 216.81L450.887 219.85L435.792 225.228L432.255 222.189Z" fill="white"/>
<path d="M637.639 329.477L631.757 306.161L624.55 307.979C622.925 308.389 621.742 309.088 621.002 310.076C620.262 311.065 620.058 312.218 620.391 313.537C620.718 314.833 621.393 315.746 622.416 316.277C623.451 316.805 624.704 316.883 626.176 316.512L634.938 314.301L635.918 318.187L627.157 320.398C625.32 320.861 623.654 320.937 622.16 320.625C620.666 320.313 619.408 319.647 618.387 318.627C617.363 317.595 616.641 316.249 616.222 314.589C615.8 312.917 615.815 311.385 616.265 309.994C616.716 308.603 617.56 307.406 618.798 306.405C620.048 305.401 621.644 304.654 623.587 304.163L634.751 301.347L641.596 328.479L637.639 329.477ZM619.551 334.04L623.848 318.602L628.37 317.461L624.073 332.899L619.551 334.04Z" fill="white"/>
</g>
<defs>
<clipPath id="clip0_3_566">
<rect width="778" height="353" fill="white"/>
</clipPath>
</defs>
</svg>
