<svg width="815" height="452" viewBox="0 0 815 452" fill="none" xmlns="http://www.w3.org/2000/svg">
<g clip-path="url(#clip0_2_528)">
<path d="M52.1171 440.004C51.7839 442.606 50.8825 444.768 49.4131 446.49C47.9437 448.212 46.066 449.441 43.7801 450.177C41.4942 450.912 38.9658 451.103 36.1952 450.748C33.3763 450.387 30.955 449.55 28.9314 448.238C26.8973 446.912 25.3914 445.238 24.4139 443.215C23.4258 441.178 23.0922 438.907 23.4132 436.401C23.6631 434.45 24.2498 432.737 25.1731 431.264C26.0965 429.79 27.2727 428.637 28.7018 427.804C30.1309 426.971 31.7282 426.545 33.4937 426.526L32.9476 430.79C31.641 430.954 30.4281 431.533 29.3089 432.528C28.1791 433.51 27.4939 434.941 27.2532 436.82C27.0403 438.482 27.2873 439.995 27.9942 441.359C28.6905 442.71 29.777 443.834 31.2536 444.734C32.7196 445.619 34.5007 446.196 36.5968 446.465C38.741 446.74 40.6515 446.641 42.328 446.17C44.0061 445.687 45.3643 444.882 46.4026 443.754C47.4424 442.614 48.0704 441.2 48.2864 439.514C48.4283 438.405 48.3644 437.375 48.0946 436.422C47.8249 435.469 47.3687 434.633 46.7261 433.914C46.0836 433.195 45.2733 432.638 44.2953 432.244L44.8415 427.979C46.449 428.43 47.8483 429.215 49.0395 430.335C50.2202 431.441 51.0965 432.821 51.6684 434.474C52.2299 436.113 52.3794 437.956 52.1171 440.004Z" fill="white"/>
<path d="M59.425 418.724C58.1986 421.125 56.6107 422.925 54.6613 424.125C52.7067 425.309 50.5319 425.882 48.1369 425.845C45.7366 425.792 43.2602 425.114 40.7077 423.81C38.1551 422.506 36.143 420.892 34.6713 418.968C33.1942 417.027 32.3376 414.939 32.1015 412.705C31.8601 410.454 32.3139 408.204 33.463 405.954C34.1259 404.656 34.9968 403.485 36.0758 402.441C37.1548 401.396 38.4461 400.603 39.9499 400.062C41.4428 399.516 43.1417 399.34 45.0465 399.536C46.9513 399.731 49.0664 400.423 51.3918 401.61L53.0141 402.439L43.203 421.648L39.8934 419.957L47.7158 404.642C46.3097 403.924 44.9114 403.565 43.521 403.564C42.136 403.552 40.8621 403.897 39.6992 404.598C38.5417 405.289 37.6095 406.326 36.9024 407.711C36.1235 409.236 35.828 410.749 36.0161 412.249C36.199 413.734 36.7387 415.08 37.6354 416.288C38.5321 417.496 39.6673 418.451 41.0409 419.153L43.2473 420.28C45.1293 421.241 46.8903 421.731 48.5305 421.751C50.1653 421.754 51.6218 421.345 52.8998 420.525C54.167 419.7 55.1956 418.514 55.9856 416.967C56.4993 415.961 56.8228 414.981 56.9559 414.026C57.0837 413.055 57.0129 412.125 56.7435 411.238C56.4633 410.344 55.9734 409.515 55.2739 408.748L58.2015 405.58C59.2572 406.61 60.0262 407.828 60.5085 409.233C60.9799 410.633 61.1353 412.144 60.9747 413.767C60.8033 415.384 60.2868 417.036 59.425 418.724Z" fill="white"/>
<path d="M66.0396 405.972L44.1728 388.513L46.8553 385.153L56.3651 392.746L58.1383 390.525L54.9029 375.074L58.3584 370.746L61.8459 387.984L80.3162 388.091L76.8607 392.419L61.9068 392.229L59.4971 395.247L68.7222 402.612L66.0396 405.972Z" fill="white"/>
<path d="M88.5115 394.771L62.1415 366.754L65.166 363.907L68.2126 367.144L68.584 366.794C68.481 366.224 68.3748 365.473 68.2656 364.542C68.1568 363.594 68.2832 362.541 68.6448 361.383C69.0068 360.208 69.8511 358.997 71.1777 357.748C72.8934 356.133 74.8094 355.139 76.9256 354.765C79.0419 354.391 81.2079 354.645 83.4236 355.529C85.6393 356.412 87.7543 357.924 89.7687 360.064C91.7997 362.222 93.1932 364.438 93.9491 366.712C94.6967 368.977 94.8284 371.154 94.3441 373.245C93.8515 375.326 92.7562 377.166 91.0582 378.764C89.7493 379.996 88.4974 380.766 87.3024 381.073C86.0991 381.372 85.023 381.442 84.0741 381.285C83.1169 381.118 82.3485 380.958 81.769 380.803L81.5037 381.052L91.6421 391.824L88.5115 394.771ZM74.8082 374.045C76.2565 375.584 77.7598 376.729 79.3179 377.481C80.8676 378.224 82.388 378.519 83.879 378.366C85.3616 378.205 86.7309 377.533 87.9867 376.351C89.2956 375.119 90.0631 373.747 90.2894 372.233C90.5162 370.702 90.2971 369.14 89.6323 367.547C88.9679 365.938 87.9532 364.408 86.588 362.958C85.2396 361.525 83.8032 360.442 82.2789 359.708C80.7551 358.958 79.2348 358.662 77.7178 358.823C76.2013 358.966 74.7798 359.662 73.4532 360.91C72.1797 362.109 71.4135 363.439 71.1544 364.9C70.8871 366.353 71.0733 367.862 71.7132 369.428C72.3448 370.985 73.3765 372.524 74.8082 374.045Z" fill="white"/>
<path d="M114.027 359.742C111.855 361.34 109.629 362.239 107.349 362.439C105.071 362.623 102.87 362.162 100.745 361.057C98.6223 359.935 96.7116 358.22 95.0127 355.911C93.3138 353.603 92.2371 351.259 91.7826 348.879C91.3306 346.482 91.4992 344.232 92.2883 342.128C93.0799 340.007 94.493 338.198 96.5276 336.701C97.7014 335.837 99.0045 335.18 100.437 334.729C101.869 334.278 103.379 334.147 104.966 334.336C106.545 334.516 108.143 335.119 109.759 336.147C111.375 337.175 112.956 338.74 114.504 340.843L115.584 342.31L98.2119 355.095L96.0091 352.102L109.86 341.908C108.924 340.637 107.835 339.689 106.592 339.066C105.359 338.435 104.065 338.173 102.711 338.28C101.367 338.38 100.069 338.89 98.8168 339.812C97.4376 340.827 96.4962 342.047 95.9926 343.473C95.4916 344.883 95.3716 346.328 95.6326 347.81C95.8937 349.291 96.4813 350.653 97.3956 351.896L98.8641 353.891C100.117 355.593 101.472 356.82 102.93 357.571C104.39 358.306 105.876 358.593 107.385 358.432C108.888 358.261 110.339 357.66 111.738 356.631C112.647 355.962 113.375 355.23 113.922 354.436C114.471 353.624 114.824 352.762 114.98 351.847C115.129 350.923 115.063 349.962 114.78 348.963L118.817 347.44C119.3 348.834 119.442 350.267 119.244 351.74C119.039 353.203 118.501 354.624 117.631 356.003C116.754 357.372 115.553 358.619 114.027 359.742Z" fill="white"/>
<path d="M141.345 352.428L117.796 311.92L121.513 309.76L145.062 350.267L141.345 352.428ZM136.84 344.679C135.202 345.631 133.54 346.204 131.855 346.397C130.163 346.58 128.516 346.406 126.916 345.876C125.309 345.335 123.797 344.451 122.381 343.223C120.965 341.995 119.714 340.447 118.627 338.578C117.529 336.688 116.796 334.824 116.43 332.986C116.058 331.137 116.034 329.381 116.359 327.717C116.684 326.053 117.348 324.536 118.35 323.167C119.346 321.787 120.663 320.621 122.301 319.669L123.435 319.01L137.974 344.02L136.84 344.679ZM134.899 341.34L135.529 340.974L124.872 322.642L124.242 323.008C123.003 323.728 122.073 324.606 121.453 325.641C120.826 326.665 120.464 327.782 120.366 328.991C120.272 330.183 120.399 331.416 120.746 332.689C121.103 333.957 121.636 335.199 122.344 336.417C123.284 338.034 124.414 339.386 125.734 340.473C127.055 341.56 128.497 342.217 130.063 342.445C131.628 342.673 133.24 342.305 134.899 341.34ZM140.557 342.518L139.423 343.178L124.884 318.168L126.018 317.508C127.656 316.556 129.321 315.989 131.013 315.806C132.698 315.613 134.345 315.786 135.952 316.327C137.558 316.868 139.073 317.758 140.495 318.996C141.911 320.224 143.169 321.783 144.267 323.673C145.354 325.542 146.08 327.395 146.446 329.233C146.813 331.071 146.833 332.822 146.508 334.486C146.177 336.14 145.513 337.657 144.517 339.036C143.515 340.406 142.195 341.566 140.557 342.518ZM138.616 339.18C139.866 338.453 140.801 337.586 141.424 336.578C142.05 335.554 142.41 334.445 142.504 333.253C142.602 332.044 142.475 330.811 142.124 329.555C141.777 328.281 141.252 327.041 140.551 325.833C139.611 324.216 138.477 322.859 137.151 321.762C135.825 320.664 134.376 319.997 132.805 319.758C131.233 319.52 129.618 319.883 127.959 320.847L127.329 321.213L137.986 339.546L138.616 339.18Z" fill="white"/>
<path d="M153.417 307.891C152.538 308.305 151.751 308.936 151.056 309.785C150.373 310.63 149.899 311.553 149.633 312.554C149.374 313.539 149.446 314.474 149.848 315.358L146.001 317.108C145.498 316.002 145.281 314.82 145.349 313.562C145.417 312.303 145.718 311.072 146.251 309.869C146.796 308.661 147.537 307.563 148.476 306.576C149.426 305.584 150.52 304.806 151.758 304.243C154.08 303.187 156.314 302.878 158.461 303.316C160.619 303.749 162.556 304.736 164.27 306.278C165.997 307.815 167.372 309.711 168.398 311.966L168.82 312.895C169.841 315.139 170.365 317.422 170.394 319.744C170.428 322.049 169.899 324.158 168.807 326.069C167.726 327.975 166.024 329.455 163.703 330.511C161.845 331.356 160.007 331.698 158.186 331.539C156.361 331.368 154.72 330.78 153.262 329.775C151.804 328.771 150.691 327.422 149.922 325.731L153.769 323.981C154.207 324.943 154.887 325.721 155.811 326.315C156.741 326.893 157.761 327.243 158.87 327.365C159.986 327.472 161.044 327.304 162.044 326.863C163.52 326.178 164.569 325.141 165.191 323.75C165.813 322.36 166.081 320.851 165.994 319.223C165.908 317.594 165.545 316.078 164.907 314.674L164.484 313.746C163.831 312.308 162.921 311.027 161.756 309.903C160.597 308.762 159.292 307.975 157.84 307.541C156.4 307.102 154.926 307.219 153.417 307.891ZM165.382 311.496L167.041 315.144L155.897 320.212L154.238 316.563L165.382 311.496Z" fill="white"/>
<path d="M202.203 316.132C199.687 316.875 197.345 316.92 195.177 316.268C193.009 315.616 191.129 314.392 189.535 312.596C187.941 310.8 186.749 308.562 185.958 305.883C185.153 303.158 184.944 300.604 185.331 298.224C185.725 295.828 186.652 293.775 188.11 292.066C189.576 290.342 191.521 289.122 193.944 288.407C195.831 287.85 197.635 287.697 199.355 287.949C201.076 288.201 202.605 288.814 203.943 289.786C205.281 290.759 206.314 292.05 207.042 293.658L202.919 294.875C202.243 293.745 201.225 292.868 199.863 292.244C198.509 291.605 196.924 291.554 195.107 292.09C193.5 292.565 192.214 293.4 191.25 294.596C190.294 295.777 189.702 297.225 189.474 298.938C189.253 300.637 189.442 302.5 190.04 304.526C190.652 306.6 191.511 308.309 192.617 309.654C193.735 310.996 195.019 311.914 196.47 312.411C197.932 312.903 199.479 312.909 201.11 312.428C202.181 312.112 203.099 311.638 203.862 311.008C204.626 310.377 205.208 309.623 205.607 308.745C206.006 307.868 206.19 306.902 206.157 305.848L210.281 304.631C210.515 306.284 210.36 307.881 209.814 309.422C209.277 310.948 208.367 312.306 207.085 313.495C205.81 314.668 204.183 315.548 202.203 316.132Z" fill="white"/>
<path d="M228.59 309.914C225.937 310.391 223.542 310.217 221.407 309.391C219.282 308.552 217.509 307.167 216.089 305.239C214.679 303.296 213.72 300.914 213.213 298.093C212.706 295.272 212.773 292.693 213.415 290.357C214.066 288.006 215.209 286.061 216.845 284.521C218.491 282.966 220.557 281.966 223.043 281.519C224.477 281.261 225.937 281.246 227.421 281.472C228.906 281.699 230.318 282.247 231.659 283.117C232.998 283.975 234.166 285.221 235.163 286.855C236.16 288.49 236.89 290.592 237.352 293.162L237.674 294.955L216.445 298.771L215.787 295.113L232.713 292.071C232.434 290.517 231.874 289.186 231.033 288.079C230.205 286.969 229.159 286.164 227.897 285.663C226.646 285.159 225.256 285.045 223.726 285.32C222.041 285.623 220.658 286.303 219.577 287.361C218.506 288.405 217.761 289.65 217.342 291.095C216.923 292.54 216.85 294.021 217.122 295.539L217.561 297.978C217.934 300.058 218.61 301.756 219.587 303.074C220.574 304.377 221.781 305.289 223.207 305.81C224.631 306.319 226.198 306.42 227.907 306.113C229.019 305.913 229.995 305.578 230.836 305.106C231.686 304.62 232.383 304.001 232.927 303.249C233.468 302.486 233.832 301.593 234.019 300.573L238.313 300.986C238.132 302.449 237.628 303.799 236.801 305.033C235.972 306.256 234.863 307.294 233.474 308.148C232.083 308.991 230.455 309.579 228.59 309.914Z" fill="white"/>
<path d="M244.668 306.81L243.122 278.871L247.415 278.634L248.088 290.784L250.925 290.627L260.293 277.921L265.823 277.615L255.29 291.7L267.515 305.546L261.985 305.852L252.165 294.573L248.309 294.786L248.961 306.573L244.668 306.81Z" fill="white"/>
<path d="M268.994 316.037L272.435 277.716L276.572 278.087L276.175 282.515L276.683 282.56C277.041 282.105 277.531 281.527 278.155 280.827C278.792 280.116 279.663 279.511 280.769 279.013C281.888 278.504 283.354 278.331 285.169 278.493C287.515 278.704 289.531 279.477 291.216 280.811C292.901 282.145 294.149 283.933 294.959 286.177C295.77 288.42 296.044 291.005 295.781 293.933C295.516 296.884 294.784 299.397 293.586 301.472C292.389 303.535 290.848 305.08 288.963 306.106C287.08 307.119 284.977 307.522 282.654 307.313C280.864 307.152 279.457 306.727 278.434 306.038C277.412 305.337 276.644 304.579 276.132 303.765C275.621 302.938 275.231 302.257 274.962 301.721L274.599 301.688L273.276 316.421L268.994 316.037ZM275.393 292.029C275.204 294.134 275.346 296.018 275.819 297.682C276.292 299.334 277.081 300.667 278.185 301.681C279.29 302.682 280.701 303.26 282.419 303.414C284.209 303.575 285.745 303.238 287.028 302.402C288.323 301.555 289.345 300.354 290.095 298.799C290.857 297.234 291.327 295.459 291.506 293.475C291.682 291.516 291.538 289.723 291.074 288.096C290.624 286.458 289.835 285.125 288.708 284.097C287.594 283.058 286.13 282.457 284.315 282.294C282.574 282.138 281.07 282.448 279.806 283.225C278.542 283.989 277.537 285.131 276.791 286.649C276.046 288.155 275.58 289.948 275.393 292.029Z" fill="white"/>
<path d="M309.523 312.119C306.918 311.424 304.824 310.25 303.241 308.596C301.673 306.933 300.656 304.927 300.189 302.578C299.737 300.22 299.88 297.656 300.619 294.887C301.357 292.118 302.513 289.811 304.085 287.968C305.673 286.117 307.534 284.841 309.669 284.14C311.819 283.432 314.114 283.403 316.555 284.054C317.963 284.429 319.291 285.035 320.539 285.87C321.787 286.706 322.833 287.802 323.678 289.159C324.526 290.503 325.054 292.127 325.263 294.031C325.472 295.934 325.24 298.147 324.567 300.67L324.098 302.431L303.257 296.873L304.214 293.282L320.831 297.713C321.238 296.188 321.295 294.745 321.004 293.385C320.725 292.029 320.12 290.856 319.19 289.866C318.272 288.88 317.062 288.186 315.56 287.785C313.905 287.344 312.364 287.373 310.936 287.872C309.523 288.363 308.32 289.173 307.328 290.304C306.335 291.434 305.64 292.744 305.242 294.235L304.604 296.629C304.059 298.67 303.95 300.495 304.275 302.103C304.615 303.702 305.321 305.04 306.391 306.117C307.464 307.183 308.84 307.939 310.518 308.387C311.609 308.678 312.636 308.788 313.597 308.718C314.574 308.639 315.467 308.375 316.279 307.925C317.093 307.463 317.801 306.81 318.404 305.965L322.117 308.162C321.331 309.41 320.302 310.418 319.029 311.185C317.759 311.94 316.314 312.409 314.694 312.593C313.077 312.765 311.353 312.607 309.523 312.119Z" fill="white"/>
<path d="M329.186 328.772L349.906 286.748L353.762 288.649L333.042 330.673L329.186 328.772ZM333.149 320.733C331.45 319.896 330.054 318.828 328.96 317.53C327.872 316.222 327.106 314.754 326.663 313.127C326.224 311.49 326.125 309.741 326.365 307.882C326.604 306.023 327.202 304.125 328.158 302.186C329.125 300.225 330.272 298.584 331.601 297.262C332.935 295.929 334.385 294.938 335.951 294.288C337.518 293.639 339.148 293.353 340.843 293.43C342.544 293.497 344.243 293.949 345.943 294.787L347.119 295.367L334.326 321.313L333.149 320.733ZM334.857 317.269L335.511 317.592L344.888 298.573L344.235 298.251C342.949 297.617 341.704 297.328 340.499 297.383C339.298 297.428 338.168 297.744 337.106 298.331C336.061 298.913 335.104 299.7 334.235 300.693C333.377 301.692 332.637 302.823 332.014 304.087C331.187 305.764 330.686 307.454 330.51 309.155C330.335 310.856 330.586 312.421 331.262 313.851C331.938 315.281 333.136 316.421 334.857 317.269ZM337.005 322.635L335.829 322.055L348.622 296.108L349.799 296.688C351.498 297.526 352.892 298.599 353.98 299.907C355.073 301.205 355.839 302.672 356.277 304.31C356.716 305.948 356.812 307.702 356.567 309.572C356.328 311.431 355.725 313.34 354.758 315.301C353.802 317.24 352.66 318.87 351.331 320.192C350.002 321.514 348.555 322.5 346.989 323.149C345.428 323.788 343.797 324.074 342.097 324.008C340.402 323.93 338.705 323.472 337.005 322.635ZM338.713 319.171C340.01 319.81 341.25 320.11 342.433 320.071C343.634 320.026 344.756 319.713 345.801 319.131C346.862 318.544 347.819 317.757 348.672 316.769C349.541 315.776 350.284 314.653 350.902 313.4C351.729 311.722 352.233 310.028 352.413 308.316C352.594 306.604 352.349 305.027 351.678 303.586C351.008 302.145 349.812 301.001 348.091 300.152L347.437 299.83L338.06 318.848L338.713 319.171Z" fill="white"/>
<path d="M372.255 315.332C371.475 314.751 370.548 314.355 369.471 314.143C368.404 313.938 367.367 313.955 366.359 314.194C365.368 314.43 364.578 314.933 363.987 315.705L360.63 313.137C361.368 312.173 362.308 311.424 363.45 310.89C364.592 310.357 365.819 310.042 367.132 309.945C368.454 309.856 369.772 309.992 371.085 310.354C372.407 310.724 373.609 311.322 374.689 312.148C376.715 313.698 378.041 315.522 378.668 317.622C379.303 319.729 379.346 321.903 378.795 324.142C378.254 326.388 377.231 328.496 375.726 330.464L375.106 331.274C373.608 333.232 371.842 334.771 369.808 335.891C367.791 337.009 365.683 337.537 363.482 337.475C361.292 337.42 359.184 336.618 357.158 335.068C355.537 333.829 354.368 332.369 353.651 330.688C352.94 328.998 352.685 327.273 352.883 325.514C353.082 323.755 353.746 322.138 354.875 320.662L358.232 323.229C357.59 324.069 357.225 325.036 357.137 326.13C357.066 327.223 357.238 328.287 357.653 329.323C358.086 330.357 358.732 331.211 359.593 331.885C360.893 332.864 362.302 333.3 363.822 333.193C365.341 333.086 366.798 332.61 368.193 331.766C369.588 330.922 370.754 329.887 371.691 328.662L372.311 327.852C373.27 326.598 373.971 325.192 374.413 323.634C374.872 322.074 374.951 320.552 374.649 319.067C374.357 317.59 373.559 316.345 372.255 315.332ZM374.718 327.583L372.283 330.766L362.56 323.329L364.995 320.145L374.718 327.583Z" fill="white"/>
<path d="M393.646 363.786C391.542 362.219 390.1 360.372 389.321 358.247C388.541 356.122 388.392 353.883 388.872 351.53C389.353 349.177 390.427 346.881 392.096 344.641C393.793 342.361 395.71 340.662 397.847 339.543C400 338.421 402.198 337.93 404.44 338.071C406.699 338.209 408.842 339.033 410.868 340.542C412.446 341.717 413.65 343.068 414.481 344.596C415.312 346.123 415.74 347.714 415.765 349.368C415.79 351.022 415.377 352.623 414.527 354.171L411.079 351.602C411.578 350.384 411.669 349.043 411.35 347.579C411.049 346.113 410.139 344.814 408.619 343.682C407.275 342.681 405.836 342.154 404.3 342.101C402.782 342.045 401.269 342.44 399.761 343.285C398.27 344.128 396.893 345.397 395.631 347.092C394.339 348.826 393.488 350.538 393.075 352.23C392.673 353.93 392.709 355.508 393.182 356.967C393.665 358.432 394.589 359.673 395.953 360.688C396.849 361.356 397.778 361.806 398.741 362.038C399.703 362.271 400.655 362.283 401.597 362.076C402.539 361.869 403.422 361.436 404.245 360.777L407.693 363.346C406.512 364.525 405.141 365.359 403.581 365.848C402.038 366.334 400.406 366.421 398.685 366.108C396.981 365.793 395.301 365.019 393.646 363.786Z" fill="white"/>
<path d="M417.706 380.881C415.474 379.368 413.883 377.57 412.932 375.488C411.998 373.403 411.697 371.174 412.028 368.802C412.376 366.426 413.354 364.052 414.963 361.68C416.571 359.307 418.42 357.509 420.511 356.285C422.619 355.058 424.796 354.465 427.043 354.506C429.306 354.544 431.483 355.271 433.575 356.688C434.781 357.506 435.836 358.514 436.74 359.714C437.643 360.913 438.271 362.292 438.623 363.851C438.982 365.4 438.947 367.108 438.518 368.974C438.09 370.84 437.143 372.854 435.678 375.015L434.656 376.523L416.801 364.422L418.886 361.346L433.122 370.994C434.007 369.687 434.536 368.344 434.709 366.964C434.891 365.591 434.706 364.284 434.152 363.044C433.609 361.81 432.695 360.757 431.408 359.885C429.99 358.924 428.525 358.445 427.013 358.447C425.517 358.446 424.115 358.816 422.805 359.557C421.496 360.298 420.409 361.307 419.544 362.584L418.154 364.634C416.968 366.384 416.264 368.071 416.043 369.696C415.839 371.318 416.065 372.814 416.721 374.183C417.385 375.543 418.435 376.709 419.873 377.684C420.808 378.317 421.741 378.759 422.672 379.009C423.62 379.255 424.551 379.299 425.465 379.141C426.386 378.973 427.27 378.589 428.116 377.989L430.901 381.285C429.748 382.206 428.445 382.819 426.991 383.124C425.543 383.42 424.025 383.388 422.434 383.029C420.85 382.66 419.274 381.944 417.706 380.881Z" fill="white"/>
<path d="M434.707 391.398L449.111 367.409L452.797 369.622L446.533 380.055L448.969 381.518L463.855 376.261L468.603 379.112L451.98 384.855L454.323 403.177L449.575 400.326L447.781 385.479L444.47 383.491L438.393 393.611L434.707 391.398Z" fill="white"/>
<path d="M453.644 414.852L471.083 380.556L474.785 382.439L472.77 386.401L473.225 386.632C473.727 386.342 474.397 385.988 475.236 385.57C476.092 385.147 477.126 384.91 478.337 384.858C479.565 384.801 480.991 385.186 482.615 386.011C484.715 387.079 486.299 388.546 487.367 390.41C488.436 392.275 488.929 394.4 488.848 396.783C488.767 399.167 488.06 401.669 486.728 404.289C485.384 406.93 483.771 408.992 481.887 410.473C480.009 411.943 478.004 412.803 475.873 413.055C473.748 413.296 471.646 412.888 469.567 411.831C467.965 411.017 466.817 410.099 466.123 409.079C465.435 408.047 465.005 407.059 464.832 406.112C464.665 405.155 464.556 404.378 464.505 403.78L464.181 403.615L457.476 416.801L453.644 414.852ZM468.509 394.943C467.551 396.827 466.982 398.629 466.802 400.349C466.627 402.059 466.864 403.59 467.512 404.941C468.166 406.282 469.261 407.343 470.798 408.124C472.401 408.939 473.952 409.197 475.453 408.897C476.971 408.593 478.366 407.858 479.64 406.693C480.929 405.523 482.026 404.051 482.928 402.275C483.82 400.522 484.353 398.803 484.528 397.121C484.718 395.433 484.481 393.902 483.817 392.529C483.169 391.151 482.033 390.048 480.41 389.223C478.851 388.43 477.34 388.159 475.877 388.41C474.42 388.65 473.063 389.336 471.806 390.468C470.554 391.589 469.455 393.081 468.509 394.943Z" fill="white"/>
<path d="M499.688 425.332C497.169 424.371 495.209 422.985 493.806 421.176C492.42 419.36 491.616 417.259 491.396 414.874C491.191 412.482 491.599 409.947 492.622 407.269C493.644 404.592 495.032 402.418 496.788 400.748C498.559 399.071 500.542 397.995 502.739 397.521C504.95 397.039 507.236 397.248 509.596 398.149C510.958 398.669 512.216 399.409 513.37 400.37C514.524 401.33 515.451 402.529 516.151 403.966C516.855 405.392 517.211 407.062 517.222 408.977C517.232 410.891 516.771 413.069 515.84 415.508L515.19 417.21L495.039 409.518L496.364 406.046L512.431 412.179C512.994 410.704 513.201 409.275 513.053 407.893C512.916 406.514 512.436 405.285 511.614 404.204C510.803 403.127 509.671 402.312 508.219 401.757C506.619 401.147 505.083 401.016 503.612 401.364C502.155 401.705 500.875 402.386 499.77 403.407C498.665 404.428 497.838 405.66 497.288 407.101L496.404 409.415C495.651 411.389 495.352 413.193 495.509 414.826C495.681 416.452 496.244 417.856 497.196 419.038C498.153 420.21 499.443 421.105 501.065 421.724C502.121 422.127 503.13 422.343 504.094 422.373C505.073 422.396 505.989 422.226 506.843 421.863C507.701 421.488 508.473 420.912 509.16 420.134L512.625 422.705C511.714 423.865 510.586 424.76 509.24 425.391C507.899 426.01 506.413 426.326 504.783 426.341C503.156 426.344 501.458 426.008 499.688 425.332Z" fill="white"/>
<path d="M531.163 443.976L539.683 397.902L543.911 398.684L535.391 444.758L531.163 443.976ZM532.793 435.162C530.93 434.818 529.296 434.17 527.891 433.218C526.489 432.255 525.353 431.051 524.484 429.606C523.617 428.148 523.046 426.493 522.771 424.639C522.497 422.785 522.556 420.795 522.949 418.669C523.346 416.52 524.005 414.628 524.925 412.995C525.846 411.35 526.972 410.002 528.303 408.951C529.634 407.9 531.125 407.182 532.777 406.796C534.432 406.398 536.191 406.371 538.054 406.716L539.343 406.954L534.083 435.401L532.793 435.162ZM533.496 431.365L534.212 431.497L538.068 410.646L537.351 410.513C535.942 410.253 534.665 410.313 533.52 410.694C532.377 411.063 531.375 411.674 530.513 412.528C529.666 413.372 528.959 414.389 528.392 415.582C527.838 416.776 527.433 418.066 527.177 419.451C526.836 421.29 526.813 423.052 527.107 424.737C527.401 426.421 528.067 427.86 529.106 429.052C530.146 430.245 531.609 431.016 533.496 431.365ZM537.021 435.944L535.731 435.706L540.991 407.259L542.281 407.497C544.144 407.842 545.777 408.496 547.18 409.459C548.585 410.411 549.721 411.615 550.588 413.072C551.454 414.529 552.024 416.191 552.297 418.057C552.571 419.911 552.51 421.912 552.112 424.062C551.719 426.188 551.063 428.067 550.143 429.7C549.224 431.334 548.099 432.676 546.768 433.726C545.44 434.765 543.948 435.484 542.294 435.882C540.642 436.268 538.884 436.289 537.021 435.944ZM537.723 432.146C539.144 432.409 540.419 432.361 541.548 432.001C542.691 431.632 543.686 431.026 544.533 430.182C545.395 429.329 546.102 428.311 546.654 427.129C547.221 425.936 547.631 424.654 547.885 423.28C548.225 421.441 548.249 419.673 547.958 417.977C547.666 416.28 547.002 414.83 545.965 413.625C544.928 412.421 543.466 411.644 541.579 411.295L540.862 411.162L537.007 432.014L537.723 432.146Z" fill="white"/>
<path d="M567.715 412.623C566.752 412.754 565.812 413.12 564.896 413.723C563.991 414.324 563.262 415.063 562.709 415.938C562.167 416.801 561.956 417.714 562.075 418.678L557.88 419.196C557.731 417.99 557.878 416.798 558.319 415.617C558.761 414.437 559.417 413.353 560.286 412.364C561.167 411.375 562.203 410.549 563.395 409.888C564.598 409.226 565.874 408.811 567.224 408.645C569.756 408.333 571.98 408.707 573.897 409.767C575.827 410.826 577.379 412.348 578.554 414.332C579.741 416.315 580.486 418.536 580.789 420.995L580.914 422.007C581.216 424.454 581.033 426.79 580.365 429.013C579.708 431.224 578.572 433.077 576.958 434.573C575.356 436.068 573.289 436.972 570.758 437.284C568.733 437.534 566.876 437.31 565.187 436.613C563.496 435.904 562.106 434.852 561.016 433.457C559.926 432.061 559.267 430.442 559.04 428.598L563.234 428.08C563.364 429.129 563.78 430.075 564.484 430.918C565.198 431.747 566.066 432.387 567.089 432.836C568.121 433.271 569.181 433.428 570.267 433.306C571.881 433.095 573.192 432.419 574.202 431.279C575.212 430.139 575.919 428.779 576.323 427.199C576.728 425.62 576.836 424.065 576.647 422.534L576.522 421.521C576.329 419.954 575.845 418.46 575.07 417.038C574.305 415.603 573.296 414.461 572.041 413.612C570.798 412.762 569.356 412.432 567.715 412.623ZM578.053 419.644L578.544 423.621L566.394 425.12L565.903 421.143L578.053 419.644Z" fill="white"/>
<path d="M620.538 413.875C618.692 415.739 616.663 416.909 614.449 417.384C612.236 417.859 609.998 417.694 607.736 416.89C605.473 416.085 603.349 414.701 601.364 412.736C599.344 410.736 597.929 408.601 597.119 406.329C596.308 404.04 596.129 401.796 596.582 399.595C597.034 397.377 598.149 395.37 599.926 393.575C601.31 392.177 602.817 391.173 604.445 390.563C606.074 389.954 607.709 389.752 609.35 389.959C610.992 390.165 612.519 390.797 613.933 391.855L610.908 394.91C609.771 394.246 608.456 393.969 606.962 394.08C605.469 394.174 604.055 394.894 602.722 396.24C601.543 397.431 600.82 398.783 600.553 400.296C600.286 401.792 600.466 403.345 601.092 404.956C601.719 406.551 602.783 408.091 604.285 409.578C605.821 411.098 607.398 412.181 609.016 412.826C610.642 413.461 612.21 413.647 613.721 413.381C615.239 413.107 616.597 412.366 617.793 411.158C618.579 410.364 619.154 409.506 619.519 408.585C619.883 407.665 620.029 406.724 619.955 405.762C619.882 404.801 619.576 403.866 619.039 402.959L622.064 399.903C623.067 401.238 623.701 402.712 623.967 404.325C624.233 405.921 624.091 407.549 623.541 409.209C622.991 410.852 621.99 412.407 620.538 413.875Z" fill="white"/>
<path d="M640.56 382.704C639.522 385.192 638.077 387.109 636.226 388.455C634.368 389.786 632.243 390.524 629.853 390.672C627.455 390.803 624.934 390.317 622.289 389.213C619.644 388.109 617.514 386.654 615.899 384.848C614.277 383.027 613.262 381.011 612.855 378.801C612.442 376.576 612.721 374.297 613.694 371.966C614.256 370.621 615.034 369.386 616.03 368.262C617.025 367.138 618.252 366.248 619.71 365.593C621.156 364.934 622.837 364.628 624.751 364.677C626.665 364.726 628.827 365.253 631.237 366.258L632.918 366.96L624.611 386.865L621.181 385.434L627.804 369.564C626.347 368.956 624.926 368.704 623.539 368.81C622.157 368.905 620.914 369.346 619.808 370.135C618.707 370.913 617.857 372.019 617.259 373.453C616.599 375.034 616.421 376.565 616.723 378.047C617.02 379.513 617.661 380.813 618.648 381.949C619.635 383.085 620.84 383.95 622.264 384.544L624.55 385.498C626.5 386.312 628.294 386.665 629.931 386.559C631.561 386.436 632.982 385.917 634.193 385.001C635.393 384.081 636.327 382.819 636.996 381.217C637.431 380.174 637.678 379.172 637.738 378.21C637.791 377.232 637.649 376.31 637.312 375.446C636.964 374.577 636.412 373.787 635.655 373.077L638.331 369.693C639.463 370.639 640.323 371.794 640.912 373.158C641.489 374.518 641.76 376.013 641.725 377.643C641.678 379.269 641.29 380.955 640.56 382.704Z" fill="white"/>
<path d="M647.117 361.131L619.577 356.173L620.339 351.942L632.316 354.098L632.819 351.301L622.624 339.248L623.605 333.798L634.872 347.302L651.17 338.612L650.189 344.062L636.944 351.007L636.26 354.808L647.878 356.9L647.117 361.131Z" fill="white"/>
<path d="M662.372 330.626L623.931 329.013L624.105 324.864L628.546 325.05L628.567 324.54C628.095 324.204 627.495 323.742 626.766 323.152C626.025 322.549 625.38 321.708 624.83 320.627C624.268 319.534 624.025 318.077 624.101 316.257C624.2 313.903 624.876 311.853 626.128 310.106C627.38 308.36 629.108 307.028 631.31 306.112C633.512 305.195 636.081 304.799 639.018 304.922C641.978 305.046 644.524 305.657 646.654 306.756C648.771 307.853 650.387 309.319 651.501 311.153C652.604 312.986 653.106 315.067 653.008 317.397C652.933 319.193 652.575 320.618 651.935 321.673C651.283 322.728 650.563 323.53 649.774 324.081C648.973 324.63 648.311 325.052 647.788 325.347L647.773 325.711L662.552 326.331L662.372 330.626ZM638.087 325.377C640.198 325.466 642.074 325.234 643.713 324.683C645.341 324.132 646.635 323.28 647.595 322.129C648.543 320.978 649.053 319.541 649.125 317.818C649.2 316.022 648.79 314.503 647.894 313.262C646.986 312.009 645.738 311.045 644.15 310.37C642.55 309.683 640.755 309.298 638.765 309.214C636.799 309.132 635.015 309.361 633.412 309.901C631.797 310.429 630.503 311.281 629.53 312.455C628.546 313.617 628.015 315.109 627.939 316.929C627.865 318.676 628.247 320.163 629.083 321.389C629.906 322.615 631.094 323.564 632.646 324.237C634.186 324.91 636 325.29 638.087 325.377Z" fill="white"/>
<path d="M652.799 285.301C652.922 287.994 652.434 290.344 651.334 292.352C650.221 294.348 648.616 295.923 646.516 297.076C644.405 298.218 641.917 298.855 639.054 298.985C636.191 299.116 633.643 298.71 631.412 297.766C629.168 296.811 627.39 295.421 626.079 293.596C624.755 291.76 624.035 289.58 623.92 287.057C623.854 285.601 624.031 284.152 624.451 282.711C624.872 281.269 625.601 279.941 626.64 278.726C627.666 277.512 629.056 276.519 630.808 275.746C632.559 274.973 634.74 274.527 637.348 274.408L639.168 274.325L640.152 295.872L636.439 296.041L635.655 278.862C634.078 278.934 632.685 279.313 631.476 280.001C630.267 280.676 629.331 281.606 628.667 282.792C628.004 283.965 627.707 285.328 627.778 286.881C627.856 288.591 628.348 290.052 629.255 291.263C630.148 292.462 631.284 293.365 632.661 293.97C634.038 294.576 635.497 294.844 637.038 294.774L639.513 294.661C641.624 294.564 643.397 294.119 644.831 293.324C646.254 292.517 647.317 291.441 648.021 290.096C648.714 288.751 649.02 287.212 648.941 285.477C648.89 284.348 648.685 283.337 648.328 282.441C647.959 281.534 647.437 280.761 646.764 280.123C646.078 279.486 645.242 279.008 644.254 278.688L645.23 274.486C646.657 274.858 647.928 275.536 649.043 276.518C650.145 277.501 651.028 278.737 651.692 280.227C652.344 281.717 652.713 283.408 652.799 285.301Z" fill="white"/>
<path d="M659.359 254.206L612.784 259.315L612.315 255.041L658.89 249.932L659.359 254.206ZM650.45 255.183C650.656 257.066 650.506 258.817 650 260.437C649.481 262.058 648.655 263.492 647.521 264.741C646.375 265.99 644.954 267.014 643.258 267.811C641.562 268.608 639.639 269.124 637.49 269.36C635.317 269.598 633.316 269.512 631.487 269.102C629.646 268.693 628.031 268.003 626.642 267.031C625.252 266.059 624.135 264.838 623.289 263.367C622.432 261.897 621.9 260.221 621.693 258.337L621.55 257.033L650.307 253.879L650.45 255.183ZM646.611 255.604L646.531 254.88L625.453 257.192L625.532 257.916C625.688 259.341 626.114 260.546 626.809 261.533C627.491 262.521 628.365 263.305 629.431 263.884C630.483 264.453 631.661 264.837 632.966 265.036C634.269 265.223 635.621 265.24 637.021 265.086C638.88 264.882 640.574 264.397 642.103 263.631C643.632 262.864 644.818 261.812 645.66 260.473C646.503 259.134 646.82 257.511 646.611 255.604ZM649.981 250.909L650.124 252.213L621.367 255.367L621.224 254.064C621.018 252.18 621.174 250.428 621.692 248.807C622.199 247.188 623.025 245.753 624.171 244.504C625.317 243.254 626.744 242.23 628.452 241.432C630.149 240.635 632.083 240.117 634.256 239.879C636.405 239.643 638.394 239.73 640.223 240.141C642.052 240.551 643.661 241.242 645.05 242.213C646.428 243.186 647.545 244.408 648.403 245.878C649.248 247.349 649.774 249.026 649.981 250.909ZM646.142 251.33C645.984 249.894 645.571 248.687 644.902 247.709C644.219 246.721 643.352 245.943 642.3 245.374C641.234 244.795 640.056 244.411 638.765 244.222C637.46 244.023 636.113 244 634.725 244.152C632.866 244.356 631.166 244.842 629.625 245.61C628.084 246.377 626.887 247.431 626.032 248.771C625.177 250.111 624.854 251.735 625.063 253.642L625.143 254.367L646.221 252.055L646.142 251.33Z" fill="white"/>
<path d="M621.165 222.691C621.291 223.655 621.653 224.596 622.251 225.516C622.848 226.424 623.583 227.156 624.456 227.713C625.316 228.259 626.228 228.475 627.193 228.361L627.691 232.558C626.484 232.701 625.292 232.548 624.114 232.101C622.936 231.654 621.855 230.993 620.871 230.119C619.885 229.233 619.065 228.193 618.41 226.998C617.753 225.792 617.345 224.514 617.185 223.163C616.884 220.63 617.269 218.408 618.339 216.495C619.407 214.571 620.936 213.026 622.926 211.861C624.915 210.683 627.139 209.949 629.6 209.657L630.613 209.537C633.061 209.247 635.395 209.441 637.616 210.12C639.823 210.788 641.671 211.932 643.159 213.554C644.647 215.163 645.54 217.234 645.84 219.767C646.08 221.793 645.848 223.649 645.143 225.335C644.425 227.022 643.366 228.407 641.966 229.49C640.566 230.573 638.943 231.224 637.098 231.443L636.6 227.246C637.65 227.122 638.597 226.71 639.444 226.01C640.277 225.3 640.921 224.435 641.375 223.415C641.815 222.384 641.977 221.325 641.86 220.239C641.657 218.624 640.987 217.309 639.852 216.294C638.717 215.279 637.36 214.565 635.782 214.153C634.205 213.741 632.65 213.625 631.119 213.807L630.105 213.927C628.538 214.113 627.041 214.59 625.615 215.358C624.177 216.115 623.03 217.12 622.175 218.37C621.319 219.609 620.982 221.05 621.165 222.691ZM628.235 212.387L632.215 211.916L633.656 224.073L629.676 224.544L628.235 212.387Z" fill="white"/>
<path d="M643.268 178.746C643.275 181.37 642.662 183.63 641.429 185.529C640.196 187.427 638.493 188.889 636.322 189.915C634.151 190.942 631.669 191.459 628.876 191.467C626.034 191.475 623.525 190.96 621.348 189.922C619.159 188.872 617.448 187.407 616.216 185.528C614.972 183.637 614.346 181.428 614.339 178.902C614.333 176.935 614.692 175.161 615.417 173.58C616.141 171.999 617.157 170.702 618.466 169.691C619.775 168.679 621.303 168.049 623.051 167.801L623.064 172.1C621.789 172.432 620.662 173.164 619.681 174.296C618.689 175.416 618.195 176.924 618.201 178.818C618.205 180.494 618.647 181.963 619.525 183.223C620.391 184.472 621.614 185.446 623.195 186.146C624.764 186.833 626.605 187.174 628.718 187.168C630.88 187.162 632.761 186.817 634.362 186.132C635.963 185.435 637.205 184.46 638.088 183.206C638.971 181.941 639.41 180.458 639.406 178.757C639.402 177.64 639.205 176.627 638.814 175.717C638.423 174.807 637.862 174.038 637.131 173.408C636.401 172.779 635.525 172.332 634.504 172.068L634.492 167.768C636.144 168.006 637.634 168.603 638.96 169.559C640.274 170.503 641.323 171.757 642.104 173.321C642.874 174.873 643.262 176.682 643.268 178.746Z" fill="white"/>
<path d="M644.684 152.612C644.382 155.291 643.53 157.536 642.128 159.345C640.716 161.142 638.882 162.444 636.628 163.254C634.363 164.049 631.806 164.286 628.958 163.965C626.11 163.644 623.658 162.842 621.603 161.56C619.537 160.263 618 158.611 616.992 156.603C615.973 154.582 615.605 152.316 615.888 149.806C616.051 148.357 616.454 146.954 617.096 145.597C617.738 144.239 618.667 143.042 619.884 142.006C621.089 140.969 622.617 140.206 624.468 139.718C626.32 139.23 628.543 139.133 631.138 139.425L632.948 139.629L630.532 161.063L626.839 160.647L628.765 143.558C627.197 143.381 625.761 143.537 624.459 144.026C623.159 144.502 622.088 145.274 621.247 146.34C620.407 147.394 619.9 148.694 619.726 150.238C619.534 151.94 619.79 153.46 620.495 154.798C621.189 156.123 622.168 157.193 623.433 158.008C624.698 158.822 626.097 159.316 627.629 159.489L630.091 159.767C632.191 160.003 634.012 159.842 635.554 159.283C637.085 158.71 638.304 157.814 639.212 156.597C640.107 155.378 640.652 153.905 640.846 152.179C640.973 151.057 640.93 150.026 640.718 149.085C640.496 148.131 640.102 147.286 639.538 146.55C638.961 145.813 638.21 145.209 637.285 144.738L638.909 140.741C640.26 141.334 641.409 142.203 642.355 143.348C643.29 144.492 643.967 145.852 644.389 147.427C644.798 149.001 644.896 150.729 644.684 152.612Z" fill="white"/>
<path d="M646.173 137.2L619.295 129.42L620.49 125.29L632.179 128.674L632.969 125.944L624.076 112.901L625.616 107.581L635.425 122.179L652.535 115.222L650.995 120.541L637.103 126.079L636.029 129.788L647.368 133.071L646.173 137.2Z" fill="white"/>
<path d="M661.79 119.618L628.77 99.8695L630.902 96.3049L634.717 98.5864L634.979 98.1487C634.724 97.6283 634.417 96.9352 634.057 96.0692C633.694 95.1866 633.528 94.1392 633.559 92.9269C633.587 91.698 634.068 90.3018 635.003 88.7384C636.212 86.7164 637.784 85.2364 639.717 84.2985C641.651 83.3606 643.804 83.0139 646.177 83.2584C648.55 83.5029 650.997 84.3795 653.52 85.8881C656.063 87.4091 658.008 89.1601 659.357 91.1411C660.695 93.1158 661.416 95.1747 661.521 97.3178C661.616 99.4547 661.065 101.524 659.868 103.525C658.945 105.067 657.951 106.15 656.886 106.772C655.81 107.388 654.794 107.75 653.838 107.857C652.872 107.959 652.088 108.014 651.489 108.023L651.302 108.336L663.997 115.929L661.79 119.618ZM642.947 103.424C644.76 104.508 646.519 105.2 648.223 105.497C649.917 105.788 651.46 105.657 652.853 105.103C654.235 104.543 655.369 103.523 656.254 102.043C657.177 100.5 657.54 98.9699 657.344 97.4518C657.144 95.917 656.507 94.4745 655.432 93.1242C654.354 91.7573 652.96 90.5627 651.25 89.5404C649.562 88.5305 647.884 87.8809 646.217 87.5917C644.547 87.2858 643.003 87.4171 641.588 87.9856C640.168 88.5374 638.991 89.5951 638.056 91.1585C637.158 92.6594 636.784 94.1481 636.934 95.6247C637.074 97.0949 637.665 98.4959 638.708 99.8274C639.741 101.153 641.154 102.351 642.947 103.424Z" fill="white"/>
<path d="M674.864 86.0362C672.789 87.7569 670.618 88.783 668.353 89.1146C666.09 89.4291 663.866 89.096 661.68 88.1154C659.497 87.1176 657.49 85.5155 655.661 83.3088C653.832 81.1022 652.622 78.8242 652.031 76.4746C651.441 74.1079 651.48 71.8517 652.146 69.706C652.814 67.5431 654.121 65.6556 656.065 64.0435C657.187 63.1134 658.45 62.3819 659.854 61.849C661.258 61.3162 662.758 61.0985 664.353 61.1959C665.94 61.284 667.57 61.7943 669.243 62.727C670.915 63.6597 672.584 65.1311 674.251 67.1414L675.413 68.5439L658.808 82.3093L656.436 79.4482L669.676 68.4731C668.668 67.2576 667.526 66.3745 666.249 65.8238C664.982 65.2654 663.675 65.0785 662.33 65.2632C660.993 65.4401 659.727 66.0247 658.53 67.0168C657.212 68.1096 656.342 69.3825 655.922 70.8353C655.503 72.2711 655.467 73.721 655.813 75.1851C656.159 76.6493 656.824 77.9751 657.808 79.1626L659.389 81.07C660.738 82.6969 662.162 83.8435 663.661 84.5098C665.161 85.159 666.66 85.3596 668.159 85.1115C669.649 84.8541 671.063 84.1712 672.4 83.0629C673.269 82.3421 673.954 81.5694 674.454 80.745C674.955 79.9035 675.257 79.0218 675.361 78.1C675.456 77.1688 675.335 76.2129 674.995 75.2324L678.937 73.4792C679.499 74.8429 679.724 76.2655 679.611 77.7471C679.491 79.2194 679.036 80.669 678.247 82.096C677.451 83.5137 676.323 84.8271 674.864 86.0362Z" fill="white"/>
<path d="M697.352 83.2722L682.422 38.8595L686.497 37.4895L701.427 81.9022L697.352 83.2722ZM694.496 74.7764C692.7 75.3801 690.957 75.6073 689.267 75.458C687.573 75.2971 685.995 74.7961 684.534 73.9549C683.068 73.1022 681.765 71.9322 680.625 70.445C679.484 68.9577 678.569 67.1896 677.88 65.1405C677.184 63.0683 676.841 61.0952 676.851 59.2209C676.858 57.3352 677.188 55.6099 677.841 54.0452C678.493 52.4804 679.448 51.128 680.705 49.988C681.958 48.8365 683.482 47.9589 685.278 47.3552L686.522 46.9373L695.739 74.3585L694.496 74.7764ZM693.266 71.1156L693.956 70.8835L687.2 50.7838L686.509 51.016C685.15 51.4726 684.063 52.1456 683.248 53.0348C682.428 53.9125 681.849 54.9337 681.51 56.0982C681.179 57.2474 681.055 58.4805 681.139 59.7976C681.235 61.1109 681.507 62.4352 681.956 63.7705C682.552 65.5434 683.387 67.0947 684.462 68.4247C685.537 69.7546 686.818 70.6885 688.306 71.2262C689.793 71.7639 691.447 71.7271 693.266 71.1156ZM698.571 73.4065L697.328 73.8244L688.11 46.4032L689.353 45.9853C691.149 45.3816 692.894 45.1601 694.588 45.321C696.279 45.4703 697.856 45.9713 699.322 46.824C700.787 47.6768 702.092 48.8525 703.237 50.3512C704.377 51.8385 705.296 53.6182 705.992 55.6903C706.681 57.7394 707.02 59.7011 707.01 61.5753C706.999 63.4495 706.667 65.169 706.015 66.7338C705.358 68.287 704.403 69.6394 703.15 70.7909C701.894 71.9309 700.367 72.8028 698.571 73.4065ZM697.341 69.7457C698.711 69.2852 699.802 68.6238 700.614 67.7614C701.433 66.8837 702.009 65.8702 702.34 64.7211C702.679 63.5565 702.802 62.3234 702.711 61.0217C702.627 59.7046 702.362 58.3841 701.917 57.0602C701.321 55.2874 700.484 53.7303 699.405 52.3888C698.326 51.0474 697.041 50.102 695.55 49.5528C694.058 49.0035 692.403 49.0346 690.584 49.646L689.893 49.8782L696.65 69.9779L697.341 69.7457Z" fill="white"/>
<path d="M720.31 44.4248C719.341 44.4894 718.378 44.7909 717.422 45.3292C716.478 45.8668 715.701 46.5535 715.089 47.3893C714.489 48.2124 714.215 49.109 714.268 50.0792L710.047 50.3077C709.982 49.095 710.21 47.915 710.732 46.7678C711.253 45.6206 711.982 44.5838 712.917 43.6575C713.864 42.7305 714.954 41.9782 716.188 41.4006C717.434 40.8223 718.736 40.4964 720.094 40.4228C722.641 40.285 724.834 40.8108 726.674 42.0005C728.526 43.1894 729.97 44.814 731.006 46.8742C732.054 48.9338 732.645 51.2006 732.779 53.6745L732.834 54.6932C732.968 57.155 732.625 59.4723 731.806 61.6451C730.999 63.8051 729.738 65.5761 728.025 66.9581C726.324 68.3394 724.2 69.099 721.654 69.2369C719.616 69.3472 717.779 68.9966 716.142 68.1852C714.504 67.3617 713.189 66.2166 712.198 64.75C711.206 63.2833 710.66 61.6223 710.56 59.7668L714.78 59.5383C714.837 60.5934 715.188 61.5657 715.832 62.4552C716.487 63.3319 717.31 64.0293 718.298 64.5474C719.299 65.0527 720.345 65.2819 721.437 65.2349C723.061 65.1348 724.416 64.5507 725.502 63.4824C726.587 62.4141 727.386 61.106 727.898 59.5579C728.41 58.0098 728.625 56.4657 728.541 54.9256L728.486 53.9069C728.401 52.3304 728.02 50.8063 727.345 49.3347C726.681 47.8504 725.752 46.6418 724.558 45.7091C723.376 44.7757 721.96 44.3476 720.31 44.4248ZM730.142 52.1388L730.359 56.1408L718.135 56.8026L717.918 52.8006L730.142 52.1388Z" fill="white"/>
<path d="M759.496 72.019C756.917 71.5365 754.81 70.5121 753.176 68.946C751.542 67.3799 750.423 65.4346 749.82 63.1101C749.217 60.7856 749.173 58.2505 749.686 55.5049C750.209 52.7114 751.184 50.3424 752.61 48.3976C754.051 46.4432 755.809 45.0363 757.885 44.1768C759.975 43.3077 762.262 43.1054 764.745 43.57C766.679 43.9319 768.355 44.6162 769.773 45.6229C771.191 46.6295 772.274 47.8702 773.024 49.3449C773.773 50.8196 774.107 52.4388 774.024 54.2025L769.798 53.4117C769.71 52.0979 769.202 50.8537 768.272 49.679C767.357 48.4946 765.969 47.7281 764.106 47.3796C762.459 47.0713 760.934 47.2308 759.532 47.858C758.143 48.4755 756.958 49.4954 755.975 50.9177C755.007 52.3304 754.328 54.0752 753.939 56.1524C753.542 58.2773 753.53 60.1902 753.903 61.8911C754.289 63.5942 755.015 64.9965 756.081 66.098C757.16 67.2018 758.535 67.9101 760.206 68.2228C761.304 68.4283 762.337 68.4238 763.304 68.2094C764.27 67.9949 765.131 67.5876 765.886 66.9875C766.641 66.3874 767.243 65.6106 767.694 64.657L771.919 65.4478C771.377 67.0266 770.512 68.3784 769.326 69.5031C768.153 70.6181 766.726 71.4136 765.043 71.8894C763.374 72.3556 761.525 72.3987 759.496 72.019Z" fill="white"/>
<path d="M785.375 78.6832C782.811 77.8508 780.782 76.5668 779.29 74.831C777.813 73.0875 776.904 71.0303 776.562 68.6595C776.236 66.2808 776.516 63.7284 777.401 61.0023C778.286 58.2761 779.562 56.0346 781.231 54.2777C782.914 52.5131 784.841 51.338 787.01 50.7524C789.194 50.1591 791.488 50.2524 793.891 51.0323C795.277 51.4822 796.571 52.1575 797.772 53.0583C798.974 53.959 799.96 55.1092 800.732 56.5088C801.507 57.8969 801.948 59.5468 802.056 61.4586C802.163 63.3704 801.814 65.5681 801.007 68.0517L800.445 69.7844L779.929 63.1254L781.077 59.5906L797.434 64.8998C797.921 63.3981 798.056 61.9606 797.838 60.5874C797.631 59.2179 797.089 58.0143 796.213 56.9766C795.349 55.9426 794.177 55.1856 792.698 54.7057C791.07 54.177 789.529 54.1239 788.077 54.5463C786.64 54.9609 785.396 55.7062 784.344 56.7822C783.292 57.8582 782.529 59.1298 782.052 60.5968L781.288 62.9533C780.635 64.9633 780.429 66.7797 780.668 68.4024C780.923 70.0173 781.556 71.3911 782.567 72.5238C783.582 73.6449 784.916 74.4736 786.568 75.0098C787.642 75.3585 788.661 75.5233 789.625 75.5041C790.604 75.4772 791.511 75.2607 792.345 74.8547C793.183 74.4371 793.925 73.8225 794.571 73.0109L798.162 75.4022C797.311 76.6072 796.23 77.5586 794.918 78.2564C793.61 78.9427 792.142 79.3345 790.514 79.4319C788.89 79.5177 787.177 79.2681 785.375 78.6832Z" fill="white"/>
</g>
<defs>
<clipPath id="clip0_2_528">
<rect width="815" height="452" fill="white"/>
</clipPath>
</defs>
</svg>
