<svg width="3300" height="172" viewBox="0 0 3300 172" fill="none" xmlns="http://www.w3.org/2000/svg">
<path d="M45.8931 108.897C51.3572 121.26 60.3322 131.746 71.7037 139.053C83.0752 146.36 96.3424 150.166 109.858 149.999L109.004 81.0038L45.8931 108.897Z" fill="white"/>
<path d="M1551.89 92.8969C1557.36 105.26 1566.33 115.746 1577.7 123.053C1589.08 130.36 1602.34 134.166 1615.86 133.999L1615 65.0038L1551.89 92.8969Z" fill="white"/>
<path d="M293.442 64.0919C289.064 74.7639 287.431 86.3631 288.693 97.8289C289.955 109.295 294.072 120.261 300.666 129.725C307.26 139.19 316.122 146.85 326.441 152.005C336.76 157.16 348.207 159.646 359.734 159.236L357.279 90.2797L293.442 64.0919Z" fill="white"/>
<path d="M610.713 21.5807C592.413 21.5455 574.849 28.7813 561.884 41.6964C548.919 54.6115 541.616 72.1479 541.581 90.4478C541.545 108.748 548.781 126.312 561.696 139.277C574.611 152.242 592.148 159.545 610.448 159.58L610.58 90.5806L610.713 21.5807Z" fill="white"/>
<path d="M893.459 33.8162C884.518 27.8843 874.316 24.1194 863.665 22.8209C853.014 21.5223 842.206 22.7257 832.101 26.3355C821.997 29.9453 812.873 35.862 805.456 43.6155C798.038 51.369 792.531 60.7456 789.372 71.0002C786.213 81.2548 785.489 92.1049 787.258 102.688C789.027 113.272 793.24 123.297 799.562 131.967C805.884 140.637 814.141 147.713 823.676 152.633C833.212 157.553 843.764 160.181 854.493 160.309L855.314 91.3137L893.459 33.8162Z" fill="white"/>
<path d="M1168.56 89.5526C1168.36 75.9072 1164.12 62.6279 1156.37 51.394C1148.62 40.16 1137.72 31.476 1125.03 26.4401C1112.35 21.4041 1098.46 20.2424 1085.11 23.1019C1071.77 25.9614 1059.57 32.7136 1050.07 42.5047C1040.56 52.2958 1034.17 64.686 1031.7 78.1085C1029.24 91.531 1030.81 105.383 1036.22 117.913C1041.63 130.442 1050.63 141.087 1062.09 148.501C1073.54 155.914 1086.94 159.764 1100.59 159.563L1099.57 90.5702L1168.56 89.5526Z" fill="white"/>
<circle cx="1360.57" cy="92.5702" r="69" transform="rotate(-45.845 1360.57 92.5702)" fill="white"/>
<path d="M3001.89 75.8969C3007.36 88.26 3016.33 98.7459 3027.7 106.053C3039.08 113.36 3052.34 117.166 3065.86 116.999L3065 48.0038L3001.89 75.8969Z" fill="white"/>
<path d="M1743.44 47.0919C1739.06 57.7639 1737.43 69.3631 1738.69 80.8289C1739.96 92.2947 1744.07 103.261 1750.67 112.725C1757.26 122.19 1766.12 129.85 1776.44 135.005C1786.76 140.16 1798.21 142.646 1809.73 142.236L1807.28 73.2797L1743.44 47.0919Z" fill="white"/>
<path d="M3182.44 38.0919C3178.06 48.7639 3176.43 60.3631 3177.69 71.8289C3178.96 83.2947 3183.07 94.2612 3189.67 103.725C3196.26 113.19 3205.12 120.85 3215.44 126.005C3225.76 131.16 3237.21 133.646 3248.73 133.236L3246.28 64.2797L3182.44 38.0919Z" fill="white"/>
<path d="M2060.71 4.58071C2042.41 4.54548 2024.85 11.7813 2011.88 24.6964C1998.92 37.6115 1991.62 55.1479 1991.58 73.4478C1991.55 91.7477 1998.78 109.312 2011.7 122.277C2024.61 135.242 2042.15 142.545 2060.45 142.58L2060.58 73.5806L2060.71 4.58071Z" fill="white"/>
<path d="M2343.46 16.8162C2334.52 10.8843 2324.32 7.11945 2313.66 5.82085C2303.01 4.52226 2292.21 5.72567 2282.1 9.33549C2272 12.9453 2262.87 18.862 2255.46 26.6155C2248.04 34.369 2242.53 43.7456 2239.37 54.0002C2236.21 64.2548 2235.49 75.1049 2237.26 85.6882C2239.03 96.2716 2243.24 106.297 2249.56 114.967C2255.88 123.637 2264.14 130.713 2273.68 135.633C2283.21 140.553 2293.76 143.181 2304.49 143.309L2305.31 74.3137L2343.46 16.8162Z" fill="white"/>
<path d="M2618.56 72.5526C2618.36 58.9072 2614.12 45.6279 2606.37 34.394C2598.62 23.16 2587.72 14.476 2575.03 9.44006C2562.35 4.40412 2548.46 3.24243 2535.11 6.10191C2521.77 8.96139 2509.57 15.7136 2500.07 25.5047C2490.56 35.2958 2484.17 47.686 2481.7 61.1085C2479.24 74.531 2480.81 88.3829 2486.22 100.913C2491.63 113.442 2500.63 124.087 2512.09 131.501C2523.54 138.914 2536.94 142.764 2550.59 142.563L2549.57 73.5702L2618.56 72.5526Z" fill="white"/>
<circle cx="2810.57" cy="75.5702" r="69" transform="rotate(-45.845 2810.57 75.5702)" fill="white"/>
</svg>
