<svg width="79" height="176" viewBox="0 0 79 176" fill="none" xmlns="http://www.w3.org/2000/svg">
<g clip-path="url(#clip0_5_570)">
<path d="M28.4532 122.362C27.317 122.362 26.3039 122.267 25.4138 122.078C24.5238 121.907 23.9083 121.737 23.5675 121.566L25.2718 115.658C26.9004 116.074 28.3396 116.226 29.5894 116.112C30.8393 115.999 31.9471 115.44 32.9129 114.436C33.8976 113.452 34.7971 111.852 35.6114 109.636L36.8612 106.227L20.7269 62.3692H27.9987L40.0427 97.1375H40.4972L52.5411 62.3692H59.8129L41.2925 112.363C40.4593 114.616 39.4272 116.482 38.1963 117.959C36.9654 119.455 35.5357 120.563 33.9071 121.282C32.2974 122.002 30.4795 122.362 28.4532 122.362Z" fill="white"/>
<rect x="2.2" y="2.2" width="74.745" height="171.478" stroke="white" stroke-width="4.4"/>
</g>
<defs>
<clipPath id="clip0_5_570">
<rect width="79" height="176" fill="white"/>
</clipPath>
</defs>
</svg>
