<svg width="79" height="176" viewBox="0 0 79 176" fill="none" xmlns="http://www.w3.org/2000/svg">
<g clip-path="url(#clip0_5_570)">
<rect x="2.2" y="2.2" width="74.745" height="171.478" stroke="white" stroke-width="4.4"/>
<path d="M21.9303 90.1626H34.4287C39.5417 90.1626 43.4522 91.4598 46.1602 94.0542C48.8682 96.6485 50.2222 99.9341 50.2222 103.911C50.2222 106.524 49.6162 108.901 48.4042 111.041C47.1923 113.162 45.4122 114.856 43.064 116.125C40.7158 117.375 37.8374 118 34.4287 118H16.1356V74.3692H22.8393V111.751H34.4287C37.0799 111.751 39.2577 111.05 40.962 109.649C42.6663 108.247 43.5185 106.448 43.5185 104.252C43.5185 101.941 42.6663 100.057 40.962 98.599C39.2577 97.1409 37.0799 96.4118 34.4287 96.4118H21.9303V90.1626ZM57.1531 118V74.3692H63.8568V118H57.1531Z" fill="white"/>
</g>
<defs>
<clipPath id="clip0_5_570">
<rect width="79" height="176" fill="white"/>
</clipPath>
</defs>
</svg>
