<svg width="79" height="176" viewBox="0 0 79 176" fill="none" xmlns="http://www.w3.org/2000/svg">
<g clip-path="url(#clip0_5_570)">
<rect x="2.2" y="2.2" width="74.745" height="171.478" stroke="white" stroke-width="4.4"/>
<path d="M40.4287 118.909C36.2247 118.909 32.5983 117.981 29.5494 116.125C26.5195 114.25 24.1808 111.637 22.5333 108.285C20.9047 104.915 20.0904 100.995 20.0904 96.5254C20.0904 92.0563 20.9047 88.1174 22.5333 84.7088C24.1808 81.2812 26.4722 78.611 29.4074 76.6984C32.3616 74.7668 35.8081 73.8011 39.747 73.8011C42.0194 73.8011 44.2635 74.1798 46.4791 74.9373C48.6947 75.6948 50.7115 76.9257 52.5295 78.63C54.3474 80.3154 55.7961 82.5499 56.8755 85.3337C57.9549 88.1174 58.4946 91.545 58.4946 95.6165V98.457H24.8625V92.6623H51.6773C51.6773 90.2005 51.1849 88.0038 50.2002 86.0722C49.2344 84.1407 47.852 82.6162 46.053 81.4989C44.2729 80.3817 42.1709 79.823 39.747 79.823C37.0769 79.823 34.7666 80.4858 32.8161 81.8114C30.8845 83.1181 29.3979 84.8224 28.3564 86.9244C27.3149 89.0264 26.7941 91.2799 26.7941 93.6849V97.548C26.7941 100.843 27.3622 103.636 28.4984 105.928C29.6536 108.2 31.2538 109.933 33.2989 111.126C35.3441 112.3 37.7207 112.887 40.4287 112.887C42.1899 112.887 43.7806 112.641 45.2008 112.148C46.6401 111.637 47.8804 110.88 48.922 109.876C49.9635 108.853 50.7683 107.585 51.3364 106.07L57.8129 107.888C57.1312 110.084 55.9855 112.016 54.3758 113.682C52.7662 115.33 50.7778 116.618 48.4107 117.546C46.0435 118.454 43.3829 118.909 40.4287 118.909Z" fill="white"/>
</g>
<defs>
<clipPath id="clip0_5_570">
<rect width="79" height="176" fill="white"/>
</clipPath>
</defs>
</svg>
