<svg width="79" height="176" viewBox="0 0 79 176" fill="none" xmlns="http://www.w3.org/2000/svg">
<g clip-path="url(#clip0_5_570)">
<rect x="2.2" y="2.2" width="74.745" height="171.478" stroke="white" stroke-width="4.4"/>
<path d="M35.9749 119.023C33.2101 119.023 30.7009 118.502 28.4474 117.46C26.1939 116.4 24.4044 114.875 23.0788 112.887C21.7532 110.88 21.0904 108.456 21.0904 105.615C21.0904 103.116 21.5828 101.089 22.5675 99.5364C23.5522 97.9647 24.8683 96.7338 26.5158 95.8437C28.1634 94.9537 29.9813 94.2909 31.9697 93.8553C33.977 93.4008 35.9938 93.041 38.0201 92.7759C40.6712 92.4351 42.8206 92.1794 44.4681 92.009C46.1346 91.8196 47.3465 91.5071 48.104 91.0716C48.8804 90.636 49.2686 89.8786 49.2686 88.7992V88.5719C49.2686 85.7692 48.5017 83.5915 46.9678 82.0386C45.4528 80.4858 43.152 79.7094 40.0653 79.7094C36.8649 79.7094 34.3558 80.4101 32.5378 81.8114C30.7199 83.2127 29.4416 84.7088 28.7031 86.2995L22.3402 84.027C23.4765 81.3758 24.9914 79.3117 26.8851 77.8346C28.7977 76.3386 30.8808 75.2971 33.1343 74.71C35.4068 74.104 37.6413 73.8011 39.838 73.8011C41.2394 73.8011 42.849 73.9715 44.667 74.3123C46.5038 74.6343 48.2744 75.3065 49.9788 76.3291C51.702 77.3517 53.1318 78.8951 54.268 80.9592C55.4042 83.0234 55.9723 85.7882 55.9723 89.2536V118H49.2686V112.092H48.9278C48.4733 113.039 47.7158 114.052 46.6553 115.131C45.5949 116.21 44.1841 117.129 42.4229 117.886C40.6618 118.644 38.5124 119.023 35.9749 119.023ZM36.9975 113.001C39.6486 113.001 41.8832 112.48 43.7012 111.438C45.5381 110.397 46.9205 109.052 47.8484 107.405C48.7952 105.757 49.2686 104.024 49.2686 102.207V96.071C48.9846 96.4118 48.3597 96.7243 47.3939 97.0083C46.447 97.2735 45.3487 97.5102 44.0988 97.7185C42.8679 97.9078 41.6654 98.0783 40.4913 98.2298C39.3362 98.3623 38.3988 98.476 37.6792 98.5706C35.937 98.7979 34.3084 99.1672 32.7935 99.6785C31.2974 100.171 30.0855 100.919 29.1576 101.922C28.2486 102.907 27.7941 104.252 27.7941 105.956C27.7941 108.285 28.6557 110.046 30.379 111.239C32.1212 112.414 34.3274 113.001 36.9975 113.001Z" fill="white"/>
</g>
<defs>
<clipPath id="clip0_5_570">
<rect width="79" height="176" fill="white"/>
</clipPath>
</defs>
</svg>
