<svg width="79" height="176" viewBox="0 0 79 176" fill="none" xmlns="http://www.w3.org/2000/svg">
<g clip-path="url(#clip0_5_570)">
<rect x="2.2" y="2.2" width="74.745" height="171.478" stroke="white" stroke-width="4.4"/>
<path d="M28.4532 134.362C27.317 134.362 26.3039 134.267 25.4138 134.078C24.5238 133.907 23.9083 133.737 23.5675 133.566L25.2718 127.658C26.9004 128.074 28.3396 128.226 29.5894 128.112C30.8393 127.999 31.9471 127.44 32.9129 126.436C33.8976 125.452 34.7971 123.852 35.6114 121.636L36.8612 118.227L20.7269 74.3692H27.9987L40.0427 109.137H40.4972L52.5411 74.3692H59.8129L41.2925 124.363C40.4593 126.616 39.4272 128.482 38.1963 129.959C36.9654 131.455 35.5357 132.563 33.9071 133.282C32.2974 134.002 30.4795 134.362 28.4532 134.362Z" fill="white"/>
</g>
<defs>
<clipPath id="clip0_5_570">
<rect width="79" height="176" fill="white"/>
</clipPath>
</defs>
</svg>
