<svg width="835" height="217" viewBox="0 0 835 217" fill="none" xmlns="http://www.w3.org/2000/svg">
<path d="M3.93495 110V82.0181H25.9415V110H21.6422V86.026H8.23425V110H3.93495Z" fill="white"/>
<path d="M38.9349 134.493V96.0181H43.0885V100.463H43.5986C43.9144 99.9774 44.3516 99.358 44.9102 98.605C45.4811 97.8399 46.2948 97.1598 47.3514 96.5647C48.4201 95.9574 49.8654 95.6538 51.6871 95.6538C54.0432 95.6538 56.12 96.2428 57.9174 97.4209C59.7149 98.5989 61.1176 100.269 62.1256 102.431C63.1337 104.592 63.6377 107.143 63.6377 110.082C63.6377 113.045 63.1337 115.614 62.1256 117.788C61.1176 119.95 59.721 121.626 57.9357 122.816C56.1504 123.994 54.0918 124.583 51.76 124.583C49.9625 124.583 48.5234 124.285 47.4425 123.69C46.3616 123.083 45.5296 122.397 44.9467 121.632C44.3637 120.854 43.9144 120.211 43.5986 119.701H43.2342V134.493H38.9349ZM43.1614 110.009C43.1614 112.122 43.4711 113.987 44.0905 115.602C44.7099 117.205 45.6146 118.462 46.8048 119.373C47.995 120.272 49.4524 120.721 51.177 120.721C52.9745 120.721 54.4744 120.247 55.6767 119.3C56.8912 118.34 57.8021 117.053 58.4093 115.438C59.0287 113.81 59.3384 112.001 59.3384 110.009C59.3384 108.042 59.0348 106.268 58.4275 104.69C57.8324 103.099 56.9276 101.842 55.7131 100.919C54.5108 99.9835 52.9987 99.5159 51.177 99.5159C49.4281 99.5159 47.9586 99.9592 46.7684 100.846C45.5782 101.72 44.6795 102.947 44.0722 104.526C43.465 106.092 43.1614 107.92 43.1614 110.009Z" fill="white"/>
<path d="M84.1692 112.656C82.396 112.656 80.7868 112.322 79.3416 111.654C77.8964 110.974 76.7487 109.996 75.8985 108.721C75.0484 107.434 74.6233 105.879 74.6233 104.057C74.6233 102.454 74.9391 101.155 75.5706 100.159C76.2021 99.1507 77.0462 98.3613 78.1028 97.7905C79.1594 97.2197 80.3253 96.7946 81.6005 96.5152C82.8879 96.2238 84.1813 95.993 85.4808 95.823C87.1811 95.6044 88.5596 95.4404 89.6162 95.3311C90.6849 95.2097 91.4622 95.0093 91.948 94.7299C92.4459 94.4506 92.6949 93.9648 92.6949 93.2726V93.1268C92.6949 91.3294 92.203 89.9327 91.2193 88.9368C90.2477 87.9409 88.7721 87.443 86.7925 87.443C84.74 87.443 83.1308 87.8924 81.9649 88.7911C80.799 89.6898 79.9792 90.6493 79.5056 91.6694L75.4249 90.212C76.1536 88.5118 77.1251 87.188 78.3396 86.2407C79.5663 85.2812 80.9022 84.6132 82.3475 84.2367C83.8048 83.8481 85.2379 83.6538 86.6468 83.6538C87.5455 83.6538 88.5778 83.7631 89.7437 83.9817C90.9218 84.1882 92.0573 84.6193 93.1504 85.2751C94.2555 85.931 95.1725 86.9208 95.9012 88.2446C96.6299 89.5684 96.9942 91.3415 96.9942 93.564V112H92.6949V108.211H92.4763C92.1848 108.818 91.699 109.468 91.0189 110.16C90.3388 110.852 89.434 111.441 88.3045 111.927C87.1751 112.413 85.7966 112.656 84.1692 112.656ZM84.825 108.794C86.5253 108.794 87.9584 108.46 89.1243 107.792C90.3024 107.124 91.1889 106.262 91.784 105.205C92.3913 104.148 92.6949 103.037 92.6949 101.871V97.9362C92.5127 98.1548 92.112 98.3552 91.4926 98.5374C90.8853 98.7074 90.1809 98.8592 89.3794 98.9928C88.5899 99.1143 87.8187 99.2236 87.0658 99.3207C86.3249 99.4057 85.7237 99.4786 85.2622 99.5393C84.1449 99.6851 83.1004 99.9219 82.1289 100.25C81.1694 100.566 80.3921 101.045 79.797 101.689C79.2141 102.321 78.9226 103.183 78.9226 104.276C78.9226 105.77 79.4752 106.899 80.5804 107.664C81.6977 108.417 83.1126 108.794 84.825 108.794Z" fill="white"/>
<path d="M109.935 167V139.018H121.375C124.387 139.018 126.78 139.698 128.553 141.058C130.326 142.419 131.213 144.216 131.213 146.451C131.213 148.151 130.709 149.469 129.701 150.404C128.693 151.327 127.399 151.952 125.82 152.28C126.853 152.426 127.855 152.79 128.826 153.373C129.81 153.956 130.624 154.758 131.267 155.778C131.911 156.786 132.233 158.025 132.233 159.494C132.233 160.928 131.869 162.209 131.14 163.338C130.411 164.468 129.367 165.36 128.007 166.016C126.646 166.672 125.019 167 123.124 167H109.935ZM114.016 163.065H123.124C124.606 163.065 125.766 162.713 126.604 162.008C127.442 161.304 127.861 160.345 127.861 159.13C127.861 157.685 127.442 156.549 126.604 155.723C125.766 154.885 124.606 154.466 123.124 154.466H114.016V163.065ZM114.016 150.75H121.375C122.529 150.75 123.519 150.592 124.345 150.276C125.171 149.949 125.802 149.487 126.239 148.892C126.689 148.285 126.914 147.568 126.914 146.742C126.914 145.564 126.422 144.641 125.438 143.973C124.454 143.293 123.1 142.953 121.375 142.953H114.016V150.75Z" fill="white"/>
<path d="M142.947 105.016V92.9922H145.279C145.85 92.3971 146.342 91.7534 146.755 91.0611C147.168 90.3689 147.526 89.5491 147.83 88.6018C148.145 87.6424 148.413 86.4764 148.631 85.1041C148.85 83.7195 149.044 82.0496 149.214 80.0943L150.161 69.0181H167.942V92.9922H172.241V105.016H167.942V97H147.247V105.016H142.947ZM150.161 92.9922H163.642V73.026H154.169L153.441 80.0943C153.137 83.0212 152.76 85.5777 152.311 87.7638C151.862 89.9499 151.145 91.6927 150.161 92.9922Z" fill="white"/>
<path d="M194.169 124.656C192.396 124.656 190.787 124.322 189.342 123.654C187.896 122.974 186.749 121.996 185.899 120.721C185.048 119.434 184.623 117.879 184.623 116.057C184.623 114.454 184.939 113.155 185.571 112.159C186.202 111.151 187.046 110.361 188.103 109.79C189.159 109.22 190.325 108.795 191.601 108.515C192.888 108.224 194.181 107.993 195.481 107.823C197.181 107.604 198.56 107.44 199.616 107.331C200.685 107.21 201.462 107.009 201.948 106.73C202.446 106.451 202.695 105.965 202.695 105.273V105.127C202.695 103.329 202.203 101.933 201.219 100.937C200.248 99.9409 198.772 99.443 196.792 99.443C194.74 99.443 193.131 99.8924 191.965 100.791C190.799 101.69 189.979 102.649 189.506 103.669L185.425 102.212C186.154 100.512 187.125 99.188 188.34 98.2407C189.566 97.2812 190.902 96.6132 192.347 96.2367C193.805 95.8481 195.238 95.6538 196.647 95.6538C197.545 95.6538 198.578 95.7631 199.744 95.9817C200.922 96.1882 202.057 96.6193 203.15 97.2751C204.256 97.931 205.172 98.9208 205.901 100.245C206.63 101.568 206.994 103.342 206.994 105.564V124H202.695V120.211H202.476C202.185 120.818 201.699 121.468 201.019 122.16C200.339 122.852 199.434 123.441 198.305 123.927C197.175 124.413 195.797 124.656 194.169 124.656ZM194.825 120.794C196.525 120.794 197.958 120.46 199.124 119.792C200.302 119.124 201.189 118.262 201.784 117.205C202.391 116.148 202.695 115.037 202.695 113.871V109.936C202.513 110.155 202.112 110.355 201.493 110.537C200.885 110.707 200.181 110.859 199.379 110.993C198.59 111.114 197.819 111.224 197.066 111.321C196.325 111.406 195.724 111.479 195.262 111.539C194.145 111.685 193.1 111.922 192.129 112.25C191.169 112.566 190.392 113.045 189.797 113.689C189.214 114.321 188.923 115.183 188.923 116.276C188.923 117.77 189.475 118.899 190.58 119.664C191.698 120.417 193.113 120.794 194.825 120.794Z" fill="white"/>
<path d="M246.935 139.493V101.018H251.089V105.463H251.599C251.914 104.977 252.352 104.358 252.91 103.605C253.481 102.84 254.295 102.16 255.351 101.565C256.42 100.957 257.865 100.654 259.687 100.654C262.043 100.654 264.12 101.243 265.917 102.421C267.715 103.599 269.118 105.269 270.126 107.431C271.134 109.592 271.638 112.143 271.638 115.082C271.638 118.045 271.134 120.614 270.126 122.788C269.118 124.95 267.721 126.626 265.936 127.816C264.15 128.994 262.092 129.583 259.76 129.583C257.963 129.583 256.523 129.285 255.442 128.69C254.362 128.083 253.53 127.397 252.947 126.632C252.364 125.854 251.914 125.211 251.599 124.701H251.234V139.493H246.935ZM251.161 115.009C251.161 117.122 251.471 118.987 252.09 120.602C252.71 122.205 253.615 123.462 254.805 124.373C255.995 125.272 257.452 125.721 259.177 125.721C260.974 125.721 262.474 125.247 263.677 124.3C264.891 123.34 265.802 122.053 266.409 120.438C267.029 118.81 267.338 117.001 267.338 115.009C267.338 113.042 267.035 111.268 266.428 109.69C265.832 108.099 264.928 106.842 263.713 105.919C262.511 104.983 260.999 104.516 259.177 104.516C257.428 104.516 255.959 104.959 254.768 105.846C253.578 106.72 252.679 107.947 252.072 109.526C251.465 111.092 251.161 112.92 251.161 115.009Z" fill="white"/>
<path d="M319.169 81.6558C317.396 81.6558 315.787 81.3218 314.342 80.6539C312.896 79.9738 311.749 78.9961 310.899 77.7209C310.048 76.4335 309.623 74.879 309.623 73.0572C309.623 71.4541 309.939 70.1546 310.571 69.1587C311.202 68.1507 312.046 67.3613 313.103 66.7905C314.159 66.2197 315.325 65.7946 316.601 65.5152C317.888 65.2238 319.181 64.993 320.481 64.823C322.181 64.6044 323.56 64.4404 324.616 64.3311C325.685 64.2097 326.462 64.0093 326.948 63.7299C327.446 63.4506 327.695 62.9648 327.695 62.2726V62.1268C327.695 60.3294 327.203 58.9327 326.219 57.9368C325.248 56.9409 323.772 56.443 321.792 56.443C319.74 56.443 318.131 56.8924 316.965 57.7911C315.799 58.6898 314.979 59.6493 314.506 60.6694L310.425 59.212C311.154 57.5118 312.125 56.188 313.34 55.2407C314.566 54.2812 315.902 53.6132 317.347 53.2367C318.805 52.8481 320.238 52.6538 321.647 52.6538C322.545 52.6538 323.578 52.7631 324.744 52.9817C325.922 53.1882 327.057 53.6193 328.15 54.2751C329.256 54.931 330.172 55.9208 330.901 57.2446C331.63 58.5684 331.994 60.3415 331.994 62.564V81H327.695V77.2108H327.476C327.185 77.818 326.699 78.4678 326.019 79.16C325.339 79.8523 324.434 80.4413 323.305 80.9271C322.175 81.4129 320.797 81.6558 319.169 81.6558ZM319.825 77.7937C321.525 77.7937 322.958 77.4598 324.124 76.7918C325.302 76.1238 326.189 75.2615 326.784 74.2049C327.391 73.1483 327.695 72.0371 327.695 70.8711V66.9362C327.513 67.1548 327.112 67.3552 326.493 67.5374C325.885 67.7074 325.181 67.8592 324.379 67.9928C323.59 68.1143 322.819 68.2236 322.066 68.3207C321.325 68.4057 320.724 68.4786 320.262 68.5393C319.145 68.6851 318.1 68.9219 317.129 69.2498C316.169 69.5656 315.392 70.0453 314.797 70.689C314.214 71.3205 313.923 72.1828 313.923 73.2758C313.923 74.7697 314.475 75.8991 315.58 76.6643C316.698 77.4173 318.113 77.7937 319.825 77.7937Z" fill="white"/>
<path d="M358.303 134.583C355.679 134.583 353.42 133.964 351.526 132.725C349.631 131.486 348.174 129.78 347.154 127.606C346.133 125.432 345.623 122.948 345.623 120.155C345.623 117.313 346.146 114.805 347.19 112.631C348.247 110.445 349.716 108.739 351.599 107.512C353.493 106.273 355.704 105.654 358.23 105.654C360.197 105.654 361.97 106.018 363.549 106.747C365.128 107.476 366.421 108.496 367.429 109.807C368.438 111.119 369.063 112.649 369.306 114.398H365.007C364.679 113.123 363.95 111.993 362.82 111.01C361.703 110.014 360.197 109.516 358.303 109.516C356.627 109.516 355.157 109.953 353.894 110.828C352.643 111.69 351.665 112.91 350.961 114.489C350.269 116.056 349.923 117.896 349.923 120.009C349.923 122.171 350.263 124.053 350.943 125.656C351.635 127.26 352.607 128.504 353.858 129.391C355.121 130.278 356.602 130.721 358.303 130.721C359.42 130.721 360.434 130.527 361.345 130.138C362.256 129.749 363.027 129.191 363.658 128.462C364.29 127.733 364.739 126.859 365.007 125.839H369.306C369.063 127.49 368.462 128.978 367.502 130.302C366.555 131.614 365.298 132.658 363.731 133.435C362.177 134.2 360.367 134.583 358.303 134.583Z" fill="white"/>
<path d="M404.119 169.992L403.608 182.016H399.163V174H395.52V169.992H404.119ZM365.935 146.018H370.234V169.992H380.8V146.018H385.1V169.992H395.666V146.018H399.965V174H365.935V146.018Z" fill="white"/>
<path d="M451.667 144.583C448.971 144.583 446.645 143.988 444.69 142.798C442.746 141.595 441.247 139.919 440.19 137.77C439.146 135.608 438.623 133.094 438.623 130.228C438.623 127.361 439.146 124.835 440.19 122.649C441.247 120.451 442.716 118.739 444.599 117.512C446.493 116.273 448.704 115.654 451.23 115.654C452.687 115.654 454.126 115.897 455.547 116.382C456.968 116.868 458.262 117.658 459.428 118.751C460.593 119.832 461.523 121.265 462.215 123.05C462.907 124.835 463.253 127.034 463.253 129.645V131.466H441.684V127.75H458.881C458.881 126.171 458.565 124.762 457.934 123.524C457.314 122.285 456.428 121.307 455.274 120.591C454.132 119.874 452.784 119.516 451.23 119.516C449.517 119.516 448.036 119.941 446.785 120.791C445.546 121.629 444.593 122.722 443.925 124.07C443.257 125.418 442.923 126.864 442.923 128.406V130.884C442.923 132.997 443.287 134.788 444.016 136.258C444.756 137.715 445.783 138.826 447.094 139.591C448.406 140.344 449.93 140.721 451.667 140.721C452.796 140.721 453.817 140.563 454.727 140.247C455.65 139.919 456.446 139.434 457.114 138.79C457.782 138.134 458.298 137.32 458.662 136.349L462.816 137.515C462.379 138.923 461.644 140.162 460.612 141.231C459.579 142.288 458.304 143.113 456.786 143.709C455.268 144.291 453.562 144.583 451.667 144.583Z" fill="white"/>
<path d="M525.935 50V22.0181H547.942V50H543.642V26.026H530.234V50H525.935Z" fill="white"/>
<path d="M581.457 115V110.992H582.478C583.316 110.992 584.014 110.828 584.573 110.5C585.131 110.16 585.581 109.571 585.921 108.733C586.273 107.883 586.54 106.705 586.722 105.199C586.917 103.681 587.056 101.75 587.141 99.4059L587.651 87.0181H606.306V115H602.007V91.026H591.732L591.295 101.009C591.198 103.304 590.991 105.327 590.675 107.075C590.372 108.812 589.904 110.27 589.273 111.448C588.653 112.626 587.827 113.512 586.795 114.107C585.763 114.702 584.469 115 582.915 115H581.457Z" fill="white"/>
<path d="M660.768 162V137.953H653.335C651.659 137.953 650.341 138.342 649.382 139.119C648.422 139.896 647.943 140.965 647.943 142.325C647.943 143.661 648.374 144.712 649.236 145.477C650.111 146.242 651.307 146.625 652.825 146.625H661.861V150.632H652.825C650.93 150.632 649.297 150.298 647.925 149.63C646.552 148.962 645.496 148.009 644.755 146.77C644.014 145.519 643.643 144.038 643.643 142.325C643.643 140.601 644.032 139.119 644.809 137.88C645.587 136.641 646.698 135.688 648.143 135.02C649.601 134.352 651.331 134.018 653.335 134.018H664.848V162H660.768ZM642.113 162L650.056 148.082H654.72L646.777 162H642.113Z" fill="white"/>
<path d="M697.667 162.583C694.971 162.583 692.645 161.988 690.69 160.798C688.746 159.595 687.247 157.919 686.19 155.77C685.146 153.608 684.623 151.094 684.623 148.228C684.623 145.361 685.146 142.835 686.19 140.649C687.247 138.451 688.716 136.739 690.599 135.512C692.493 134.273 694.704 133.654 697.23 133.654C698.687 133.654 700.126 133.897 701.547 134.382C702.968 134.868 704.262 135.658 705.428 136.751C706.593 137.832 707.523 139.265 708.215 141.05C708.907 142.835 709.253 145.034 709.253 147.645V149.466H687.684V145.75H704.881C704.881 144.171 704.565 142.762 703.934 141.524C703.314 140.285 702.428 139.307 701.274 138.591C700.132 137.874 698.784 137.516 697.23 137.516C695.517 137.516 694.036 137.941 692.785 138.791C691.546 139.629 690.593 140.722 689.925 142.07C689.257 143.418 688.923 144.864 688.923 146.406V148.884C688.923 150.997 689.287 152.788 690.016 154.258C690.756 155.715 691.783 156.826 693.094 157.591C694.406 158.344 695.93 158.721 697.667 158.721C698.796 158.721 699.817 158.563 700.727 158.247C701.65 157.919 702.446 157.434 703.114 156.79C703.782 156.134 704.298 155.32 704.662 154.349L708.816 155.515C708.379 156.923 707.644 158.162 706.612 159.231C705.579 160.288 704.304 161.113 702.786 161.709C701.268 162.291 699.562 162.583 697.667 162.583Z" fill="white"/>
<path d="M719.332 117.026V113.018H742.067V117.026H732.886V141H728.586V117.026H719.332Z" fill="white"/>
<path d="M765.303 175.583C762.679 175.583 760.42 174.964 758.526 173.725C756.631 172.486 755.174 170.78 754.154 168.606C753.133 166.432 752.623 163.948 752.623 161.155C752.623 158.313 753.146 155.805 754.19 153.631C755.247 151.445 756.716 149.739 758.599 148.512C760.493 147.273 762.704 146.654 765.23 146.654C767.197 146.654 768.97 147.018 770.549 147.747C772.128 148.476 773.421 149.496 774.429 150.807C775.438 152.119 776.063 153.649 776.306 155.398H772.007C771.679 154.123 770.95 152.993 769.82 152.01C768.703 151.014 767.197 150.516 765.303 150.516C763.627 150.516 762.157 150.953 760.894 151.828C759.643 152.69 758.665 153.91 757.961 155.489C757.269 157.056 756.923 158.896 756.923 161.009C756.923 163.171 757.263 165.053 757.943 166.656C758.635 168.26 759.607 169.504 760.858 170.391C762.121 171.278 763.602 171.721 765.303 171.721C766.42 171.721 767.434 171.527 768.345 171.138C769.256 170.749 770.027 170.191 770.658 169.462C771.29 168.733 771.739 167.859 772.007 166.839H776.306C776.063 168.49 775.462 169.978 774.502 171.302C773.555 172.614 772.298 173.658 770.731 174.435C769.177 175.2 767.367 175.583 765.303 175.583Z" fill="white"/>
<path d="M812.768 205V180.953H805.335C803.659 180.953 802.341 181.342 801.382 182.119C800.422 182.896 799.943 183.965 799.943 185.325C799.943 186.661 800.374 187.712 801.236 188.477C802.111 189.242 803.307 189.625 804.825 189.625H813.861V193.632H804.825C802.93 193.632 801.297 193.298 799.925 192.63C798.552 191.962 797.496 191.009 796.755 189.77C796.014 188.519 795.643 187.038 795.643 185.325C795.643 183.601 796.032 182.119 796.809 180.88C797.587 179.641 798.698 178.688 800.143 178.02C801.601 177.352 803.331 177.018 805.335 177.018H816.848V205H812.768ZM794.113 205L802.056 191.082H806.72L798.777 205H794.113Z" fill="white"/>
</svg>
