<svg width="361" height="59" viewBox="0 0 361 59" fill="none" xmlns="http://www.w3.org/2000/svg">
<g clip-path="url(#clip0_3_535)">
<path d="M15.3026 43.583C12.6793 43.583 10.4203 42.9636 8.52571 41.7248C6.63111 40.486 5.17372 38.7797 4.15355 36.6057C3.13338 34.4318 2.6233 31.9482 2.6233 29.1548C2.6233 26.3129 3.14553 23.805 4.18999 21.6311C5.24659 19.445 6.71612 17.7386 8.59858 16.512C10.4932 15.2732 12.7036 14.6538 15.2297 14.6538C17.1972 14.6538 18.9703 15.0182 20.5491 15.7469C22.128 16.4756 23.4214 17.4957 24.4294 18.8074C25.4375 20.119 26.0629 21.6493 26.3058 23.3982H22.0065C21.6786 22.1229 20.9499 20.9935 19.8205 20.0097C18.7031 19.0138 17.1972 18.5159 15.3026 18.5159C13.6266 18.5159 12.157 18.9531 10.894 19.8276C9.64304 20.6898 8.66538 21.9104 7.96097 23.4892C7.26871 25.0559 6.92259 26.8959 6.92259 29.0091C6.92259 31.1709 7.26264 33.0533 7.94276 34.6565C8.63501 36.2596 9.60661 37.5044 10.8575 38.391C12.1206 39.2776 13.6023 39.7209 15.3026 39.7209C16.4199 39.7209 17.434 39.5266 18.3449 39.1379C19.2557 38.7493 20.0269 38.1906 20.6585 37.4619C21.29 36.7332 21.7393 35.8588 22.0065 34.8386H26.3058C26.0629 36.4903 25.4618 37.9781 24.5023 39.3019C23.555 40.6135 22.298 41.658 20.7313 42.4353C19.1768 43.2004 17.3672 43.583 15.3026 43.583ZM30.1132 43V38.9922H31.1334C31.9714 38.9922 32.6697 38.8282 33.2284 38.5003C33.7871 38.1603 34.2364 37.5712 34.5765 36.7332C34.9287 35.8831 35.1959 34.705 35.3781 33.1991C35.5724 31.681 35.712 29.7499 35.7971 27.406L36.3071 15.0182H54.9617V43H50.6624V19.026H40.3878L39.9506 29.0091C39.8534 31.3045 39.647 33.3266 39.3312 35.0755C39.0276 36.8122 38.56 38.2696 37.9285 39.4476C37.3091 40.6257 36.4832 41.5123 35.4509 42.1074C34.4186 42.7025 33.1252 43 31.5706 43H30.1132ZM77.2779 43V15.0182H88.7184C91.7303 15.0182 94.1229 15.6983 95.896 17.0585C97.6692 18.4188 98.5557 20.2162 98.5557 22.4509C98.5557 24.1511 98.0517 25.4689 97.0437 26.404C96.0357 27.327 94.7423 27.9525 93.1634 28.2804C94.1957 28.4261 95.1977 28.7905 96.1693 29.3734C97.153 29.9564 97.9667 30.758 98.6104 31.7781C99.2541 32.7862 99.5759 34.0249 99.5759 35.4945C99.5759 36.9276 99.2116 38.2088 98.4829 39.3383C97.7542 40.4678 96.7097 41.3604 95.3495 42.0163C93.9893 42.6721 92.3619 43 90.4673 43H77.2779ZM81.3586 39.0651H90.4673C91.9489 39.0651 93.1088 38.7129 93.9468 38.0085C94.7848 37.304 95.2038 36.3446 95.2038 35.1301C95.2038 33.6849 94.7848 32.5493 93.9468 31.7235C93.1088 30.8855 91.9489 30.4665 90.4673 30.4665H81.3586V39.0651ZM81.3586 26.7501H88.7184C89.8722 26.7501 90.862 26.5923 91.6878 26.2765C92.5137 25.9486 93.1452 25.4871 93.5824 24.892C94.0318 24.2847 94.2565 23.5682 94.2565 22.7423C94.2565 21.5643 93.7646 20.6413 92.7809 19.9733C91.7971 19.2932 90.443 18.9531 88.7184 18.9531H81.3586V26.7501ZM114.318 43.6558C112.545 43.6558 110.936 43.3218 109.491 42.6539C108.045 41.9738 106.898 40.9961 106.048 39.7209C105.197 38.4335 104.772 36.879 104.772 35.0572C104.772 33.4541 105.088 32.1546 105.72 31.1587C106.351 30.1507 107.195 29.3613 108.252 28.7905C109.309 28.2197 110.474 27.7946 111.75 27.5153C113.037 27.2238 114.33 26.993 115.63 26.823C117.33 26.6044 118.709 26.4404 119.765 26.3311C120.834 26.2097 121.611 26.0093 122.097 25.73C122.595 25.4506 122.844 24.9648 122.844 24.2726V24.1268C122.844 22.3294 122.352 20.9327 121.368 19.9369C120.397 18.941 118.921 18.443 116.942 18.443C114.889 18.443 113.28 18.8924 112.114 19.7911C110.948 20.6898 110.128 21.6493 109.655 22.6695L105.574 21.2121C106.303 19.5118 107.274 18.188 108.489 17.2407C109.715 16.2812 111.051 15.6133 112.497 15.2368C113.954 14.8482 115.387 14.6538 116.796 14.6538C117.695 14.6538 118.727 14.7631 119.893 14.9817C121.071 15.1882 122.206 15.6194 123.299 16.2752C124.405 16.931 125.322 17.9208 126.05 19.2446C126.779 20.5684 127.143 22.3415 127.143 24.5641V43H122.844V39.2108H122.625C122.334 39.818 121.848 40.4678 121.168 41.16C120.488 41.8523 119.583 42.4413 118.454 42.9271C117.324 43.4129 115.946 43.6558 114.318 43.6558ZM114.974 39.7938C116.674 39.7938 118.107 39.4598 119.273 38.7918C120.451 38.1238 121.338 37.2615 121.933 36.2049C122.54 35.1483 122.844 34.0371 122.844 32.8712V28.9362C122.662 29.1548 122.261 29.3552 121.642 29.5374C121.034 29.7074 120.33 29.8592 119.528 29.9928C118.739 30.1143 117.968 30.2236 117.215 30.3207C116.474 30.4058 115.873 30.4786 115.411 30.5393C114.294 30.6851 113.25 30.9219 112.278 31.2498C111.319 31.5656 110.541 32.0453 109.946 32.689C109.363 33.3205 109.072 34.1828 109.072 35.2759C109.072 36.7697 109.624 37.8991 110.729 38.6643C111.847 39.4173 113.262 39.7938 114.974 39.7938ZM147.815 19.026V15.0182H170.551V19.026H161.369V43H157.07V19.026H147.815ZM191.25 53.4932V15.0182H195.404V19.4632H195.914C196.229 18.9774 196.667 18.358 197.225 17.605C197.796 16.8399 198.61 16.1598 199.666 15.5647C200.735 14.9575 202.18 14.6538 204.002 14.6538C206.358 14.6538 208.435 15.2429 210.233 16.4209C212.03 17.599 213.433 19.2689 214.441 21.4307C215.449 23.5925 215.953 26.1429 215.953 29.082C215.953 32.0453 215.449 34.614 214.441 36.7879C213.433 38.9497 212.036 40.6257 210.251 41.8159C208.465 42.9939 206.407 43.583 204.075 43.583C202.278 43.583 200.838 43.2854 199.758 42.6903C198.677 42.0831 197.845 41.3969 197.262 40.6317C196.679 39.8545 196.229 39.2108 195.914 38.7007H195.549V53.4932H191.25ZM195.477 29.0091C195.477 31.1223 195.786 32.9865 196.406 34.6018C197.025 36.2049 197.93 37.4619 199.12 38.3728C200.31 39.2715 201.768 39.7209 203.492 39.7209C205.29 39.7209 206.789 39.2472 207.992 38.2999C209.206 37.3405 210.117 36.0531 210.724 34.4379C211.344 32.8104 211.653 31.0009 211.653 29.0091C211.653 27.0416 211.35 25.2685 210.743 23.6896C210.148 22.0987 209.243 20.8417 208.028 19.9186C206.826 18.9835 205.314 18.5159 203.492 18.5159C201.743 18.5159 200.274 18.9592 199.084 19.8458C197.893 20.7202 196.995 21.9468 196.387 23.5257C195.78 25.0924 195.477 26.9202 195.477 29.0091ZM239.344 43V18.9531H231.911C230.235 18.9531 228.917 19.3418 227.958 20.119C226.999 20.8963 226.519 21.9651 226.519 23.3253C226.519 24.6612 226.95 25.7118 227.812 26.4769C228.687 27.242 229.883 27.6246 231.401 27.6246H240.437V31.6324H231.401C229.506 31.6324 227.873 31.2984 226.501 30.6304C225.128 29.9625 224.072 29.0091 223.331 27.7703C222.59 26.5194 222.22 25.0377 222.22 23.3253C222.22 21.6007 222.608 20.119 223.385 18.8803C224.163 17.6415 225.274 16.6881 226.719 16.0201C228.177 15.3522 229.907 15.0182 231.911 15.0182H243.425V43H239.344ZM220.689 43L228.632 29.082H233.296L225.353 43H220.689ZM264.725 27.2602V31.268H249.933V27.2602H264.725ZM253.576 15.0182V43H249.277V15.0182H253.576ZM273.324 43.583C270.798 43.583 268.581 42.9818 266.674 41.7794C264.78 40.5771 263.298 38.895 262.229 36.7332C261.173 34.5714 260.644 32.0453 260.644 29.1548C260.644 26.2401 261.173 23.6957 262.229 21.5218C263.298 19.3478 264.78 17.6597 266.674 16.4574C268.581 15.255 270.798 14.6538 273.324 14.6538C275.85 14.6538 278.06 15.255 279.955 16.4574C281.862 17.6597 283.343 19.3478 284.4 21.5218C285.469 23.6957 286.003 26.2401 286.003 29.1548C286.003 32.0453 285.469 34.5714 284.4 36.7332C283.343 38.895 281.862 40.5771 279.955 41.7794C278.06 42.9818 275.85 43.583 273.324 43.583ZM273.324 39.7209C275.243 39.7209 276.821 39.229 278.06 38.2453C279.299 37.2615 280.216 35.9681 280.811 34.365C281.406 32.7619 281.704 31.0251 281.704 29.1548C281.704 27.2845 281.406 25.5417 280.811 23.9265C280.216 22.3112 279.299 21.0056 278.06 20.0097C276.821 19.0138 275.243 18.5159 273.324 18.5159C271.405 18.5159 269.826 19.0138 268.587 20.0097C267.348 21.0056 266.431 22.3112 265.836 23.9265C265.241 25.5417 264.944 27.2845 264.944 29.1548C264.944 31.0251 265.241 32.7619 265.836 34.365C266.431 35.9681 267.348 37.2615 268.587 38.2453C269.826 39.229 271.405 39.7209 273.324 39.7209ZM318.794 43.583C316.171 43.583 313.912 42.9636 312.017 41.7248C310.123 40.486 308.665 38.7797 307.645 36.6057C306.625 34.4318 306.115 31.9482 306.115 29.1548C306.115 26.3129 306.637 23.805 307.682 21.6311C308.738 19.445 310.208 17.7386 312.09 16.512C313.985 15.2732 316.195 14.6538 318.721 14.6538C320.689 14.6538 322.462 15.0182 324.041 15.7469C325.62 16.4756 326.913 17.4957 327.921 18.8074C328.929 20.119 329.555 21.6493 329.797 23.3982H325.498C325.17 22.1229 324.442 20.9935 323.312 20.0097C322.195 19.0138 320.689 18.5159 318.794 18.5159C317.118 18.5159 315.649 18.9531 314.386 19.8276C313.135 20.6898 312.157 21.9104 311.453 23.4892C310.76 25.0559 310.414 26.8959 310.414 29.0091C310.414 31.1709 310.754 33.0533 311.434 34.6565C312.127 36.2596 313.098 37.5044 314.349 38.391C315.612 39.2776 317.094 39.7209 318.794 39.7209C319.911 39.7209 320.926 39.5266 321.836 39.1379C322.747 38.7493 323.519 38.1906 324.15 37.4619C324.782 36.7332 325.231 35.8588 325.498 34.8386H329.797C329.555 36.4903 328.953 37.9781 327.994 39.3019C327.047 40.6135 325.79 41.658 324.223 42.4353C322.668 43.2004 320.859 43.583 318.794 43.583ZM352.915 43V18.9531H345.483C343.807 18.9531 342.489 19.3418 341.529 20.119C340.57 20.8963 340.09 21.9651 340.09 23.3253C340.09 24.6612 340.521 25.7118 341.384 26.4769C342.258 27.242 343.454 27.6246 344.972 27.6246H354.008V31.6324H344.972C343.078 31.6324 341.444 31.2984 340.072 30.6304C338.7 29.9625 337.643 29.0091 336.902 27.7703C336.161 26.5194 335.791 25.0377 335.791 23.3253C335.791 21.6007 336.18 20.119 336.957 18.8803C337.734 17.6415 338.845 16.6881 340.291 16.0201C341.748 15.3522 343.479 15.0182 345.483 15.0182H356.996V43H352.915ZM334.261 43L342.203 29.082H346.867L338.924 43H334.261Z" fill="white"/>
</g>
<defs>
<clipPath id="clip0_3_535">
<rect width="361" height="59" fill="white"/>
</clipPath>
</defs>
</svg>
