<svg width="499" height="182" viewBox="0 0 499 182" fill="none" xmlns="http://www.w3.org/2000/svg">
<g clip-path="url(#clip0_8_656)">
<path d="M440.303 161.583C437.679 161.583 435.42 160.964 433.526 159.725C431.631 158.486 430.174 156.78 429.154 154.606C428.133 152.432 427.623 149.948 427.623 147.155C427.623 144.313 428.146 141.805 429.19 139.631C430.247 137.445 431.716 135.739 433.599 134.512C435.493 133.273 437.704 132.654 440.23 132.654C442.197 132.654 443.97 133.018 445.549 133.747C447.128 134.476 448.421 135.496 449.429 136.807C450.437 138.119 451.063 139.649 451.306 141.398H447.007C446.679 140.123 445.95 138.993 444.82 138.01C443.703 137.014 442.197 136.516 440.303 136.516C438.627 136.516 437.157 136.953 435.894 137.828C434.643 138.69 433.665 139.91 432.961 141.489C432.269 143.056 431.923 144.896 431.923 147.009C431.923 149.171 432.263 151.053 432.943 152.656C433.635 154.26 434.607 155.504 435.858 156.391C437.121 157.278 438.602 157.721 440.303 157.721C441.42 157.721 442.434 157.527 443.345 157.138C444.256 156.749 445.027 156.191 445.658 155.462C446.29 154.733 446.739 153.859 447.007 152.839H451.306C451.063 154.49 450.462 155.978 449.502 157.302C448.555 158.614 447.298 159.658 445.731 160.435C444.177 161.2 442.367 161.583 440.303 161.583Z" fill="white"/>
<path d="M15.3026 175.583C12.6793 175.583 10.4203 174.964 8.52571 173.725C6.63111 172.486 5.17372 170.78 4.15355 168.606C3.13338 166.432 2.6233 163.948 2.6233 161.155C2.6233 158.313 3.14553 155.805 4.18999 153.631C5.24659 151.445 6.71612 149.739 8.59858 148.512C10.4932 147.273 12.7036 146.654 15.2297 146.654C17.1972 146.654 18.9703 147.018 20.5491 147.747C22.128 148.476 23.4214 149.496 24.4294 150.807C25.4375 152.119 26.0629 153.649 26.3058 155.398H22.0065C21.6786 154.123 20.9499 152.993 19.8205 152.01C18.7031 151.014 17.1972 150.516 15.3026 150.516C13.6266 150.516 12.157 150.953 10.894 151.828C9.64304 152.69 8.66538 153.91 7.96097 155.489C7.26871 157.056 6.92259 158.896 6.92259 161.009C6.92259 163.171 7.26264 165.053 7.94276 166.656C8.63501 168.26 9.60661 169.504 10.8575 170.391C12.1206 171.278 13.6023 171.721 15.3026 171.721C16.4199 171.721 17.434 171.527 18.3449 171.138C19.2557 170.749 20.0269 170.191 20.6585 169.462C21.29 168.733 21.7393 167.859 22.0065 166.839H26.3058C26.0629 168.49 25.4618 169.978 24.5023 171.302C23.555 172.614 22.298 173.658 20.7313 174.435C19.1768 175.2 17.3672 175.583 15.3026 175.583Z" fill="white"/>
<path d="M197.186 165.859H201.777C201.874 167.122 202.445 168.081 203.489 168.737C204.546 169.393 205.918 169.721 207.606 169.721C209.331 169.721 210.807 169.369 212.033 168.664C213.26 167.948 213.873 166.794 213.873 165.203C213.873 164.268 213.642 163.454 213.181 162.762C212.719 162.057 212.07 161.511 211.232 161.122C210.394 160.734 209.404 160.539 208.262 160.539H203.453V156.677H208.262C209.975 156.677 211.238 156.289 212.051 155.511C212.877 154.734 213.29 153.762 213.29 152.597C213.29 151.346 212.847 150.344 211.96 149.591C211.074 148.826 209.817 148.443 208.189 148.443C206.55 148.443 205.183 148.813 204.09 149.554C202.997 150.283 202.421 151.224 202.36 152.378H197.842C197.89 150.872 198.352 149.542 199.226 148.388C200.101 147.222 201.291 146.312 202.797 145.656C204.303 144.988 206.028 144.654 207.971 144.654C209.938 144.654 211.645 145 213.09 145.692C214.547 146.372 215.671 147.301 216.46 148.479C217.262 149.645 217.662 150.969 217.662 152.451C217.662 154.03 217.219 155.305 216.332 156.276C215.446 157.248 214.335 157.94 212.999 158.353V158.645C214.055 158.718 214.972 159.058 215.75 159.665C216.539 160.26 217.152 161.043 217.589 162.015C218.027 162.974 218.245 164.037 218.245 165.203C218.245 166.903 217.79 168.385 216.879 169.648C215.968 170.899 214.717 171.871 213.126 172.563C211.535 173.243 209.72 173.583 207.679 173.583C205.7 173.583 203.926 173.261 202.36 172.617C200.793 171.962 199.548 171.057 198.625 169.903C197.714 168.737 197.235 167.389 197.186 165.859Z" fill="white"/>
<path d="M490.768 178V153.953H483.335C481.659 153.953 480.341 154.342 479.382 155.119C478.422 155.896 477.943 156.965 477.943 158.325C477.943 159.661 478.374 160.712 479.236 161.477C480.111 162.242 481.307 162.625 482.825 162.625H491.861V166.632H482.825C480.93 166.632 479.297 166.298 477.925 165.63C476.552 164.962 475.496 164.009 474.755 162.77C474.014 161.519 473.643 160.038 473.643 158.325C473.643 156.601 474.032 155.119 474.809 153.88C475.587 152.641 476.698 151.688 478.143 151.02C479.601 150.352 481.331 150.018 483.335 150.018H494.848V178H490.768ZM472.113 178L480.056 164.082H484.72L476.777 178H472.113Z" fill="white"/>
<path d="M30.4574 136V131.992H31.4776C32.3156 131.992 33.0139 131.828 33.5725 131.5C34.1312 131.16 34.5806 130.571 34.9206 129.733C35.2728 128.883 35.54 127.705 35.7222 126.199C35.9165 124.681 36.0562 122.75 36.1412 120.406L36.6513 108.018H55.3058V136H51.0065V112.026H40.732L40.2947 122.009C40.1976 124.304 39.9911 126.327 39.6754 128.075C39.3717 129.812 38.9042 131.27 38.2726 132.448C37.6532 133.626 36.8274 134.512 35.7951 135.107C34.7627 135.702 33.4693 136 31.9148 136H30.4574Z" fill="white"/>
<path d="M86.3026 116.583C83.7764 116.583 81.56 115.982 79.6532 114.779C77.7586 113.577 76.277 111.895 75.2082 109.733C74.1516 107.571 73.6233 105.045 73.6233 102.155C73.6233 99.2401 74.1516 96.6957 75.2082 94.5218C76.277 92.3478 77.7586 90.6597 79.6532 89.4574C81.56 88.255 83.7764 87.6538 86.3026 87.6538C88.8287 87.6538 91.0391 88.255 92.9337 89.4574C94.8404 90.6597 96.3221 92.3478 97.3787 94.5218C98.4474 96.6957 98.9818 99.2401 98.9818 102.155C98.9818 105.045 98.4474 107.571 97.3787 109.733C96.3221 111.895 94.8404 113.577 92.9337 114.779C91.0391 115.982 88.8287 116.583 86.3026 116.583ZM86.3026 112.721C88.2214 112.721 89.8003 112.229 91.0391 111.245C92.2778 110.262 93.1948 108.968 93.7899 107.365C94.385 105.762 94.6825 104.025 94.6825 102.155C94.6825 100.285 94.385 98.5417 93.7899 96.9265C93.1948 95.3112 92.2778 94.0056 91.0391 93.0097C89.8003 92.0138 88.2214 91.5159 86.3026 91.5159C84.3837 91.5159 82.8048 92.0138 81.5661 93.0097C80.3273 94.0056 79.4103 95.3112 78.8152 96.9265C78.2201 98.5417 77.9226 100.285 77.9226 102.155C77.9226 104.025 78.2201 105.762 78.8152 107.365C79.4103 108.968 80.3273 110.262 81.5661 111.245C82.8048 112.229 84.3837 112.721 86.3026 112.721Z" fill="white"/>
<path d="M116.935 130V102.018H128.375C131.387 102.018 133.78 102.698 135.553 104.059C137.326 105.419 138.213 107.216 138.213 109.451C138.213 111.151 137.709 112.469 136.701 113.404C135.693 114.327 134.399 114.952 132.82 115.28C133.853 115.426 134.855 115.79 135.826 116.373C136.81 116.956 137.624 117.758 138.267 118.778C138.911 119.786 139.233 121.025 139.233 122.494C139.233 123.928 138.869 125.209 138.14 126.338C137.411 127.468 136.367 128.36 135.007 129.016C133.646 129.672 132.019 130 130.124 130H116.935ZM121.016 126.065H130.124C131.606 126.065 132.766 125.713 133.604 125.008C134.442 124.304 134.861 123.345 134.861 122.13C134.861 120.685 134.442 119.549 133.604 118.723C132.766 117.885 131.606 117.466 130.124 117.466H121.016V126.065ZM121.016 113.75H128.375C129.529 113.75 130.519 113.592 131.345 113.276C132.171 112.949 132.802 112.487 133.239 111.892C133.689 111.285 133.913 110.568 133.913 109.742C133.913 108.564 133.422 107.641 132.438 106.973C131.454 106.293 130.1 105.953 128.375 105.953H121.016V113.75Z" fill="white"/>
<path d="M162.169 156.656C160.396 156.656 158.787 156.322 157.342 155.654C155.896 154.974 154.749 153.996 153.899 152.721C153.048 151.434 152.623 149.879 152.623 148.057C152.623 146.454 152.939 145.155 153.571 144.159C154.202 143.151 155.046 142.361 156.103 141.79C157.159 141.22 158.325 140.795 159.601 140.515C160.888 140.224 162.181 139.993 163.481 139.823C165.181 139.604 166.56 139.44 167.616 139.331C168.685 139.21 169.462 139.009 169.948 138.73C170.446 138.451 170.695 137.965 170.695 137.273V137.127C170.695 135.329 170.203 133.933 169.219 132.937C168.248 131.941 166.772 131.443 164.792 131.443C162.74 131.443 161.131 131.892 159.965 132.791C158.799 133.69 157.979 134.649 157.506 135.669L153.425 134.212C154.154 132.512 155.125 131.188 156.34 130.241C157.566 129.281 158.902 128.613 160.347 128.237C161.805 127.848 163.238 127.654 164.647 127.654C165.545 127.654 166.578 127.763 167.744 127.982C168.922 128.188 170.057 128.619 171.15 129.275C172.256 129.931 173.172 130.921 173.901 132.245C174.63 133.568 174.994 135.342 174.994 137.564V156H170.695V152.211H170.476C170.185 152.818 169.699 153.468 169.019 154.16C168.339 154.852 167.434 155.441 166.305 155.927C165.175 156.413 163.797 156.656 162.169 156.656ZM162.825 152.794C164.525 152.794 165.958 152.46 167.124 151.792C168.302 151.124 169.189 150.262 169.784 149.205C170.391 148.148 170.695 147.037 170.695 145.871V141.936C170.513 142.155 170.112 142.355 169.493 142.537C168.885 142.707 168.181 142.859 167.379 142.993C166.59 143.114 165.819 143.224 165.066 143.321C164.325 143.406 163.724 143.479 163.262 143.539C162.145 143.685 161.1 143.922 160.129 144.25C159.169 144.566 158.392 145.045 157.797 145.689C157.214 146.321 156.923 147.183 156.923 148.276C156.923 149.77 157.475 150.899 158.58 151.664C159.698 152.417 161.113 152.794 162.825 152.794Z" fill="white"/>
<path d="M245.169 142.656C243.396 142.656 241.787 142.322 240.342 141.654C238.896 140.974 237.749 139.996 236.899 138.721C236.048 137.434 235.623 135.879 235.623 134.057C235.623 132.454 235.939 131.155 236.571 130.159C237.202 129.151 238.046 128.361 239.103 127.79C240.159 127.22 241.325 126.795 242.601 126.515C243.888 126.224 245.181 125.993 246.481 125.823C248.181 125.604 249.56 125.44 250.616 125.331C251.685 125.21 252.462 125.009 252.948 124.73C253.446 124.451 253.695 123.965 253.695 123.273V123.127C253.695 121.329 253.203 119.933 252.219 118.937C251.248 117.941 249.772 117.443 247.792 117.443C245.74 117.443 244.131 117.892 242.965 118.791C241.799 119.69 240.979 120.649 240.506 121.669L236.425 120.212C237.154 118.512 238.125 117.188 239.34 116.241C240.566 115.281 241.902 114.613 243.347 114.237C244.805 113.848 246.238 113.654 247.647 113.654C248.545 113.654 249.578 113.763 250.744 113.982C251.922 114.188 253.057 114.619 254.15 115.275C255.256 115.931 256.172 116.921 256.901 118.245C257.63 119.568 257.994 121.342 257.994 123.564V142H253.695V138.211H253.476C253.185 138.818 252.699 139.468 252.019 140.16C251.339 140.852 250.434 141.441 249.305 141.927C248.175 142.413 246.797 142.656 245.169 142.656ZM245.825 138.794C247.525 138.794 248.958 138.46 250.124 137.792C251.302 137.124 252.189 136.262 252.784 135.205C253.391 134.148 253.695 133.037 253.695 131.871V127.936C253.513 128.155 253.112 128.355 252.493 128.537C251.885 128.707 251.181 128.859 250.379 128.993C249.59 129.114 248.819 129.224 248.066 129.321C247.325 129.406 246.724 129.479 246.262 129.539C245.145 129.685 244.1 129.922 243.129 130.25C242.169 130.566 241.392 131.045 240.797 131.689C240.214 132.321 239.923 133.183 239.923 134.276C239.923 135.77 240.475 136.899 241.58 137.664C242.698 138.417 244.113 138.794 245.825 138.794Z" fill="white"/>
<path d="M239.935 66V38.0182H261.941V66H257.642V42.026H244.234V66H239.935Z" fill="white"/>
<path d="M183.704 60.4932C182.975 60.4932 182.326 60.4325 181.755 60.311C181.184 60.2017 180.789 60.0924 180.571 59.9831L181.664 56.1939C182.708 56.4611 183.631 56.5582 184.433 56.4854C185.234 56.4125 185.945 56.0542 186.564 55.4105C187.196 54.779 187.773 53.7528 188.295 52.3318L189.096 50.1457L178.749 22.0182H183.412L191.137 44.3162H191.428L199.152 22.0182H203.816L191.938 54.0807C191.404 55.5259 190.742 56.7222 189.953 57.6695C189.163 58.6289 188.246 59.3394 187.202 59.8009C186.169 60.2624 185.003 60.4932 183.704 60.4932Z" fill="white"/>
<path d="M144.332 62.026V58.0182H167.067V62.026H157.886V86H153.586V62.026H144.332Z" fill="white"/>
<path d="M194.651 100.147H202.667C205.946 100.147 208.454 100.979 210.191 102.643C211.927 104.307 212.796 106.414 212.796 108.964C212.796 110.64 212.407 112.164 211.63 113.537C210.853 114.897 209.711 115.984 208.205 116.798C206.699 117.599 204.853 118 202.667 118H190.935V90.0182H195.234V113.992H202.667C204.367 113.992 205.764 113.543 206.857 112.644C207.95 111.745 208.496 110.592 208.496 109.183C208.496 107.701 207.95 106.493 206.857 105.558C205.764 104.622 204.367 104.155 202.667 104.155H194.651V100.147ZM217.241 118V90.0182H221.54V118H217.241Z" fill="white"/>
<path d="M269.935 117V89.0182H281.375C284.387 89.0182 286.78 89.6983 288.553 91.0585C290.326 92.4188 291.213 94.2162 291.213 96.4509C291.213 98.1511 290.709 99.4689 289.701 100.404C288.693 101.327 287.399 101.952 285.82 102.28C286.853 102.426 287.855 102.79 288.826 103.373C289.81 103.956 290.624 104.758 291.267 105.778C291.911 106.786 292.233 108.025 292.233 109.494C292.233 110.928 291.869 112.209 291.14 113.338C290.411 114.468 289.367 115.36 288.007 116.016C286.646 116.672 285.019 117 283.124 117H269.935ZM274.016 113.065H283.124C284.606 113.065 285.766 112.713 286.604 112.008C287.442 111.304 287.861 110.345 287.861 109.13C287.861 107.685 287.442 106.549 286.604 105.723C285.766 104.885 284.606 104.466 283.124 104.466H274.016V113.065ZM274.016 100.75H281.375C282.529 100.75 283.519 100.592 284.345 100.276C285.171 99.9486 285.802 99.4871 286.239 98.892C286.689 98.2847 286.913 97.5682 286.913 96.7423C286.913 95.5643 286.422 94.6413 285.438 93.9733C284.454 93.2932 283.1 92.9531 281.375 92.9531H274.016V100.75Z" fill="white"/>
<path d="M315.169 144.656C313.396 144.656 311.787 144.322 310.342 143.654C308.896 142.974 307.749 141.996 306.899 140.721C306.048 139.434 305.623 137.879 305.623 136.057C305.623 134.454 305.939 133.155 306.571 132.159C307.202 131.151 308.046 130.361 309.103 129.79C310.159 129.22 311.325 128.795 312.601 128.515C313.888 128.224 315.181 127.993 316.481 127.823C318.181 127.604 319.56 127.44 320.616 127.331C321.685 127.21 322.462 127.009 322.948 126.73C323.446 126.451 323.695 125.965 323.695 125.273V125.127C323.695 123.329 323.203 121.933 322.219 120.937C321.248 119.941 319.772 119.443 317.792 119.443C315.74 119.443 314.131 119.892 312.965 120.791C311.799 121.69 310.979 122.649 310.506 123.669L306.425 122.212C307.154 120.512 308.125 119.188 309.34 118.241C310.566 117.281 311.902 116.613 313.347 116.237C314.805 115.848 316.238 115.654 317.647 115.654C318.545 115.654 319.578 115.763 320.744 115.982C321.922 116.188 323.057 116.619 324.15 117.275C325.256 117.931 326.172 118.921 326.901 120.245C327.63 121.568 327.994 123.342 327.994 125.564V144H323.695V140.211H323.476C323.185 140.818 322.699 141.468 322.019 142.16C321.339 142.852 320.434 143.441 319.305 143.927C318.175 144.413 316.797 144.656 315.169 144.656ZM315.825 140.794C317.525 140.794 318.958 140.46 320.124 139.792C321.302 139.124 322.189 138.262 322.784 137.205C323.391 136.148 323.695 135.037 323.695 133.871V129.936C323.513 130.155 323.112 130.355 322.493 130.537C321.885 130.707 321.181 130.859 320.379 130.993C319.59 131.114 318.819 131.224 318.066 131.321C317.325 131.406 316.724 131.479 316.262 131.539C315.145 131.685 314.1 131.922 313.129 132.25C312.169 132.566 311.392 133.045 310.797 133.689C310.214 134.321 309.923 135.183 309.923 136.276C309.923 137.77 310.475 138.899 311.58 139.664C312.698 140.417 314.113 140.794 315.825 140.794Z" fill="white"/>
<path d="M361.343 154.26V158.268H346.55V154.26H361.343ZM350.194 142.018V170H345.895V142.018H350.194ZM369.941 170.583C367.415 170.583 365.199 169.982 363.292 168.779C361.398 167.577 359.916 165.895 358.847 163.733C357.791 161.571 357.262 159.045 357.262 156.155C357.262 153.24 357.791 150.696 358.847 148.522C359.916 146.348 361.398 144.66 363.292 143.457C365.199 142.255 367.415 141.654 369.941 141.654C372.468 141.654 374.678 142.255 376.573 143.457C378.479 144.66 379.961 146.348 381.018 148.522C382.086 150.696 382.621 153.24 382.621 156.155C382.621 159.045 382.086 161.571 381.018 163.733C379.961 165.895 378.479 167.577 376.573 168.779C374.678 169.982 372.468 170.583 369.941 170.583ZM369.941 166.721C371.86 166.721 373.439 166.229 374.678 165.245C375.917 164.262 376.834 162.968 377.429 161.365C378.024 159.762 378.321 158.025 378.321 156.155C378.321 154.285 378.024 152.542 377.429 150.926C376.834 149.311 375.917 148.006 374.678 147.01C373.439 146.014 371.86 145.516 369.941 145.516C368.023 145.516 366.444 146.014 365.205 147.01C363.966 148.006 363.049 149.311 362.454 150.926C361.859 152.542 361.562 154.285 361.562 156.155C361.562 158.025 361.859 159.762 362.454 161.365C363.049 162.968 363.966 164.262 365.205 165.245C366.444 166.229 368.023 166.721 369.941 166.721Z" fill="white"/>
<path d="M387.332 112.026V108.018H410.067V112.026H400.886V136H396.586V112.026H387.332Z" fill="white"/>
</g>
<defs>
<clipPath id="clip0_8_656">
<rect width="499" height="182" fill="white"/>
</clipPath>
</defs>
</svg>
