<svg width="1073" height="166" viewBox="0 0 1073 166" fill="none" xmlns="http://www.w3.org/2000/svg">
<g clip-path="url(#clip0_13_14)">
<path d="M25.9349 90V62.0182H37.3754C40.3874 62.0182 42.7799 62.6983 44.5531 64.0585C46.3262 65.4188 47.2128 67.2162 47.2128 69.4509C47.2128 71.1511 46.7088 72.4689 45.7007 73.404C44.6927 74.327 43.3993 74.9525 41.8205 75.2804C42.8528 75.4261 43.8547 75.7905 44.8263 76.3734C45.81 76.9564 46.6238 77.758 47.2674 78.7781C47.9111 79.7862 48.233 81.0249 48.233 82.4945C48.233 83.9276 47.8686 85.2088 47.1399 86.3383C46.4112 87.4678 45.3668 88.3604 44.0065 89.0163C42.6463 89.6721 41.0189 90 39.1243 90H25.9349ZM30.0156 86.0651H39.1243C40.606 86.0651 41.7658 85.7129 42.6038 85.0085C43.4418 84.304 43.8608 83.3446 43.8608 82.1301C43.8608 80.6849 43.4418 79.5493 42.6038 78.7235C41.7658 77.8855 40.606 77.4665 39.1243 77.4665H30.0156V86.0651ZM30.0156 73.7501H37.3754C38.5292 73.7501 39.519 73.5923 40.3449 73.2765C41.1707 72.9486 41.8022 72.4871 42.2395 71.892C42.6888 71.2847 42.9135 70.5682 42.9135 69.7423C42.9135 68.5643 42.4216 67.6413 41.4379 66.9733C40.4542 66.2932 39.1 65.9531 37.3754 65.9531H30.0156V73.7501ZM58.4574 72.147H66.4731C69.7522 72.147 72.2601 72.9789 73.9968 74.6428C75.7335 76.3066 76.6019 78.4138 76.6019 80.9642C76.6019 82.6402 76.2133 84.1644 75.436 85.5368C74.6587 86.897 73.5171 87.9839 72.0111 88.7977C70.5052 89.5992 68.6591 90 66.4731 90H54.7411V62.0182H59.0404V85.9922H66.4731C68.1733 85.9922 69.57 85.5428 70.663 84.6441C71.7561 83.7454 72.3026 82.5916 72.3026 81.1828C72.3026 79.7011 71.7561 78.4927 70.663 77.5576C69.57 76.6224 68.1733 76.1548 66.4731 76.1548H58.4574V72.147ZM81.0469 90V62.0182H85.3462V90H81.0469ZM113.984 51.525L116.17 54.1483C115.32 54.9741 114.336 55.551 113.219 55.8789C112.101 56.2069 110.838 56.4072 109.43 56.4801C108.021 56.553 106.454 56.6259 104.729 56.6987C102.786 56.7716 101.177 57.2452 99.9019 58.1197C98.6266 58.9941 97.6429 60.2572 96.9506 61.9089C96.2584 63.5606 95.8151 65.5888 95.6208 67.9935H95.9851C96.9324 66.2446 98.2441 64.9572 99.9201 64.1314C101.596 63.3055 103.394 62.8926 105.312 62.8926C107.498 62.8926 109.466 63.4027 111.215 64.4229C112.964 65.443 114.348 66.9551 115.368 68.959C116.389 70.9629 116.899 73.4344 116.899 76.3734C116.899 79.3004 116.376 81.8265 115.332 83.9518C114.3 86.0772 112.848 87.7168 110.978 88.8705C109.12 90.0121 106.94 90.583 104.438 90.583C101.936 90.583 99.744 89.9939 97.8615 88.8159C95.9791 87.6257 94.5156 85.8647 93.4711 83.5328C92.4267 81.1889 91.9044 78.2923 91.9044 74.8432V71.8555C91.9044 65.6252 92.9611 60.9009 95.0743 57.6825C97.1996 54.4641 100.394 52.8002 104.657 52.6909C106.163 52.6423 107.505 52.6302 108.683 52.6545C109.861 52.6788 110.887 52.6241 111.761 52.4905C112.636 52.3569 113.377 52.0351 113.984 51.525ZM104.438 86.7209C106.126 86.7209 107.577 86.2958 108.792 85.4457C110.019 84.5955 110.96 83.3993 111.616 81.8569C112.271 80.3023 112.599 78.4745 112.599 76.3734C112.599 74.3331 112.265 72.5964 111.597 71.1633C110.942 69.7302 110 68.6371 108.774 67.8842C107.547 67.1312 106.078 66.7547 104.365 66.7547C103.114 66.7547 101.991 66.9672 100.995 67.3923C99.999 67.8174 99.1489 68.4428 98.4445 69.2687C97.7401 70.0945 97.1935 71.1026 96.8049 72.2928C96.4284 73.483 96.228 74.8432 96.2037 76.3734C96.2037 79.5068 96.9385 82.0147 98.408 83.8972C99.8776 85.7797 101.888 86.7209 104.438 86.7209ZM127.774 83.6604L141.255 62.0182H146.21V90H141.911V68.3578L128.503 90H123.475V62.0182H127.774V83.6604ZM154.085 100.493V62.0182H158.238V66.4632H158.748C159.064 65.9774 159.501 65.358 160.06 64.605C160.631 63.8399 161.445 63.1598 162.501 62.5647C163.57 61.9575 165.015 61.6538 166.837 61.6538C169.193 61.6538 171.27 62.2429 173.067 63.4209C174.865 64.599 176.267 66.2689 177.275 68.4307C178.283 70.5925 178.787 73.1429 178.787 76.082C178.787 79.0453 178.283 81.614 177.275 83.7879C176.267 85.9497 174.871 87.6257 173.085 88.8159C171.3 89.9939 169.242 90.583 166.91 90.583C165.112 90.583 163.673 90.2854 162.592 89.6903C161.511 89.0831 160.679 88.3969 160.096 87.6317C159.514 86.8545 159.064 86.2108 158.748 85.7007H158.384V100.493H154.085ZM158.311 76.0091C158.311 78.1223 158.621 79.9865 159.24 81.6018C159.86 83.2049 160.764 84.4619 161.955 85.3728C163.145 86.2715 164.602 86.7209 166.327 86.7209C168.124 86.7209 169.624 86.2472 170.826 85.2999C172.041 84.3405 172.952 83.0531 173.559 81.4379C174.178 79.8104 174.488 78.0009 174.488 76.0091C174.488 74.0416 174.185 72.2685 173.577 70.6896C172.982 69.0987 172.077 67.8417 170.863 66.9186C169.661 65.9835 168.149 65.5159 166.327 65.5159C164.578 65.5159 163.108 65.9592 161.918 66.8458C160.728 67.7202 159.829 68.9468 159.222 70.5257C158.615 72.0924 158.311 73.9202 158.311 76.0091ZM193.58 90.6558C191.807 90.6558 190.198 90.3218 188.752 89.6539C187.307 88.9738 186.159 87.9961 185.309 86.7209C184.459 85.4335 184.034 83.879 184.034 82.0572C184.034 80.4541 184.35 79.1546 184.981 78.1587C185.613 77.1507 186.457 76.3613 187.514 75.7905C188.57 75.2197 189.736 74.7946 191.011 74.5153C192.299 74.2238 193.592 73.993 194.892 73.823C196.592 73.6044 197.97 73.4404 199.027 73.3311C200.096 73.2097 200.873 73.0093 201.359 72.73C201.857 72.4506 202.106 71.9648 202.106 71.2726V71.1268C202.106 69.3294 201.614 67.9327 200.63 66.9369C199.658 65.941 198.183 65.443 196.203 65.443C194.151 65.443 192.542 65.8924 191.376 66.7911C190.21 67.6898 189.39 68.6493 188.916 69.6695L184.836 68.2121C185.564 66.5118 186.536 65.188 187.75 64.2407C188.977 63.2812 190.313 62.6133 191.758 62.2368C193.216 61.8482 194.649 61.6538 196.057 61.6538C196.956 61.6538 197.989 61.7631 199.154 61.9817C200.332 62.1882 201.468 62.6194 202.561 63.2752C203.666 63.931 204.583 64.9208 205.312 66.2446C206.041 67.5684 206.405 69.3415 206.405 71.5641V90H202.106V86.2108H201.887C201.596 86.818 201.11 87.4678 200.43 88.16C199.75 88.8523 198.845 89.4413 197.715 89.9271C196.586 90.4129 195.207 90.6558 193.58 90.6558ZM194.236 86.7938C195.936 86.7938 197.369 86.4598 198.535 85.7918C199.713 85.1238 200.6 84.2615 201.195 83.2049C201.802 82.1483 202.106 81.0371 202.106 79.8712V75.9362C201.923 76.1548 201.523 76.3552 200.903 76.5374C200.296 76.7074 199.592 76.8592 198.79 76.9928C198.001 77.1143 197.229 77.2236 196.476 77.3207C195.736 77.4058 195.134 77.4786 194.673 77.5393C193.556 77.6851 192.511 77.9219 191.54 78.2498C190.58 78.5656 189.803 79.0453 189.208 79.689C188.625 80.3205 188.333 81.1828 188.333 82.2759C188.333 83.7697 188.886 84.8991 189.991 85.6643C191.108 86.4173 192.523 86.7938 194.236 86.7938ZM225.984 90.583C223.288 90.583 220.962 89.9879 219.007 88.7977C217.064 87.5953 215.564 85.9193 214.507 83.7697C213.463 81.6079 212.94 79.0939 212.94 76.2277C212.94 73.3615 213.463 70.8354 214.507 68.6493C215.564 66.4511 217.033 64.7386 218.916 63.512C220.81 62.2732 223.021 61.6538 225.547 61.6538C227.004 61.6538 228.443 61.8967 229.864 62.3825C231.285 62.8683 232.579 63.6577 233.745 64.7508C234.91 65.8317 235.84 67.2648 236.532 69.0501C237.224 70.8354 237.57 73.0336 237.57 75.6447V77.4665H216.001V73.7501H233.198C233.198 72.1713 232.882 70.7625 232.251 69.5237C231.631 68.2849 230.745 67.3073 229.591 66.5907C228.449 65.8742 227.101 65.5159 225.547 65.5159C223.834 65.5159 222.353 65.941 221.102 66.7911C219.863 67.6291 218.91 68.7222 218.242 70.0702C217.574 71.4183 217.24 72.8636 217.24 74.406V76.8835C217.24 78.9967 217.604 80.7881 218.333 82.2576C219.074 83.715 220.1 84.8263 221.411 85.5914C222.723 86.3444 224.247 86.7209 225.984 86.7209C227.113 86.7209 228.134 86.563 229.044 86.2472C229.968 85.9193 230.763 85.4335 231.431 84.7898C232.099 84.134 232.615 83.3203 232.979 82.3487L237.133 83.5146C236.696 84.9234 235.961 86.1622 234.929 87.231C233.896 88.2876 232.621 89.1134 231.103 89.7085C229.585 90.2915 227.879 90.583 225.984 90.583ZM241.505 66.026V62.0182H264.24V66.026H255.059V90H250.76V66.026H241.505ZM280.426 90.583C277.803 90.583 275.544 89.9636 273.65 88.7248C271.755 87.486 270.298 85.7797 269.277 83.6057C268.257 81.4318 267.747 78.9482 267.747 76.1548C267.747 73.3129 268.269 70.805 269.314 68.6311C270.371 66.445 271.84 64.7386 273.722 63.512C275.617 62.2732 277.827 61.6538 280.354 61.6538C282.321 61.6538 284.094 62.0182 285.673 62.7469C287.252 63.4756 288.545 64.4957 289.553 65.8074C290.561 67.119 291.187 68.6493 291.43 70.3982H287.13C286.803 69.1229 286.074 67.9935 284.944 67.0097C283.827 66.0138 282.321 65.5159 280.426 65.5159C278.75 65.5159 277.281 65.9531 276.018 66.8276C274.767 67.6898 273.789 68.9104 273.085 70.4892C272.393 72.0559 272.047 73.8959 272.047 76.0091C272.047 78.1709 272.387 80.0533 273.067 81.6565C273.759 83.2596 274.731 84.5044 275.981 85.391C277.245 86.2776 278.726 86.7209 280.426 86.7209C281.544 86.7209 282.558 86.5266 283.469 86.1379C284.38 85.7493 285.151 85.1906 285.782 84.4619C286.414 83.7332 286.863 82.8588 287.13 81.8386H291.43C291.187 83.4903 290.586 84.9781 289.626 86.3019C288.679 87.6135 287.422 88.658 285.855 89.4353C284.301 90.2004 282.491 90.583 280.426 90.583ZM314.548 90V65.9531H307.115C305.439 65.9531 304.121 66.3418 303.162 67.119C302.202 67.8963 301.723 68.9651 301.723 70.3253C301.723 71.6612 302.154 72.7118 303.016 73.4769C303.89 74.242 305.087 74.6246 306.605 74.6246H315.641V78.6324H306.605C304.71 78.6324 303.077 78.2984 301.704 77.6304C300.332 76.9625 299.275 76.0091 298.535 74.7703C297.794 73.5194 297.423 72.0377 297.423 70.3253C297.423 68.6007 297.812 67.119 298.589 65.8803C299.366 64.6415 300.478 63.6881 301.923 63.0201C303.38 62.3522 305.111 62.0182 307.115 62.0182H318.628V90H314.548ZM295.893 90L303.836 76.082H308.499L300.557 90H295.893ZM352.317 90.583C349.693 90.583 347.434 89.9636 345.54 88.7248C343.645 87.486 342.188 85.7797 341.168 83.6057C340.147 81.4318 339.637 78.9482 339.637 76.1548C339.637 73.3129 340.16 70.805 341.204 68.6311C342.261 66.445 343.73 64.7386 345.613 63.512C347.507 62.2732 349.718 61.6538 352.244 61.6538C354.211 61.6538 355.984 62.0182 357.563 62.7469C359.142 63.4756 360.435 64.4957 361.444 65.8074C362.452 67.119 363.077 68.6493 363.32 70.3982H359.021C358.693 69.1229 357.964 67.9935 356.835 67.0097C355.717 66.0138 354.211 65.5159 352.317 65.5159C350.641 65.5159 349.171 65.9531 347.908 66.8276C346.657 67.6898 345.679 68.9104 344.975 70.4892C344.283 72.0559 343.937 73.8959 343.937 76.0091C343.937 78.1709 344.277 80.0533 344.957 81.6565C345.649 83.2596 346.621 84.5044 347.872 85.391C349.135 86.2776 350.616 86.7209 352.317 86.7209C353.434 86.7209 354.448 86.5266 355.359 86.1379C356.27 85.7493 357.041 85.1906 357.673 84.4619C358.304 83.7332 358.753 82.8588 359.021 81.8386H363.32C363.077 83.4903 362.476 84.9781 361.516 86.3019C360.569 87.6135 359.312 88.658 357.745 89.4353C356.191 90.2004 354.381 90.583 352.317 90.583ZM377.839 90.6558C376.066 90.6558 374.457 90.3218 373.012 89.6539C371.566 88.9738 370.419 87.9961 369.568 86.7209C368.718 85.4335 368.293 83.879 368.293 82.0572C368.293 80.4541 368.609 79.1546 369.241 78.1587C369.872 77.1507 370.716 76.3613 371.773 75.7905C372.829 75.2197 373.995 74.7946 375.27 74.5153C376.558 74.2238 377.851 73.993 379.151 73.823C380.851 73.6044 382.229 73.4404 383.286 73.3311C384.355 73.2097 385.132 73.0093 385.618 72.73C386.116 72.4506 386.365 71.9648 386.365 71.2726V71.1268C386.365 69.3294 385.873 67.9327 384.889 66.9369C383.918 65.941 382.442 65.443 380.462 65.443C378.41 65.443 376.801 65.8924 375.635 66.7911C374.469 67.6898 373.649 68.6493 373.175 69.6695L369.095 68.2121C369.823 66.5118 370.795 65.188 372.01 64.2407C373.236 63.2812 374.572 62.6133 376.017 62.2368C377.475 61.8482 378.908 61.6538 380.317 61.6538C381.215 61.6538 382.248 61.7631 383.414 61.9817C384.592 62.1882 385.727 62.6194 386.82 63.2752C387.925 63.931 388.842 64.9208 389.571 66.2446C390.3 67.5684 390.664 69.3415 390.664 71.5641V90H386.365V86.2108H386.146C385.855 86.818 385.369 87.4678 384.689 88.16C384.009 88.8523 383.104 89.4413 381.974 89.9271C380.845 90.4129 379.467 90.6558 377.839 90.6558ZM378.495 86.7938C380.195 86.7938 381.628 86.4598 382.794 85.7918C383.972 85.1238 384.859 84.2615 385.454 83.2049C386.061 82.1483 386.365 81.0371 386.365 79.8712V75.9362C386.183 76.1548 385.782 76.3552 385.162 76.5374C384.555 76.7074 383.851 76.8592 383.049 76.9928C382.26 77.1143 381.489 77.2236 380.736 77.3207C379.995 77.4058 379.394 77.4786 378.932 77.5393C377.815 77.6851 376.77 77.9219 375.799 78.2498C374.839 78.5656 374.062 79.0453 373.467 79.689C372.884 80.3205 372.593 81.1828 372.593 82.2759C372.593 83.7697 373.145 84.8991 374.25 85.6643C375.368 86.4173 376.782 86.7938 378.495 86.7938ZM413.814 84.1705L423.578 62.0182H427.659L415.563 90H412.065L400.187 62.0182H404.195L413.814 84.1705ZM402.81 62.0182V90H398.511V62.0182H402.81ZM424.817 90V62.0182H429.116V90H424.817ZM445.22 90.6558C443.447 90.6558 441.838 90.3218 440.393 89.6539C438.948 88.9738 437.8 87.9961 436.95 86.7209C436.1 85.4335 435.675 83.879 435.675 82.0572C435.675 80.4541 435.99 79.1546 436.622 78.1587C437.253 77.1507 438.097 76.3613 439.154 75.7905C440.211 75.2197 441.377 74.7946 442.652 74.5153C443.939 74.2238 445.233 73.993 446.532 73.823C448.232 73.6044 449.611 73.4404 450.667 73.3311C451.736 73.2097 452.513 73.0093 452.999 72.73C453.497 72.4506 453.746 71.9648 453.746 71.2726V71.1268C453.746 69.3294 453.254 67.9327 452.271 66.9369C451.299 65.941 449.823 65.443 447.844 65.443C445.791 65.443 444.182 65.8924 443.016 66.7911C441.85 67.6898 441.03 68.6493 440.557 69.6695L436.476 68.2121C437.205 66.5118 438.176 65.188 439.391 64.2407C440.618 63.2812 441.953 62.6133 443.399 62.2368C444.856 61.8482 446.289 61.6538 447.698 61.6538C448.597 61.6538 449.629 61.7631 450.795 61.9817C451.973 62.1882 453.109 62.6194 454.202 63.2752C455.307 63.931 456.224 64.9208 456.952 66.2446C457.681 67.5684 458.045 69.3415 458.045 71.5641V90H453.746V86.2108H453.528C453.236 86.818 452.75 87.4678 452.07 88.16C451.39 88.8523 450.485 89.4413 449.356 89.9271C448.226 90.4129 446.848 90.6558 445.22 90.6558ZM445.876 86.7938C447.577 86.7938 449.01 86.4598 450.176 85.7918C451.354 85.1238 452.24 84.2615 452.835 83.2049C453.443 82.1483 453.746 81.0371 453.746 79.8712V75.9362C453.564 76.1548 453.163 76.3552 452.544 76.5374C451.937 76.7074 451.232 76.8592 450.431 76.9928C449.641 77.1143 448.87 77.2236 448.117 77.3207C447.376 77.4058 446.775 77.4786 446.313 77.5393C445.196 77.6851 444.152 77.9219 443.18 78.2498C442.221 78.5656 441.443 79.0453 440.848 79.689C440.265 80.3205 439.974 81.1828 439.974 82.2759C439.974 83.7697 440.526 84.8991 441.632 85.6643C442.749 86.4173 444.164 86.7938 445.876 86.7938ZM482.725 90V65.9531H475.293C473.617 65.9531 472.299 66.3418 471.34 67.119C470.38 67.8963 469.9 68.9651 469.9 70.3253C469.9 71.6612 470.332 72.7118 471.194 73.4769C472.068 74.242 473.265 74.6246 474.783 74.6246H483.818V78.6324H474.783C472.888 78.6324 471.255 78.2984 469.882 77.6304C468.51 76.9625 467.453 76.0091 466.712 74.7703C465.971 73.5194 465.601 72.0377 465.601 70.3253C465.601 68.6007 465.99 67.119 466.767 65.8803C467.544 64.6415 468.656 63.6881 470.101 63.0201C471.558 62.3522 473.289 62.0182 475.293 62.0182H486.806V90H482.725ZM464.071 90L472.014 76.082H476.677L468.734 90H464.071ZM509.127 90V62.0182H531.133V90H526.834V66.026H513.426V90H509.127ZM538.985 100.493V62.0182H543.139V66.4632H543.649C543.964 65.9774 544.402 65.358 544.96 64.605C545.531 63.8399 546.345 63.1598 547.401 62.5647C548.47 61.9575 549.915 61.6538 551.737 61.6538C554.093 61.6538 556.17 62.2429 557.968 63.4209C559.765 64.599 561.168 66.2689 562.176 68.4307C563.184 70.5925 563.688 73.1429 563.688 76.082C563.688 79.0453 563.184 81.614 562.176 83.7879C561.168 85.9497 559.771 87.6257 557.986 88.8159C556.2 89.9939 554.142 90.583 551.81 90.583C550.013 90.583 548.573 90.2854 547.493 89.6903C546.412 89.0831 545.58 88.3969 544.997 87.6317C544.414 86.8545 543.964 86.2108 543.649 85.7007H543.284V100.493H538.985ZM543.211 76.0091C543.211 78.1223 543.521 79.9865 544.141 81.6018C544.76 83.2049 545.665 84.4619 546.855 85.3728C548.045 86.2715 549.503 86.7209 551.227 86.7209C553.025 86.7209 554.524 86.2472 555.727 85.2999C556.941 84.3405 557.852 83.0531 558.459 81.4379C559.079 79.8104 559.388 78.0009 559.388 76.0091C559.388 74.0416 559.085 72.2685 558.478 70.6896C557.882 69.0987 556.978 67.8417 555.763 66.9186C554.561 65.9835 553.049 65.5159 551.227 65.5159C549.478 65.5159 548.009 65.9592 546.819 66.8458C545.628 67.7202 544.73 68.9468 544.122 70.5257C543.515 72.0924 543.211 73.9202 543.211 76.0091ZM578.48 90.6558C576.707 90.6558 575.098 90.3218 573.653 89.6539C572.207 88.9738 571.06 87.9961 570.21 86.7209C569.359 85.4335 568.934 83.879 568.934 82.0572C568.934 80.4541 569.25 79.1546 569.882 78.1587C570.513 77.1507 571.357 76.3613 572.414 75.7905C573.47 75.2197 574.636 74.7946 575.912 74.5153C577.199 74.2238 578.492 73.993 579.792 73.823C581.492 73.6044 582.871 73.4404 583.927 73.3311C584.996 73.2097 585.773 73.0093 586.259 72.73C586.757 72.4506 587.006 71.9648 587.006 71.2726V71.1268C587.006 69.3294 586.514 67.9327 585.53 66.9369C584.559 65.941 583.083 65.443 581.104 65.443C579.051 65.443 577.442 65.8924 576.276 66.7911C575.11 67.6898 574.29 68.6493 573.817 69.6695L569.736 68.2121C570.465 66.5118 571.436 65.188 572.651 64.2407C573.877 63.2812 575.213 62.6133 576.658 62.2368C578.116 61.8482 579.549 61.6538 580.958 61.6538C581.856 61.6538 582.889 61.7631 584.055 61.9817C585.233 62.1882 586.368 62.6194 587.461 63.2752C588.567 63.931 589.483 64.9208 590.212 66.2446C590.941 67.5684 591.305 69.3415 591.305 71.5641V90H587.006V86.2108H586.787C586.496 86.818 586.01 87.4678 585.33 88.16C584.65 88.8523 583.745 89.4413 582.616 89.9271C581.486 90.4129 580.108 90.6558 578.48 90.6558ZM579.136 86.7938C580.836 86.7938 582.269 86.4598 583.435 85.7918C584.613 85.1238 585.5 84.2615 586.095 83.2049C586.702 82.1483 587.006 81.0371 587.006 79.8712V75.9362C586.824 76.1548 586.423 76.3552 585.804 76.5374C585.196 76.7074 584.492 76.8592 583.69 76.9928C582.901 77.1143 582.13 77.2236 581.377 77.3207C580.636 77.4058 580.035 77.4786 579.573 77.5393C578.456 77.6851 577.411 77.9219 576.44 78.2498C575.48 78.5656 574.703 79.0453 574.108 79.689C573.525 80.3205 573.234 81.1828 573.234 82.2759C573.234 83.7697 573.786 84.8991 574.891 85.6643C576.009 86.4173 577.424 86.7938 579.136 86.7938ZM599.152 90V62.0182H610.593C613.605 62.0182 615.997 62.6983 617.77 64.0585C619.544 65.4188 620.43 67.2162 620.43 69.4509C620.43 71.1511 619.926 72.4689 618.918 73.404C617.91 74.327 616.617 74.9525 615.038 75.2804C616.07 75.4261 617.072 75.7905 618.044 76.3734C619.027 76.9564 619.841 77.758 620.485 78.7781C621.128 79.7862 621.45 81.0249 621.45 82.4945C621.45 83.9276 621.086 85.2088 620.357 86.3383C619.629 87.4678 618.584 88.3604 617.224 89.0163C615.864 89.6721 614.236 90 612.342 90H599.152ZM603.233 86.0651H612.342C613.823 86.0651 614.983 85.7129 615.821 85.0085C616.659 84.304 617.078 83.3446 617.078 82.1301C617.078 80.6849 616.659 79.5493 615.821 78.7235C614.983 77.8855 613.823 77.4665 612.342 77.4665H603.233V86.0651ZM603.233 73.7501H610.593C611.747 73.7501 612.736 73.5923 613.562 73.2765C614.388 72.9486 615.02 72.4871 615.457 71.892C615.906 71.2847 616.131 70.5682 616.131 69.7423C616.131 68.5643 615.639 67.6413 614.655 66.9733C613.672 66.2932 612.317 65.9531 610.593 65.9531H603.233V73.7501ZM624.971 98.0156V85.9922H627.303C627.873 85.3971 628.365 84.7534 628.778 84.0612C629.191 83.3689 629.549 82.5491 629.853 81.6018C630.169 80.6424 630.436 79.4765 630.655 78.1041C630.873 76.7196 631.068 75.0496 631.238 73.0943L632.185 62.0182H649.965V85.9922H654.264V98.0156H649.965V90H629.27V98.0156H624.971ZM632.185 85.9922H645.666V66.026H636.193L635.464 73.0943C635.16 76.0212 634.784 78.5777 634.335 80.7638C633.885 82.9499 633.169 84.6927 632.185 85.9922ZM671.339 90.583C668.812 90.583 666.596 89.9818 664.689 88.7794C662.795 87.5771 661.313 85.895 660.244 83.7332C659.188 81.5714 658.659 79.0453 658.659 76.1548C658.659 73.2401 659.188 70.6957 660.244 68.5218C661.313 66.3478 662.795 64.6597 664.689 63.4574C666.596 62.255 668.812 61.6538 671.339 61.6538C673.865 61.6538 676.075 62.255 677.97 63.4574C679.876 64.6597 681.358 66.3478 682.415 68.5218C683.483 70.6957 684.018 73.2401 684.018 76.1548C684.018 79.0453 683.483 81.5714 682.415 83.7332C681.358 85.895 679.876 87.5771 677.97 88.7794C676.075 89.9818 673.865 90.583 671.339 90.583ZM671.339 86.7209C673.257 86.7209 674.836 86.229 676.075 85.2453C677.314 84.2615 678.231 82.9681 678.826 81.365C679.421 79.7619 679.718 78.0251 679.718 76.1548C679.718 74.2845 679.421 72.5417 678.826 70.9265C678.231 69.3112 677.314 68.0056 676.075 67.0097C674.836 66.0138 673.257 65.5159 671.339 65.5159C669.42 65.5159 667.841 66.0138 666.602 67.0097C665.363 68.0056 664.446 69.3112 663.851 70.9265C663.256 72.5417 662.959 74.2845 662.959 76.1548C662.959 78.0251 663.256 79.7619 663.851 81.365C664.446 82.9681 665.363 84.2615 666.602 85.2453C667.841 86.229 669.42 86.7209 671.339 86.7209ZM690.581 90V62.0182H712.587V90H708.288V66.026H694.88V90H690.581ZM731.806 90.583C729.28 90.583 727.064 89.9818 725.157 88.7794C723.262 87.5771 721.781 85.895 720.712 83.7332C719.655 81.5714 719.127 79.0453 719.127 76.1548C719.127 73.2401 719.655 70.6957 720.712 68.5218C721.781 66.3478 723.262 64.6597 725.157 63.4574C727.064 62.255 729.28 61.6538 731.806 61.6538C734.332 61.6538 736.543 62.255 738.437 63.4574C740.344 64.6597 741.826 66.3478 742.882 68.5218C743.951 70.6957 744.486 73.2401 744.486 76.1548C744.486 79.0453 743.951 81.5714 742.882 83.7332C741.826 85.895 740.344 87.5771 738.437 88.7794C736.543 89.9818 734.332 90.583 731.806 90.583ZM731.806 86.7209C733.725 86.7209 735.304 86.229 736.543 85.2453C737.782 84.2615 738.699 82.9681 739.294 81.365C739.889 79.7619 740.186 78.0251 740.186 76.1548C740.186 74.2845 739.889 72.5417 739.294 70.9265C738.699 69.3112 737.782 68.0056 736.543 67.0097C735.304 66.0138 733.725 65.5159 731.806 65.5159C729.887 65.5159 728.309 66.0138 727.07 67.0097C725.831 68.0056 724.914 69.3112 724.319 70.9265C723.724 72.5417 723.426 74.2845 723.426 76.1548C723.426 78.0251 723.724 79.7619 724.319 81.365C724.914 82.9681 725.831 84.2615 727.07 85.2453C728.309 86.229 729.887 86.7209 731.806 86.7209ZM748.061 98.0156V85.9922H750.393C750.963 85.3971 751.455 84.7534 751.868 84.0612C752.281 83.3689 752.639 82.5491 752.943 81.6018C753.259 80.6424 753.526 79.4765 753.745 78.1041C753.963 76.7196 754.157 75.0496 754.328 73.0943L755.275 62.0182H773.055V85.9922H777.354V98.0156H773.055V90H752.36V98.0156H748.061ZM755.275 85.9922H768.756V66.026H759.283L758.554 73.0943C758.25 76.0212 757.874 78.5777 757.424 80.7638C756.975 82.9499 756.259 84.6927 755.275 85.9922ZM794.428 90.583C791.902 90.583 789.686 89.9818 787.779 88.7794C785.884 87.5771 784.403 85.895 783.334 83.7332C782.277 81.5714 781.749 79.0453 781.749 76.1548C781.749 73.2401 782.277 70.6957 783.334 68.5218C784.403 66.3478 785.884 64.6597 787.779 63.4574C789.686 62.255 791.902 61.6538 794.428 61.6538C796.955 61.6538 799.165 62.255 801.06 63.4574C802.966 64.6597 804.448 66.3478 805.505 68.5218C806.573 70.6957 807.108 73.2401 807.108 76.1548C807.108 79.0453 806.573 81.5714 805.505 83.7332C804.448 85.895 802.966 87.5771 801.06 88.7794C799.165 89.9818 796.955 90.583 794.428 90.583ZM794.428 86.7209C796.347 86.7209 797.926 86.229 799.165 85.2453C800.404 84.2615 801.321 82.9681 801.916 81.365C802.511 79.7619 802.808 78.0251 802.808 76.1548C802.808 74.2845 802.511 72.5417 801.916 70.9265C801.321 69.3112 800.404 68.0056 799.165 67.0097C797.926 66.0138 796.347 65.5159 794.428 65.5159C792.51 65.5159 790.931 66.0138 789.692 67.0097C788.453 68.0056 787.536 69.3112 786.941 70.9265C786.346 72.5417 786.048 74.2845 786.048 76.1548C786.048 78.0251 786.346 79.7619 786.941 81.365C787.536 82.9681 788.453 84.2615 789.692 85.2453C790.931 86.229 792.51 86.7209 794.428 86.7209ZM834.438 51.525L836.624 54.1483C835.774 54.9741 834.79 55.551 833.673 55.8789C832.556 56.2069 831.293 56.4072 829.884 56.4801C828.475 56.553 826.908 56.6259 825.184 56.6987C823.241 56.7716 821.631 57.2452 820.356 58.1197C819.081 58.9941 818.097 60.2572 817.405 61.9089C816.713 63.5606 816.269 65.5888 816.075 67.9935H816.44C817.387 66.2446 818.698 64.9572 820.374 64.1314C822.05 63.3055 823.848 62.8926 825.767 62.8926C827.953 62.8926 829.92 63.4027 831.669 64.4229C833.418 65.443 834.803 66.9551 835.823 68.959C836.843 70.9629 837.353 73.4344 837.353 76.3734C837.353 79.3004 836.831 81.8265 835.786 83.9518C834.754 86.0772 833.303 87.7168 831.432 88.8705C829.574 90.0121 827.394 90.583 824.892 90.583C822.391 90.583 820.198 89.9939 818.316 88.8159C816.433 87.6257 814.97 85.8647 813.926 83.5328C812.881 81.1889 812.359 78.2923 812.359 74.8432V71.8555C812.359 65.6252 813.415 60.9009 815.529 57.6825C817.654 54.4641 820.848 52.8002 825.111 52.6909C826.617 52.6423 827.959 52.6302 829.137 52.6545C830.315 52.6788 831.341 52.6241 832.216 52.4905C833.09 52.3569 833.831 52.0351 834.438 51.525ZM824.892 86.7209C826.58 86.7209 828.032 86.2958 829.246 85.4457C830.473 84.5955 831.414 83.3993 832.07 81.8569C832.726 80.3023 833.054 78.4745 833.054 76.3734C833.054 74.3331 832.72 72.5964 832.052 71.1633C831.396 69.7302 830.455 68.6371 829.228 67.8842C828.001 67.1312 826.532 66.7547 824.819 66.7547C823.569 66.7547 822.445 66.9672 821.449 67.3923C820.453 67.8174 819.603 68.4428 818.899 69.2687C818.194 70.0945 817.648 71.1026 817.259 72.2928C816.883 73.483 816.682 74.8432 816.658 76.3734C816.658 79.5068 817.393 82.0147 818.862 83.8972C820.332 85.7797 822.342 86.7209 824.892 86.7209ZM862.657 74.0416V78.0494H847.209V74.0416H862.657ZM848.229 62.0182V90H843.929V62.0182H848.229ZM865.936 62.0182V90H861.637V62.0182H865.936ZM882.022 90.6558C880.249 90.6558 878.64 90.3218 877.194 89.6539C875.749 88.9738 874.601 87.9961 873.751 86.7209C872.901 85.4335 872.476 83.879 872.476 82.0572C872.476 80.4541 872.792 79.1546 873.423 78.1587C874.055 77.1507 874.899 76.3613 875.956 75.7905C877.012 75.2197 878.178 74.7946 879.453 74.5153C880.741 74.2238 882.034 73.993 883.334 73.823C885.034 73.6044 886.412 73.4404 887.469 73.3311C888.538 73.2097 889.315 73.0093 889.801 72.73C890.299 72.4506 890.548 71.9648 890.548 71.2726V71.1268C890.548 69.3294 890.056 67.9327 889.072 66.9369C888.1 65.941 886.625 65.443 884.645 65.443C882.593 65.443 880.984 65.8924 879.818 66.7911C878.652 67.6898 877.832 68.6493 877.358 69.6695L873.278 68.2121C874.006 66.5118 874.978 65.188 876.192 64.2407C877.419 63.2812 878.755 62.6133 880.2 62.2368C881.658 61.8482 883.091 61.6538 884.499 61.6538C885.398 61.6538 886.43 61.7631 887.596 61.9817C888.774 62.1882 889.91 62.6194 891.003 63.2752C892.108 63.931 893.025 64.9208 893.754 66.2446C894.483 67.5684 894.847 69.3415 894.847 71.5641V90H890.548V86.2108H890.329C890.038 86.818 889.552 87.4678 888.872 88.16C888.192 88.8523 887.287 89.4413 886.157 89.9271C885.028 90.4129 883.649 90.6558 882.022 90.6558ZM882.678 86.7938C884.378 86.7938 885.811 86.4598 886.977 85.7918C888.155 85.1238 889.042 84.2615 889.637 83.2049C890.244 82.1483 890.548 81.0371 890.548 79.8712V75.9362C890.365 76.1548 889.965 76.3552 889.345 76.5374C888.738 76.7074 888.034 76.8592 887.232 76.9928C886.443 77.1143 885.671 77.2236 884.918 77.3207C884.178 77.4058 883.576 77.4786 883.115 77.5393C881.998 77.6851 880.953 77.9219 879.982 78.2498C879.022 78.5656 878.245 79.0453 877.65 79.689C877.067 80.3205 876.775 81.1828 876.775 82.2759C876.775 83.7697 877.328 84.8991 878.433 85.6643C879.55 86.4173 880.965 86.7938 882.678 86.7938ZM919.527 90V65.9531H912.094C910.418 65.9531 909.1 66.3418 908.141 67.119C907.182 67.8963 906.702 68.9651 906.702 70.3253C906.702 71.6612 907.133 72.7118 907.995 73.4769C908.87 74.242 910.066 74.6246 911.584 74.6246H920.62V78.6324H911.584C909.689 78.6324 908.056 78.2984 906.684 77.6304C905.311 76.9625 904.255 76.0091 903.514 74.7703C902.773 73.5194 902.402 72.0377 902.402 70.3253C902.402 68.6007 902.791 67.119 903.568 65.8803C904.346 64.6415 905.457 63.6881 906.902 63.0201C908.36 62.3522 910.09 62.0182 912.094 62.0182H923.607V90H919.527ZM900.872 90L908.815 76.082H913.479L905.536 90H900.872ZM943.451 90V85.9922H944.471C945.309 85.9922 946.007 85.8282 946.566 85.5003C947.125 85.1603 947.574 84.5712 947.914 83.7332C948.266 82.8831 948.533 81.705 948.716 80.1991C948.91 78.681 949.05 76.7499 949.135 74.406L949.645 62.0182H968.299V90H964V66.026H953.725L953.288 76.0091C953.191 78.3045 952.984 80.3266 952.669 82.0755C952.365 83.8122 951.898 85.2696 951.266 86.4476C950.647 87.6257 949.821 88.5123 948.788 89.1074C947.756 89.7025 946.463 90 944.908 90H943.451ZM987.555 90.583C985.029 90.583 982.812 89.9818 980.906 88.7794C979.011 87.5771 977.529 85.895 976.461 83.7332C975.404 81.5714 974.876 79.0453 974.876 76.1548C974.876 73.2401 975.404 70.6957 976.461 68.5218C977.529 66.3478 979.011 64.6597 980.906 63.4574C982.812 62.255 985.029 61.6538 987.555 61.6538C990.081 61.6538 992.291 62.255 994.186 63.4574C996.093 64.6597 997.574 66.3478 998.631 68.5218C999.7 70.6957 1000.23 73.2401 1000.23 76.1548C1000.23 79.0453 999.7 81.5714 998.631 83.7332C997.574 85.895 996.093 87.5771 994.186 88.7794C992.291 89.9818 990.081 90.583 987.555 90.583ZM987.555 86.7209C989.474 86.7209 991.053 86.229 992.291 85.2453C993.53 84.2615 994.447 82.9681 995.042 81.365C995.637 79.7619 995.935 78.0251 995.935 76.1548C995.935 74.2845 995.637 72.5417 995.042 70.9265C994.447 69.3112 993.53 68.0056 992.291 67.0097C991.053 66.0138 989.474 65.5159 987.555 65.5159C985.636 65.5159 984.057 66.0138 982.818 67.0097C981.58 68.0056 980.663 69.3112 980.068 70.9265C979.472 72.5417 979.175 74.2845 979.175 76.1548C979.175 78.0251 979.472 79.7619 980.068 81.365C980.663 82.9681 981.58 84.2615 982.818 85.2453C984.057 86.229 985.636 86.7209 987.555 86.7209ZM1003.9 90L1015.26 75.7905L1004.04 62.0182H1009.14L1018.47 73.9688H1020.8V62.0182H1025.1V73.9688H1027.36L1036.69 62.0182H1041.79L1030.64 75.7905L1041.93 90H1036.76L1027.29 77.9766H1025.1V90H1020.8V77.9766H1018.62L1009.07 90H1003.9ZM1051.79 72.147H1059.81C1063.09 72.147 1065.6 72.9789 1067.33 74.6428C1069.07 76.3066 1069.94 78.4138 1069.94 80.9642C1069.94 82.6402 1069.55 84.1644 1068.77 85.5368C1068 86.897 1066.85 87.9839 1065.35 88.7977C1063.84 89.5992 1062 90 1059.81 90H1048.08V62.0182H1052.38V85.9922H1059.81C1061.51 85.9922 1062.91 85.5428 1064 84.6441C1065.09 83.7454 1065.64 82.5916 1065.64 81.1828C1065.64 79.7011 1065.09 78.4927 1064 77.5576C1062.91 76.6224 1061.51 76.1548 1059.81 76.1548H1051.79V72.147Z" fill="white"/>
<path d="M55.392 11.2101C55.2685 12.1984 43.2019 13.2221 42.0711 13.599C32.6096 16.7528 21.3107 23.2885 15.7126 32.0216C10.9779 39.4078 8.86617 48.4833 6.40013 56.8009C3.28243 67.3166 0.137901 79.4132 0.00284363 90.4879C-0.093766 98.4099 2.26974 103.129 7.33138 109.275C17.2736 121.348 30.6881 130.3 44.136 138.022C85.2406 161.627 131.608 163.792 177.993 163.53C204.228 163.382 230.773 159.542 256.826 156.647C274.528 154.68 292.94 153.339 307.639 142.314C315.536 136.391 322.66 126.076 327.236 117.251C330.456 111.042 329.391 102.541 330.516 95.792C331.52 89.7651 332.42 83.6363 333.026 77.5719C333.598 71.8514 334.579 66.8141 332.338 61.3357C328.277 51.4101 320.923 43.6987 312.66 37.0422C296.731 24.2104 278.399 14.4555 258.729 8.45688C245.813 4.51821 230.954 3.51595 217.551 3.23378C203.759 2.94341 189.842 2.90144 176.05 3.23378C154.727 3.74759 133.626 9.34039 112.401 9.75254C94.0354 10.1091 74.7709 11.3008 57.9023 18.8626C48.4783 23.0872 42.906 27.3402 35.7143 34.5319" stroke="white" stroke-width="2" stroke-linecap="round"/>
</g>
<defs>
<clipPath id="clip0_13_14">
<rect width="1073" height="166" fill="white"/>
</clipPath>
</defs>
</svg>
