<svg width="550" height="182" viewBox="0 0 550 182" fill="none" xmlns="http://www.w3.org/2000/svg">
<g clip-path="url(#clip0_14_198)">
<path d="M81.2937 104.463L76.8314 70.1173L80.5392 69.6356L81.0547 73.6036L81.5101 73.5444C81.7356 73.0741 82.0541 72.4705 82.4654 71.7335C82.8863 70.9843 83.5338 70.2828 84.408 69.629C85.2916 68.963 86.5465 68.5244 88.1728 68.3131C90.276 68.0398 92.1982 68.3248 93.9394 69.1679C95.6806 70.0111 97.1265 71.3391 98.2771 73.152C99.4276 74.9649 100.173 77.1832 100.514 79.8068C100.858 82.4522 100.706 84.8036 100.058 86.8612C99.4091 88.9079 98.3567 90.566 96.901 91.8356C95.4439 93.0942 93.6746 93.8588 91.593 94.1293C89.9885 94.3377 88.6692 94.239 87.6353 93.8331C86.6 93.4164 85.7777 92.9004 85.1686 92.285C84.5581 91.6587 84.0823 91.1362 83.7412 90.7175L83.416 90.7598L85.1316 103.965L81.2937 104.463ZM82.2269 82.1166C82.472 84.0031 82.9647 85.6313 83.7049 87.0014C84.4438 88.3607 85.3973 89.3778 86.5654 90.0529C87.7321 90.7171 89.0852 90.9493 90.6247 90.7492C92.2292 90.5408 93.5132 89.944 94.4767 88.9589C95.4496 87.9616 96.1134 86.7067 96.4681 85.1944C96.8323 83.6697 96.8989 82.0184 96.6679 80.2404C96.4397 78.4841 95.963 76.9364 95.2378 75.5974C94.522 74.2462 93.5686 73.2291 92.3774 72.546C91.1956 71.8506 89.7916 71.6086 88.1653 71.8198C86.6041 72.0227 85.3437 72.5888 84.3841 73.5183C83.423 74.4369 82.763 75.6362 82.404 77.116C82.0437 78.585 81.9846 80.2519 82.2269 82.1166ZM115.41 91.1011C113.827 91.3067 112.351 91.1952 110.984 90.7666C109.615 90.3271 108.477 89.5874 107.57 88.5477C106.662 87.4971 106.102 86.1586 105.891 84.5324C105.705 83.1013 105.836 81.9046 106.284 80.9424C106.731 79.9693 107.393 79.1667 108.27 78.5346C109.147 77.9025 110.139 77.3878 111.245 76.9906C112.36 76.581 113.488 76.225 114.628 75.9225C116.121 75.5302 117.332 75.224 118.263 75.0038C119.203 74.7715 119.873 74.5024 120.275 74.1967C120.687 73.8896 120.853 73.4271 120.772 72.8091L120.755 72.679C120.547 71.0745 119.946 69.8847 118.952 69.1098C117.969 68.3335 116.594 68.0601 114.827 68.2897C112.995 68.5278 111.611 69.1156 110.674 70.053C109.737 70.9905 109.117 71.9421 108.812 72.9077L105.001 72.08C105.454 70.4777 106.168 69.1833 107.142 68.1968C108.126 67.198 109.241 66.4468 110.487 65.9431C111.743 65.4271 113 65.0875 114.258 64.9241C115.06 64.8198 115.994 64.7977 117.06 64.8576C118.136 64.9053 119.2 65.1584 120.251 65.6171C121.314 66.0744 122.247 66.8516 123.051 67.9489C123.855 69.0461 124.386 70.5867 124.644 72.5707L126.782 89.0282L122.944 89.5268L122.505 86.1443L122.31 86.1696C122.12 86.7455 121.762 87.3819 121.235 88.0787C120.708 88.7756 119.969 89.4063 119.017 89.971C118.065 90.5356 116.862 90.9124 115.41 91.1011ZM115.547 87.5774C117.065 87.3802 118.305 86.9159 119.269 86.1844C120.243 85.4514 120.934 84.5789 121.343 83.5666C121.763 82.553 121.905 81.5258 121.77 80.485L121.313 76.9723C121.176 77.1886 120.841 77.4139 120.31 77.6484C119.787 77.8706 119.176 78.0878 118.476 78.3C117.785 78.5 117.11 78.687 116.449 78.8611C115.797 79.0229 115.269 79.1577 114.864 79.2654C113.884 79.5251 112.979 79.8577 112.149 80.2631C111.329 80.6562 110.691 81.1746 110.235 81.8182C109.788 82.4496 109.627 83.2532 109.754 84.2289C109.927 85.5624 110.552 86.5066 111.627 87.0614C112.712 87.604 114.018 87.776 115.547 87.5774Z" fill="white"/>
<path d="M93.5463 13.6256L95.8766 15.6302C95.2443 16.4896 94.4565 17.1479 93.5132 17.6048C92.5698 18.0618 91.4781 18.4272 90.2381 18.701C88.9981 18.9748 87.6179 19.2721 86.0975 19.5928C84.383 19.9459 83.0246 20.6053 82.0221 21.5709C81.0197 22.5366 80.3338 23.8041 79.9643 25.3733C79.5948 26.9426 79.5023 28.8091 79.6867 30.973L80.0102 30.9189C80.5917 29.2256 81.5652 27.8879 82.9306 26.9059C84.2961 25.9238 85.8307 25.2904 87.5344 25.0056C89.4754 24.6811 91.298 24.842 93.0022 25.4882C94.7063 26.1344 96.16 27.2713 97.3633 28.8991C98.5665 30.5269 99.3862 32.6455 99.8225 35.255C100.257 37.8538 100.168 40.1741 99.5563 42.2162C98.9552 44.2565 97.91 45.9276 96.4207 47.2296C94.9403 48.519 93.0895 49.3494 90.8682 49.7208C88.6469 50.0921 86.6131 49.8945 84.7668 49.128C82.9188 48.3506 81.3581 47.0043 80.0846 45.089C78.8094 43.1629 77.9157 40.6687 77.4038 37.6063L76.9603 34.9536C76.0356 29.4219 76.2724 25.0705 77.671 21.8993C79.0803 18.7263 81.6693 16.775 85.4379 16.0452C86.7678 15.7785 87.9575 15.5685 89.0071 15.4152C90.0567 15.2619 90.9597 15.0611 91.7163 14.8127C92.4728 14.5643 93.0828 14.1686 93.5463 13.6256ZM90.2949 46.2917C91.7938 46.0412 93.0192 45.4483 93.9714 44.5133C94.9343 43.5764 95.5924 42.3745 95.9457 40.9077C96.2973 39.4302 96.3171 37.7587 96.0052 35.8932C95.7024 34.0816 95.1481 32.5892 94.3423 31.416C93.5473 30.2409 92.5494 29.4101 91.3485 28.9237C90.1477 28.4372 88.787 28.321 87.2666 28.5752C86.156 28.7609 85.1901 29.1163 84.369 29.6416C83.5478 30.1668 82.8859 30.8483 82.383 31.6861C81.8802 32.5239 81.5446 33.5 81.3762 34.6145C81.2186 35.7271 81.2426 36.9645 81.4481 38.3268C81.9132 41.1088 82.9378 43.2265 84.522 44.6797C86.1062 46.133 88.0305 46.6703 90.2949 46.2917ZM110.56 40.1106L119.317 18.8942L123.717 18.1587L127.87 43.0029L124.053 43.641L120.84 24.4256L112.148 45.6312L107.684 46.3775L103.531 21.5333L107.348 20.8952L110.56 40.1106Z" fill="white"/>
<path d="M153.152 166.067C151.158 167.331 149.142 167.949 147.104 167.92C145.067 167.891 143.137 167.296 141.313 166.135C139.49 164.974 137.905 163.331 136.559 161.208C135.189 159.047 134.377 156.888 134.124 154.732C133.874 152.561 134.169 150.555 135.009 148.715C135.852 146.861 137.234 145.324 139.155 144.107C140.651 143.159 142.174 142.581 143.726 142.374C145.278 142.167 146.753 142.32 148.151 142.831C149.55 143.342 150.763 144.204 151.79 145.417L148.522 147.489C147.658 146.678 146.559 146.17 145.226 145.966C143.897 145.748 142.512 146.095 141.071 147.008C139.797 147.816 138.891 148.856 138.352 150.13C137.816 151.389 137.661 152.788 137.886 154.328C138.115 155.852 138.739 157.418 139.757 159.025C140.799 160.668 141.965 161.936 143.255 162.827C144.554 163.712 145.892 164.19 147.271 164.262C148.658 164.327 149.998 163.95 151.291 163.13C152.141 162.592 152.818 161.955 153.323 161.221C153.829 160.486 154.146 159.69 154.275 158.832C154.404 157.973 154.324 157.092 154.035 156.187L157.304 154.115C157.915 155.488 158.175 156.909 158.084 158.378C157.996 159.832 157.543 161.232 156.727 162.578C155.914 163.909 154.722 165.072 153.152 166.067ZM178.814 149.179L167.225 130.896L161.574 134.478C160.299 135.286 159.485 136.216 159.13 137.27C158.775 138.323 158.925 139.367 159.581 140.401C160.225 141.417 161.059 142.008 162.083 142.174C163.117 142.334 164.211 142.049 165.365 141.317L172.235 136.962L174.166 140.009L167.296 144.364C165.856 145.277 164.453 145.81 163.088 145.964C161.722 146.118 160.46 145.902 159.299 145.317C158.133 144.723 157.137 143.775 156.312 142.473C155.481 141.162 155.062 139.848 155.056 138.532C155.05 137.215 155.436 135.955 156.213 134.75C156.999 133.54 158.154 132.452 159.677 131.486L168.431 125.937L181.917 147.212L178.814 149.179ZM164.631 158.169L163.962 143.759L167.508 141.512L168.177 155.922L164.631 158.169Z" fill="white"/>
<path d="M15.2781 45.3259C12.9473 44.9468 11.0297 44.07 9.52535 42.6956C8.02098 41.3211 6.97266 39.5944 6.38038 37.5154C5.7881 35.4364 5.6938 33.1559 6.09746 30.674C6.50815 28.1489 7.33458 25.9961 8.57675 24.2154C9.83147 22.4258 11.3838 21.122 13.2336 20.3042C15.096 19.4773 17.1495 19.2464 19.394 19.6114C21.1421 19.8957 22.6649 20.4757 23.9624 21.3513C25.2599 22.2269 26.2618 23.3203 26.9679 24.6314C27.6739 25.9425 28.0085 27.3925 27.9716 28.9815L24.1516 28.3602C24.0446 27.1798 23.5603 26.0709 22.699 25.0336C21.8501 23.9873 20.584 23.3273 18.9006 23.0535C17.4115 22.8113 16.0426 22.9874 14.794 23.5818C13.5579 24.1672 12.5128 25.1104 11.6588 26.4114C10.8173 27.7034 10.2439 29.2882 9.9385 31.1658C9.6261 33.0866 9.65621 34.8083 10.0288 36.331C10.4122 37.8554 11.0956 39.1019 12.079 40.0704C13.0731 41.0407 14.3255 41.6487 15.8363 41.8944C16.829 42.0558 17.7581 42.0297 18.6236 41.8161C19.4891 41.6024 20.2551 41.2174 20.9215 40.6613C21.5879 40.1051 22.1136 39.3931 22.4984 38.5252L26.3184 39.1465C25.8639 40.579 25.1147 41.814 24.0709 42.8516C23.0397 43.8801 21.7719 44.6265 20.2675 45.0907C18.7757 45.5458 17.1126 45.6243 15.2781 45.3259ZM40.7393 49.467C38.4948 49.1019 36.6123 48.2475 35.0919 46.9036C33.5823 45.5615 32.5089 43.8529 31.8717 41.7776C31.2452 39.7042 31.1409 37.3833 31.5586 34.8151C31.9798 32.2253 32.8169 30.0409 34.0699 28.262C35.3336 26.4849 36.8941 25.1991 38.7512 24.4046C40.6191 23.6118 42.6754 23.398 44.9199 23.763C47.1644 24.1281 49.0414 24.9817 50.5511 26.3237C52.0715 27.6676 53.144 29.3816 53.7687 31.4659C54.4041 33.5519 54.5112 35.8898 54.09 38.4797C53.6723 41.0479 52.8325 43.2152 51.5705 44.9815C50.3192 46.7496 48.7597 48.03 46.8918 48.8228C45.0346 49.6173 42.9838 49.832 40.7393 49.467ZM41.2974 46.0355C43.0024 46.3128 44.4763 46.1039 45.7191 45.4088C46.9619 44.7138 47.9636 43.6971 48.724 42.3587C49.4844 41.0203 49.9998 39.5202 50.27 37.8584C50.5403 36.1966 50.5278 34.6051 50.2325 33.0839C49.9371 31.5627 49.3111 30.2702 48.3543 29.2063C47.3976 28.1424 46.0667 27.4718 44.3617 27.1945C42.6568 26.9172 41.182 27.1315 39.9374 27.8373C38.6928 28.5432 37.6895 29.5707 36.9273 30.9199C36.1651 32.2691 35.6489 33.7746 35.3786 35.4364C35.1083 37.0982 35.1217 38.6843 35.4188 40.1947C35.7159 41.7051 36.3437 42.9868 37.3022 44.0399C38.2607 45.093 39.5924 45.7582 41.2974 46.0355Z" fill="white"/>
<path d="M88.1663 140.202C85.8191 139.585 83.9305 138.534 82.5006 137.051C81.0841 135.559 80.162 133.757 79.7342 131.643C79.3197 129.522 79.4405 127.214 80.0966 124.719C80.7527 122.223 81.7856 120.144 83.1953 118.479C84.6184 116.807 86.2897 115.653 88.2094 115.016C90.1424 114.371 92.2085 114.338 94.4078 114.916C95.6766 115.25 96.8739 115.791 97.9998 116.539C99.1257 117.287 100.071 118.27 100.836 119.489C101.603 120.697 102.084 122.157 102.278 123.87C102.472 125.583 102.27 127.576 101.673 129.849L101.256 131.435L82.4775 126.498L83.3282 123.262L98.3 127.199C98.6615 125.824 98.709 124.525 98.4428 123.302C98.1871 122.082 97.6391 121.028 96.7986 120.14C95.9687 119.255 94.8771 118.634 93.5237 118.279C92.0329 117.887 90.6456 117.917 89.362 118.371C88.0917 118.817 87.0115 119.551 86.1214 120.571C85.2312 121.592 84.6096 122.774 84.2566 124.117L83.6894 126.274C83.2057 128.113 83.1129 129.756 83.4109 131.203C83.7222 132.641 84.3613 133.843 85.3281 134.81C86.2976 135.765 87.5384 136.442 89.0504 136.84C90.0337 137.098 90.958 137.194 91.8233 137.128C92.7019 137.054 93.5057 136.813 94.2346 136.405C94.9662 135.987 95.6018 135.397 96.1414 134.635L99.4906 136.6C98.7875 137.727 97.8643 138.637 96.7209 139.331C95.5803 140.015 94.281 140.442 92.8232 140.612C91.368 140.773 89.8158 140.636 88.1663 140.202ZM107.3 122.376L108.218 118.886L128.011 124.091L127.094 127.58L119.1 125.478L113.612 146.35L109.869 145.366L115.357 124.494L107.3 122.376Z" fill="white"/>
<path d="M237.687 96.1514V70.9624H257.497V96.1514H253.627V74.5702H241.557V96.1514H237.687ZM274.798 96.6761C272.524 96.6761 270.529 96.135 268.812 95.0526C267.107 93.9703 265.773 92.4561 264.811 90.5101C263.86 88.5641 263.384 86.2901 263.384 83.6881C263.384 81.0642 263.86 78.7738 264.811 76.8169C265.773 74.8599 267.107 73.3403 268.812 72.258C270.529 71.1756 272.524 70.6344 274.798 70.6344C277.072 70.6344 279.062 71.1756 280.767 72.258C282.483 73.3403 283.817 74.8599 284.768 76.8169C285.73 78.7738 286.212 81.0642 286.212 83.6881C286.212 86.2901 285.73 88.5641 284.768 90.5101C283.817 92.4561 282.483 93.9703 280.767 95.0526C279.062 96.135 277.072 96.6761 274.798 96.6761ZM274.798 93.1995C276.525 93.1995 277.946 92.7568 279.062 91.8712C280.177 90.9857 281.002 89.8213 281.538 88.3782C282.073 86.9351 282.341 85.3717 282.341 83.6881C282.341 82.0045 282.073 80.4356 281.538 78.9816C281.002 77.5275 280.177 76.3522 279.062 75.4558C277.946 74.5593 276.525 74.111 274.798 74.111C273.07 74.111 271.649 74.5593 270.534 75.4558C269.419 76.3522 268.593 77.5275 268.058 78.9816C267.522 80.4356 267.254 82.0045 267.254 83.6881C267.254 85.3717 267.522 86.9351 268.058 88.3782C268.593 89.8213 269.419 90.9857 270.534 91.8712C271.649 92.7568 273.07 93.1995 274.798 93.1995Z" fill="white"/>
<path d="M365.687 79.1514V53.9624H369.557V64.917H372.115L381.167 53.9624H386.153L375.985 66.0977L386.284 79.1514H381.299L373.033 68.5248H369.557V79.1514H365.687ZM392.983 88.5972C392.327 88.5972 391.742 88.5426 391.228 88.4332C390.714 88.3348 390.359 88.2364 390.162 88.138L391.146 84.727C392.086 84.9676 392.917 85.055 393.639 84.9894C394.36 84.9238 395 84.6013 395.558 84.0219C396.126 83.4534 396.645 82.5296 397.116 81.2504L397.837 79.2826L388.522 53.9624H392.721L399.674 74.0349H399.936L406.889 53.9624H411.087L400.395 82.8248C399.914 84.1257 399.318 85.2026 398.608 86.0554C397.897 86.919 397.072 87.5586 396.132 87.9741C395.202 88.3895 394.153 88.5972 392.983 88.5972Z" fill="white"/>
<path d="M421.575 95.1847C419.253 95.6174 417.152 95.4418 415.271 94.6581C413.39 93.8743 411.819 92.6046 410.558 90.8491C409.296 89.0935 408.435 86.9798 407.974 84.5078C407.506 81.9929 407.554 79.6873 408.12 77.5913C408.694 75.4824 409.713 73.73 411.177 72.334C412.649 70.9252 414.503 70.0125 416.739 69.5959C418.48 69.2714 420.109 69.3013 421.626 69.6858C423.144 70.0702 424.457 70.7597 425.565 71.7542C426.674 72.7487 427.479 73.9997 427.983 75.5073L424.178 76.2164C423.678 75.142 422.847 74.2626 421.685 73.5784C420.532 72.8814 419.117 72.6891 417.44 73.0016C415.957 73.278 414.729 73.9073 413.755 74.8895C412.79 75.8589 412.127 77.1003 411.764 78.6137C411.409 80.1143 411.407 81.7996 411.755 83.6697C412.112 85.5828 412.723 87.1926 413.589 88.4991C414.466 89.8036 415.532 90.745 416.785 91.3232C418.049 91.8995 419.433 92.0474 420.938 91.7669C421.927 91.5827 422.792 91.2434 423.534 90.7493C424.276 90.2551 424.866 89.6335 425.305 88.8845C425.744 88.1355 425.997 87.2875 426.065 86.3407L429.87 85.6315C429.927 87.1333 429.641 88.549 429.01 89.8788C428.388 91.1957 427.448 92.3274 426.19 93.2736C424.94 94.2071 423.402 94.8441 421.575 95.1847ZM446.934 90.4582C444.698 90.8749 442.638 90.7085 440.752 89.9589C438.877 89.2074 437.288 87.9633 435.986 86.2265C434.694 84.4877 433.81 82.3393 433.333 79.7814C432.853 77.2019 432.901 74.8632 433.477 72.7651C434.064 70.665 435.097 68.9267 436.575 67.5502C438.064 66.1717 439.927 65.2741 442.162 64.8574C444.398 64.4408 446.453 64.6082 448.328 65.3597C450.214 66.1092 451.803 67.3588 453.097 69.1083C454.401 70.8559 455.294 73.0193 455.774 75.5988C456.251 78.1567 456.195 80.4803 455.606 82.5697C455.027 84.6571 453.994 86.39 452.504 87.7685C451.026 89.145 449.169 90.0416 446.934 90.4582ZM446.297 87.0405C447.995 86.724 449.311 86.0283 450.245 84.9534C451.179 83.8785 451.777 82.5827 452.039 81.0658C452.301 79.549 452.278 77.963 451.97 76.3079C451.661 74.6528 451.111 73.1595 450.318 71.8283C449.524 70.497 448.498 69.4929 447.237 68.8159C445.977 68.1389 444.497 67.9587 442.799 68.2752C441.101 68.5917 439.786 69.2927 438.854 70.3783C437.922 71.464 437.326 72.7706 437.066 74.2982C436.806 75.8258 436.83 77.4171 437.138 79.0722C437.447 80.7274 437.996 82.2152 438.787 83.5357C439.578 84.8563 440.603 85.8497 441.862 86.5159C443.12 87.1821 444.599 87.357 446.297 87.0405ZM478.338 58.4485L482.954 83.211L479.149 83.9201L474.534 59.1576L478.338 58.4485ZM479.055 70.5258L479.716 74.0725C478.916 74.5552 478.115 74.9993 477.312 75.4047C476.507 75.7994 475.65 76.1537 474.741 76.4677C473.83 76.771 472.815 77.0268 471.697 77.2351C468.892 77.7579 466.5 77.4199 464.519 76.221C462.549 75.02 461.282 72.9042 460.717 69.8733L459.239 61.9416L463.043 61.2325L464.522 69.1642C464.758 70.4324 465.194 71.4299 465.83 72.1566C466.466 72.8832 467.235 73.3683 468.136 73.6117C469.038 73.8551 470.005 73.8807 471.036 73.6884C472.649 73.3879 474.078 72.9714 475.324 72.4388C476.579 71.8935 477.823 71.2558 479.055 70.5258Z" fill="white"/>
<path d="M457.81 44.1555L465.333 20.1162L469.027 21.272L465.755 31.7266L468.196 32.4907L480.107 24.7395L484.865 26.2284L471.537 34.7733L477.467 50.307L472.71 48.8181L467.995 36.2081L464.677 35.1698L461.504 45.3114L457.81 44.1555ZM488.38 54.3403C486.856 53.8636 485.564 53.1441 484.502 52.1817C483.443 51.2089 482.72 50.0604 482.332 48.7363C481.948 47.4018 482.001 45.952 482.49 44.3869C482.921 43.0096 483.542 41.9781 484.352 41.2923C485.166 40.5961 486.103 40.1449 487.164 39.9385C488.226 39.7322 489.342 39.6805 490.512 39.7833C491.697 39.879 492.87 40.0285 494.032 40.2318C495.551 40.5011 496.78 40.7308 497.717 40.921C498.668 41.104 499.389 41.1408 499.882 41.0314C500.385 40.9253 500.729 40.5749 500.915 39.9802L500.954 39.855C501.438 38.3108 501.391 36.9787 500.813 35.8586C500.246 34.7418 499.112 33.9174 497.412 33.3851C495.648 32.8333 494.145 32.7868 492.902 33.2454C491.659 33.7041 490.696 34.3079 490.015 35.057L486.901 32.7079C487.984 31.4431 489.175 30.567 490.473 30.0797C491.785 29.5852 493.112 29.3705 494.455 29.4356C495.811 29.4935 497.095 29.7119 498.305 30.0906C499.077 30.3323 499.935 30.7037 500.878 31.2049C501.834 31.699 502.694 32.3747 503.457 33.232C504.23 34.0925 504.751 35.1894 505.021 36.5226C505.292 37.8558 505.128 39.4771 504.53 41.3864L499.574 57.2249L495.88 56.069L496.899 52.8137L496.711 52.7549C496.298 53.1982 495.706 53.6258 494.935 54.0377C494.165 54.4496 493.229 54.7124 492.128 54.8261C491.027 54.9398 489.778 54.7779 488.38 54.3403ZM489.981 51.1987C491.442 51.6558 492.763 51.7542 493.944 51.4938C495.136 51.2366 496.129 50.7342 496.925 49.9865C497.73 49.242 498.29 48.3689 498.603 47.3673L499.661 43.9867C499.446 44.1256 499.048 44.19 498.467 44.18C497.899 44.1628 497.253 44.1038 496.529 44.0031C495.818 43.8952 495.126 43.7818 494.453 43.6628C493.794 43.5367 493.258 43.4377 492.845 43.3658C491.846 43.1906 490.885 43.1132 489.962 43.1337C489.053 43.1471 488.256 43.3502 487.572 43.7432C486.901 44.1291 486.419 44.7915 486.125 45.7305C485.724 47.0139 485.895 48.1328 486.638 49.0872C487.396 50.0345 488.51 50.7384 489.981 51.1987ZM521.029 58.4403L535.373 42.0343L538.879 43.1314L520.964 63.9187L517.96 62.9784L515.278 35.7457L518.721 36.8232L521.029 58.4403ZM517.532 36.451L510.009 60.4904L506.315 59.3345L513.838 35.2952L517.532 36.451ZM528.915 66.4067L536.438 42.3673L540.131 43.5232L532.609 67.5625L528.915 66.4067Z" fill="white"/>
</g>
<defs>
<clipPath id="clip0_14_198">
<rect width="550" height="182" fill="white"/>
</clipPath>
</defs>
</svg>
