<svg width="919" height="56" viewBox="0 0 919 56" fill="none" xmlns="http://www.w3.org/2000/svg">
<g clip-path="url(#clip0_14_199)">
<path d="M7.41237 39.2931L19.5477 19.8111H24.0082V45H20.138V25.5179L8.06833 45H3.54219V19.8111H7.41237V39.2931ZM44.0847 45V19.8111H63.8948V45H60.0246V23.4189H47.9549V45H44.0847ZM81.5238 45.5248C79.0967 45.5248 77.0031 44.9891 75.2429 43.9177C73.4937 42.8353 72.1435 41.3266 71.1924 39.3915C70.2522 37.4455 69.782 35.1824 69.782 32.6023C69.782 30.0222 70.2522 27.7482 71.1924 25.7803C72.1435 23.8015 73.4664 22.26 75.1609 21.1558C76.8664 20.0406 78.8562 19.4831 81.1302 19.4831C82.4421 19.4831 83.7376 19.7017 85.0168 20.139C86.2959 20.5764 87.4602 21.287 88.5098 22.2709C89.5593 23.2439 90.3957 24.534 91.0188 26.1411C91.642 27.7482 91.9536 29.727 91.9536 32.0775V33.7175H72.5371V30.372H88.0178C88.0178 28.9508 87.7335 27.6826 87.165 26.5675C86.6075 25.4523 85.8094 24.5723 84.7708 23.9272C83.7431 23.2822 82.5296 22.9597 81.1302 22.9597C79.5887 22.9597 78.2549 23.3423 77.1288 24.1076C76.0137 24.862 75.1555 25.8459 74.5542 27.0594C73.9529 28.273 73.6522 29.574 73.6522 30.9624V33.1927C73.6522 35.095 73.9802 36.7075 74.6362 38.0304C75.3031 39.3423 76.2269 40.3427 77.4076 41.0314C78.5883 41.7093 79.9604 42.0482 81.5238 42.0482C82.5405 42.0482 83.4589 41.906 84.2788 41.6218C85.1097 41.3266 85.8258 40.8893 86.4271 40.3099C87.0284 39.7195 87.493 38.987 87.821 38.1124L91.56 39.1619C91.1664 40.4301 90.505 41.5453 89.5757 42.5073C88.6464 43.4585 87.4985 44.2019 86.1319 44.7376C84.7653 45.2624 83.2293 45.5248 81.5238 45.5248ZM97.8408 54.4459V19.8111H101.58V23.8124H102.039C102.323 23.3751 102.717 22.8176 103.22 22.1397C103.734 21.451 104.466 20.8387 105.417 20.303C106.379 19.7564 107.68 19.4831 109.32 19.4831C111.441 19.4831 113.311 20.0133 114.929 21.0738C116.547 22.1343 117.809 23.6375 118.717 25.5835C119.624 27.5295 120.078 29.8254 120.078 32.4711C120.078 35.1387 119.624 37.451 118.717 39.4079C117.809 41.3539 116.552 42.8627 114.945 43.9341C113.338 44.9945 111.485 45.5248 109.386 45.5248C107.768 45.5248 106.472 45.2569 105.499 44.7212C104.526 44.1746 103.777 43.5569 103.253 42.8681C102.728 42.1684 102.323 41.589 102.039 41.1298H101.711V54.4459H97.8408ZM101.645 32.4055C101.645 34.3078 101.924 35.986 102.482 37.44C103.039 38.8832 103.854 40.0147 104.925 40.8346C105.997 41.6437 107.309 42.0482 108.861 42.0482C110.479 42.0482 111.829 41.6218 112.912 40.769C114.005 39.9054 114.825 38.7465 115.371 37.2924C115.929 35.8275 116.208 34.1985 116.208 32.4055C116.208 30.6344 115.934 29.0383 115.388 27.617C114.852 26.1848 114.038 25.0533 112.944 24.2224C111.862 23.3806 110.501 22.9597 108.861 22.9597C107.287 22.9597 105.964 23.3587 104.892 24.1568C103.821 24.944 103.012 26.0482 102.465 27.4694C101.919 28.8797 101.645 30.5251 101.645 32.4055ZM136.543 45.5248C134.116 45.5248 132.022 44.9891 130.262 43.9177C128.513 42.8353 127.162 41.3266 126.211 39.3915C125.271 37.4455 124.801 35.1824 124.801 32.6023C124.801 30.0222 125.271 27.7482 126.211 25.7803C127.162 23.8015 128.485 22.26 130.18 21.1558C131.885 20.0406 133.875 19.4831 136.149 19.4831C137.461 19.4831 138.756 19.7017 140.036 20.139C141.315 20.5764 142.479 21.287 143.529 22.2709C144.578 23.2439 145.414 24.534 146.038 26.1411C146.661 27.7482 146.972 29.727 146.972 32.0775V33.7175H127.556V30.372H143.037C143.037 28.9508 142.752 27.6826 142.184 26.5675C141.626 25.4523 140.828 24.5723 139.79 23.9272C138.762 23.2822 137.548 22.9597 136.149 22.9597C134.607 22.9597 133.274 23.3423 132.148 24.1076C131.032 24.862 130.174 25.8459 129.573 27.0594C128.972 28.273 128.671 29.574 128.671 30.9624V33.1927C128.671 35.095 128.999 36.7075 129.655 38.0304C130.322 39.3423 131.246 40.3427 132.426 41.0314C133.607 41.7093 134.979 42.0482 136.543 42.0482C137.559 42.0482 138.478 41.906 139.298 41.6218C140.128 41.3266 140.845 40.8893 141.446 40.3099C142.047 39.7195 142.512 38.987 142.84 38.1124L146.579 39.1619C146.185 40.4301 145.524 41.5453 144.595 42.5073C143.665 43.4585 142.517 44.2019 141.151 44.7376C139.784 45.2624 138.248 45.5248 136.543 45.5248ZM150.17 52.2156V41.3922H152.269C152.783 40.8565 153.226 40.2771 153.598 39.6539C153.969 39.0307 154.292 38.2928 154.565 37.44C154.849 36.5764 155.09 35.5268 155.287 34.2914C155.483 33.0451 155.658 31.5418 155.811 29.7817L156.664 19.8111H172.67V41.3922H176.54V52.2156H172.67V45H154.04V52.2156H150.17ZM156.664 41.3922H168.799V23.4189H160.272L159.616 29.7817C159.343 32.4165 159.004 34.7178 158.599 36.6857C158.195 38.6536 157.55 40.2224 156.664 41.3922ZM189.089 45.5904C187.493 45.5904 186.044 45.2897 184.743 44.6884C183.442 44.0762 182.409 43.1961 181.644 42.0482C180.879 40.8893 180.496 39.4899 180.496 37.85C180.496 36.4069 180.78 35.2371 181.349 34.3406C181.917 33.4332 182.677 32.7226 183.628 32.2087C184.579 31.6949 185.629 31.3123 186.777 31.0608C187.936 30.7984 189.1 30.5907 190.27 30.4376C191.801 30.2409 193.041 30.0933 193.993 29.9949C194.955 29.8855 195.654 29.7052 196.092 29.4537C196.54 29.2023 196.764 28.7649 196.764 28.1418V28.0106C196.764 26.3925 196.321 25.1353 195.436 24.2388C194.561 23.3423 193.233 22.8941 191.451 22.8941C189.603 22.8941 188.154 23.2986 187.105 24.1076C186.055 24.9166 185.317 25.7803 184.891 26.6987L181.218 25.3867C181.874 23.8562 182.748 22.6645 183.842 21.8117C184.946 20.9481 186.148 20.3468 187.449 20.0079C188.761 19.658 190.051 19.4831 191.319 19.4831C192.129 19.4831 193.058 19.5815 194.107 19.7783C195.168 19.9641 196.19 20.3522 197.174 20.9426C198.169 21.533 198.994 22.424 199.65 23.6156C200.306 24.8073 200.634 26.4035 200.634 28.4042V45H196.764V41.589H196.567C196.305 42.1356 195.867 42.7205 195.255 43.3437C194.643 43.9669 193.829 44.4971 192.812 44.9344C191.795 45.3717 190.554 45.5904 189.089 45.5904ZM189.68 42.1138C191.21 42.1138 192.5 41.8131 193.55 41.2118C194.61 40.6105 195.408 39.8343 195.944 38.8832C196.491 37.932 196.764 36.9317 196.764 35.8821V32.3399C196.6 32.5367 196.239 32.7171 195.682 32.8811C195.135 33.0342 194.501 33.1708 193.779 33.2911C193.069 33.4004 192.374 33.4988 191.697 33.5863C191.03 33.6628 190.489 33.7284 190.073 33.7831C189.067 33.9142 188.127 34.1274 187.253 34.4226C186.389 34.7069 185.689 35.1387 185.153 35.7181C184.629 36.2866 184.366 37.0629 184.366 38.0468C184.366 39.3915 184.864 40.4083 185.859 41.097C186.864 41.7749 188.138 42.1138 189.68 42.1138ZM218.259 45.5248C215.832 45.5248 213.738 44.9891 211.978 43.9177C210.229 42.8353 208.879 41.3266 207.928 39.3915C206.987 37.4455 206.517 35.1824 206.517 32.6023C206.517 30.0222 206.987 27.7482 207.928 25.7803C208.879 23.8015 210.202 22.26 211.896 21.1558C213.602 20.0406 215.591 19.4831 217.865 19.4831C219.177 19.4831 220.473 19.7017 221.752 20.139C223.031 20.5764 224.195 21.287 225.245 22.2709C226.295 23.2439 227.131 24.534 227.754 26.1411C228.377 27.7482 228.689 29.727 228.689 32.0775V33.7175H209.272V30.372H224.753C224.753 28.9508 224.469 27.6826 223.9 26.5675C223.343 25.4523 222.545 24.5723 221.506 23.9272C220.478 23.2822 219.265 22.9597 217.865 22.9597C216.324 22.9597 214.99 23.3423 213.864 24.1076C212.749 24.862 211.891 25.8459 211.289 27.0594C210.688 28.273 210.387 29.574 210.387 30.9624V33.1927C210.387 35.095 210.715 36.7075 211.371 38.0304C212.038 39.3423 212.962 40.3427 214.143 41.0314C215.324 41.7093 216.696 42.0482 218.259 42.0482C219.276 42.0482 220.194 41.906 221.014 41.6218C221.845 41.3266 222.561 40.8893 223.162 40.3099C223.764 39.7195 224.228 38.987 224.556 38.1124L228.295 39.1619C227.902 40.4301 227.24 41.5453 226.311 42.5073C225.382 43.4585 224.234 44.2019 222.867 44.7376C221.501 45.2624 219.965 45.5248 218.259 45.5248ZM232.231 23.4189V19.8111H252.697V23.4189H244.432V45H240.562V23.4189H232.231ZM267.268 45.5248C264.906 45.5248 262.873 44.9672 261.167 43.8521C259.462 42.7369 258.15 41.2009 257.231 39.2439C256.313 37.287 255.854 35.0512 255.854 32.5367C255.854 29.9785 256.324 27.7209 257.264 25.7639C258.215 23.796 259.538 22.26 261.233 21.1558C262.938 20.0406 264.928 19.4831 267.202 19.4831C268.973 19.4831 270.569 19.8111 271.99 20.467C273.412 21.123 274.576 22.0413 275.483 23.2221C276.391 24.4028 276.954 25.7803 277.173 27.3546H273.302C273.007 26.2067 272.351 25.1899 271.335 24.3044C270.329 23.4079 268.973 22.9597 267.268 22.9597C265.759 22.9597 264.436 23.3533 263.299 24.1404C262.173 24.9166 261.293 26.0154 260.659 27.4366C260.036 28.8469 259.724 30.5032 259.724 32.4055C259.724 34.3516 260.03 36.0461 260.642 37.4892C261.266 38.9324 262.14 40.053 263.266 40.851C264.403 41.6491 265.737 42.0482 267.268 42.0482C268.273 42.0482 269.186 41.8732 270.006 41.5234C270.826 41.1736 271.52 40.6707 272.089 40.0147C272.657 39.3587 273.062 38.5716 273.302 37.6532H277.173C276.954 39.1401 276.413 40.4793 275.549 41.671C274.696 42.8517 273.565 43.7919 272.154 44.4916C270.755 45.1804 269.126 45.5248 267.268 45.5248ZM297.983 45V23.3533H291.292C289.783 23.3533 288.597 23.7031 287.734 24.4028C286.87 25.1025 286.438 26.0646 286.438 27.289C286.438 28.4916 286.826 29.4373 287.602 30.1261C288.39 30.8148 289.466 31.1592 290.833 31.1592H298.967V34.767H290.833C289.128 34.767 287.657 34.4663 286.422 33.865C285.186 33.2637 284.235 32.4055 283.568 31.2904C282.901 30.1643 282.568 28.8305 282.568 27.289C282.568 25.7366 282.918 24.4028 283.617 23.2877C284.317 22.1725 285.317 21.3143 286.618 20.713C287.93 20.1117 289.488 19.8111 291.292 19.8111H301.656V45H297.983ZM281.19 45L288.34 32.4711H292.539L285.389 45H281.19ZM321.749 45V19.8111H341.559V45H337.689V23.4189H325.619V45H321.749ZM358.86 45.5248C356.586 45.5248 354.591 44.9836 352.875 43.9013C351.169 42.8189 349.835 41.3047 348.873 39.3587C347.922 37.4127 347.447 35.1387 347.447 32.5367C347.447 29.9129 347.922 27.6225 348.873 25.6655C349.835 23.7086 351.169 22.1889 352.875 21.1066C354.591 20.0243 356.586 19.4831 358.86 19.4831C361.134 19.4831 363.124 20.0243 364.83 21.1066C366.546 22.1889 367.88 23.7086 368.831 25.6655C369.793 27.6225 370.274 29.9129 370.274 32.5367C370.274 35.1387 369.793 37.4127 368.831 39.3587C367.88 41.3047 366.546 42.8189 364.83 43.9013C363.124 44.9836 361.134 45.5248 358.86 45.5248ZM358.86 42.0482C360.588 42.0482 362.009 41.6054 363.124 40.7198C364.239 39.8343 365.065 38.67 365.6 37.2269C366.136 35.7837 366.404 34.2204 366.404 32.5367C366.404 30.8531 366.136 29.2842 365.6 27.8302C365.065 26.3761 364.239 25.2009 363.124 24.3044C362.009 23.4079 360.588 22.9597 358.86 22.9597C357.133 22.9597 355.712 23.4079 354.597 24.3044C353.481 25.2009 352.656 26.3761 352.12 27.8302C351.585 29.2842 351.317 30.8531 351.317 32.5367C351.317 34.2204 351.585 35.7837 352.12 37.2269C352.656 38.67 353.481 39.8343 354.597 40.7198C355.712 41.6054 357.133 42.0482 358.86 42.0482ZM399.403 45.5248C397.041 45.5248 395.008 44.9672 393.302 43.8521C391.597 42.7369 390.285 41.2009 389.367 39.2439C388.448 37.287 387.989 35.0512 387.989 32.5367C387.989 29.9785 388.459 27.7209 389.399 25.7639C390.351 23.796 391.673 22.26 393.368 21.1558C395.074 20.0406 397.063 19.4831 399.337 19.4831C401.108 19.4831 402.705 19.8111 404.126 20.467C405.547 21.123 406.711 22.0413 407.619 23.2221C408.526 24.4028 409.089 25.7803 409.308 27.3546H405.438C405.143 26.2067 404.487 25.1899 403.47 24.3044C402.464 23.4079 401.108 22.9597 399.403 22.9597C397.894 22.9597 396.571 23.3533 395.434 24.1404C394.308 24.9166 393.428 26.0154 392.794 27.4366C392.171 28.8469 391.859 30.5032 391.859 32.4055C391.859 34.3516 392.165 36.0461 392.778 37.4892C393.401 38.9324 394.275 40.053 395.402 40.851C396.539 41.6491 397.872 42.0482 399.403 42.0482C400.409 42.0482 401.322 41.8732 402.142 41.5234C402.962 41.1736 403.656 40.6707 404.224 40.0147C404.793 39.3587 405.197 38.5716 405.438 37.6532H409.308C409.089 39.1401 408.548 40.4793 407.684 41.671C406.832 42.8517 405.7 43.7919 404.29 44.4916C402.89 45.1804 401.261 45.5248 399.403 45.5248ZM414.966 45V19.8111H434.776V45H430.905V23.4189H418.836V45H414.966ZM452.405 45.5248C449.978 45.5248 447.884 44.9891 446.124 43.9177C444.375 42.8353 443.024 41.3266 442.073 39.3915C441.133 37.4455 440.663 35.1824 440.663 32.6023C440.663 30.0222 441.133 27.7482 442.073 25.7803C443.024 23.8015 444.347 22.26 446.042 21.1558C447.747 20.0406 449.737 19.4831 452.011 19.4831C453.323 19.4831 454.619 19.7017 455.898 20.139C457.177 20.5764 458.341 21.287 459.391 22.2709C460.44 23.2439 461.277 24.534 461.9 26.1411C462.523 27.7482 462.834 29.727 462.834 32.0775V33.7175H443.418V30.372H458.899C458.899 28.9508 458.614 27.6826 458.046 26.5675C457.488 25.4523 456.69 24.5723 455.652 23.9272C454.624 23.2822 453.41 22.9597 452.011 22.9597C450.47 22.9597 449.136 23.3423 448.01 24.1076C446.895 24.862 446.036 25.8459 445.435 27.0594C444.834 28.273 444.533 29.574 444.533 30.9624V33.1927C444.533 35.095 444.861 36.7075 445.517 38.0304C446.184 39.3423 447.108 40.3427 448.288 41.0314C449.469 41.7093 450.841 42.0482 452.405 42.0482C453.421 42.0482 454.34 41.906 455.16 41.6218C455.991 41.3266 456.707 40.8893 457.308 40.3099C457.909 39.7195 458.374 38.987 458.702 38.1124L462.441 39.1619C462.047 40.4301 461.386 41.5453 460.457 42.5073C459.527 43.4585 458.379 44.2019 457.013 44.7376C455.646 45.2624 454.11 45.5248 452.405 45.5248ZM488.532 19.8111V41.3922H492.074V53.1339H488.204V45H468.722V19.8111H472.592V41.3922H484.662V19.8111H488.532ZM501.905 39.2931L514.04 19.8111H518.501V45H514.631V25.5179L502.561 45H498.035V19.8111H501.905V39.2931ZM533.002 45.5904C531.406 45.5904 529.957 45.2897 528.656 44.6884C527.355 44.0762 526.322 43.1961 525.557 42.0482C524.791 40.8893 524.409 39.4899 524.409 37.85C524.409 36.4069 524.693 35.2371 525.262 34.3406C525.83 33.4332 526.59 32.7226 527.541 32.2087C528.492 31.6949 529.542 31.3123 530.69 31.0608C531.848 30.7984 533.013 30.5907 534.183 30.4376C535.713 30.2409 536.954 30.0933 537.905 29.9949C538.867 29.8855 539.567 29.7052 540.004 29.4537C540.453 29.2023 540.677 28.7649 540.677 28.1418V28.0106C540.677 26.3925 540.234 25.1353 539.348 24.2388C538.474 23.3423 537.145 22.8941 535.363 22.8941C533.516 22.8941 532.067 23.2986 531.018 24.1076C529.968 24.9166 529.23 25.7803 528.804 26.6987L525.13 25.3867C525.786 23.8562 526.661 22.6645 527.754 21.8117C528.858 20.9481 530.061 20.3468 531.362 20.0079C532.674 19.658 533.964 19.4831 535.232 19.4831C536.041 19.4831 536.97 19.5815 538.02 19.7783C539.08 19.9641 540.103 20.3522 541.087 20.9426C542.081 21.533 542.907 22.424 543.563 23.6156C544.219 24.8073 544.547 26.4035 544.547 28.4042V45H540.677V41.589H540.48C540.217 42.1356 539.78 42.7205 539.168 43.3437C538.556 43.9669 537.741 44.4971 536.724 44.9344C535.708 45.3717 534.467 45.5904 533.002 45.5904ZM533.592 42.1138C535.123 42.1138 536.413 41.8131 537.462 41.2118C538.523 40.6105 539.321 39.8343 539.857 38.8832C540.403 37.932 540.677 36.9317 540.677 35.8821V32.3399C540.513 32.5367 540.152 32.7171 539.594 32.8811C539.048 33.0342 538.414 33.1708 537.692 33.2911C536.981 33.4004 536.287 33.4988 535.609 33.5863C534.942 33.6628 534.401 33.7284 533.986 33.7831C532.98 33.9142 532.04 34.1274 531.165 34.4226C530.301 34.7069 529.602 35.1387 529.066 35.7181C528.541 36.2866 528.279 37.0629 528.279 38.0468C528.279 39.3915 528.776 40.4083 529.771 41.097C530.777 41.7749 532.051 42.1138 533.592 42.1138ZM549.38 45V41.3922H550.299C551.053 41.3922 551.682 41.2446 552.185 40.9494C552.688 40.6433 553.092 40.1131 553.398 39.3587C553.715 38.5934 553.956 37.533 554.12 36.1773C554.295 34.8107 554.42 33.0724 554.497 30.9624L554.956 19.8111H571.749V45H567.879V23.4189H558.629L558.236 32.4055C558.148 34.4718 557.963 36.2921 557.678 37.8664C557.405 39.4298 556.984 40.7417 556.416 41.8022C555.858 42.8627 555.115 43.6607 554.185 44.1964C553.256 44.7321 552.092 45 550.692 45H549.38ZM582.195 28.9289H589.41C592.362 28.9289 594.62 29.6778 596.183 31.1756C597.747 32.6734 598.528 34.5702 598.528 36.8661C598.528 38.3748 598.179 39.7468 597.479 40.9822C596.779 42.2067 595.751 43.1852 594.396 43.9177C593.04 44.6392 591.378 45 589.41 45H578.85V19.8111H582.72V41.3922H589.41C590.941 41.3922 592.198 40.9877 593.182 40.1787C594.166 39.3697 594.658 38.3311 594.658 37.0629C594.658 35.7291 594.166 34.6413 593.182 33.7994C592.198 32.9576 590.941 32.5367 589.41 32.5367H582.195V28.9289ZM621.278 30.6344V34.2422H607.372V30.6344H621.278ZM608.29 19.8111V45H604.42V19.8111H608.29ZM624.23 19.8111V45H620.36V19.8111H624.23ZM641.531 45.5248C639.257 45.5248 637.262 44.9836 635.545 43.9013C633.84 42.8189 632.506 41.3047 631.544 39.3587C630.593 37.4127 630.117 35.1387 630.117 32.5367C630.117 29.9129 630.593 27.6225 631.544 25.6655C632.506 23.7086 633.84 22.1889 635.545 21.1066C637.262 20.0243 639.257 19.4831 641.531 19.4831C643.805 19.4831 645.795 20.0243 647.5 21.1066C649.216 22.1889 650.55 23.7086 651.501 25.6655C652.463 27.6225 652.944 29.9129 652.944 32.5367C652.944 35.1387 652.463 37.4127 651.501 39.3587C650.55 41.3047 649.216 42.8189 647.5 43.9013C645.795 44.9836 643.805 45.5248 641.531 45.5248ZM641.531 42.0482C643.258 42.0482 644.679 41.6054 645.795 40.7198C646.91 39.8343 647.735 38.67 648.271 37.2269C648.806 35.7837 649.074 34.2204 649.074 32.5367C649.074 30.8531 648.806 29.2842 648.271 27.8302C647.735 26.3761 646.91 25.2009 645.795 24.3044C644.679 23.4079 643.258 22.9597 641.531 22.9597C639.803 22.9597 638.382 23.4079 637.267 24.3044C636.152 25.2009 635.326 26.3761 634.791 27.8302C634.255 29.2842 633.987 30.8531 633.987 32.5367C633.987 34.2204 634.255 35.7837 634.791 37.2269C635.326 38.67 636.152 39.8343 637.267 40.7198C638.382 41.6054 639.803 42.0482 641.531 42.0482ZM672.627 39.7523L681.417 19.8111H685.091L674.202 45H671.053L660.361 19.8111H663.969L672.627 39.7523ZM662.722 19.8111V45H658.852V19.8111H662.722ZM682.532 45V19.8111H686.403V45H682.532ZM695.078 54.4459C694.422 54.4459 693.837 54.3912 693.323 54.2819C692.809 54.1835 692.454 54.0851 692.257 53.9867L693.241 50.5757C694.181 50.8162 695.012 50.9037 695.734 50.8381C696.455 50.7725 697.095 50.45 697.652 49.8705C698.221 49.302 698.74 48.3782 699.21 47.0991L699.932 45.1312L690.617 19.8111H694.815L701.769 39.8835H702.031L708.984 19.8111H713.182L702.49 48.6734C702.009 49.9744 701.413 51.0512 700.703 51.904C699.992 52.7677 699.167 53.4072 698.226 53.8227C697.297 54.2381 696.248 54.4459 695.078 54.4459ZM731.279 45V19.8111H751.089V45H747.219V23.4189H735.149V45H731.279ZM758.157 54.4459V19.8111H761.896V23.8124H762.355C762.639 23.3751 763.033 22.8176 763.536 22.1397C764.049 21.451 764.782 20.8387 765.733 20.303C766.695 19.7564 767.996 19.4831 769.636 19.4831C771.757 19.4831 773.626 20.0133 775.245 21.0738C776.863 22.1343 778.125 23.6375 779.033 25.5835C779.94 27.5295 780.394 29.8254 780.394 32.4711C780.394 35.1387 779.94 37.451 779.033 39.4079C778.125 41.3539 776.868 42.8627 775.261 43.9341C773.654 44.9945 771.801 45.5248 769.702 45.5248C768.084 45.5248 766.788 45.2569 765.815 44.7212C764.842 44.1746 764.093 43.5569 763.568 42.8681C763.044 42.1684 762.639 41.589 762.355 41.1298H762.027V54.4459H758.157ZM761.961 32.4055C761.961 34.3078 762.24 35.986 762.798 37.44C763.355 38.8832 764.17 40.0147 765.241 40.8346C766.312 41.6437 767.624 42.0482 769.177 42.0482C770.795 42.0482 772.145 41.6218 773.227 40.769C774.321 39.9054 775.141 38.7465 775.687 37.2924C776.245 35.8275 776.524 34.1985 776.524 32.4055C776.524 30.6344 776.25 29.0383 775.704 27.617C775.168 26.1848 774.353 25.0533 773.26 24.2224C772.178 23.3806 770.817 22.9597 769.177 22.9597C767.603 22.9597 766.28 23.3587 765.208 24.1568C764.137 24.944 763.328 26.0482 762.781 27.4694C762.235 28.8797 761.961 30.5251 761.961 32.4055ZM796.53 45.5248C794.256 45.5248 792.261 44.9836 790.545 43.9013C788.839 42.8189 787.506 41.3047 786.543 39.3587C785.592 37.4127 785.117 35.1387 785.117 32.5367C785.117 29.9129 785.592 27.6225 786.543 25.6655C787.506 23.7086 788.839 22.1889 790.545 21.1066C792.261 20.0243 794.256 19.4831 796.53 19.4831C798.804 19.4831 800.794 20.0243 802.5 21.1066C804.216 22.1889 805.55 23.7086 806.501 25.6655C807.463 27.6225 807.944 29.9129 807.944 32.5367C807.944 35.1387 807.463 37.4127 806.501 39.3587C805.55 41.3047 804.216 42.8189 802.5 43.9013C800.794 44.9836 798.804 45.5248 796.53 45.5248ZM796.53 42.0482C798.258 42.0482 799.679 41.6054 800.794 40.7198C801.909 39.8343 802.735 38.67 803.27 37.2269C803.806 35.7837 804.074 34.2204 804.074 32.5367C804.074 30.8531 803.806 29.2842 803.27 27.8302C802.735 26.3761 801.909 25.2009 800.794 24.3044C799.679 23.4079 798.258 22.9597 796.53 22.9597C794.803 22.9597 793.382 23.4079 792.267 24.3044C791.152 25.2009 790.326 26.3761 789.79 27.8302C789.255 29.2842 788.987 30.8531 788.987 32.5367C788.987 34.2204 789.255 35.7837 789.79 37.2269C790.326 38.67 791.152 39.8343 792.267 40.7198C793.382 41.6054 794.803 42.0482 796.53 42.0482ZM813.852 45V19.8111H824.151C826.862 19.8111 829.016 20.4233 830.612 21.6478C832.208 22.8722 833.006 24.4903 833.006 26.5019C833.006 28.0325 832.552 29.2186 831.645 30.0605C830.738 30.8914 829.573 31.4544 828.152 31.7496C829.081 31.8808 829.983 32.2087 830.858 32.7335C831.743 33.2583 832.476 33.9798 833.055 34.8982C833.635 35.8056 833.924 36.9207 833.924 38.2436C833.924 39.5337 833.596 40.6871 832.94 41.7038C832.284 42.7205 831.344 43.5241 830.12 44.1145C828.895 44.7048 827.43 45 825.725 45H813.852ZM817.525 41.4578H825.725C827.059 41.4578 828.103 41.1408 828.857 40.5067C829.611 39.8726 829.989 39.0089 829.989 37.9156C829.989 36.6146 829.611 35.5924 828.857 34.849C828.103 34.0946 827.059 33.7175 825.725 33.7175H817.525V41.4578ZM817.525 30.372H824.151C825.189 30.372 826.08 30.2299 826.824 29.9457C827.567 29.6505 828.136 29.235 828.529 28.6993C828.934 28.1527 829.136 27.5077 829.136 26.7643C829.136 25.7038 828.693 24.8729 827.808 24.2716C826.922 23.6594 825.703 23.3533 824.151 23.3533H817.525V30.372ZM850.016 45.5248C847.742 45.5248 845.747 44.9836 844.03 43.9013C842.325 42.8189 840.991 41.3047 840.029 39.3587C839.078 37.4127 838.602 35.1387 838.602 32.5367C838.602 29.9129 839.078 27.6225 840.029 25.6655C840.991 23.7086 842.325 22.1889 844.03 21.1066C845.747 20.0243 847.742 19.4831 850.016 19.4831C852.29 19.4831 854.28 20.0243 855.985 21.1066C857.702 22.1889 859.035 23.7086 859.987 25.6655C860.949 27.6225 861.43 29.9129 861.43 32.5367C861.43 35.1387 860.949 37.4127 859.987 39.3587C859.035 41.3047 857.702 42.8189 855.985 43.9013C854.28 44.9836 852.29 45.5248 850.016 45.5248ZM850.016 42.0482C851.743 42.0482 853.165 41.6054 854.28 40.7198C855.395 39.8343 856.22 38.67 856.756 37.2269C857.292 35.7837 857.559 34.2204 857.559 32.5367C857.559 30.8531 857.292 29.2842 856.756 27.8302C856.22 26.3761 855.395 25.2009 854.28 24.3044C853.165 23.4079 851.743 22.9597 850.016 22.9597C848.289 22.9597 846.867 23.4079 845.752 24.3044C844.637 25.2009 843.812 26.3761 843.276 27.8302C842.74 29.2842 842.472 30.8531 842.472 32.5367C842.472 34.2204 842.74 35.7837 843.276 37.2269C843.812 38.67 844.637 39.8343 845.752 40.7198C846.867 41.6054 848.289 42.0482 850.016 42.0482ZM864.648 52.2156V41.3922H866.747C867.261 40.8565 867.704 40.2771 868.075 39.6539C868.447 39.0307 868.77 38.2928 869.043 37.44C869.327 36.5764 869.568 35.5268 869.764 34.2914C869.961 33.0451 870.136 31.5418 870.289 29.7817L871.142 19.8111H887.147V41.3922H891.018V52.2156H887.147V45H868.518V52.2156H864.648ZM871.142 41.3922H883.277V23.4189H874.75L874.094 29.7817C873.821 32.4165 873.482 34.7178 873.077 36.6857C872.673 38.6536 872.028 40.2224 871.142 41.3922ZM898.647 54.4459C897.991 54.4459 897.406 54.3912 896.893 54.2819C896.379 54.1835 896.023 54.0851 895.827 53.9867L896.811 50.5757C897.751 50.8162 898.582 50.9037 899.303 50.8381C900.025 50.7725 900.664 50.45 901.222 49.8705C901.79 49.302 902.31 48.3782 902.78 47.0991L903.501 45.1312L894.187 19.8111H898.385L905.338 39.8835H905.601L912.554 19.8111H916.752L906.06 48.6734C905.579 49.9744 904.983 51.0512 904.272 51.904C903.562 52.7677 902.736 53.4072 901.796 53.8227C900.867 54.2381 899.817 54.4459 898.647 54.4459Z" fill="white"/>
</g>
<defs>
<clipPath id="clip0_14_199">
<rect width="919" height="56" fill="white"/>
</clipPath>
</defs>
</svg>
